<svg width="70" height="70" viewBox="0 0 70 70" fill="none" xmlns="http://www.w3.org/2000/svg">
<g clip-path="url(#clip0_14_456)">
<path d="M25.0833 15.3183C24.4536 15.4371 23.8305 15.589 23.2167 15.7733L25.0833 15.3183Z" fill="#E8EDFC"/>
<path d="M55.0189 14.1633C41.7539 9.81162 33.5055 19.4833 31.3355 22.4816C30.1038 21.8877 28.7767 21.5164 27.4155 21.3849C27.8922 19.4761 28.6137 17.637 29.5622 15.9133C31.2302 12.8282 33.9194 10.4194 37.1689 9.09995C38.1132 8.71663 39.0891 8.41606 40.0855 8.20161C41.0462 7.99067 42.021 7.85029 43.0022 7.78162C43.4518 7.73473 43.9035 7.71136 44.3555 7.71162C46.3344 7.66422 48.3048 7.98465 50.1667 8.65662C51.8921 9.25577 53.337 10.4682 54.2267 12.0633C54.3434 12.2849 54.4484 12.5066 54.5417 12.7283C54.7355 13.1943 54.895 13.674 55.0189 14.1633Z" fill="#FEB901"/>
<path d="M58.6834 15.6916C57.4817 15.2483 55.8834 16.5666 55.1134 18.6316C54.3434 20.6966 54.7167 22.715 55.895 23.17C49.4784 21.14 45.7684 22.2366 43.925 23.2983C50.8084 22.5866 57.5517 35.2216 55.2534 49C52.92 63 49.42 75.3433 28.42 64.8433C12.1334 56.7 8.48053 38.325 14.1972 28.315C15.7475 25.4319 18.3254 23.2372 21.4189 22.1666C23.3395 21.4831 25.3838 21.2166 27.4155 21.385C28.7767 21.5164 30.1038 21.8877 31.3355 22.4816C33.5055 19.4833 41.7539 9.81164 55.0189 14.1633C56.2781 14.577 57.5033 15.088 58.6834 15.6916Z" fill="#E8EDFC"/>
<path d="M43.9238 23.2983C45.0637 22.6661 46.319 22.2694 47.6152 22.1316C46.6718 22.028 45.7213 22.0073 44.7743 22.0698C44.2687 22.1004 43.8406 22.4538 43.7148 22.9444C43.5889 23.4351 43.794 23.9509 44.2225 24.2211C49.518 27.3606 53.6188 37.8011 51.7522 48.9953C50.134 58.7043 47.9488 67.6083 39.7623 68.6583C50.8772 69.9171 53.424 59.9666 55.2522 48.9999C57.5505 35.2216 50.8072 22.5866 43.9238 23.2983Z" fill="#CAD9FC"/>
<path d="M55.0189 14.1633C52.3376 13.2501 49.4962 12.9021 46.6737 13.1413C48.3221 13.2987 49.9474 13.6415 51.5189 14.1633C52.7777 14.5771 54.0025 15.0881 55.1822 15.6916C53.9805 15.2483 52.3822 16.5666 51.6122 18.6316C51.1412 19.7577 51.0931 21.0161 51.4769 22.1748C52.9764 22.3716 54.4549 22.7047 55.8939 23.17C54.7155 22.715 54.3539 20.685 55.1122 18.6316C55.8705 16.5783 57.4805 15.2483 58.6822 15.6916C57.5025 15.0881 56.2777 14.5771 55.0189 14.1633Z" fill="#CAD9FC"/>
<path d="M43.9238 23.2983C43.3513 23.601 42.8407 24.0086 42.4188 24.4999L43.9238 23.2983Z" fill="#E8EDFC"/>
<path d="M59.5 20.2416C58.7417 22.2833 57.1783 23.5783 55.9767 23.1933C55.9565 23.1951 55.9362 23.1911 55.9183 23.1816C55.9067 23.1816 55.9067 23.17 55.895 23.17C54.7167 22.715 54.355 20.685 55.1133 18.6316C55.8717 16.5783 57.4817 15.2483 58.6833 15.6916C59.885 16.135 60.2572 18.1766 59.5 20.2416Z" fill="#FEB901"/>
<path d="M32.7239 11.8883C31.4488 13.0404 30.3796 14.4016 29.5623 15.9133C28.6138 17.637 27.8922 19.4762 27.4156 21.385C25.3839 21.2166 23.3396 21.4831 21.4189 22.1666C18.3254 23.2372 15.7476 25.4319 14.1973 28.315C13.6839 19.9733 19.5406 16.8816 23.2156 15.7733C22.5273 14.805 21.4189 12.25 21.4189 5.83331C21.4189 7.11665 23.7756 8.16665 26.6689 8.16665C29.5623 8.16665 31.9189 7.11665 31.9189 5.83331C31.8828 7.88056 32.1541 9.92163 32.7239 11.8883Z" fill="#FEB901"/>
<path d="M26.6688 8.16661C29.5683 8.16661 31.9188 7.12194 31.9188 5.83327C31.9188 4.54461 29.5683 3.49994 26.6688 3.49994C23.7693 3.49994 21.4188 4.54461 21.4188 5.83327C21.4188 7.12194 23.7693 8.16661 26.6688 8.16661Z" fill="#FEB901"/>
<path d="M43.0022 4.08329V7.78163C42.021 7.8503 41.0462 7.99068 40.0855 8.20163C39.0891 8.41607 38.1132 8.71664 37.1688 9.09996V4.08329C37.1688 2.47246 38.4747 1.16663 40.0855 1.16663C41.6963 1.16663 43.0022 2.47246 43.0022 4.08329Z" fill="#FEB901"/>
<path d="M51.6005 5.005L50.2005 8.61L50.1772 8.63333L50.1667 8.65666C48.3052 7.98485 46.3351 7.66442 44.3567 7.71166L46.0717 3.16166C46.3709 2.13596 47.2069 1.35593 48.2509 1.12851C49.2948 0.901079 50.3795 1.26266 51.0783 2.07097C51.777 2.87929 51.9766 4.00494 51.6005 5.005Z" fill="#FEB901"/>
<path d="M44.3555 7.71161L44.3439 7.74661L44.3555 7.71161Z" fill="#E8EDFC"/>
<path d="M56.8739 11.1766L54.5406 12.7283C54.4472 12.5066 54.3422 12.285 54.2256 12.0633C53.3362 10.4684 51.8917 9.25602 50.1667 8.65662L50.1784 8.63328L50.2017 8.60995L53.6317 6.32328C54.972 5.42766 56.7845 5.78807 57.6801 7.12828C58.5757 8.46849 58.2141 10.281 56.8739 11.1766Z" fill="#FEB901"/>
<path d="M31.9189 64.8433C15.6334 56.6999 11.9805 38.3249 17.6972 28.3149C17.1839 19.9733 23.0405 16.8816 26.7155 15.7733C26.0272 14.8049 24.9189 12.2499 24.9189 5.83327C24.9189 4.82294 26.3877 3.96661 28.4189 3.64344C27.8402 3.55014 27.255 3.50216 26.6689 3.49994C23.7755 3.49994 21.4189 4.54994 21.4189 5.83327C21.4189 12.2499 22.5272 14.8049 23.2155 15.7733C19.5405 16.8816 13.6839 19.9733 14.1972 28.3149C8.48053 38.3249 12.1322 56.6999 28.4189 64.8433C32.7355 67.0028 38.4114 69.2766 43.2647 68.6559C39.2944 68.0355 35.4581 66.7464 31.9189 64.8433Z" fill="white"/>
<path d="M24.0673 60.7833L22.6556 62.6418C20.0762 60.6832 17.8167 58.3359 15.9578 55.6838L17.8711 54.348C19.5909 56.8009 21.6812 58.9719 24.0673 60.7833Z" fill="white"/>
<path d="M11.1312 44.576C11.2458 45.1147 11.7215 45.4999 12.2722 45.5C12.3541 45.4998 12.4358 45.4916 12.5161 45.4755C12.8189 45.4111 13.0837 45.229 13.2522 44.9692C13.4207 44.7095 13.4791 44.3934 13.4144 44.0906C12.183 39.0742 12.7679 33.7837 15.0652 29.1573C15.1751 29.0348 15.2578 28.8905 15.3079 28.7338C16.7314 26.1851 19.0369 24.2442 21.7911 23.2761C23.5571 22.6492 25.4354 22.4015 27.3036 22.5493C28.5278 22.669 29.7215 23.0027 30.8304 23.5351C35.7689 25.9186 38.1606 31.8266 38.7731 33.5685C38.9014 33.9406 38.9667 34.1576 38.9702 34.1693C39.1656 34.7745 39.8096 35.1118 40.4183 34.9276C41.027 34.7435 41.3761 34.1058 41.2032 33.4938C41.2032 33.4938 41.1286 33.2441 40.9769 32.8031C40.1602 30.478 37.8269 25.0681 33.0891 22.1235C35.9894 18.578 43.4176 11.585 54.6619 15.2693C54.9932 15.3778 55.3257 15.5143 55.6582 15.6403C54.1726 17.1555 53.4197 19.2422 53.5956 21.357C48.5066 20.265 45.2679 21.1925 43.3744 22.2751L43.3546 22.2868C42.6424 22.6677 42.0105 23.1827 41.4937 23.8035C41.2361 24.1569 41.1978 24.6247 41.3945 25.0153C41.5911 25.4059 41.9897 25.6538 42.4271 25.6573C42.7873 25.6575 43.1279 25.4934 43.3522 25.2116C43.6279 24.9181 43.9418 24.663 44.2856 24.4533C45.9084 24.485 47.4525 25.1583 48.5801 26.3258C52.3309 29.8025 54.7226 37.0265 54.5301 44.3041C54.5138 44.9481 55.0224 45.4834 55.6664 45.5H55.6979C56.3306 45.5002 56.8481 44.9961 56.8646 44.3636C57.0769 36.3335 54.4484 28.5833 50.1667 24.6166C49.6056 24.0954 48.9909 23.6351 48.3327 23.2435C50.7615 23.1283 53.1901 23.476 55.4891 24.2678H55.5042C55.7983 24.3635 56.1041 24.4189 56.4131 24.4323C57.2271 24.405 58.0063 24.0953 58.6169 23.5561C59.5157 22.7751 60.1956 21.7736 60.5897 20.65C61.1928 19.2055 61.2204 17.5851 60.6667 16.121C60.3811 15.4708 59.8667 14.9482 59.2212 14.6521C58.1675 14.1206 57.0802 13.6584 55.9662 13.2685L55.9452 13.2008L57.5249 12.1508C58.4279 11.5499 59.0548 10.6143 59.2671 9.55059C59.4794 8.48685 59.2597 7.38236 58.6566 6.4808C58.055 5.58016 57.1202 4.95543 56.0579 4.74407C54.9957 4.53271 53.8929 4.75204 52.9924 5.3538L52.6319 5.59413L52.7159 5.37713C53.2415 3.80784 52.7678 2.07651 51.5166 0.993273C50.2654 -0.0899607 48.4841 -0.310849 47.0062 0.433968C46.0507 0.905711 45.3229 1.73932 44.9844 2.7498L44.1677 4.9023V4.0833C44.1677 1.82814 42.3396 -3.18715e-05 40.0844 -3.18715e-05C37.8292 -3.18715e-05 36.0011 1.82814 36.0011 4.0833V8.3603C35.1016 8.77648 34.2421 9.27399 33.4332 9.84663C33.1962 8.52218 33.0814 7.17876 33.0902 5.8333C33.0902 1.2378 20.2569 1.2378 20.2569 5.8333C20.2569 10.6271 20.8647 13.4516 21.5542 15.1153C17.7182 16.5958 12.7086 20.0666 13.0294 28.0198C10.4543 33.1391 9.78157 39.0067 11.1312 44.576ZM30.9646 21.0525C30.2948 20.7904 29.604 20.5855 28.8996 20.44C29.3369 19.0666 29.9049 17.7382 30.5959 16.4733C31.3515 15.0754 32.3407 13.8171 33.5207 12.7528C35.4524 11.0232 37.8131 9.84428 40.3562 9.33913C45.0964 8.2588 51.1001 8.98913 53.0904 12.4238C41.3596 9.79063 33.7482 17.507 30.9587 21.0525H30.9646ZM58.4069 19.8415C58.1545 20.5762 57.7193 21.2346 57.1422 21.7548C56.7771 22.0558 56.4761 22.1456 56.3349 22.0873C56.1937 22.029 56.0187 21.7758 55.9359 21.3103C55.769 19.7479 56.3417 18.1973 57.4841 17.1185C57.9507 16.7393 58.3136 16.5795 58.5516 17.0963C58.84 17.9988 58.7864 18.9759 58.4011 19.8415H58.4069ZM54.2851 7.2928C54.8753 6.89496 55.6477 6.89428 56.2387 7.29107C56.8296 7.68785 57.1214 8.40305 56.9766 9.09997C56.8866 9.55314 56.6184 9.9512 56.2322 10.2048L54.9722 11.0436C54.3324 10.0242 53.4725 9.16076 52.4557 8.51663L54.2851 7.2928ZM47.1836 3.52447C47.3277 3.08682 47.6406 2.72482 48.0527 2.5188C48.4711 2.30932 48.956 2.27613 49.3991 2.42663C50.2929 2.72532 50.7878 3.68004 50.5167 4.58263L49.5029 7.1913C48.371 6.8651 47.2074 6.66132 46.0321 6.58347L47.1836 3.52447ZM38.3402 4.0833C38.3402 3.1168 39.1237 2.3333 40.0902 2.3333C41.0567 2.3333 41.8402 3.1168 41.8402 4.0833V6.70947C41.1612 6.79813 40.4927 6.91363 39.8464 7.05947C39.3272 7.1703 38.8361 7.32897 38.3402 7.4783V4.0833ZM26.6736 4.66663C29.1761 4.66663 30.5866 5.48913 30.7499 5.8333C30.5866 6.17747 29.1761 6.99997 26.6736 6.99997C24.1232 6.99997 22.7069 6.14597 22.5902 5.86247V5.85197C22.7092 5.52063 24.1232 4.66663 26.6736 4.66663ZM23.5574 16.8898C24.1293 16.7168 24.7099 16.5742 25.2969 16.4628C25.9177 16.3319 26.3202 15.7289 26.2028 15.1053C26.0854 14.4818 25.4912 14.0664 24.8652 14.1703C24.5152 14.2368 24.1559 14.343 23.8001 14.4316C23.0852 12.5769 22.7041 10.6103 22.6742 8.6228C23.9509 9.10878 25.3077 9.34981 26.6736 9.3333C28.1209 9.35475 29.5573 9.08001 30.8946 8.52597C30.9931 9.5423 31.1686 10.5497 31.4196 11.5395C30.2792 12.6655 29.3092 13.9519 28.5402 15.358C27.7048 16.8907 27.0356 18.5083 26.5441 20.1833C24.6762 20.1526 22.8173 20.4487 21.0514 21.0583C19.0121 21.7465 17.1652 22.9088 15.6626 24.4498C16.7464 19.9406 20.3619 17.85 23.5574 16.8898Z" fill="#161335"/>
<path d="M19.8929 59.7835C19.2485 59.7867 18.7236 59.267 18.7204 58.6226C18.7171 57.9783 19.2369 57.4534 19.8812 57.4501H19.8929C20.5372 57.4501 21.0595 57.9725 21.0595 58.6168C21.0595 59.2611 20.5372 59.7835 19.8929 59.7835Z" fill="#161335"/>
<path d="M17.0217 53.053C16.8086 52.6855 16.4126 52.4628 15.9879 52.4718C15.5632 52.4807 15.1769 52.7197 14.9794 53.0958C14.782 53.4719 14.8045 53.9256 15.0383 54.2803C15.3292 54.7516 15.6353 55.2183 15.9565 55.6803C16.1903 56.034 16.5975 56.2331 17.0202 56.2002C17.4429 56.1673 17.8145 55.9077 17.9908 55.5221C18.1671 55.1365 18.1203 54.6857 17.8687 54.3445C17.5731 53.9183 17.2908 53.4878 17.0217 53.053Z" fill="#161335"/>
<path d="M54.6292 52.5245C53.9987 52.3929 53.381 52.7971 53.249 53.4275C52.2608 58.1291 50.6263 63.84 46.7157 66.2701C44.2855 67.7868 41.1227 68.0108 37.0405 66.9701C35.7114 66.627 34.4062 66.1971 33.1333 65.6833C31.8115 65.1653 30.401 64.533 28.9333 63.8015C27.22 62.9453 25.5888 61.9338 24.0602 60.7798C23.5518 60.4045 22.8383 60.4949 22.4397 60.9851C22.2413 61.2292 22.1514 61.5438 22.1909 61.8558C22.2303 62.1678 22.3956 62.4501 22.6485 62.6371C24.2927 63.8796 26.0477 64.968 27.8915 65.8886C29.4163 66.6516 30.8933 67.3131 32.2782 67.8556C33.6424 68.4046 35.0411 68.8637 36.4653 69.23C38.1461 69.6824 39.8769 69.9227 41.6173 69.9451C43.8467 69.9953 46.0439 69.4071 47.95 68.25C52.605 65.3531 54.446 59.0625 55.5333 53.9C55.6619 53.2708 55.2578 52.656 54.6292 52.5245Z" fill="#161335"/>
<path d="M66.5001 47.8333H46.2689L43.0722 40.3736C42.8749 39.944 42.446 39.6681 41.9732 39.6666C41.4967 39.6772 41.0745 39.9765 40.9069 40.4226L35.0094 56.1516L27.9277 36.9296C27.7607 36.4764 27.3316 36.173 26.8487 36.1665C26.3657 36.1601 25.9287 36.4519 25.7495 36.9005L21.3769 47.8333H3.50004C2.85571 47.8333 2.33337 48.3556 2.33337 49C2.33337 49.6443 2.85571 50.1666 3.50004 50.1666H22.1667C22.6441 50.1668 23.0734 49.8761 23.2505 49.4328L26.789 40.586L33.9057 59.9036C34.0748 60.362 34.5115 60.6665 35 60.6666C35.4864 60.6671 35.922 60.3659 36.0932 59.9106L42.0724 43.9635L44.4279 49.4596C44.6117 49.8885 45.0334 50.1666 45.5 50.1666H66.5001C67.1444 50.1666 67.6667 49.6443 67.6667 49C67.6667 48.3556 67.1444 47.8333 66.5001 47.8333Z" fill="#161335"/>
</g>
<defs>
<clipPath id="clip0_14_456">
<rect width="70" height="70" fill="white"/>
</clipPath>
</defs>
</svg>
