<svg width="70" height="70" viewBox="0 0 70 70" fill="none" xmlns="http://www.w3.org/2000/svg">
<g clip-path="url(#clip0_14_690)">
<path d="M57.9834 40.5884C55.0738 42.4037 52.0584 44.0439 48.9534 45.5C43.358 48.0953 38.5452 52.1193 35.0001 57.1667C31.4549 52.1193 26.6422 48.0953 21.0467 45.5C17.9417 44.0439 14.9264 42.4037 12.0167 40.5884C12.2099 39.0976 12.4983 37.6207 12.8801 36.1667C13.1362 36.1547 13.3816 36.0607 13.5801 35.8984L14.7234 34.9767C17.6867 37.3917 23.8584 40.8334 35.0001 40.8334C46.1417 40.8334 52.3134 37.3917 55.2767 34.9767L56.4201 35.8984C56.6185 36.0607 56.864 36.1547 57.1201 36.1667C57.5018 37.6207 57.7902 39.0976 57.9834 40.5884Z" fill="#E8EDFC"/>
<path d="M57.12 36.1667C56.8639 36.1547 56.6185 36.0607 56.42 35.8984L55.2767 34.9767C54.7462 35.405 54.194 35.8057 53.6223 36.1772C54.0028 37.6278 54.2904 39.1012 54.4833 40.5884C51.5737 42.4037 48.5583 44.0439 45.4533 45.5C40.7806 47.7346 36.6246 50.918 33.25 54.8474C33.8844 55.5806 34.469 56.3554 35 57.1667C38.5452 52.1193 43.3579 48.0953 48.9533 45.5C52.0583 44.0439 55.0737 42.4037 57.9833 40.5884C57.7901 39.0976 57.5018 37.6207 57.12 36.1667Z" fill="#FEBA01"/>
<path d="M35 57.1667V68.8217H18.5267C18.1004 68.8184 17.7086 68.5869 17.5 68.215C12.8126 59.8119 10.8939 50.1448 12.0167 40.5884C14.9263 42.4037 17.9417 44.0439 21.0467 45.5C26.6421 48.0953 31.4549 52.1193 35 57.1667Z" fill="#E8EDFC"/>
<path d="M21.0467 45.5C17.9417 44.0439 14.9263 42.4037 12.0167 40.5884C11.9292 41.237 11.8627 41.888 11.8079 42.5414C13.3385 43.393 15.218 44.3754 17.5467 45.5C23.1421 48.0953 27.9548 52.1193 31.5 57.1667V68.8217H35V57.1667C31.4548 52.1193 26.6421 48.0953 21.0467 45.5Z" fill="#FEBA01"/>
<path d="M52.5 68.215C52.2915 68.5869 51.8996 68.8184 51.4733 68.8217H35V57.1667C38.5452 52.1193 43.3579 48.0953 48.9533 45.5C52.0583 44.0439 55.0737 42.4037 57.9833 40.5884C59.1061 50.1448 57.1874 59.8119 52.5 68.215Z" fill="#E8EDFC"/>
<path d="M57.9834 40.5884C57.1376 41.132 56.0514 41.7854 54.6922 42.5414C55.3239 51.4701 53.3463 60.39 49.0001 68.215C48.7915 68.5869 48.3997 68.8184 47.9734 68.8217H51.4734C51.8997 68.8184 52.2915 68.5869 52.5001 68.215C57.1874 59.8119 59.1062 50.1448 57.9834 40.5884Z" fill="#FEBA01"/>
<path d="M55.2767 34.9767C52.3134 37.3917 46.1417 40.8334 35.0001 40.8334C23.8584 40.8334 17.6867 37.3917 14.7234 34.9767L25.2467 26.565C25.5142 26.3434 25.669 26.0141 25.669 25.6667C25.669 25.3193 25.5142 24.99 25.2467 24.7684L18.2584 19.18C19.4545 13.6859 18.8575 7.95309 16.5551 2.82335C16.3885 2.4635 16.4161 2.04369 16.6284 1.70876C16.8407 1.37384 17.2085 1.16967 17.6051 1.16669H52.3951C52.7916 1.16967 53.1594 1.37384 53.3717 1.70876C53.584 2.04369 53.6116 2.4635 53.4451 2.82335C51.1426 7.95309 50.5456 13.6859 51.7417 19.18L44.7534 24.7684C44.4859 24.99 44.3311 25.3193 44.3311 25.6667C44.3311 26.0141 44.4859 26.3434 44.7534 26.565L55.2767 34.9767Z" fill="#E8EDFC"/>
<path d="M44.7533 26.565C44.4859 26.3434 44.3311 26.0141 44.3311 25.6667C44.3311 25.3193 44.4859 24.99 44.7533 24.7684L51.7417 19.18C50.5455 13.6859 51.1425 7.95309 53.445 2.82335C53.6116 2.4635 53.5839 2.04369 53.3717 1.70876C53.1594 1.37384 52.7915 1.16967 52.395 1.16669H48.895C49.2915 1.16967 49.6594 1.37384 49.8717 1.70876C50.0839 2.04369 50.1116 2.4635 49.945 2.82335C47.6425 7.95309 47.0455 13.6859 48.2417 19.18L41.2533 24.7684C40.9859 24.99 40.8311 25.3193 40.8311 25.6667C40.8311 26.0141 40.9859 26.3434 41.2533 26.565L51.7767 34.9767C48.9767 37.2622 43.2903 40.46 33.25 40.7995C33.8217 40.8194 34.4003 40.8334 35 40.8334C46.1417 40.8334 52.3133 37.3917 55.2767 34.9767L44.7533 26.565Z" fill="#FEBA01"/>
<path d="M68.8333 22.1666V29.1666C68.8295 30.4537 67.7871 31.4961 66.5 31.5H58.3333V35C58.3336 35.3177 58.2043 35.6217 57.9753 35.8419C57.7463 36.0621 57.4374 36.1794 57.12 36.1666C56.8639 36.1547 56.6185 36.0606 56.42 35.8983L55.2767 34.9766L44.7533 26.565C44.4859 26.3433 44.3311 26.014 44.3311 25.6666C44.3311 25.3193 44.4859 24.99 44.7533 24.7683L51.7417 19.18L56.42 15.435C56.7681 15.1451 57.2525 15.0828 57.6625 15.2754C58.0725 15.4679 58.3341 15.8803 58.3333 16.3333V19.8333H66.5C67.7887 19.8333 68.8333 20.878 68.8333 22.1666Z" fill="#FEBA01"/>
<path d="M66.5 19.8333H63C64.2887 19.8333 65.3333 20.878 65.3333 22.1666V29.1666C65.3295 30.4537 64.2871 31.4961 63 31.5H66.5C67.7871 31.4961 68.8295 30.4537 68.8333 29.1666V22.1666C68.8333 20.878 67.7887 19.8333 66.5 19.8333Z" fill="#FEBA01"/>
<path d="M25.2466 26.565L14.7233 34.9766L13.58 35.8983C13.3815 36.0606 13.1361 36.1547 12.88 36.1666C12.5625 36.1794 12.2537 36.0621 12.0247 35.8419C11.7957 35.6217 11.6664 35.3177 11.6666 35V31.5H3.49996C2.21289 31.4961 1.17047 30.4537 1.16663 29.1666V22.1666C1.16663 20.878 2.21129 19.8333 3.49996 19.8333H11.6666V16.3333C11.6659 15.8803 11.9274 15.4679 12.3375 15.2754C12.7475 15.0828 13.2319 15.1451 13.58 15.435L18.2583 19.18L25.2466 24.7683C25.5141 24.99 25.6689 25.3193 25.6689 25.6666C25.6689 26.014 25.5141 26.3433 25.2466 26.565Z" fill="#FEBA01"/>
<path d="M25.2466 24.7683L18.2583 19.18L13.58 15.435C13.2319 15.1451 12.7475 15.0828 12.3375 15.2754C11.9274 15.4679 11.6659 15.8803 11.6666 16.3333V16.7055L14.7583 19.18L21.7466 24.7683C22.0141 24.99 22.1689 25.3193 22.1689 25.6666C22.1689 26.014 22.0141 26.3433 21.7466 26.565L11.6666 34.622V35C11.6664 35.3177 11.7957 35.6217 12.0247 35.8419C12.2537 36.0621 12.5625 36.1794 12.88 36.1666C13.1361 36.1547 13.3815 36.0606 13.58 35.8983L14.7233 34.9766L25.2466 26.565C25.5141 26.3433 25.6689 26.014 25.6689 25.6666C25.6689 25.3193 25.5141 24.99 25.2466 24.7683Z" fill="#FEBA01"/>
<path d="M15.1666 16.7055L13.58 15.435C13.2319 15.1451 12.7475 15.0829 12.3375 15.2754C11.9274 15.4679 11.6659 15.8804 11.6666 16.3334L11.6666 19.8334H15.1666V16.7055Z" fill="white"/>
<path d="M21.7583 19.18C22.9544 13.6859 22.3574 7.95309 20.0549 2.82335C19.8884 2.4635 19.916 2.04369 20.1283 1.70876C20.3406 1.37384 20.7084 1.16967 21.1049 1.16669H17.6049C17.2084 1.16967 16.8406 1.37384 16.6283 1.70876C16.416 2.04369 16.3884 2.4635 16.5549 2.82335C18.5097 7.16878 19.236 11.9669 18.6549 16.6962L21.7583 19.18Z" fill="white"/>
<path d="M4.66663 29.1667V22.1667C4.66663 20.878 5.7113 19.8334 6.99996 19.8334H3.49996C2.21129 19.8334 1.16663 20.878 1.16663 22.1667V29.1667C1.17047 30.4538 2.21289 31.4962 3.49996 31.5H6.99996C5.71289 31.4962 4.67047 30.4538 4.66663 29.1667Z" fill="white"/>
<path d="M21 68.215C16.6537 60.3899 14.6761 51.4701 15.3078 42.5413C15.4917 40.3909 15.8503 38.259 16.38 36.1667C16.0625 36.1794 15.7537 36.0621 15.5247 35.8419C15.2957 35.6217 15.1664 35.3177 15.1666 35V31.5H11.6666V35C11.6664 35.3177 11.7957 35.6217 12.0247 35.8419C12.2537 36.0621 12.5625 36.1794 12.88 36.1667C12.3503 38.259 11.9918 40.3909 11.8078 42.5413C11.1761 51.4701 13.1537 60.3899 17.5 68.215C17.7085 68.5868 18.1003 68.8184 18.5266 68.8217H22.0266C21.6003 68.8184 21.2085 68.5868 21 68.215Z" fill="white"/>
<path d="M12.7236 60.0052L14.9485 59.3052C15.8628 62.2003 17.0593 64.9986 18.5208 67.6597L16.4791 68.789C14.9428 65.991 13.685 63.049 12.7236 60.0052Z" fill="white"/>
<path d="M15.4782 65.1992C14.8338 65.2024 14.3089 64.6827 14.3057 64.0383C14.3025 63.394 14.8222 62.8691 15.4665 62.8658H15.4782C16.1225 62.8658 16.6448 63.3882 16.6448 64.0325C16.6448 64.6768 16.1225 65.1992 15.4782 65.1992Z" fill="#171335"/>
<path d="M35 28C35.6444 28 36.1667 27.4777 36.1667 26.8334V24.5C36.1667 23.8557 35.6444 23.3334 35 23.3334C34.3557 23.3334 33.8334 23.8557 33.8334 24.5V26.8334C33.8334 27.4777 34.3557 28 35 28Z" fill="#171335"/>
<path d="M66.5 18.6667H59.5V16.3333C59.5008 15.4315 58.9818 14.61 58.1671 14.2234C57.3524 13.8367 56.3878 13.9542 55.6897 14.525L52.5618 17.0287C51.8974 12.3674 52.5715 7.61321 54.5055 3.32033C54.8428 2.59772 54.7878 1.75287 54.3595 1.08018C53.9312 0.407478 53.189 0.000103413 52.3915 0H17.6085C16.8115 7.63817e-05 16.0696 0.406976 15.6412 1.07906C15.2127 1.75114 15.157 2.59542 15.4933 3.318C17.4279 7.61073 18.1024 12.3649 17.4382 17.0263L14.3267 14.5378C13.6307 13.9582 12.6622 13.8336 11.8422 14.2183C11.0222 14.6031 10.499 15.4276 10.5 16.3333V18.6667H3.5C2.57174 18.6667 1.6815 19.0354 1.02513 19.6918C0.368749 20.3482 0 21.2384 0 22.1667V29.1667C0 31.0997 1.567 32.6667 3.5 32.6667H10.5V35C10.5021 35.7626 10.8829 36.4744 11.5162 36.8993C11.2537 38.031 11.0238 39.2035 10.8605 40.4367C10.0493 47.018 10.6863 53.6971 12.7272 60.0063C12.8176 60.3065 13.0265 60.5569 13.3057 60.6996C13.5849 60.8423 13.9102 60.8649 14.2065 60.7623C14.8059 60.5541 15.1347 59.9105 14.952 59.3028C13.2148 53.9019 12.5502 48.2136 12.9955 42.5577C15.0652 43.7873 17.5887 45.1243 20.538 46.5512C25.8147 49.0406 30.3852 52.8101 33.8333 57.5167V67.6562H18.522C18.2105 67.0917 17.5004 66.8867 16.9359 67.1982C16.3715 67.5098 16.1665 68.2199 16.478 68.7843C16.8918 69.5294 17.6779 69.9906 18.5302 69.9883H34.944C34.9638 69.9883 34.9802 70 35 70C35.0198 70 35.0362 69.9895 35.056 69.9883H51.4698C52.3218 69.9919 53.108 69.5308 53.5208 68.7855C58.3271 60.161 60.2931 50.2412 59.1395 40.4355C58.9762 39.2023 58.7463 38.0298 58.4838 36.8982C59.1168 36.4735 59.4975 35.7622 59.5 35V32.6667H66.5C68.433 32.6667 70 31.0997 70 29.1667V22.1667C70 20.2337 68.433 18.6667 66.5 18.6667ZM17.6085 2.33333H52.3892C50.0815 7.46185 49.4109 13.1771 50.4688 18.7005L44.0055 23.8723C43.4702 24.3182 43.162 24.9799 43.1654 25.6766C43.1688 26.3733 43.4833 27.032 44.023 27.4727L53.3657 34.9463C50.3452 37.0125 44.5982 39.6667 35 39.6667C25.4018 39.6667 19.6548 37.0113 16.6343 34.9463L25.9945 27.4563C26.5298 27.0105 26.8379 26.3487 26.8346 25.652C26.8312 24.9554 26.5167 24.2966 25.977 23.856L19.5312 18.7005C20.5898 13.1769 19.9184 7.46122 17.6085 2.33333ZM3.5 30.3333C2.85567 30.3333 2.33333 29.811 2.33333 29.1667V22.1667C2.33333 21.5223 2.85567 21 3.5 21H11.6667C12.311 21 12.8333 20.4777 12.8333 19.8333L12.852 16.3485L17.5432 20.09C17.5695 20.1134 17.5971 20.1352 17.626 20.1553L24.5187 25.6515L12.8333 35.007V31.5C12.8333 30.8557 12.311 30.3333 11.6667 30.3333H3.5ZM21.5495 44.45C18.7232 43.1117 15.9674 41.6293 13.293 40.0085C13.4482 38.9935 13.643 38.0182 13.8658 37.0918C14.0242 37.0149 14.1733 36.9202 14.3103 36.8095L14.7385 36.4665C18.3167 39.1148 24.605 42 35 42C45.395 42 51.6833 39.1148 55.2615 36.463L55.6722 36.7908C55.8154 36.9068 55.9721 37.0051 56.1388 37.0837C56.3652 38.017 56.5565 38.9923 56.7117 40.0085C54.036 41.6292 51.2791 43.1116 48.4517 44.45C43.2057 46.9362 38.6028 50.5974 35 55.1495C31.3979 50.5971 26.7954 46.9359 21.5495 44.45ZM51.4698 67.655H36.1667V57.5167C39.6164 52.8094 44.1884 49.0396 49.4667 46.55C52.423 45.1208 54.95 43.7803 57.0232 42.5472C57.6585 51.2788 55.7283 60.0058 51.4698 67.655ZM67.6667 29.1667C67.6667 29.811 67.1443 30.3333 66.5 30.3333H58.3333C57.689 30.3333 57.1667 30.8557 57.1667 31.5V35L45.4813 25.6795L57.1667 16.3333V19.8333C57.1667 20.4777 57.689 21 58.3333 21H66.5C67.1443 21 67.6667 21.5223 67.6667 22.1667V29.1667Z" fill="#171335"/>
<path d="M22.2168 10.717C22.2767 11.3127 22.7778 11.7664 23.3765 11.767C23.4153 11.7695 23.4543 11.7695 23.4931 11.767C24.1341 11.7055 24.604 11.1363 24.5431 10.4953C24.4322 9.31995 24.2569 8.15153 24.0181 6.99532H29.1666C29.811 6.99532 30.3333 6.47299 30.3333 5.82865C30.3333 5.18432 29.811 4.66199 29.1666 4.66199H22.5458C22.1851 4.66181 21.8445 4.8285 21.6234 5.11351C21.4023 5.39852 21.3255 5.76979 21.4153 6.11915C21.8024 7.62842 22.0704 9.16576 22.2168 10.717Z" fill="#171335"/>
</g>
<defs>
<clipPath id="clip0_14_690">
<rect width="70" height="70" fill="white"/>
</clipPath>
</defs>
</svg>
