<svg width="70" height="70" viewBox="0 0 70 70" fill="none" xmlns="http://www.w3.org/2000/svg">
<g clip-path="url(#clip0_14_358)">
<path d="M24.1383 67.2934C22.3372 68.6143 20.0574 69.1025 17.8733 68.635C17.331 68.4932 16.8094 68.2814 16.3217 68.005C15.8289 68.2795 15.3037 68.4912 14.7583 68.635C9.75334 69.9184 4.00167 64.925 1.91334 57.4584C-0.174993 49.9917 2.21667 42.8984 7.23334 41.615C8.71211 41.2504 10.2697 41.3816 11.6667 41.9884C12.2501 42.22 12.8089 42.5092 13.335 42.8517C15.1544 44.0068 17.4773 44.0068 19.2967 42.8517C19.9079 42.4644 20.5568 42.14 21.2333 41.8834L23.9983 66.7567C24.0145 66.9422 24.0618 67.1236 24.1383 67.2934Z" fill="#FEB901"/>
<path d="M23.9984 66.7567L21.2334 41.8834C20.5568 42.14 19.9079 42.4644 19.2967 42.8517C18.8666 43.1261 18.4 43.3385 17.9107 43.4829L20.4984 66.7567C20.5145 66.9422 20.5619 67.1236 20.6384 67.2933C19.7583 67.8882 18.784 68.33 17.7567 68.6C17.7964 68.6105 17.8337 68.628 17.8733 68.6385C20.0575 69.1059 22.3372 68.6177 24.1384 67.2968C24.0615 67.126 24.0141 66.9434 23.9984 66.7567Z" fill="#FAAE0A"/>
<path d="M17.01 40.0051C16.625 41.5334 14.315 42.3151 11.6667 41.8601C11.4217 41.8251 11.1883 41.7784 10.9433 41.7201C8.91332 41.2184 5.97332 38.8967 4.36333 37.5201C4.13396 37.3285 4.03545 37.022 4.11027 36.7327C4.18509 36.4434 4.41986 36.2231 4.71333 36.1667C6.76666 35.7467 10.4183 35.1517 12.4483 35.6534C15.3883 36.3767 17.43 38.3251 17.01 40.0051Z" fill="#E8EDFC"/>
<path d="M55.9883 18.9233L55.0433 27.37L51.3217 29.2366C48.3856 30.6949 44.9361 30.6949 42 29.2366L41.9883 29.225C39.0532 27.7627 35.6019 27.7627 32.6667 29.225C29.7292 30.695 26.2708 30.695 23.3334 29.225L19.6234 27.37H19.6117L19.1334 23.03L18.6784 18.9233C18.6072 18.2638 18.8195 17.6051 19.2622 17.1111C19.705 16.6172 20.3367 16.3345 21 16.3333H53.6667C54.33 16.3345 54.9617 16.6172 55.4045 17.1111C55.8472 17.6051 56.0595 18.2638 55.9883 18.9233Z" fill="#E8EDFC"/>
<path d="M53.6666 16.3333H50.1666C50.83 16.3345 51.4617 16.6172 51.9044 17.1111C52.3472 17.6051 52.5594 18.2638 52.4883 18.9233L51.5433 27.37L47.8216 29.2366C46.9037 29.6889 45.924 30.0034 44.9143 30.17C47.095 30.5448 49.3384 30.218 51.3216 29.2366L55.0433 27.37L55.9883 18.9233C56.0594 18.2638 55.8472 17.6051 55.4044 17.1111C54.9617 16.6172 54.33 16.3345 53.6666 16.3333Z" fill="#CAD9FC"/>
<path d="M50.4583 67.4917C50.0717 68.3084 49.2503 68.8303 48.3467 68.8334H26.32C25.3386 68.8385 24.4622 68.2199 24.1384 67.2934C24.0619 67.1236 24.0145 66.9422 23.9984 66.7567L21.2334 41.8834L19.6234 27.3701L23.3334 29.2251C26.2708 30.6951 29.7292 30.6951 32.6667 29.2251C35.6019 27.7628 39.0532 27.7628 41.9883 29.2251L42 29.2367C44.9361 30.695 48.3856 30.695 51.3217 29.2367L55.0433 27.3701L52.8617 47.005C52.8617 47.005 51.3333 61.8334 50.4583 67.4917Z" fill="#E8EDFC"/>
<path d="M51.3368 29.2297L49.7117 43.8551L52.8617 47.005L55.0433 27.3701L51.3368 29.2297Z" fill="#CAD9FC"/>
<path d="M25.1417 16.3333H21C20.3366 16.3345 19.705 16.6172 19.2622 17.1111C18.8194 17.6051 18.6072 18.2638 18.6783 18.9233L19.1333 23.03C16.2519 22.3474 13.5831 20.9649 11.3633 19.005C10.1381 17.7932 9.41344 16.1648 9.33334 14.4433C11.3517 12.3783 10.9433 8.70334 10.9433 8.70334C10.9433 8.70334 14.63 9.10001 16.6833 7.07001L16.695 7.08167C18.4154 7.16637 20.0421 7.8903 21.2567 9.11167C23.0915 11.1869 24.4212 13.6586 25.1417 16.3333Z" fill="#FEB901"/>
<path d="M21.2566 9.11167C20.0421 7.8903 18.4153 7.16637 16.695 7.08167L16.6833 7.07001C16.4167 7.33087 16.1198 7.55883 15.799 7.74901C16.5253 8.08687 17.1876 8.5479 17.7566 9.11167C19.5915 11.1869 20.9212 13.6586 21.6416 16.3333H25.1416C24.4212 13.6586 23.0915 11.1869 21.2566 9.11167Z" fill="#FAAE0A"/>
<path d="M15.1783 18.9233L15.4887 21.7233C16.654 22.2863 17.8757 22.7243 19.1333 23.03L18.6783 18.9233C18.6072 18.2638 18.8194 17.6051 19.2622 17.1111C19.705 16.6172 20.3366 16.3345 21 16.3333H17.5C16.8366 16.3345 16.205 16.6172 15.7622 17.1111C15.3194 17.6051 15.1072 18.2638 15.1783 18.9233Z" fill="#FAAE0A"/>
<path d="M18.3983 2.45C18.4131 4.13506 17.8162 5.76828 16.7183 7.04667C16.7067 7.05834 16.695 7.07 16.6833 7.07C14.63 9.1 10.9433 8.70334 10.9433 8.70334C10.9433 8.70334 10.5466 4.97 12.6 2.92833C13.8784 1.83045 15.5116 1.23354 17.1967 1.24833C17.519 1.23608 17.8318 1.35875 18.0598 1.58682C18.2879 1.81488 18.4106 2.1277 18.3983 2.45Z" fill="#E8EDFC"/>
<path d="M9.33334 14.4434L9.29834 14.4784C8.01904 15.5733 6.38548 16.1662 4.70168 16.1467C4.37938 16.1589 4.06656 16.0363 3.83849 15.8082C3.61043 15.5801 3.48776 15.2673 3.50001 14.945C3.47964 13.259 4.07725 11.6239 5.18001 10.3484C7.22168 8.29502 10.9433 8.70335 10.9433 8.70335C10.9433 8.70335 11.3517 12.3784 9.33334 14.4434Z" fill="#E8EDFC"/>
<path d="M68.404 64.5984C65.2317 67.3483 61.169 68.8532 56.9707 68.8334C52.3191 68.8362 47.8571 66.9897 44.5677 63.7007C41.2782 60.4118 39.4312 55.95 39.4334 51.2984C39.4136 47.1001 40.9185 43.0374 43.6684 39.8651C43.876 39.6094 44.1821 39.4534 44.511 39.4356C44.8399 39.4178 45.161 39.5399 45.395 39.7717L47.845 42.2217C42.8615 47.2547 42.8815 55.3686 47.8898 60.377C52.8981 65.3853 61.0121 65.4053 66.045 60.4217L68.495 62.8717C68.7271 63.1054 68.8496 63.4263 68.8323 63.7552C68.815 64.0841 68.6594 64.3904 68.404 64.5984Z" fill="#FEB901"/>
<path d="M66.0473 60.4217C61.0144 65.4053 52.9005 65.3853 47.8921 60.377C42.8838 55.3686 42.8638 47.2547 47.8474 42.2217L66.0473 60.4217Z" fill="#E8EDFC"/>
<path d="M47.8473 42.2217C47.2606 42.8102 46.7324 43.4541 46.27 44.1444L62.5473 60.4218C60.567 62.3985 57.9918 63.6693 55.2183 64.0384C55.7948 64.1233 56.3763 64.1693 56.959 64.1761C60.367 64.1803 63.6368 62.8287 66.0473 60.4194L47.8473 42.2217Z" fill="#CAD9FC"/>
<path d="M28.5834 40.8333C30.1942 40.8333 31.5 39.5275 31.5 37.9167C31.5 36.3058 30.1942 35 28.5834 35C26.9725 35 25.6667 36.3058 25.6667 37.9167C25.6667 39.5275 26.9725 40.8333 28.5834 40.8333Z" fill="#E8EDFC"/>
<path d="M10.6587 41.6115C11.9929 41.2604 13.4028 41.3276 14.6977 41.804L14.8073 41.7748C12.432 41.2615 9.64016 39.039 7.86332 37.52C7.63396 37.3284 7.53545 37.0219 7.61027 36.7326C7.68509 36.4433 7.91986 36.223 8.21332 36.1667C9.21549 35.9613 10.5992 35.7163 11.9875 35.5763C9.54688 35.4062 7.09457 35.6053 4.71333 36.1667C4.41986 36.223 4.18509 36.4433 4.11027 36.7326C4.03545 37.0219 4.13396 37.3284 4.36333 37.52C6.20801 39.2394 8.33835 40.6239 10.6587 41.6115Z" fill="white"/>
<path d="M4.70168 16.1467C5.57482 16.1245 6.43983 15.9728 7.26835 15.6963C7.09141 15.4863 6.99613 15.2196 7.00001 14.945C6.97964 13.259 7.57725 11.6238 8.68002 10.3483C10.7217 8.29499 14.4434 8.70332 14.4434 8.70332C14.4434 8.70332 14.0467 4.96999 16.1 2.92832C16.6788 2.37229 17.3766 1.95536 18.1405 1.70915C17.92 1.41063 17.5677 1.23859 17.1967 1.24832C15.5116 1.23352 13.8784 1.83043 12.6 2.92832C10.5467 4.96999 10.9434 8.70332 10.9434 8.70332C10.9434 8.70332 7.22168 8.29499 5.18001 10.3483C4.07725 11.6238 3.47964 13.259 3.50001 14.945C3.48776 15.2673 3.61043 15.5801 3.83849 15.8082C4.06656 16.0362 4.37938 16.1589 4.70168 16.1467Z" fill="white"/>
<path d="M14.7583 68.635C14.8015 68.6234 14.8423 68.6047 14.8855 68.593C10.8943 67.5792 7.04082 63.2777 5.41332 57.4584C3.23515 49.6417 5.97915 42.9567 10.6073 41.629C4.02382 39.9094 -0.772345 47.8194 1.91332 57.4584C4.00165 64.925 9.75331 69.9184 14.7583 68.635Z" fill="white"/>
<path d="M7.23916 64.7197L5.56849 66.353C3.30006 63.926 1.65813 60.9822 0.785156 57.7769L3.03332 57.1445C3.80178 59.9727 5.24501 62.5721 7.23916 64.7197Z" fill="white"/>
<path d="M3.67966 62.9521C3.03532 62.9553 2.51038 62.4356 2.50716 61.7913C2.50393 61.1469 3.02366 60.622 3.66799 60.6188H3.67966C4.32399 60.6188 4.84632 61.1411 4.84632 61.7854C4.84632 62.4298 4.32399 62.9521 3.67966 62.9521Z" fill="#161335"/>
<path d="M17.5852 69.7666C18.1972 69.9222 18.8262 70.0006 19.4577 70C20.959 69.973 22.4315 69.5822 23.7487 68.8613C24.406 69.5852 25.3375 69.9993 26.3154 70.0023H48.3467C49.281 69.9983 50.1748 69.6201 50.8282 68.9523C52.7975 69.6428 54.8687 69.9978 56.9555 70.0023H57.022C61.4828 70.0051 65.7958 68.4029 69.1729 65.4885C69.6743 65.0561 69.9739 64.4351 70 63.7735C70.0261 63.1276 69.7793 62.5005 69.3199 62.0456L66.8699 59.5956L54.0599 46.7833L57.148 19.0482C57.2565 18.059 56.9388 17.0705 56.2744 16.3298C55.61 15.589 54.6618 15.166 53.6667 15.1667H48.0877L49.9684 10.08L61.3352 2.12218C61.8408 1.74524 61.9553 1.03477 61.5938 0.518049C61.2323 0.00132959 60.5256 -0.134584 59.9982 0.211178L48.3315 8.37784C48.1369 8.51379 47.9883 8.70589 47.9057 8.92851L45.6004 15.1667H26.0004C25.1958 12.6205 23.8597 10.2743 22.0804 8.28334C21.1322 7.33565 19.9637 6.63813 18.6795 6.25334C19.2284 5.07457 19.5286 3.79539 19.5615 2.49551C19.5858 1.84919 19.3408 1.22177 18.8848 0.763012C18.4282 0.302198 17.7982 0.0556169 17.15 0.0840119C15.1709 0.0708459 13.2565 0.788731 11.774 2.10001C10.754 3.20165 10.1017 4.59313 9.90734 6.08184C6.76667 3.25734 5.208 2.99368 4.76234 2.99368C4.10812 2.98889 3.56933 3.50646 3.54784 4.16034C3.53679 4.46473 3.64954 4.76061 3.86036 4.98045C4.07119 5.20028 4.36209 5.32532 4.66667 5.32701C4.6795 5.32701 5.75634 5.52184 8.19467 7.68134C6.75363 7.89113 5.41069 8.53493 4.34467 9.52701C3.03464 11.0085 2.31832 12.9219 2.33334 14.8995C2.30825 15.5314 2.54185 16.1461 2.98021 16.6019C3.41858 17.0577 4.02381 17.315 4.65617 17.3145H4.74601C6.0462 17.2812 7.32568 16.981 8.50501 16.4325C8.88716 17.7186 9.58641 18.888 10.5385 19.8333C12.7019 21.7592 15.2752 23.1675 18.0635 23.9517L19.2885 34.9708C18.4918 35.5619 17.7937 36.2754 17.22 37.0848C17.0861 36.9251 16.9435 36.7729 16.793 36.6287C15.6409 35.5924 14.2435 34.8672 12.733 34.5217C10.5922 33.9932 7.06067 34.5007 4.4765 35.0233C3.74489 35.1712 3.16205 35.724 2.97576 36.4468C2.78948 37.1696 3.0325 37.9353 3.6015 38.4183C4.44384 39.1335 5.43201 39.9222 6.45284 40.6432C4.46977 41.3349 2.81665 42.7425 1.81767 44.59C-0.165665 48.0247 -0.552999 52.9527 0.789836 57.7733C0.988997 58.3604 1.61257 58.6892 2.20954 58.5219C2.8065 58.3546 3.16834 57.7496 3.03334 57.1445C1.855 52.9176 2.15484 48.6605 3.83367 45.7578C4.59976 44.2904 5.93395 43.2012 7.52501 42.7443C8.75393 42.4485 10.0457 42.5599 11.2058 43.0617C11.7253 43.2714 12.2241 43.5292 12.6957 43.8317C13.4413 44.3063 14.2743 44.6272 15.1457 44.7755V46.655C15.1457 47.2993 15.668 47.8217 16.3123 47.8217C16.9567 47.8217 17.479 47.2993 17.479 46.655V44.7755C18.3434 44.629 19.17 44.3117 19.9103 43.8422C20.02 43.7733 20.1332 43.7173 20.2452 43.6532L22.8118 66.7321C21.4171 67.5829 19.7473 67.8609 18.1522 67.508C17.7085 67.3912 17.2819 67.2175 16.8828 66.9911C16.5327 66.7946 16.1061 66.792 15.7535 66.9841C15.3459 67.2122 14.9112 67.3882 14.4597 67.508C11.9595 68.1356 9.18867 66.7811 7.22634 64.7231C6.78483 64.2846 6.07955 64.2617 5.61051 64.6706C5.37008 64.8803 5.22762 65.1805 5.21722 65.4993C5.20682 65.8181 5.32942 66.1269 5.55567 66.3518C6.73668 67.5981 8.15733 68.593 9.73234 69.2766C11.4062 70.0071 13.2709 70.179 15.05 69.7666C15.4858 69.6535 15.9106 69.5017 16.3193 69.3128C16.7267 69.5022 17.1503 69.6541 17.5852 69.7666ZM67.6469 63.721C64.6721 66.2681 60.8846 67.6675 56.9684 67.6666H56.959C50.5593 67.6591 44.7504 63.924 42.0877 58.1045C39.425 52.2849 40.3965 45.4475 44.5749 40.6L46.2409 42.266C44.0995 44.79 42.9269 47.9941 42.9334 51.3041C42.9526 59.0467 49.2258 65.3178 56.9684 65.3345C60.2788 65.3386 63.4827 64.1645 66.0065 62.0223L67.6667 63.7L67.6469 63.721ZM54.1334 52.486L47.9127 58.7066C46.4533 56.9307 45.5522 54.7626 45.3227 52.4755L54.1334 52.486ZM45.325 50.1422C45.5445 47.8585 46.4379 45.6916 47.8917 43.9168L54.1334 50.1527L45.325 50.1422ZM55.7842 54.1333L55.7947 62.944C53.5073 62.7143 51.3388 61.8132 49.5624 60.354L55.7842 54.1333ZM58.128 62.9428L58.1175 54.1403L64.3522 60.3761C62.578 61.8306 60.4116 62.7248 58.128 62.9451V62.9428ZM48.678 41.398L46.228 38.948C45.7747 38.4857 45.1458 38.2387 44.499 38.269C43.8384 38.2943 43.218 38.593 42.7864 39.0938C39.1146 43.3641 37.5621 49.0614 38.56 54.6041C39.5578 60.1468 42.9997 64.945 47.9302 67.6666H26.32C25.7222 67.6702 25.2185 67.2214 25.1534 66.6271L21.014 29.3697L22.8118 30.268C26.0797 31.8931 29.9203 31.8931 33.1882 30.268C35.3744 29.1998 37.889 29.0188 40.2057 29.7628L28.0724 62.5951C27.8488 63.1995 28.1575 63.8707 28.7619 64.0943C29.3662 64.3179 30.0374 64.0092 30.261 63.4048L42.364 30.6553C45.4334 31.8867 48.8824 31.7496 51.8444 30.2785L53.6515 29.3732L51.9482 44.674L48.678 41.398ZM53.6667 17.5C53.9986 17.5006 54.3148 17.6416 54.5371 17.8881C54.7594 18.1346 54.867 18.4636 54.8334 18.7938L53.963 26.6105L50.8049 28.1925C48.4176 29.368 45.6421 29.4685 43.176 28.469L47.2255 17.5H53.6667ZM41.0154 27.5742C39.829 27.1732 38.5857 26.9664 37.3334 26.9617C35.5324 26.9562 33.7553 27.3738 32.1452 28.1808C29.534 29.4782 26.466 29.4782 23.8549 28.1808L20.7048 26.607L19.8333 18.795C19.799 18.4645 19.9063 18.135 20.1287 17.8881C20.3511 17.6412 20.6677 17.5002 21 17.5H44.7382L41.0154 27.5742ZM13.4237 3.74851C14.4999 2.87475 15.8455 2.40066 17.2317 2.40684C17.2473 3.79609 16.7755 5.14686 15.8982 6.22417C14.828 7.1068 13.4783 7.57916 12.0913 7.55651C12.0684 6.16911 12.5408 4.81898 13.4237 3.74851ZM4.66667 14.98C4.65227 13.5944 5.12367 12.2474 5.99901 11.1732C7.06744 10.2916 8.41504 9.8197 9.80001 9.84201C9.82297 11.2282 9.35333 12.5776 8.47467 13.65C7.40008 14.5253 6.05253 14.9959 4.66667 14.98ZM12.1847 18.1767C11.2783 17.2685 10.7053 16.0808 10.5583 14.8062C11.5767 13.3667 12.1266 11.6484 12.1333 9.88517C13.8899 9.8717 15.6001 9.31996 17.0333 8.30434C18.3157 8.452 19.5108 9.02739 20.426 9.93767C21.7831 11.4676 22.8359 13.2423 23.5282 15.1667H21C20.0043 15.1659 19.0554 15.5894 18.3909 16.3309C17.7263 17.0725 17.4091 18.062 17.5187 19.0517L17.7812 21.4095C15.7186 20.7163 13.8156 19.6171 12.1847 18.1767ZM12.1718 36.7827C13.287 37.0343 14.3216 37.5605 15.1818 38.3133C15.6271 38.6368 15.8879 39.156 15.8818 39.7063L15.8713 39.7413C15.7652 40.1077 15.2997 40.4413 14.6102 40.6385C13.4975 40.9025 12.3366 40.8844 11.2327 40.586C9.20251 39.7941 7.3381 38.6301 5.73534 37.1537C7.84152 36.6469 10.0214 36.5213 12.1718 36.7827ZM18.6667 41.8705C18.3489 42.0705 18.0061 42.2274 17.647 42.3372C17.85 40.6802 18.532 39.1184 19.6093 37.8432L19.978 41.16C19.5265 41.3693 19.0886 41.6066 18.6667 41.8705Z" fill="#161335"/>
<path d="M6.41667 57.3732C6.78171 57.3735 7.12586 57.2029 7.34668 56.9122C7.5675 56.6215 7.63953 56.2443 7.54133 55.8927C6.67156 53.3425 6.79275 50.5585 7.88083 48.0935C8.04156 47.731 8.32553 47.4371 8.68233 47.264C9.30669 47.1029 9.68225 46.4662 9.52117 45.8418C9.36009 45.2175 8.72336 44.8419 8.099 45.003C7.12013 45.3105 6.31011 46.0059 5.85783 46.9268C4.80083 48.755 4.09733 52.2352 5.29083 56.5192C5.43143 57.0246 5.89207 57.374 6.41667 57.3732Z" fill="#161335"/>
<path d="M28.5833 42C30.8385 42 32.6667 40.1718 32.6667 37.9166C32.6667 35.6615 30.8385 33.8333 28.5833 33.8333C26.3282 33.8333 24.5 35.6615 24.5 37.9166C24.5 40.1718 26.3282 42 28.5833 42ZM28.5833 36.1666C29.5498 36.1666 30.3333 36.9501 30.3333 37.9166C30.3333 38.8831 29.5498 39.6666 28.5833 39.6666C27.6168 39.6666 26.8333 38.8831 26.8333 37.9166C26.8333 36.9501 27.6168 36.1666 28.5833 36.1666Z" fill="#161335"/>
<path d="M18.6667 14C19.311 14 19.8333 13.4777 19.8333 12.8334C19.8333 12.189 19.311 11.6667 18.6667 11.6667C18.0223 11.6667 17.5 12.189 17.5 12.8334C17.5 13.4777 18.0223 14 18.6667 14Z" fill="#161335"/>
<path d="M26.8334 47.8333C27.4777 47.8333 28 47.311 28 46.6667C28 46.0223 27.4777 45.5 26.8334 45.5C26.189 45.5 25.6667 46.0223 25.6667 46.6667C25.6667 47.311 26.189 47.8333 26.8334 47.8333Z" fill="#161335"/>
<path d="M28 53.6666C28.6443 53.6666 29.1666 53.1443 29.1666 52.5C29.1666 51.8556 28.6443 51.3333 28 51.3333C27.3556 51.3333 26.8333 51.8556 26.8333 52.5C26.8333 53.1443 27.3556 53.6666 28 53.6666Z" fill="#161335"/>
<path d="M15.1667 17.5C15.811 17.5 16.3333 16.9777 16.3333 16.3334C16.3333 15.689 15.811 15.1667 15.1667 15.1667C14.5223 15.1667 14 15.689 14 16.3334C14 16.9777 14.5223 17.5 15.1667 17.5Z" fill="#161335"/>
</g>
<defs>
<clipPath id="clip0_14_358">
<rect width="70" height="70" fill="white"/>
</clipPath>
</defs>
</svg>
