<svg width="70" height="70" viewBox="0 0 70 70" fill="none" xmlns="http://www.w3.org/2000/svg">
<g clip-path="url(#clip0_14_664)">
<path d="M25.6667 14V39.6667C23.8182 38.8967 21.8357 38.5002 19.8333 38.5V17.5C19.8333 15.567 21.4003 14 23.3333 14H25.6667Z" fill="#FEBA01"/>
<path d="M60.6667 14V60.6667C60.6667 61.311 60.1444 61.8333 59.5 61.8333H32.6084C35.0246 58.0586 35.6465 53.4081 34.3071 49.1311C32.9678 44.8541 29.8044 41.389 25.6667 39.6667V14H31.5V16.3333C31.5039 17.6204 32.5463 18.6628 33.8334 18.6667H52.5C53.7871 18.6628 54.8295 17.6204 54.8334 16.3333V14H60.6667Z" fill="#E8EDFC"/>
<path d="M57.1667 14V60.6667C57.1667 61.311 56.6443 61.8333 56 61.8333H59.5C60.1443 61.8333 60.6667 61.311 60.6667 60.6667V14H57.1667Z" fill="#FEBA01"/>
<path d="M66.5 17.5V65.3333C66.5 67.2663 64.933 68.8333 63 68.8333L19.8333 68.8333C25.0081 68.8364 29.826 66.1964 32.6083 61.8333H59.5C60.1443 61.8333 60.6667 61.311 60.6667 60.6667V14H63C64.933 14 66.5 15.567 66.5 17.5Z" fill="#FEBA01"/>
<path d="M63 14H60.6667V14.2135C62.0636 14.7022 62.9993 16.0201 63 17.5V65.3333C63 67.2663 61.433 68.8333 59.5 68.8333H63C64.933 68.8333 66.5 67.2663 66.5 65.3333V17.5C66.5 15.567 64.933 14 63 14Z" fill="#FEBA01"/>
<path d="M54.8333 13.23V16.3333C54.8295 17.6204 53.7871 18.6628 52.5 18.6667H33.8333C32.5463 18.6628 31.5038 17.6204 31.5 16.3333V13.23C31.5057 11.627 32.5949 10.2307 34.1483 9.83501L35.9217 9.39168C37.4801 9.01099 38.5569 7.58822 38.5 5.98501C38.4926 5.71196 38.5082 5.43877 38.5467 5.16834C38.8923 2.74227 41.0557 0.996842 43.5 1.17187C45.9443 1.34691 47.8369 3.38277 47.8333 5.83334V5.86834C47.8326 7.55999 48.9815 9.03578 50.6217 9.45001L52.185 9.83501C53.7384 10.2307 54.8276 11.627 54.8333 13.23Z" fill="#E8EDFC"/>
<path d="M52.185 9.835L50.6217 9.45C48.9815 9.03577 47.8326 7.55998 47.8334 5.86833V5.83333C47.8338 4.49372 47.2586 3.21851 46.254 2.33226C45.2494 1.44602 43.9125 1.03422 42.5834 1.20167C42.1817 1.25757 41.7893 1.36704 41.4167 1.52717C43.1762 2.23337 44.3304 3.93743 44.3334 5.83333V5.86833C44.3326 7.55998 45.4815 9.03577 47.1217 9.45L48.685 9.835C50.2385 10.2307 51.3276 11.627 51.3334 13.23V16.3333C51.3295 17.6204 50.2871 18.6628 49 18.6667H52.5C53.7871 18.6628 54.8295 17.6204 54.8334 16.3333V13.23C54.8276 11.627 53.7385 10.2307 52.185 9.835Z" fill="#FEBA01"/>
<path d="M32.0834 37.3333C33.6942 37.3333 35 36.0275 35 34.4167C35 32.8058 33.6942 31.5 32.0834 31.5C30.4725 31.5 29.1667 32.8058 29.1667 34.4167C29.1667 36.0275 30.4725 37.3333 32.0834 37.3333Z" fill="#E8EDFC"/>
<path d="M39.0834 29.1667C40.6942 29.1667 42 27.8609 42 26.25C42 24.6392 40.6942 23.3334 39.0834 23.3334C37.4725 23.3334 36.1667 24.6392 36.1667 26.25C36.1667 27.8609 37.4725 29.1667 39.0834 29.1667Z" fill="#E8EDFC"/>
<path d="M46.0834 37.3333C47.6942 37.3333 49 36.0275 49 34.4167C49 32.8058 47.6942 31.5 46.0834 31.5C44.4725 31.5 43.1667 32.8058 43.1667 34.4167C43.1667 36.0275 44.4725 37.3333 46.0834 37.3333Z" fill="#E8EDFC"/>
<path d="M53.0834 29.1667C54.6942 29.1667 56 27.8609 56 26.25C56 24.6392 54.6942 23.3334 53.0834 23.3334C51.4725 23.3334 50.1667 24.6392 50.1667 26.25C50.1667 27.8609 51.4725 29.1667 53.0834 29.1667Z" fill="#E8EDFC"/>
<path d="M35 53.6667C35 60.3501 30.6251 66.2458 24.2284 68.1826C17.8317 70.1193 10.9212 67.6406 7.21391 62.0796C3.5066 56.5187 3.87642 49.1864 8.12446 44.0267C12.3725 38.8669 19.4973 37.0961 25.6667 39.6667C31.3434 41.9913 35.0375 47.5326 35 53.6667Z" fill="#E8EDFC"/>
<path d="M25.6667 39.6666C23.2717 38.6594 20.6553 38.2951 18.0763 38.6096C25.733 39.4767 31.5139 45.9611 31.5 53.6666C31.4947 61.3686 25.7145 67.8423 18.0623 68.7166C18.6499 68.7897 19.2413 68.8287 19.8333 68.8333C27.063 68.8333 33.2876 63.7303 34.7055 56.6411C36.1233 49.5518 32.3402 42.4473 25.6667 39.6666Z" fill="#FEBA01"/>
<path d="M19.8333 57.1666C21.7663 57.1666 23.3333 55.5996 23.3333 53.6666C23.3333 51.7336 21.7663 50.1666 19.8333 50.1666C17.9003 50.1666 16.3333 51.7336 16.3333 53.6666C16.3333 55.5996 17.9003 57.1666 19.8333 57.1666Z" fill="#FEBA01"/>
<path d="M21.5623 68.7167C13.632 67.7288 7.8288 60.7569 8.29639 52.7789C8.76398 44.801 15.3419 38.5547 23.3333 38.5V17.5C23.3333 15.567 24.9003 14 26.8333 14H23.3333C21.4003 14 19.8333 15.567 19.8333 17.5V38.5C11.8419 38.5547 5.26398 44.801 4.79639 52.7789C4.3288 60.7569 10.132 67.7288 18.0623 68.7167C23.03 68.7167 1.10718 68.8333 63 68.8333C5.45885 68.8333 26.4332 68.7167 21.5623 68.7167Z" fill="white"/>
<path d="M35.9217 9.39166L34.1483 9.83499C32.5949 10.2307 31.5057 11.627 31.5 13.23V14H35V13.23C35.0057 11.627 36.0949 10.2307 37.6483 9.83499L39.4217 9.39166C40.9801 9.01097 42.0569 7.5882 42 5.98499C41.9467 4.02246 43.1275 2.23645 44.954 1.51666C44.0084 1.11068 42.9514 1.04472 41.9627 1.32999C39.8705 1.89374 38.4383 3.81911 38.5 5.98499C38.5569 7.5882 37.4801 9.01097 35.9217 9.39166Z" fill="white"/>
<path d="M8.41167 61.7423L6.50767 63.091C5.54304 61.7182 4.7881 60.2095 4.26767 58.6145C3.78104 57.0093 3.52262 55.3437 3.5 53.6666H5.83333C5.85584 55.1038 6.07728 56.531 6.49133 57.9075C6.93896 59.2734 7.58606 60.5656 8.41167 61.7423Z" fill="white"/>
<path d="M63 12.8333H55.9662C55.8044 10.8496 54.3967 9.18951 52.4662 8.70566L50.9017 8.31366C49.7699 8.02691 48.9831 7.00068 49 5.83332C49.0066 2.76768 46.6391 0.220011 43.5812 0.00213876C40.5233 -0.215733 37.8186 1.97055 37.3905 5.00616C37.3431 5.34425 37.3239 5.68571 37.3333 6.02699C37.3606 7.07698 36.6557 8.00534 35.637 8.26116L33.8648 8.70566C31.9343 9.18951 30.5266 10.8496 30.3648 12.8333H23.3333C20.756 12.8333 18.6667 14.9227 18.6667 17.5V26.8333C18.6667 27.4777 19.189 28 19.8333 28C20.4777 28 21 27.4777 21 26.8333V17.5C21 16.2113 22.0447 15.1667 23.3333 15.1667H24.5V26.8333C24.5 27.4777 25.0223 28 25.6667 28C26.311 28 26.8333 27.4777 26.8333 26.8333V15.1667H30.3333V16.3333C30.3333 18.2663 31.9003 19.8333 33.8333 19.8333H52.5C54.433 19.8333 56 18.2663 56 16.3333V15.1667H59.5V60.6667H38.5C37.8557 60.6667 37.3333 61.189 37.3333 61.8333C37.3333 62.4777 37.8557 63 38.5 63H59.5C60.7887 63 61.8333 61.9553 61.8333 60.6667V15.1667H63C64.2887 15.1667 65.3333 16.2113 65.3333 17.5V65.3333C65.3333 66.622 64.2887 67.6667 63 67.6667H32.6667C32.0223 67.6667 31.5 68.189 31.5 68.8333C31.5 69.4777 32.0223 70 32.6667 70H63C65.5773 70 67.6667 67.9107 67.6667 65.3333V17.5C67.6667 14.9227 65.5773 12.8333 63 12.8333ZM53.6667 16.3333C53.6667 16.9777 53.1443 17.5 52.5 17.5H33.8333C33.189 17.5 32.6667 16.9777 32.6667 16.3333V13.2323C32.6657 12.1609 33.3947 11.2265 34.4342 10.9667L36.2063 10.5233C38.2874 9.99584 39.7248 8.09613 39.6667 5.94999C39.6606 5.7398 39.6719 5.52948 39.7005 5.32116C39.9332 3.77088 41.1644 2.56209 42.7187 2.35782C42.8674 2.3411 43.017 2.33292 43.1667 2.33332C44.0203 2.33051 44.845 2.64292 45.4825 3.21066C46.2394 3.88225 46.6708 4.84706 46.6667 5.85899C46.6561 8.08912 48.1716 10.0374 50.3358 10.5758L51.9003 10.9678C52.9389 11.228 53.6672 12.1616 53.6667 13.2323V16.3333Z" fill="#171335"/>
<path d="M43.1667 9.33329C43.811 9.33329 44.3333 8.81096 44.3333 8.16663V5.83329C44.3333 5.18896 43.811 4.66663 43.1667 4.66663C42.5223 4.66663 42 5.18896 42 5.83329V8.16663C42 8.81096 42.5223 9.33329 43.1667 9.33329Z" fill="#171335"/>
<path d="M47.8333 12.8333H38.5C37.8556 12.8333 37.3333 13.3556 37.3333 14C37.3333 14.6443 37.8556 15.1666 38.5 15.1666H47.8333C48.4776 15.1666 49 14.6443 49 14C49 13.3556 48.4776 12.8333 47.8333 12.8333Z" fill="#171335"/>
<path d="M32.0833 30.3334C30.2041 30.3239 28.5587 31.5923 28.0895 33.412C27.6203 35.2317 28.4473 37.1376 30.0967 38.038C31.7462 38.9384 33.7965 38.6032 35.0733 37.2244C36.3501 35.8456 36.5271 33.7756 35.5028 32.2L37.4407 29.9834C38.4857 30.4516 39.6809 30.4516 40.726 29.9834L42.6638 32.2C41.55 33.9067 41.865 36.1733 43.4021 37.5115C44.9391 38.8497 47.2275 38.8497 48.7646 37.5115C50.3016 36.1733 50.6167 33.9067 49.5028 32.2L51.4407 29.9834C51.9577 30.2137 52.5173 30.3329 53.0833 30.3334C54.9625 30.3428 56.6079 29.0744 57.0771 27.2547C57.5463 25.4351 56.7194 23.5292 55.0699 22.6288C53.4205 21.7284 51.3702 22.0636 50.0933 23.4424C48.8165 24.8212 48.6396 26.8912 49.6638 28.4667L47.726 30.6834C46.6809 30.2152 45.4857 30.2152 44.4407 30.6834L42.5028 28.4667C43.6167 26.7601 43.3016 24.4935 41.7646 23.1553C40.2275 21.8171 37.9391 21.8171 36.4021 23.1553C34.865 24.4935 34.55 26.7601 35.6638 28.4667L33.726 30.6834C33.2089 30.4531 32.6493 30.3339 32.0833 30.3334ZM32.0833 36.1667C31.1168 36.1667 30.3333 35.3832 30.3333 34.4167C30.3333 33.4502 31.1168 32.6667 32.0833 32.6667C33.0498 32.6667 33.8333 33.4502 33.8333 34.4167C33.8333 35.3832 33.0498 36.1667 32.0833 36.1667ZM53.0833 24.5C54.0498 24.5 54.8333 25.2836 54.8333 26.25C54.8333 27.2165 54.0498 28 53.0833 28C52.1168 28 51.3333 27.2165 51.3333 26.25C51.3333 25.2836 52.1168 24.5 53.0833 24.5ZM47.8333 34.4167C47.8333 35.3832 47.0498 36.1667 46.0833 36.1667C45.1168 36.1667 44.3333 35.3832 44.3333 34.4167C44.3333 33.4502 45.1168 32.6667 46.0833 32.6667C47.0498 32.6667 47.8333 33.4502 47.8333 34.4167ZM39.0833 24.5C40.0498 24.5 40.8333 25.2836 40.8333 26.25C40.8333 27.2165 40.0498 28 39.0833 28C38.1168 28 37.3333 27.2165 37.3333 26.25C37.3333 25.2836 38.1168 24.5 39.0833 24.5Z" fill="#171335"/>
<path d="M5.4075 59.4382C4.76317 59.4414 4.23822 58.9217 4.235 58.2774C4.23178 57.633 4.7515 57.1081 5.39583 57.1049H5.4075C6.05183 57.1049 6.57417 57.6272 6.57417 58.2715C6.57417 58.9159 6.05183 59.4382 5.4075 59.4382Z" fill="#171335"/>
<path d="M21 37.3929V32.6667H23.3333C23.9777 32.6667 24.5 32.1444 24.5 31.5C24.5 30.8557 23.9777 30.3334 23.3333 30.3334H16.3333C15.689 30.3334 15.1667 30.8557 15.1667 31.5C15.1667 32.1444 15.689 32.6667 16.3333 32.6667H18.6667V37.3929C15.1517 37.6408 11.8127 39.0252 9.15367 41.3374L7.483 39.6667L8.9915 38.1582C9.43364 37.7004 9.42731 36.9728 8.97729 36.5228C8.52727 36.0727 7.79961 36.0664 7.34184 36.5085L2.67517 41.1752C2.37189 41.4681 2.25025 41.9019 2.35702 42.3098C2.46379 42.7177 2.78234 43.0363 3.19024 43.143C3.59814 43.2498 4.03191 43.1282 4.32484 42.8249L5.83334 41.3164L7.504 42.987C4.92222 45.9459 3.49979 49.7398 3.5 53.6667C3.5 54.311 4.02234 54.8334 4.66667 54.8334C5.311 54.8334 5.83334 54.311 5.83334 53.6667C5.83334 45.9347 12.1013 39.6667 19.8333 39.6667C27.5653 39.6667 33.8333 45.9347 33.8333 53.6667C33.8333 61.3987 27.5653 67.6667 19.8333 67.6667C17.5964 67.6505 15.3943 67.1115 13.4027 66.0929C11.416 65.0612 9.70482 63.5696 8.41167 61.7424C8.03838 61.251 7.35491 61.1198 6.82617 61.4379C6.55188 61.6042 6.36076 61.8788 6.30008 62.1938C6.23939 62.5088 6.31481 62.8347 6.50767 63.091C8.01615 65.2216 10.0117 66.9612 12.3282 68.1649C14.6518 69.3554 17.2225 69.984 19.8333 70C28.6267 70.007 35.8453 63.0474 36.1598 54.2597C36.4742 45.472 29.7713 38.0144 21 37.3929Z" fill="#171335"/>
<path d="M19.8333 42C14.0165 42.0001 9.0884 46.285 8.28005 52.0454C7.47169 57.8058 11.0301 63.2815 16.6222 64.8827C22.2143 66.4838 28.1315 63.721 30.4943 58.4057C30.6738 58.0235 30.6329 57.5742 30.3872 57.2309C30.1416 56.8875 29.7296 56.7036 29.31 56.75C28.8904 56.7965 28.5286 57.066 28.364 57.4548C26.4751 61.7081 21.7416 63.92 17.2672 62.6401C12.7929 61.3603 9.945 56.9798 10.591 52.3711C11.237 47.7623 15.1795 44.3337 19.8333 44.3333C20.4777 44.3333 21 43.811 21 43.1667C21 42.5223 20.4777 42 19.8333 42Z" fill="#171335"/>
<path d="M15.1667 53.6667C15.1637 56.0137 16.9078 57.9962 19.236 58.2925C21.5643 58.5888 23.7493 57.1063 24.3343 54.8333H30.3333C30.9777 54.8333 31.5 54.311 31.5 53.6667C31.5 53.0223 30.9777 52.5 30.3333 52.5H24.3343C23.7493 50.227 21.5643 48.7445 19.236 49.0408C16.9078 49.3371 15.1637 51.3196 15.1667 53.6667ZM22.1667 53.6667C22.1667 54.9553 21.122 56 19.8333 56C18.5447 56 17.5 54.9553 17.5 53.6667C17.5 52.378 18.5447 51.3333 19.8333 51.3333C21.122 51.3333 22.1667 52.378 22.1667 53.6667Z" fill="#171335"/>
<path d="M56 52.5C55.3556 52.5 54.8333 53.0223 54.8333 53.6667V56H52.5C51.8556 56 51.3333 56.5223 51.3333 57.1667C51.3333 57.811 51.8556 58.3333 52.5 58.3333H56C56.6443 58.3333 57.1666 57.811 57.1666 57.1667V53.6667C57.1666 53.0223 56.6443 52.5 56 52.5Z" fill="#171335"/>
<path d="M56 42H39.6667C39.0223 42 38.5 42.5223 38.5 43.1667C38.5 43.811 39.0223 44.3333 39.6667 44.3333H56C56.6443 44.3333 57.1667 43.811 57.1667 43.1667C57.1667 42.5223 56.6443 42 56 42Z" fill="#171335"/>
<path d="M56 46.6666H39.6667C39.0223 46.6666 38.5 47.189 38.5 47.8333C38.5 48.4776 39.0223 49 39.6667 49H56C56.6443 49 57.1667 48.4776 57.1667 47.8333C57.1667 47.189 56.6443 46.6666 56 46.6666Z" fill="#171335"/>
<path d="M39.6667 51.3334C39.0223 51.3334 38.5 51.8557 38.5 52.5C38.5 53.1444 39.0223 53.6667 39.6667 53.6667H47.8333C48.4777 53.6667 49 53.1444 49 52.5C49 51.8557 48.4777 51.3334 47.8333 51.3334H39.6667Z" fill="#171335"/>
</g>
<defs>
<clipPath id="clip0_14_664">
<rect width="70" height="70" fill="white"/>
</clipPath>
</defs>
</svg>
