<svg width="70" height="70" viewBox="0 0 70 70" fill="none" xmlns="http://www.w3.org/2000/svg">
<g clip-path="url(#clip0_14_455)">
<path d="M45.2083 14.805C44.2517 16.8117 41.72 17.9433 39.7367 18.6083C39.4217 18.7133 39.1067 18.8067 38.78 18.9C36.4086 19.5483 33.9583 19.8625 31.5 19.8333C31.1383 19.8333 30.7767 19.8217 30.415 19.81C23.1817 19.565 17.5 16.8 17.5 13.4167C17.5 9.89332 23.6717 7.04665 31.3367 6.99998C31.3768 6.402 31.6795 5.85243 32.1635 5.49899C32.6475 5.14554 33.2632 5.02447 33.845 5.16832C35.7458 5.63113 37.5977 6.27577 39.375 7.09332C40.2403 7.48652 41.0715 7.9509 41.86 8.48165C43.75 9.76498 46.375 12.3316 45.2083 14.805Z" fill="#FEB901"/>
<path d="M56.7 18.41C51.8584 25.6433 37.2867 37.0533 26.11 45.2317C13.8717 44.0417 4.66669 38.8733 4.66669 32.6667V14C4.66669 21.0933 16.6834 26.8333 31.5 26.8333C43.0734 26.8333 52.9434 23.3333 56.7 18.41Z" fill="#FEB901"/>
<path d="M32.6667 1.17835C32.2817 1.16669 31.8967 1.16669 31.5 1.16669C16.6834 1.16669 4.66669 6.90669 4.66669 14C4.66669 21.0934 16.6834 26.8334 31.5 26.8334C43.0734 26.8334 52.9434 23.3334 56.7 18.41C56.7117 18.3984 56.7234 18.3867 56.7234 18.375C57.1984 17.6894 57.6048 16.9586 57.9367 16.1934C57.9626 16.1022 57.9937 16.0126 58.03 15.925C58.2291 15.3027 58.3314 14.6534 58.3334 14C58.3334 7.09335 46.9467 1.47002 32.6667 1.17835ZM45.2084 14.805C44.2517 16.8117 41.72 17.9434 39.7367 18.6084C39.4217 18.7134 39.1067 18.8067 38.78 18.9C36.4086 19.5484 33.9583 19.8625 31.5 19.8334C31.1384 19.8334 30.7767 19.8217 30.415 19.81C23.1817 19.565 17.5 16.8 17.5 13.4167C17.5 9.89335 23.6717 7.04669 31.3367 7.00002C31.3768 6.40203 31.6795 5.85247 32.1636 5.49902C32.6476 5.14558 33.2632 5.02451 33.845 5.16835C35.7458 5.63117 37.5977 6.27581 39.375 7.09335C40.2403 7.48656 41.0715 7.95093 41.86 8.48169C43.75 9.76502 46.375 12.3317 45.2084 14.805Z" fill="#E8EDFC"/>
<path d="M32.6667 1.17835C32.2817 1.16669 31.8967 1.16669 31.5 1.16669C30.9097 1.16669 30.3252 1.17952 29.75 1.19702C43.75 1.62635 54.8333 7.18669 54.8333 14C54.8314 14.6534 54.7291 15.3027 54.53 15.925C54.4937 16.0126 54.4626 16.1022 54.4367 16.1934C54.1048 16.9586 53.6984 17.6894 53.2233 18.375C53.2233 18.3867 53.2117 18.3984 53.2 18.41C49.6288 23.0907 40.53 26.4775 29.6975 26.8019C30.2937 26.8205 30.8933 26.8334 31.5 26.8334C43.0733 26.8334 52.9433 23.3334 56.7 18.41C56.7117 18.3984 56.7233 18.3867 56.7233 18.375C57.1984 17.6894 57.6048 16.9586 57.9367 16.1934C57.9626 16.1022 57.9937 16.0126 58.03 15.925C58.2291 15.3027 58.3314 14.6534 58.3333 14C58.3333 7.09335 46.9467 1.47002 32.6667 1.17835Z" fill="#CAD9FC"/>
<path d="M39.375 7.09332L38.78 18.9C36.4086 19.5483 33.9583 19.8625 31.5 19.8333C31.1383 19.8333 30.7766 19.8217 30.415 19.81L31.3366 6.99998C31.3767 6.402 31.6795 5.85243 32.1635 5.49899C32.6475 5.14554 33.2632 5.02447 33.845 5.16832C35.7458 5.63113 37.5977 6.27577 39.375 7.09332Z" fill="#FEB901"/>
<path d="M33.845 5.16836C33.1952 5.00269 32.5057 5.17847 32.0145 5.63503C33.3357 6.02491 34.626 6.51236 35.875 7.09336L35.28 18.9C33.6926 19.3411 32.0645 19.6198 30.4208 19.7319V19.81C30.7825 19.8217 31.1442 19.8334 31.5058 19.8334C33.9641 19.8625 36.4144 19.5484 38.7858 18.9L39.3808 7.09336C37.6016 6.27546 35.7478 5.63082 33.845 5.16836Z" fill="#FEB901"/>
<path d="M57.9367 16.1934C57.6471 16.9788 57.2378 17.7147 56.7233 18.375C57.1983 17.6894 57.6047 16.9586 57.9367 16.1934Z" fill="#E8EDFC"/>
<path d="M64.96 29.4584C64.1083 35.7817 59.64 41.055 55.5917 45.6867C50.1449 51.8924 44.1898 57.6329 37.7883 62.8484C36.0967 61.32 37.1583 59.5584 35.0467 58.0417C32.795 56.4084 31.43 58.31 29.1783 56.6767C26.9267 55.0434 28.28 53.1534 26.0283 51.52C23.625 49.805 22.2483 52.045 19.7283 49.8284C21.63 48.475 23.8 46.9234 26.11 45.2317C37.2867 37.0534 51.8583 25.6434 56.7 18.41C56.7117 18.3984 56.7233 18.3867 56.7233 18.375C57.2378 17.7147 57.6471 16.9788 57.9367 16.1934C57.9625 16.1022 57.9937 16.0126 58.03 15.925C58.284 15.3169 58.388 14.6567 58.3333 14C58.3333 7.09335 46.9467 1.47002 32.6667 1.17835V1.16669C36.6204 1.16661 40.5706 1.40035 44.4967 1.86669C49.4783 2.50835 54.4017 3.52335 58.2167 7.01169C64.0967 12.3784 65.9867 21.8284 64.96 29.4584Z" fill="#E8EDFC"/>
<path d="M58.2167 7.01169C54.4017 3.52335 49.4784 2.50835 44.4967 1.86669C40.5706 1.40035 36.6204 1.16661 32.6667 1.16669V1.17835C34.5019 1.21569 36.2834 1.34285 38.0089 1.54819C39.0075 1.63452 40.0035 1.74069 40.9967 1.86669C45.9784 2.50835 50.9017 3.52335 54.7167 7.01169C60.5967 12.3784 62.4867 21.8284 61.46 29.4584C60.6084 35.7817 56.14 41.055 52.0917 45.6867C47.3356 51.1155 42.1843 56.1849 36.68 60.8534C36.8275 61.6205 37.2157 62.3206 37.7884 62.8519C44.1899 57.6353 50.145 51.8937 55.5917 45.6867C59.64 41.055 64.1084 35.7817 64.96 29.4584C65.9867 21.8284 64.0967 12.3784 58.2167 7.01169Z" fill="#CAD9FC"/>
<path d="M37.7883 62.8483C35.3383 64.855 32.8533 66.7761 30.3333 68.6116C29.9035 68.9164 29.3244 68.9021 28.91 68.5766L13.335 56.1166C13.0479 55.8873 12.8856 55.536 12.8971 55.1687C12.9086 54.8014 13.0925 54.461 13.3933 54.25C14.7 53.3516 16.9283 51.8116 19.7283 49.8283C22.2483 52.045 23.625 49.805 26.0283 51.52C28.28 53.1533 26.915 55.0433 29.1783 56.6766C31.4417 58.31 32.795 56.4083 35.0467 58.0416C37.1583 59.5583 36.0967 61.32 37.7883 62.8483Z" fill="#E8EDFC"/>
<path d="M35.0467 58.0416C32.795 56.4083 31.43 58.31 29.1784 56.6766C26.9267 55.0433 28.28 53.1533 26.0284 51.52C23.625 49.805 22.2484 52.045 19.7284 49.8283C19.2244 50.1853 18.746 50.5225 18.2805 50.8503C19.6805 51.0428 20.86 50.3288 22.5284 51.52C24.78 53.1533 23.415 55.0433 25.6784 56.6766C27.9417 58.31 29.295 56.4083 31.5467 58.0416C33.6584 59.5583 32.5967 61.32 34.2884 62.8483C32.1954 64.5621 30.072 66.2025 27.9277 67.7903L28.91 68.5766C29.3244 68.9021 29.9035 68.9164 30.3334 68.6116C32.8534 66.78 35.3384 64.8589 37.7884 62.8483C36.0967 61.32 37.1584 59.5583 35.0467 58.0416Z" fill="#CAD9FC"/>
<path d="M33.6269 1.18302C32.9377 1.17213 32.2288 1.16669 31.5 1.16669C16.6834 1.16669 4.66669 6.90669 4.66669 14V32.6667C4.66669 38.8734 13.8717 44.0417 26.11 45.2317C19.0517 50.4 18.1639 50.8504 18.2805 50.8504C16.163 52.3402 14.4667 53.5139 13.3934 54.25C13.0925 54.461 12.9086 54.8015 12.8971 55.1688C12.8857 55.5361 13.0479 55.8873 13.335 56.1167L28.91 68.5767C29.3244 68.9022 29.9035 68.9164 30.3334 68.6117C30.6997 68.3457 31.0637 68.0634 31.43 67.795L16.835 56.1167C16.5479 55.8873 16.3857 55.5361 16.3971 55.1688C16.4086 54.8015 16.5925 54.461 16.8934 54.25C17.9644 53.5139 19.663 52.3402 21.7805 50.8504C21.6639 50.8504 22.5517 50.4 29.61 45.2317C17.3717 44.0417 8.16669 38.8734 8.16669 32.6667V14C8.16669 7.12719 19.4484 1.52485 33.6269 1.18302Z" fill="white"/>
<path d="M3.5 23.3333H5.83333V32.6666H3.5V23.3333Z" fill="white"/>
<path d="M4.66667 29.1666C5.311 29.1666 5.83333 28.6443 5.83333 28C5.83333 27.3556 5.311 26.8333 4.66667 26.8333C4.02233 26.8333 3.5 27.3556 3.5 28C3.5 28.6443 4.02233 29.1666 4.66667 29.1666Z" fill="#161335"/>
<path d="M23.0498 46.0157C18.7168 49.1506 14.9998 51.7324 12.7388 53.2911C12.1302 53.7088 11.7559 54.3907 11.7304 55.1286C11.7048 55.8664 12.031 56.5725 12.6093 57.0314L28.1773 69.4879C29.0028 70.1463 30.1662 70.1725 31.0205 69.5521C33.6268 67.6539 36.1713 65.6706 38.6493 63.6347C41.0604 61.6506 43.3938 59.6148 45.6493 57.5272C45.661 57.5144 45.6773 57.5109 45.6878 57.4981L45.696 57.4841C47.9049 55.4424 50.022 53.3673 52.0473 51.2587C52.0718 51.2354 52.1045 51.2261 52.1267 51.1992C52.1488 51.1724 52.1453 51.1607 52.1582 51.1432C53.6445 49.5927 55.0935 48.0329 56.462 46.4637C60.3493 42.0047 65.1863 36.4572 66.108 29.6241C67.0483 22.6544 65.7498 12.3259 58.9983 6.15422C54.7808 2.28556 49.3757 1.31606 44.6413 0.710557C40.6708 0.233052 36.6751 -0.00421327 32.676 5.66135e-05H32.6667C32.6443 0.00360265 32.6221 0.00827526 32.6002 0.0140566C32.235 0.00705661 31.8687 5.66135e-05 31.5 5.66135e-05C15.799 5.66135e-05 3.5 6.14956 3.5 14.0001V23.3334C3.5 23.9777 4.02233 24.5001 4.66667 24.5001C5.311 24.5001 5.83333 23.9777 5.83333 23.3334V19.6864C10.115 24.6249 19.8718 28.0001 31.5 28.0001C37.629 28.0989 43.72 27.0217 49.4433 24.8267C42.2751 31.4068 34.7253 37.5588 26.8333 43.2507V37.3334C26.8333 36.6891 26.311 36.1667 25.6667 36.1667C25.0223 36.1667 24.5 36.6891 24.5 37.3334V43.8667C22.5321 43.6096 20.5833 43.2222 18.6667 42.7071V36.1667C18.6667 35.5224 18.1443 35.0001 17.5 35.0001C16.8557 35.0001 16.3333 35.5224 16.3333 36.1667V42.0001C14.7196 41.4596 13.1578 40.7752 11.6667 39.9549V32.6667C11.6667 32.0224 11.1443 31.5001 10.5 31.5001C9.85567 31.5001 9.33333 32.0224 9.33333 32.6667V38.4196C7.11667 36.6906 5.83333 34.7142 5.83333 32.6667C5.83333 32.0224 5.311 31.5001 4.66667 31.5001C4.02233 31.5001 3.5 32.0224 3.5 32.6667C3.5 38.9434 11.4042 44.2296 23.0498 46.0157ZM29.6333 67.6667L14.0595 55.2149C15.6508 54.1206 17.577 52.7847 19.7155 51.2751C20.742 51.9352 21.9741 52.1978 23.1805 52.0136C23.935 51.8523 24.7226 52.0175 25.3486 52.4684C25.9747 52.9194 26.3809 53.614 26.467 54.3807C26.9363 57.0885 29.4806 58.927 32.1988 58.5224C32.9544 58.3679 33.7401 58.5371 34.3649 58.9891C34.9898 59.441 35.3966 60.1341 35.4865 60.9001C35.6166 61.5187 35.8384 62.1144 36.1445 62.6676C34.0223 64.3791 31.85 66.0532 29.6333 67.6667ZM57.4338 7.87272C63.1307 13.0784 64.7383 22.3884 63.8062 29.3067C63.5362 31.1513 62.9796 32.9424 62.1565 34.6151L60.4975 32.2817C60.1238 31.7566 59.3951 31.6338 58.87 32.0076C58.3449 32.3813 58.2221 33.1099 58.5958 33.6351L60.9187 36.9017C59.7943 38.7106 58.5404 40.4355 57.1667 42.0631L53.9198 38.3507C53.6463 38.0344 53.2243 37.8886 52.8138 37.9688C52.4033 38.0489 52.0671 38.3427 51.9326 38.7388C51.7981 39.1348 51.886 39.5725 52.1628 39.8861L55.636 43.8667C55.3245 44.2272 55.0153 44.5831 54.7132 44.9284C53.5768 46.2327 52.3798 47.5301 51.1595 48.8216L46.2595 44.6216C45.9457 44.3316 45.4984 44.2364 45.0937 44.3734C44.6889 44.5104 44.3915 44.8578 44.3183 45.2788C44.2452 45.6997 44.4081 46.127 44.7428 46.3926L49.546 50.5144C48.0118 52.0836 46.4135 53.6352 44.7708 55.1694L39.2583 50.4467C38.9416 50.1758 38.5043 50.0945 38.1113 50.2333C37.7183 50.3722 37.4292 50.7102 37.353 51.12C37.2767 51.5298 37.4249 51.9491 37.7417 52.2201L43.05 56.7631C41.4167 58.2482 39.7168 59.7031 37.9937 61.1381C37.8957 60.8735 37.8142 60.6031 37.7498 60.3284C37.2818 57.6245 34.74 55.7894 32.0262 56.1961C31.2681 56.3498 30.4802 56.1791 29.8537 55.7253C29.2273 55.2715 28.8194 54.5761 28.7292 53.8079C28.2675 51.1011 25.719 49.2658 23.0055 49.6861C22.6537 49.7227 22.2991 49.7227 21.9473 49.6861C34.3 40.8777 52.0228 27.4331 57.6333 19.1136V19.1054C58.8059 17.6585 59.4628 15.8621 59.5 14.0001C59.5 10.7812 57.4292 7.84939 53.907 5.50906C55.1888 6.12567 56.3763 6.92154 57.4338 7.87272ZM5.83333 14.0001C5.83333 7.67672 17.5875 2.33339 31.5 2.33339C45.4125 2.33339 57.1667 7.67672 57.1667 14.0001C57.1667 20.3234 45.4125 25.6667 31.5 25.6667C17.5875 25.6667 5.83333 20.3234 5.83333 14.0001Z" fill="#161335"/>
<path d="M42.5121 7.51451C39.9412 5.88338 37.1082 4.70766 34.1378 4.03901C33.232 3.80461 32.2689 3.98501 31.5093 4.53135C31.0401 4.8671 30.6698 5.32284 30.4371 5.85085C22.3358 6.11568 16.3333 9.29601 16.3333 13.4167C16.3333 17.5373 22.2378 20.7002 30.3718 20.9755C30.7463 20.9883 31.1208 21 31.4953 21C34.0471 21.0182 36.5892 20.6861 39.0506 20.013C39.1204 20.0007 39.1888 19.9816 39.2548 19.9558C39.536 19.8742 39.8288 19.8065 40.103 19.7143C43.3498 18.6247 45.3623 17.1838 46.2583 15.3032C47.6443 12.376 45.2328 9.36135 42.5121 7.51451ZM29.3288 18.585C22.9051 18.1195 18.6666 15.6228 18.6666 13.4167C18.6666 11.1102 23.2925 8.52835 30.0801 8.20051L29.3288 18.585ZM32.4951 7.08868C32.5142 6.82578 32.6493 6.58501 32.8638 6.43185C33.0623 6.28673 33.3155 6.23873 33.5533 6.30118C35.1279 6.68986 36.6698 7.20045 38.1651 7.82835L37.6541 17.99C35.6908 18.4436 33.6819 18.6707 31.6668 18.6667L32.4951 7.08868ZM44.1501 14.3033C43.6053 15.4478 42.2123 16.4395 40.026 17.2608L40.4436 8.96818C40.705 9.12374 40.957 9.28318 41.1996 9.44651C41.6115 9.72301 45.15 12.2033 44.1548 14.3033H44.1501Z" fill="#161335"/>
<path d="M35 11.6667C34.3556 11.6667 33.8333 12.189 33.8333 12.8334V14C33.8333 14.6444 34.3556 15.1667 35 15.1667C35.6443 15.1667 36.1666 14.6444 36.1666 14V12.8334C36.1666 12.189 35.6443 11.6667 35 11.6667Z" fill="#161335"/>
<path d="M22.8959 56.2555C22.3926 55.8528 21.6582 55.9343 21.2555 56.4375C20.8528 56.9407 20.9343 57.6751 21.4375 58.0778L27.2709 62.7445C27.7741 63.1472 28.5085 63.0657 28.9112 62.5625C29.3139 62.0593 29.2324 61.3249 28.7292 60.9222L22.8959 56.2555Z" fill="#161335"/>
</g>
<defs>
<clipPath id="clip0_14_455">
<rect width="70" height="70" fill="white"/>
</clipPath>
</defs>
</svg>
