<svg width="70" height="70" viewBox="0 0 70 70" fill="none" xmlns="http://www.w3.org/2000/svg">
<g clip-path="url(#clip0_14_663)">
<path d="M50.1667 37.3333C50.1667 38.1966 50.12 39.0366 50.0383 39.8766C49.6611 40.2451 49.3139 40.643 49 41.0666C48.0461 39.804 46.8528 38.7415 45.4883 37.94C45.5 37.7416 45.5 37.5316 45.5 37.3333C45.5001 28.6948 39.9088 21.0498 31.6764 18.4323C23.444 15.8147 14.4642 18.8267 9.47524 25.879C4.4863 32.9312 4.63582 42.4015 9.84489 49.2928C15.054 56.1841 24.1243 58.9111 32.27 56.035C33.2051 57.3894 34.2678 58.6513 35.4433 59.8033C27.2346 63.34 17.7512 62.1257 10.6984 56.6347C3.64556 51.1438 0.142717 42.2478 1.55841 33.4223C2.9741 24.5969 9.08364 17.2428 17.5 14.2333C19.0116 13.6912 20.5756 13.308 22.1667 13.09C24.4875 12.7478 26.8459 12.7478 29.1667 13.09C30.7577 13.308 32.3217 13.6912 33.8333 14.2333C43.6226 17.6943 50.1672 26.9502 50.1667 37.3333Z" fill="#E8EDFC"/>
<path d="M45.5 37.3333C45.5 37.5317 45.5 37.7417 45.4883 37.94C43.5583 36.7681 41.3412 36.1543 39.0833 36.1667C33.215 36.1667 29.1667 41.195 29.1667 47.0517C29.2537 50.2938 30.3373 53.4305 32.27 56.035C24.1243 58.9111 15.0539 56.1841 9.84487 49.2928C4.6358 42.4016 4.48628 32.9313 9.47522 25.879C14.4642 18.8268 23.4439 15.8148 31.6763 18.4323C39.9087 21.0498 45.5 28.6948 45.5 37.3333Z" fill="#FEBA01"/>
<path d="M37.492 36.309C36.8603 36.2138 36.2222 36.1662 35.5834 36.1666C29.715 36.1666 25.6667 41.195 25.6667 47.0516C25.7537 50.2938 26.8373 53.4304 28.77 56.035C27.2228 56.5845 25.6126 56.9373 23.9774 57.085C24.535 57.1316 25.0962 57.1701 25.6667 57.1701C27.9163 57.1731 30.1498 56.7904 32.27 56.0385C30.3366 53.4329 29.253 50.295 29.1667 47.0516C29.1667 41.7421 32.4987 37.128 37.492 36.309Z" fill="#FEBA01"/>
<path d="M25.6667 17.5C25.0764 17.5 24.5 17.5373 23.9167 17.5887C33.8177 18.4835 41.5291 26.5659 41.958 36.498C43.2032 36.7904 44.3946 37.277 45.4884 37.94C45.5 37.7417 45.5 37.5317 45.5 37.3333C45.4846 26.3861 36.6139 17.5154 25.6667 17.5Z" fill="#FEBA01"/>
<path d="M33.8333 9.33335V14.2334C32.3217 13.6912 30.7577 13.308 29.1667 13.09V9.33335C29.1667 7.40036 27.5997 5.83335 25.6667 5.83335C23.7337 5.83335 22.1667 7.40036 22.1667 9.33335V13.09C20.5756 13.308 19.0116 13.6912 17.5 14.2334V9.33335C17.5 4.82303 21.1563 1.16669 25.6667 1.16669C30.177 1.16669 33.8333 4.82303 33.8333 9.33335Z" fill="#FEBA01"/>
<path d="M68.8334 47.0517C68.8334 53.7484 63.455 61.775 49.5367 68.705C49.2001 68.8794 48.7999 68.8794 48.4634 68.705C43.6742 66.455 39.2781 63.4494 35.4434 59.8034C34.2678 58.6514 33.2052 57.3895 32.27 56.035C30.3373 53.4305 29.2537 50.2938 29.1667 47.0517C29.1667 41.195 33.215 36.1667 39.0834 36.1667C41.3412 36.1543 43.5584 36.7681 45.4884 37.94C46.8528 38.7416 48.0461 39.804 49 41.0667C49.3139 40.643 49.6612 40.2451 50.0384 39.8767C52.3807 37.4998 55.5795 36.1631 58.9167 36.1667C64.785 36.1667 68.8334 41.195 68.8334 47.0517Z" fill="#E8EDFC"/>
<path d="M58.9166 36.1666C58.2916 36.1696 57.6676 36.2195 57.05 36.316C62.0188 37.1548 65.3333 41.7585 65.3333 47.0493C65.3333 53.5453 60.249 61.2826 47.2441 68.0715C47.6478 68.2826 48.0433 68.4938 48.4633 68.7026C48.7998 68.877 49.2001 68.877 49.5366 68.7026C63.455 61.775 68.8333 53.7483 68.8333 47.0516C68.8333 41.195 64.785 36.1666 58.9166 36.1666Z" fill="#FEBA01"/>
<path d="M4.66669 37.3333C4.66619 26.9502 11.2107 17.6944 21 14.2333V9.33334C21.0054 5.50008 23.6732 2.18519 27.4167 1.36034C25.0008 0.824018 22.4721 1.4144 20.5434 2.96504C18.6147 4.51569 17.4951 6.85863 17.5 9.33334V14.2333C5.92825 18.3275 -0.83006 30.3507 1.68736 42.3644C4.20478 54.3782 15.2214 62.6767 27.4634 61.7808C14.6275 60.8743 4.67511 50.2012 4.66669 37.3333Z" fill="white"/>
<path d="M4.01683 46.0064L1.8515 46.8755C0.63633 43.8406 0.00805199 40.6026 0 37.3334H2.33333C2.34107 40.3048 2.91234 43.2478 4.01683 46.0064Z" fill="white"/>
<path d="M1.64151 43.1422C0.997177 43.1454 0.472231 42.6257 0.469009 41.9813C0.465787 41.337 0.98551 40.8121 1.62984 40.8088H1.64151C2.28584 40.8088 2.80818 41.3312 2.80818 41.9755C2.80818 42.6198 2.28584 43.1422 1.64151 43.1422Z" fill="#171335"/>
<path d="M32.9082 31.2585C32.4526 30.803 31.7141 30.803 31.2585 31.2585L26.8333 35.6836V26.8333C26.8333 26.189 26.311 25.6666 25.6667 25.6666C25.0223 25.6666 24.5 26.189 24.5 26.8333V38.5C24.4999 38.9718 24.784 39.3972 25.2198 39.578C25.3614 39.637 25.5133 39.6671 25.6667 39.6666C25.9761 39.6666 26.2728 39.5436 26.4915 39.3248L32.9082 32.9081C33.3636 32.4525 33.3636 31.714 32.9082 31.2585Z" fill="#171335"/>
<path d="M58.9167 35C56.2148 34.9853 53.5715 35.7872 51.3333 37.3007C51.3267 30.3381 48.4831 23.6789 43.4583 18.8592L45.5 16.8163L47.0085 18.3248C47.4663 18.767 48.1939 18.7606 48.644 18.3106C49.094 17.8606 49.1003 17.1329 48.6582 16.6752L43.9915 12.0085C43.5337 11.5664 42.8061 11.5727 42.356 12.0227C41.906 12.4727 41.8997 13.2004 42.3418 13.6582L43.8503 15.1667L41.7025 17.3145C39.6777 15.6883 37.4178 14.3787 35 13.4307V9.33333C35 4.17868 30.8213 0 25.6667 0C20.512 0 16.3333 4.17868 16.3333 9.33333V13.4307C13.9155 14.3787 11.6556 15.6883 9.63083 17.3145L7.483 15.1667L8.9915 13.6582C9.43363 13.2004 9.42731 12.4727 8.97729 12.0227C8.52727 11.5727 7.79961 11.5664 7.34183 12.0085L2.67517 16.6752C2.23303 17.1329 2.23936 17.8606 2.68938 18.3106C3.1394 18.7606 3.86706 18.767 4.32483 18.3248L5.83333 16.8163L7.87617 18.8592C2.84294 23.6866 -0.00184519 30.3593 8.97936e-07 37.3333C8.97936e-07 37.9777 0.522335 38.5 1.16667 38.5C1.811 38.5 2.33333 37.9777 2.33333 37.3333C2.33333 24.4467 12.78 14 25.6667 14C38.5533 14 49 24.4467 49 37.3333C49 37.9318 48.9685 38.5455 48.9207 39.1778C48.2369 38.4745 47.4815 37.8445 46.6667 37.2983C46.6473 25.7049 37.2368 16.3205 25.6434 16.3333C14.05 16.3462 4.66027 25.7516 4.6667 37.345C4.67313 48.9384 14.0732 58.3333 25.6667 58.3333C27.7454 58.3296 29.8119 58.0151 31.7975 57.4C32.2642 58.0347 32.7892 58.6833 33.3748 59.3355C30.8994 60.2126 28.2929 60.6627 25.6667 60.6667C16.1294 60.6725 7.55193 54.8642 4.01683 46.0063C3.86378 45.6163 3.51336 45.3383 3.09876 45.278C2.68417 45.2177 2.26907 45.3843 2.01123 45.7146C1.7534 46.0448 1.69243 46.4879 1.8515 46.8755C5.74109 56.6183 15.1761 63.0065 25.6667 63C28.9206 63.0039 32.1451 62.3841 35.1657 61.1742C38.9779 64.6521 43.2866 67.5432 47.95 69.7527C48.6116 70.0805 49.3884 70.0805 50.05 69.7527C67.4088 61.103 70 51.8187 70 47.0552C70 40.2955 65.1315 35 58.9167 35ZM18.6667 9.33333C18.6667 5.46734 21.8007 2.33333 25.6667 2.33333C29.5327 2.33333 32.6667 5.46734 32.6667 9.33333V12.6455C31.9021 12.4269 31.1243 12.2449 30.3333 12.0995V9.33333C30.3333 6.756 28.244 4.66667 25.6667 4.66667C23.0893 4.66667 21 6.756 21 9.33333V12.0995C20.209 12.2457 19.4312 12.4277 18.6667 12.6455V9.33333ZM23.3333 11.7833V9.33333C23.3333 8.04467 24.378 7 25.6667 7C26.9553 7 28 8.04467 28 9.33333V11.7833C27.2312 11.7133 26.4542 11.6667 25.6667 11.6667C24.8792 11.6667 24.1022 11.7075 23.3333 11.7833ZM26.8333 55.9568V53.6667C26.8333 53.0223 26.311 52.5 25.6667 52.5C25.0223 52.5 24.5 53.0223 24.5 53.6667V55.9405C22.0203 55.7888 19.5965 55.1397 17.3728 54.0318L18.5103 52.0613C18.8273 51.5038 18.6349 50.795 18.0795 50.4743C17.5241 50.1537 16.814 50.3414 16.4897 50.8947L15.3463 52.878C13.2789 51.4989 11.5046 49.7246 10.1255 47.6572L12.1088 46.5138C12.4728 46.3069 12.6979 45.9208 12.6989 45.5022C12.6998 45.0835 12.4763 44.6965 12.1133 44.488C11.7503 44.2795 11.3033 44.2814 10.9422 44.4932L8.97283 45.6307C7.86288 43.4063 7.21217 40.9812 7.0595 38.5H9.33333C9.97767 38.5 10.5 37.9777 10.5 37.3333C10.5 36.689 9.97767 36.1667 9.33333 36.1667H7.0595C7.21118 33.687 7.86029 31.2631 8.96817 29.0395L10.9375 30.177C11.2987 30.3887 11.7456 30.3907 12.1086 30.1822C12.4717 29.9737 12.6951 29.5866 12.6942 29.168C12.6933 28.7493 12.4681 28.3633 12.1042 28.1563L10.1208 27.013C11.4999 24.9456 13.2742 23.1713 15.3417 21.7922L16.485 23.7755C16.6919 24.1394 17.078 24.3646 17.4966 24.3655C17.9153 24.3665 18.3023 24.143 18.5109 23.78C18.7194 23.4169 18.7174 22.97 18.5057 22.6088L17.3682 20.6383C19.593 19.5286 22.0185 18.8783 24.5 18.7262V21C24.5 21.6443 25.0223 22.1667 25.6667 22.1667C26.311 22.1667 26.8333 21.6443 26.8333 21V18.7262C29.313 18.8778 31.7369 19.527 33.9605 20.6348L32.823 22.6053C32.506 23.1628 32.6985 23.8717 33.2539 24.1923C33.8092 24.513 34.5193 24.3253 34.8437 23.772L35.987 21.7887C38.0544 23.1678 39.8287 24.9421 41.2078 27.0095L39.2245 28.1528C38.8606 28.3598 38.6354 28.7458 38.6345 29.1645C38.6335 29.5831 38.857 29.9702 39.22 30.1787C39.5831 30.3872 40.03 30.3852 40.3912 30.1735L42.3605 29.036C43.4477 31.2149 44.0939 33.587 44.2622 36.0162C42.6198 35.3391 40.8597 34.9938 39.0833 35C32.8685 35 28 40.2955 28 47.0552C28.0546 49.9984 28.9009 52.8726 30.45 55.3758C29.2665 55.687 28.055 55.8797 26.8333 55.951V55.9568ZM48.9883 67.6667C40.1088 63.2403 34.0667 57.9157 31.5922 52.5H36.6088L38.6167 56.5215C38.836 56.8893 39.2326 57.1146 39.6608 57.1146C40.0891 57.1146 40.4857 56.8893 40.705 56.5215L45.1967 47.5382L49.0397 60.9863C49.178 61.4731 49.6143 61.8152 50.12 61.8333H50.1667C50.653 61.8338 51.0886 61.5326 51.2598 61.0773L54.4752 52.5H66.4067C63.9333 57.9145 57.8853 63.2392 48.9883 67.6667ZM67.235 50.1667H53.6667C53.1803 50.1662 52.7447 50.4674 52.5735 50.9227L50.316 56.945L46.6212 44.0137C46.4892 43.551 46.0866 43.2168 45.6075 43.1721C45.1284 43.1274 44.6711 43.3815 44.4558 43.8118L39.6667 53.3913L38.3833 50.8118C38.1847 50.4144 37.7776 50.1642 37.3333 50.1667H30.765C30.4871 49.1525 30.342 48.1066 30.3333 47.0552C30.3333 41.5123 34.0947 37.3333 39.0833 37.3333C42.5865 37.3362 45.8916 38.958 48.0375 41.727C48.2668 42.0275 48.6232 42.2038 49.0012 42.2038C49.3792 42.2038 49.7355 42.0275 49.9648 41.727C52.1148 38.9644 55.416 37.3441 58.9167 37.3333C63.9053 37.3333 67.6667 41.5123 67.6667 47.0552C67.658 48.1066 67.5129 49.1525 67.235 50.1667Z" fill="#171335"/>
<path d="M39.0834 39.6666C34.916 39.6666 32.6667 43.4735 32.6667 47.0551C32.6667 47.6995 33.189 48.2218 33.8334 48.2218C34.4777 48.2218 35 47.6995 35 47.0551C35 44.604 36.4315 42 39.0834 42C39.7277 42 40.25 41.4776 40.25 40.8333C40.25 40.189 39.7277 39.6666 39.0834 39.6666Z" fill="#171335"/>
</g>
<defs>
<clipPath id="clip0_14_663">
<rect width="70" height="70" fill="white"/>
</clipPath>
</defs>
</svg>
