<svg width="57" height="57" viewBox="0 0 57 57" fill="none" xmlns="http://www.w3.org/2000/svg">
<g clip-path="url(#clip0_48_1215)">
<path d="M0.628133 29.4954C0.626199 29.3446 0.625402 29.1935 0.625857 29.0422C0.671708 13.4284 13.4048 0.9728 29.0161 1.25621C44.1725 1.53131 56.3742 13.9036 56.3742 29.1258C56.3742 35.2648 54.3896 40.9404 51.0269 45.5458H17.0244C8.10321 45.5458 0.744067 38.4159 0.628133 29.4954Z" fill="#003278"/>
<path d="M44.0967 6.02009C47.1072 10.4712 48.8653 15.8387 48.8653 21.6168C48.8653 27.7559 46.8806 33.4314 43.518 38.0368H9.51559C6.91658 38.0368 4.45022 37.4316 2.2568 36.3534C1.24274 34.2781 1.10952 23.1731 1.98124 20.4801C5.65825 9.12187 16.3968 1.02707 29.0161 1.25621C34.5975 1.35758 39.7784 3.09944 44.0967 6.02009Z" fill="#00429A"/>
<path d="M38.2231 16.2196C38.2231 17.3716 37.9825 18.4803 37.5379 19.5174C36.9425 20.906 35.5782 21.8164 34.0674 21.8183C34.0601 21.8183 34.0525 21.8183 34.045 21.8183C29.3871 21.8183 25.2742 20.0213 22.8113 17.2785C20.3484 20.0213 16.2354 21.8183 11.5775 21.8183C11.5701 21.8183 11.5626 21.8183 11.5551 21.8183C10.0443 21.8163 8.67992 20.906 8.08467 19.5174C7.64004 18.4802 7.39941 17.3716 7.39941 16.2196C7.39941 15.0677 7.64004 13.959 8.08467 12.9218C8.39947 12.1875 8.92943 11.5869 9.58225 11.1837C8.7326 10.1273 8.51188 8.67913 9.02272 7.40135C9.44174 6.35351 10.0555 5.39941 10.87 4.58492C11.6845 3.77031 12.6386 3.15662 13.6865 2.73759C14.8319 2.27954 16.1145 2.40959 17.1288 3.05354C17.4519 2.0074 18.2233 1.13101 19.2626 0.685365C20.3 0.240629 21.4086 0 22.5606 0C23.7126 0 24.8213 0.240629 25.8584 0.685251C26.8248 1.09961 27.5596 1.88635 27.9177 2.83566C28.8582 2.38615 29.9649 2.33689 30.9668 2.73748C32.0147 3.1565 32.9687 3.77019 33.7834 4.5848C34.598 5.39941 35.2117 6.35339 35.6307 7.40124C36.0877 8.54431 35.9593 9.82391 35.3187 10.8373C36.2989 11.1854 37.1137 11.9321 37.538 12.9217C37.9825 13.959 38.2231 15.0677 38.2231 16.2196Z" fill="#F19B0B"/>
<path d="M9.86555 11.4981C12.2155 13.848 15.0163 15.355 17.7652 15.9537C14.0892 16.6334 10.9398 18.355 8.87277 20.6903C8.54487 20.3579 8.27535 19.9622 8.08467 19.5175C7.64004 18.4803 7.39941 17.3717 7.39941 16.2197C7.39941 15.0678 7.64004 13.9591 8.08467 12.9219C8.39947 12.1876 8.92943 11.587 9.58225 11.1838C9.66542 11.2873 9.75462 11.387 9.84984 11.4824C9.85508 11.4875 9.86031 11.4928 9.86555 11.4981ZM23.4394 8.45284C24.2348 6.73317 25.3838 5.06663 26.8701 3.58042C26.8753 3.57519 26.8807 3.56984 26.8859 3.5646C27.1916 3.25969 27.5413 3.01565 27.9177 2.83578C27.5596 1.88646 26.8248 1.09972 25.8585 0.685365C24.8212 0.240629 23.7126 0 22.5606 0C21.4087 0 20.3 0.240629 19.2628 0.685251C18.8182 0.875934 18.4225 1.14535 18.09 1.47335C19.9921 3.15696 21.4871 5.55869 22.3435 8.37809C22.5011 8.89735 23.2115 8.94536 23.4394 8.45284ZM16.9619 4.17818C16.9619 4.17067 16.9619 4.16328 16.9619 4.15577C16.9623 3.77577 17.0204 3.40498 17.1289 3.05354C16.1145 2.40959 14.8321 2.27954 13.6866 2.73759C12.6387 3.15662 11.6847 3.77031 10.8702 4.58492C10.0555 5.39953 9.44174 6.35351 9.02283 7.40147C8.84319 7.85064 8.75399 8.32098 8.7508 8.78801C11.4761 8.6219 14.4554 9.37519 17.2217 10.987C17.6995 11.2653 18.2646 10.7895 18.0658 10.2735C17.3594 8.43873 16.9619 6.36875 16.9619 4.17818ZM24.3807 14.8144C24.3749 14.8202 24.3691 14.826 24.3633 14.8318C23.7793 15.4145 23.0492 15.7947 22.2732 15.9544C22.2801 15.9942 22.2872 16.0338 22.2945 16.0734C26.2685 16.8089 31.087 15.1987 34.7877 11.498L34.8036 11.4821C35.8705 10.4126 36.1915 8.80405 35.6306 7.40124C35.2115 6.35339 34.5977 5.3993 33.7832 4.58469C32.9687 3.77008 32.0145 3.15639 30.9667 2.73737C30.5175 2.55772 30.0472 2.46852 29.5802 2.46534C29.8281 6.5335 28.0277 11.1676 24.3807 14.8144ZM37.5379 12.9218C37.3472 12.4771 37.0778 12.0815 36.7497 11.7491C34.0486 14.8009 29.4987 16.8046 24.3412 16.8046H24.3166C23.4916 16.8036 22.7065 16.5562 22.0448 16.1204C22.0216 16.1534 21.9985 16.1865 21.9756 16.2197C24.2656 19.5497 28.8113 21.8184 34.0449 21.8184H34.0673C35.5781 21.8164 36.9425 20.906 37.5377 19.5175C37.9824 18.4803 38.223 17.3717 38.223 16.2197C38.223 15.0678 37.9825 13.959 37.5379 12.9218Z" fill="#F5C02C"/>
<path d="M24.9778 21.6168H19.858C17.6588 21.6168 15.876 19.834 15.876 17.6347C15.876 15.4355 17.6588 13.6527 19.858 13.6527H24.9778C27.177 13.6527 28.9598 15.4355 28.9598 17.6347C28.9598 19.834 27.177 21.6168 24.9778 21.6168Z" fill="#F5C02C"/>
<path d="M25.7736 21.6168H24.2377C22.0384 21.6168 20.2556 19.834 20.2556 17.6347C20.2556 15.4355 22.0384 13.6527 24.2377 13.6527H25.7736C27.9728 13.6527 29.7556 15.4355 29.7556 17.6347C29.7556 19.834 27.9728 21.6168 25.7736 21.6168Z" fill="#F3D373"/>
<path d="M6.44428 42.073C6.56898 43.3668 4.84055 43.9276 4.20217 42.7953C1.99544 38.8813 0.707193 34.3807 0.629601 29.5857C0.628235 29.5841 0.626984 29.5825 0.625732 29.5808V19.3413C0.625732 17.4562 2.15381 15.9281 4.03891 15.9281H9.72753C7.84243 15.9281 6.31435 17.4563 6.31435 19.3413V39.8203C6.31561 39.822 6.31686 39.8236 6.31811 39.8252C6.3304 40.5822 6.37283 41.3318 6.44428 42.073Z" fill="#D80D80"/>
<path d="M44.9969 19.3413V48.9221C40.3779 52.319 14.5801 54.2041 9.61379 49.6268C7.33322 47.5249 5.40432 45.0471 3.92505 42.292V19.3413C3.92505 17.4563 5.45313 15.9281 7.33822 15.9281H16.2631L17.2364 17.2555H28.2345L29.3725 15.9281H41.5837C43.4688 15.9281 44.9969 17.4563 44.9969 19.3413Z" fill="#FD3D96"/>
<path d="M7.33838 15.9281H10.7516V50.3964C10.3007 50.1634 9.91817 49.9072 9.61394 49.6268C8.81037 48.8862 8.05037 48.0987 7.33838 47.269V15.9281ZM36.9192 15.9281V51.3339C38.1477 51.1353 39.2966 50.9117 40.3324 50.6669V15.9281H36.9192ZM30.0929 52.1125C31.2522 52.0287 32.3963 51.9231 33.506 51.7981V15.9281H30.0929V52.1125ZM16.2633 15.9281H14.1647V51.5184C15.2005 51.7391 16.3494 51.9122 17.5779 52.0414V17.2555H17.2366L16.2633 15.9281Z" fill="#F02399"/>
<path d="M21.6128 50.0345C20.2886 49.9785 18.9882 49.8301 17.718 49.5956V17.7798C17.718 16.7571 21.6128 16.7571 21.6128 17.7798V50.0345Z" fill="#F19B0B"/>
<path d="M27.9046 17.7799V49.5956C26.2533 49.9004 24.5509 50.0598 22.8113 50.0598C22.1998 50.0598 21.5927 50.0402 20.991 50.0014V15.9281H26.5403C27.2937 15.9281 27.9046 16.7572 27.9046 17.7799Z" fill="#F5C02C"/>
<path d="M23.2888 15.9281L15.8909 30.0138C15.7094 30.3592 15.2419 30.4236 14.9739 30.1401L10.3633 25.2632C10.1787 25.068 10.1558 24.7703 10.3085 24.5491L16.2633 15.9281H23.2888Z" fill="#F5C02C"/>
<path d="M29.3726 15.9281L35.3149 24.5492C35.4673 24.7703 35.4444 25.0678 35.26 25.2629L30.6495 30.1396C30.3813 30.4233 29.9136 30.3588 29.7322 30.013L22.3469 15.9281H29.3726Z" fill="#F1CA50"/>
<path d="M51.0269 45.5457C45.9572 52.489 37.7555 57 28.5 57C21.2136 57 14.5801 54.2042 9.61377 49.6268V34.7006C9.61377 33.7581 10.3779 32.994 11.3204 32.994H49.3204C50.2628 32.994 51.0269 33.7581 51.0269 34.7006V45.5457Z" fill="#F7E6B0"/>
<path d="M51.0269 34.7006V45.5457C49.4521 47.7024 47.5752 49.6244 45.4585 51.2494C41.4615 53.4637 36.863 54.7246 31.97 54.7246C31.8182 54.7246 31.6667 54.7233 31.5154 54.7209C21.2635 54.557 13.0837 46.0951 13.0837 35.842V32.994H49.3203C50.2628 32.994 51.0269 33.7581 51.0269 34.7006Z" fill="#F9EECF"/>
<path d="M15.3025 45.2245C15.3025 44.7533 15.6845 44.3712 16.1558 44.3712H31.5151C31.9863 44.3712 32.3684 44.7533 32.3684 45.2245C32.3684 45.6958 31.9863 46.0778 31.5151 46.0778H16.1558C15.6845 46.0778 15.3025 45.6958 15.3025 45.2245ZM26.9642 47.5H16.1558C15.6845 47.5 15.3025 47.882 15.3025 48.3533C15.3025 48.8245 15.6845 49.2065 16.1558 49.2065H26.9642C27.4354 49.2065 27.8175 48.8245 27.8175 48.3533C27.8175 47.882 27.4354 47.5 26.9642 47.5ZM37.7725 51.7664C37.3013 51.7664 36.9193 52.1485 36.9193 52.6197C36.9193 53.091 37.3013 53.473 37.7725 53.473C38.2438 53.473 38.6258 53.091 38.6258 52.6197C38.6258 52.1485 38.2438 51.7664 37.7725 51.7664ZM34.9282 51.7664C34.457 51.7664 34.0749 52.1485 34.0749 52.6197C34.0749 53.091 34.457 53.473 34.9282 53.473C35.3995 53.473 35.7815 53.091 35.7815 52.6197C35.7815 52.1485 35.3995 51.7664 34.9282 51.7664ZM32.0839 51.7664C31.6127 51.7664 31.2306 52.1485 31.2306 52.6197C31.2306 53.091 31.6127 53.473 32.0839 53.473C32.5552 53.473 32.9372 53.091 32.9372 52.6197C32.9372 52.1485 32.5552 51.7664 32.0839 51.7664Z" fill="#8279C0"/>
<path d="M20.3168 39.6847L17.6838 41.8523C17.5743 41.9425 17.4162 41.9425 17.3067 41.8523L14.6736 39.6847C13.9062 39.053 13.7754 37.9278 14.3772 37.1367C15.0557 36.2451 16.3647 36.1566 17.157 36.9489L17.2855 37.0774C17.4014 37.1933 17.5892 37.1933 17.7051 37.0774L17.8335 36.9489C18.6257 36.1567 19.9349 36.2451 20.6133 37.1367C21.2151 37.9277 21.0842 39.0529 20.3168 39.6847Z" fill="#FD73C4"/>
<path d="M18.8034 40.9306L17.6838 41.8522C17.5743 41.9425 17.4162 41.9425 17.3067 41.8522L14.6736 39.6847C13.9062 39.053 13.7754 37.9278 14.3772 37.1367C14.6395 36.7921 14.9959 36.5675 15.3804 36.4673C15.1602 37.2578 15.4096 38.1366 16.0803 38.6887L18.8034 40.9306Z" fill="#FD4FB6"/>
<path d="M44.8834 25.7695H41.4702C40.8419 25.7695 40.3325 25.2602 40.3325 24.6318V22.7545C40.3325 22.1262 40.8419 21.6168 41.4702 21.6168H44.8834C45.5118 21.6168 46.0211 22.1262 46.0211 22.7545V24.6318C46.0211 25.2602 45.5118 25.7695 44.8834 25.7695ZM46.0211 49.4073V47.4432C46.0211 45.8723 44.7477 44.5989 43.1768 44.5989C41.606 44.5989 40.3325 45.8723 40.3325 47.4432V49.4073C40.3325 49.8338 40.4523 50.2516 40.6784 50.6133L42.8874 54.1478C43.0211 54.3617 43.3326 54.3617 43.4663 54.1478L45.6753 50.6133C45.9013 50.2516 46.0211 49.8338 46.0211 49.4073Z" fill="#F5C02C"/>
<path d="M44.8831 25.7695H43.3736C42.7452 25.7695 42.2358 25.2602 42.2358 24.6318V22.7545C42.2358 22.1262 42.7452 21.6168 43.3736 21.6168H44.8831C45.5115 21.6168 46.0208 22.1262 46.0208 22.7545V24.6318C46.0208 25.2602 45.5115 25.7695 44.8831 25.7695ZM45.675 50.6133C45.901 50.2516 46.0208 49.8338 46.0208 49.4073V47.4432C46.0208 46.2772 45.3193 45.2751 44.3154 44.836C43.5199 45.1832 42.8929 45.8888 42.681 46.7991L42.6076 48.9222C42.5111 49.3376 42.533 49.7717 42.6712 50.1752L43.6379 53.8728L45.675 50.6133Z" fill="#F1CA50"/>
<path d="M42.8355 48.9222H40.3325V23.8922H46.0211V45.7365C46.0211 47.4959 44.5949 48.9222 42.8355 48.9222Z" fill="#D98800"/>
<path d="M46.0211 48.9222H42.6079V29.012C42.6079 28.0695 43.372 27.3054 44.3145 27.3054C45.257 27.3054 46.0211 28.0695 46.0211 29.012V48.9222Z" fill="#F19B0B"/>
<path d="M47.1588 38.6826H44.8833C44.255 38.6826 43.7456 38.1732 43.7456 37.5449V26.1676C43.7456 25.5393 44.255 25.0299 44.8833 25.0299H47.1588C47.7871 25.0299 48.2965 25.5393 48.2965 26.1676V37.5449C48.2965 38.1732 47.7871 38.6826 47.1588 38.6826Z" fill="#FDE803"/>
<path d="M47.1587 38.6826C46.5304 38.6826 46.021 38.1732 46.021 37.5449V26.1676C46.021 25.5393 46.5304 25.0299 47.1587 25.0299C47.7871 25.0299 48.2964 25.5393 48.2964 26.1676V37.5449C48.2964 38.1732 47.7871 38.6826 47.1587 38.6826Z" fill="#FDED32"/>
<path d="M43.466 54.1477C43.3323 54.3616 43.0208 54.3616 42.8871 54.1477L41.7544 52.3353H44.5987L43.466 54.1477Z" fill="#003278"/>
</g>
<defs>
<clipPath id="clip0_48_1215">
<rect width="57" height="57" fill="white"/>
</clipPath>
</defs>
</svg>
