<svg width="220" height="62" viewBox="0 0 220 62" fill="none" xmlns="http://www.w3.org/2000/svg">
<path d="M87.7161 57.791H86.8812L83.6503 54.778V57.791H83.0332V51.656H83.6503V54.4513L86.736 51.656H87.6072L84.3038 54.5965L87.7161 57.791Z" fill="#57504C"/>
<path d="M97.1907 51.5471C98.0982 51.5471 98.8243 51.8738 99.3688 52.491C99.9133 53.1444 100.204 53.8705 100.204 54.7417C100.204 54.778 100.204 54.8143 100.204 54.8869C100.204 54.9595 100.204 54.9958 100.204 55.0321H94.6495C94.7221 55.7219 95.0126 56.2664 95.4845 56.702C95.9564 57.1376 96.5372 57.3191 97.2633 57.3191C97.7352 57.3191 98.1708 57.2102 98.5338 57.0287C98.8969 56.8109 99.1873 56.5568 99.3688 56.2301L99.9133 56.5568C99.6592 56.9924 99.2962 57.3191 98.8243 57.5733C98.3523 57.8274 97.8441 57.9363 97.227 57.9363C96.2831 57.9363 95.5208 57.6459 94.9036 57.0287C94.2865 56.4116 93.9961 55.6493 93.9961 54.7417C93.9961 53.8342 94.2865 53.0718 94.8673 52.4547C95.4845 51.8375 96.2468 51.5471 97.1907 51.5471ZM97.1907 52.128C96.5009 52.128 95.9201 52.3458 95.4482 52.7814C94.9762 53.217 94.7221 53.7615 94.6495 54.4513H99.5866C99.514 53.7252 99.2599 53.1444 98.8243 52.7451C98.3523 52.3458 97.8078 52.128 97.1907 52.128Z" fill="#57504C"/>
<path d="M111.821 51.6924V52.3095H109.607V57.8274H108.99V52.3095H106.775V51.6924H111.821Z" fill="#57504C"/>
<path d="M121.586 57.9363C120.679 57.9363 119.916 57.6459 119.299 57.0287C118.682 56.4116 118.355 55.6493 118.355 54.7417C118.355 53.8342 118.682 53.0718 119.299 52.4547C119.916 51.8375 120.679 51.5471 121.586 51.5471C122.458 51.5471 123.22 51.8375 123.873 52.4547C124.491 53.0718 124.817 53.8342 124.817 54.7417C124.817 55.6493 124.491 56.4116 123.873 57.0287C123.22 57.6459 122.494 57.9363 121.586 57.9363ZM119.735 56.5931C120.243 57.1013 120.86 57.3554 121.586 57.3554C122.312 57.3554 122.93 57.1013 123.438 56.5931C123.946 56.0849 124.2 55.4677 124.2 54.7417C124.2 54.0157 123.946 53.3985 123.438 52.8903C122.93 52.3821 122.312 52.128 121.586 52.128C120.86 52.128 120.243 52.3821 119.735 52.8903C119.227 53.3985 118.973 54.0157 118.973 54.7417C119.009 55.4677 119.263 56.0849 119.735 56.5931Z" fill="#57504C"/>
<path d="M132.514 55.0321V54.4513H136.906V55.0321H132.514Z" fill="#57504C"/>
<path d="M149.683 57.2103H150.554V59.461H149.937V57.8274H144.637V59.461H144.02V57.2103H144.746C145.181 56.5932 145.435 55.7945 145.435 54.7418V51.6924H149.719V57.2103H149.683ZM145.472 57.2103H149.065V52.2732H146.016V54.7418C146.016 55.7582 145.835 56.5569 145.472 57.2103Z" fill="#57504C"/>
<path d="M162.535 51.6924H163.079V57.8274H162.462V52.7814L158.578 57.8274H158.033V51.6924H158.65V56.7384L162.535 51.6924Z" fill="#57504C"/>
<path d="M173.823 51.5471C174.731 51.5471 175.457 51.8738 176.002 52.491C176.546 53.1081 176.837 53.8705 176.837 54.7417C176.837 54.778 176.837 54.8143 176.837 54.8869C176.837 54.9595 176.837 54.9958 176.837 55.0321H171.282C171.355 55.7219 171.645 56.2664 172.117 56.702C172.589 57.1376 173.17 57.3191 173.896 57.3191C174.368 57.3191 174.804 57.2102 175.167 57.0287C175.53 56.8109 175.82 56.5568 176.002 56.2301L176.546 56.5568C176.292 56.9924 175.929 57.3191 175.457 57.5733C174.985 57.8274 174.477 57.9363 173.86 57.9363C172.916 57.9363 172.154 57.6459 171.536 57.0287C170.919 56.4116 170.629 55.6493 170.629 54.7417C170.629 53.8342 170.919 53.0718 171.5 52.4547C172.154 51.8375 172.916 51.5471 173.823 51.5471ZM173.823 52.128C173.134 52.128 172.553 52.3458 172.081 52.7814C171.609 53.217 171.355 53.7615 171.282 54.4513H176.219C176.147 53.7252 175.893 53.1444 175.457 52.7451C174.985 52.3458 174.441 52.128 173.823 52.128Z" fill="#57504C"/>
<path d="M188.454 51.6924V52.3095H186.24V57.8274H185.623V52.3095H183.408V51.6924H188.454Z" fill="#57504C"/>
<path d="M200.796 51.6924H201.413V57.8275H200.796V56.448C200.542 56.9199 200.179 57.2829 199.707 57.5733C199.235 57.8274 198.727 57.9727 198.146 57.9727C197.274 57.9727 196.512 57.6822 195.895 57.0651C195.278 56.448 194.951 55.6856 194.951 54.7781C194.951 53.8705 195.278 53.1082 195.895 52.491C196.512 51.8739 197.274 51.5835 198.146 51.5835C198.727 51.5835 199.235 51.7287 199.707 51.9828C200.179 52.2369 200.505 52.6363 200.796 53.1082V51.6924ZM196.403 56.5932C196.911 57.1014 197.529 57.3555 198.255 57.3555C198.981 57.3555 199.598 57.1014 200.106 56.5932C200.614 56.0849 200.868 55.4678 200.868 54.7418C200.868 54.0157 200.614 53.3986 200.106 52.8904C199.598 52.3821 198.981 52.128 198.255 52.128C197.529 52.128 196.911 52.3821 196.403 52.8904C195.895 53.3986 195.641 54.0157 195.641 54.7418C195.641 55.4678 195.895 56.0849 196.403 56.5932Z" fill="#57504C"/>
<path d="M115.196 21.7795C112.655 21.7795 110.804 23.0138 109.642 24.6474C108.807 23.2679 106.811 21.7795 104.524 21.7795C102.854 21.7795 100.966 22.4692 99.7319 23.9939V22.1062H96.4647V39.5675H99.8771V28.8947C99.8771 26.6803 101.547 25.0467 103.725 25.0467C105.867 25.0467 107.573 26.8255 107.573 28.7858V39.5675H110.985V28.7132C110.985 26.8981 112.692 25.0467 114.833 25.0467C116.975 25.0467 118.681 26.7892 118.681 28.7858V39.5675H122.094V28.6043C122.021 24.6474 118.718 21.7795 115.196 21.7795ZM89.7126 39.6038H93.1249V22.1425H89.7126V39.6038ZM82.9967 39.6038H86.4091V14.8458H82.9967V39.6038ZM91.4187 15.0999C90.2208 15.0999 89.2769 16.0801 89.2769 17.2418C89.2769 18.4397 90.2571 19.4199 91.4187 19.4199C92.6167 19.4199 93.5969 18.4397 93.5969 17.2418C93.5969 16.0801 92.6167 15.0999 91.4187 15.0999ZM71.5253 26.3172C67.8225 25.9179 65.9711 24.8289 65.9711 23.0138C65.9711 21.0898 67.9677 19.7103 70.8356 19.7103C74.1027 19.7103 76.3535 21.2713 76.4624 23.5946H79.9474C79.6932 19.311 76.0267 16.4431 70.763 16.4431C65.9348 16.4431 62.3772 19.2747 62.3772 23.0138C62.3772 24.9378 63.1396 26.4988 64.6643 27.6241C66.08 28.6769 68.1129 29.3303 70.8356 29.6207C75.1192 30.0564 77.0069 31.1817 77.0069 33.2872C77.0069 34.9208 75.2644 36.5907 71.3438 36.5907C67.6773 36.5907 65.3177 34.9571 65.1725 32.3797H61.6875C61.9416 36.99 65.717 39.8579 71.489 39.8579C76.7528 39.8579 80.4556 37.0626 80.4556 33.0694C80.5282 29.1488 77.6603 27.007 71.5253 26.3172ZM134.291 27.1522C130.225 26.7166 128.193 25.4097 128.193 23.2679C128.193 20.9809 130.443 19.4199 133.674 19.4199C137.05 19.4199 139.482 20.9809 139.882 23.3768H142.387C141.878 19.6014 138.43 17.0965 133.602 17.0965C128.991 17.0965 125.506 19.7466 125.506 23.2679C125.506 25.083 126.232 26.4988 127.648 27.5515C129.028 28.568 131.097 29.2214 133.747 29.5118C136.905 29.8385 140.499 30.6009 140.499 33.7592C140.499 35.6832 138.575 37.6435 134.219 37.6435C130.407 37.6435 127.866 36.0099 127.467 33.3598H124.962C125.47 37.462 129.028 39.9668 134.4 39.9668C139.482 39.9668 143.004 37.3167 143.004 33.5776C143.004 29.8385 140.245 27.8056 134.291 27.1522ZM179.523 25.3371C177.926 23.6309 175.675 22.5418 173.134 22.5418C168.342 22.5418 164.422 26.4262 164.422 31.2543C164.422 36.0462 168.306 39.9668 173.134 39.9668C175.675 39.9668 177.926 38.8777 179.523 37.1715V39.6401H181.847V22.8686H179.523V25.3371ZM173.134 37.6435C169.613 37.6435 166.745 34.7756 166.745 31.2543C166.745 27.733 169.613 24.8652 173.134 24.8652C176.656 24.8652 179.523 27.733 179.523 31.2543C179.523 34.7756 176.692 37.6435 173.134 37.6435ZM153.713 22.5418C151.172 22.5418 148.921 23.6309 147.324 25.3371V22.8686H145.037V44.7587H147.36V37.1352C148.957 38.8414 151.208 39.9305 153.749 39.9305C158.541 39.9305 162.462 36.0462 162.462 31.218C162.425 26.4625 158.505 22.5418 153.713 22.5418ZM153.713 37.6435C150.192 37.6435 147.324 34.7756 147.324 31.2543C147.324 27.733 150.192 24.8652 153.713 24.8652C157.234 24.8652 160.102 27.733 160.102 31.2543C160.102 34.7756 157.234 37.6435 153.713 37.6435ZM220 31.2543C220 26.4625 216.116 22.5418 211.288 22.5418C206.459 22.5418 202.575 26.4262 202.575 31.2543C202.575 36.0462 206.459 39.9668 211.288 39.9668C214.918 39.9668 218.04 37.7161 219.347 34.5578H216.769C215.644 36.4092 213.611 37.6798 211.288 37.6798C208.129 37.6798 205.516 35.3927 205.007 32.3797H219.927C219.964 31.9804 220 31.6173 220 31.2543ZM205.007 30.1653C205.516 27.1522 208.129 24.8652 211.288 24.8652C214.446 24.8652 217.06 27.1522 217.568 30.1653H205.007ZM192.592 24.8652C195.17 24.8652 197.384 26.3899 198.4 28.6043H200.869C199.744 25.083 196.476 22.5418 192.592 22.5418C187.8 22.5418 183.88 26.4262 183.88 31.2543C183.88 36.0462 187.764 39.9668 192.592 39.9668C196.476 39.9668 199.744 37.4257 200.869 33.9044H198.4C197.384 36.1188 195.17 37.6435 192.592 37.6435C189.071 37.6435 186.203 34.7756 186.203 31.2543C186.203 27.733 189.035 24.8652 192.592 24.8652Z" fill="#55504B"/>
<path d="M29.1609 25.918C27.9266 22.9775 26.3656 21.235 24.6231 19.7829C22.082 17.6774 18.0888 14.2287 16.0559 12.0869C14.5312 10.4896 11.6997 9.03748 8.43249 9.58201C7.92426 7.6217 7.08932 5.73399 5.92766 4.06409C7.92427 5.9881 10.5743 7.25868 13.5511 7.47649C16.9997 7.7306 20.1943 6.53263 22.5902 4.39081C20.5573 1.92227 17.5443 0.288671 14.0956 0.0345567C10.7195 -0.219558 7.52494 0.94211 5.16532 3.04763C4.29407 1.95857 3.27762 0.978413 2.11596 0.143464L1.13581 1.52294C4.00366 3.62846 6.00027 6.64154 6.83521 10.0902L5.89136 10.4896C2.69679 12.1958 1.42623 15.4267 1.38993 17.75C1.31732 20.6905 0.663886 25.918 0.191962 29.1852C-0.134756 31.4722 -0.134756 33.7592 0.917999 36.7723C3.67694 44.6861 12.7524 48.752 20.521 45.7752C20.5573 45.7752 20.5573 45.7389 20.5936 45.7389C20.6299 45.7389 20.6662 45.7026 20.6662 45.7026C28.3985 42.7258 32.428 33.614 29.1609 25.918Z" fill="url(#paint0_linear_52_2540)"/>
<path d="M48.4366 38.4785C49.7798 36.1914 49.0174 33.251 46.7304 31.9078C45.6051 31.2544 44.3345 31.1092 43.1728 31.3996L16.6725 46.7553C14.4218 50.6033 15.6923 55.5404 19.5403 57.7911C21.8636 59.1343 24.5863 59.2069 26.8733 58.1905C27.1637 59.3158 27.8898 60.296 28.9788 60.9131C31.1569 62.1837 33.9522 61.4576 35.2227 59.2795C35.6583 58.5172 35.8762 57.6822 35.8399 56.8836C39.9783 57.3555 44.1893 55.4315 46.44 51.6198C48.5455 48.0259 48.3277 43.706 46.2585 40.4388C47.0934 40.0758 47.8921 39.386 48.4366 38.4785Z" fill="url(#paint1_linear_52_2540)"/>
<path fill-rule="evenodd" clip-rule="evenodd" d="M36.8927 5.08057C44.5524 5.08057 50.76 11.2882 50.76 18.948C50.76 26.6077 44.5524 32.8154 36.8927 32.8154C29.233 32.8154 23.0254 26.6077 23.0254 18.948C23.0254 11.2882 29.233 5.08057 36.8927 5.08057Z" fill="url(#paint2_linear_52_2540)"/>
<path d="M36.9293 15.4629C28.1442 11.4697 17.181 21.7069 13.5145 29.2577C9.84805 36.8085 13.0063 45.884 20.5571 49.5505C20.5934 49.5505 20.6297 49.5868 20.666 49.5868C20.7023 49.5868 20.7386 49.6231 20.7749 49.6594C28.362 53.217 37.4012 49.9498 40.9588 42.3264C44.5164 34.703 45.2787 19.2383 36.9293 15.4629Z" fill="white"/>
<path d="M30.975 27.0433C26.1106 24.9014 20.4475 27.0796 18.3057 31.9077C16.1639 36.7359 18.342 42.4353 23.2064 44.5771C28.0709 46.719 33.734 44.5408 35.8758 39.7127C37.9813 34.8482 35.8032 29.1851 30.975 27.0433ZM28.9784 28.5679C28.9421 28.8584 28.6517 29.0762 28.3613 29.0036C26.5462 28.6769 24.6948 29.0762 23.1701 30.1289C21.6454 31.1817 20.629 32.7427 20.3023 34.5941C20.266 34.8482 20.0119 35.0297 19.7577 35.0297C19.7214 35.0297 19.6851 35.0297 19.6488 35.0297C19.3584 34.9934 19.1406 34.703 19.2132 34.4126C19.6125 32.3071 20.7742 30.492 22.553 29.2577C24.3318 28.0597 26.4373 27.5878 28.5428 27.9871C28.8332 27.9871 29.0147 28.2412 28.9784 28.5679Z" fill="#F5B432"/>
<defs>
<linearGradient id="paint0_linear_52_2540" x1="40.9101" y1="38.3148" x2="13.5894" y2="23.2563" gradientUnits="userSpaceOnUse">
<stop stop-color="#4B964B"/>
<stop offset="1" stop-color="#96BE5A"/>
</linearGradient>
<linearGradient id="paint1_linear_52_2540" x1="30.3598" y1="39.4117" x2="34.6085" y2="48.9309" gradientUnits="userSpaceOnUse">
<stop stop-color="#2D6E2D"/>
<stop offset="1" stop-color="#4B964B"/>
</linearGradient>
<linearGradient id="paint2_linear_52_2540" x1="28.4592" y1="32.9435" x2="42.0121" y2="10.4094" gradientUnits="userSpaceOnUse">
<stop offset="0.1287" stop-color="#BE3237"/>
<stop offset="0.9959" stop-color="#E65555"/>
</linearGradient>
</defs>
</svg>
