<svg width="186" height="186" viewBox="0 0 186 186" fill="none" xmlns="http://www.w3.org/2000/svg">
<g clip-path="url(#clip0_227_2839)">
<path d="M132.922 170.716C134.059 172.917 133.201 175.633 130.947 176.662C117.909 182.617 103.645 185.468 89.2802 184.965C73.4184 184.408 57.9666 179.78 44.4108 171.525C30.855 163.27 19.6514 151.666 11.8773 137.829C4.10331 123.992 0.0204624 108.387 0.0214846 92.5154C0.0225067 76.6439 4.10736 61.0397 11.8832 47.2035C19.659 33.3672 30.8642 21.7645 44.421 13.5113C57.9778 5.25802 73.4303 0.631866 89.2921 0.0777527C103.657 -0.424084 117.921 2.42932 130.958 8.38529C133.211 9.41466 134.069 12.1313 132.932 14.332V14.332C131.794 16.5327 129.093 17.3828 126.834 16.3651C115.169 11.1092 102.432 8.59497 89.6053 9.04306C75.2818 9.54343 61.3279 13.7209 49.0859 21.1738C36.8438 28.6266 26.7253 39.1041 19.7036 51.5984C12.6819 64.0928 8.99318 78.1837 8.99226 92.516C8.99133 106.848 12.6782 120.94 19.6983 133.435C26.7184 145.93 36.8355 156.409 49.0767 163.863C61.3178 171.318 75.2711 175.497 89.5945 175.999C102.421 176.449 115.158 173.936 126.824 168.682C129.083 167.665 131.785 168.515 132.922 170.716V170.716Z" fill="#8CAC3D"/>
<path d="M138.392 17.4052C139.683 15.2911 142.45 14.6147 144.499 16.0067C153.291 21.979 160.997 29.4284 167.27 38.0351C174.426 47.8513 179.577 58.9808 182.431 70.788C185.286 82.5952 185.786 94.849 183.904 106.85C182.255 117.372 178.802 127.518 173.709 136.847C172.522 139.021 169.751 139.683 167.637 138.392V138.392C165.523 137.101 164.867 134.346 166.043 132.166C170.528 123.847 173.575 114.818 175.042 105.46C176.741 94.6232 176.289 83.5579 173.712 72.8957C171.135 62.2336 166.482 52.1835 160.021 43.3192C154.442 35.6647 147.607 29.0238 139.818 23.6726C137.776 22.27 137.101 19.5194 138.392 17.4052V17.4052Z" fill="#ED7A47"/>
<path d="M164.675 142.923C166.705 144.342 167.21 147.146 165.695 149.105C159.773 156.764 152.685 163.446 144.69 168.906C142.645 170.303 139.876 169.633 138.579 167.523V167.523C137.283 165.412 137.951 162.659 139.989 161.252C146.943 156.449 153.127 150.619 158.331 143.961C159.857 142.01 162.644 141.505 164.675 142.923V142.923Z" fill="#898FDC"/>
<circle cx="94.0215" cy="93.0214" r="61" fill="#EAEAEA"/>
<path d="M106.606 83.2712V82.9045C106.606 81.5823 106.32 80.2757 105.767 79.0745C105.215 77.8732 104.409 76.8057 103.405 75.9452L102.278 74.9781C101.623 74.4168 101.097 73.7204 100.736 72.9367C100.376 72.153 100.189 71.3005 100.189 70.4379H76.3561C76.3561 71.3003 76.1693 72.1524 75.8085 72.9357C75.4477 73.719 74.9215 74.4149 74.2661 74.9754L73.1386 75.947C72.1359 76.8081 71.331 77.8755 70.7789 79.0763C70.2267 80.277 69.9404 81.5829 69.9395 82.9045V112.605C69.9395 114.063 70.5189 115.462 71.5504 116.494C72.5818 117.525 73.9808 118.105 75.4395 118.105H102.939L106.606 83.2712Z" fill="#E1E3E9"/>
<path d="M103.405 75.9443L102.278 74.9772C101.623 74.416 101.097 73.7197 100.736 72.9362C100.376 72.1526 100.189 71.3004 100.189 70.4379H97.4395C97.4394 71.3004 97.626 72.1526 97.9865 72.9362C98.3469 73.7197 98.8727 74.416 99.5276 74.9772L100.655 75.9443C101.659 76.8049 102.465 77.8725 103.018 79.074C103.57 80.2754 103.856 81.5821 103.856 82.9045V83.2712L100.189 118.105H102.939L106.606 83.2712V82.9045C106.606 81.5821 106.32 80.2754 105.768 79.074C105.215 77.8725 104.409 76.8049 103.405 75.9443Z" fill="#CFD6E9"/>
<path d="M98.3555 86.9379L99.175 85.298C99.4795 84.6889 99.9477 84.1767 100.527 83.8187C101.106 83.4608 101.774 83.2712 102.455 83.2712H116.256C116.937 83.2712 117.605 83.4608 118.184 83.8187C118.763 84.1767 119.231 84.6889 119.536 85.298L120.355 86.9379H98.3555Z" fill="#E8EDFC"/>
<path d="M119.536 85.298C119.231 84.6889 118.763 84.1767 118.184 83.8187C117.604 83.4608 116.937 83.2712 116.256 83.2712H113.506C114.187 83.2712 114.854 83.4608 115.434 83.8187C116.013 84.1767 116.481 84.6889 116.786 85.298L117.605 86.9379H120.355L119.536 85.298Z" fill="#CFD6E9"/>
<path d="M112.105 83.2712L113.766 76.6318C113.815 76.4336 113.93 76.2576 114.091 76.1319C114.252 76.0062 114.45 75.9379 114.655 75.9379H116.431C116.571 75.9379 116.708 75.9696 116.833 76.0308C116.958 76.0919 117.068 76.1807 117.154 76.2906C117.24 76.4004 117.299 76.5284 117.328 76.6647C117.357 76.801 117.354 76.9421 117.32 77.0773L115.772 83.2712H112.105Z" fill="#CFD6E9"/>
<path d="M100.19 64.9379H76.3568C75.3442 64.9379 74.5234 65.7587 74.5234 66.7712V68.6045C74.5234 69.6171 75.3442 70.4379 76.3568 70.4379H100.19C101.203 70.4379 102.023 69.6171 102.023 68.6045V66.7712C102.023 65.7587 101.203 64.9379 100.19 64.9379Z" fill="#E1E3E9"/>
<path d="M100.189 64.9379H97.4395C97.9257 64.9379 98.392 65.131 98.7358 65.4748C99.0796 65.8187 99.2728 66.285 99.2728 66.7712V68.6045C99.2728 69.0908 99.0796 69.5571 98.7358 69.9009C98.392 70.2447 97.9257 70.4379 97.4395 70.4379H100.189C100.676 70.4379 101.142 70.2447 101.486 69.9009C101.83 69.5571 102.023 69.0908 102.023 68.6045V66.7712C102.023 66.285 101.83 65.8187 101.486 65.4748C101.142 65.131 100.676 64.9379 100.189 64.9379Z" fill="#E1E3E9"/>
<path d="M99.2728 107.105H69.9395V88.7712H97.4395L99.2728 107.105Z" fill="#F4F9FE"/>
<path d="M97.4395 88.7712H94.6895L96.5228 107.105H99.2728L97.4395 88.7712Z" fill="#CFD6E9"/>
<path d="M121.273 90.6045L117.818 116.513C117.759 116.954 117.543 117.358 117.209 117.65C116.874 117.943 116.445 118.104 116.001 118.104H102.709C102.265 118.104 101.836 117.943 101.502 117.65C101.168 117.358 100.951 116.954 100.893 116.513L97.4395 90.6045H121.273Z" fill="#F4F9FE"/>
<path d="M118.524 90.6045L115.069 116.513C115.01 116.954 114.794 117.358 114.459 117.65C114.125 117.943 113.696 118.104 113.252 118.104H116.002C116.446 118.104 116.875 117.943 117.209 117.65C117.544 117.358 117.76 116.954 117.819 116.513L121.274 90.6045H118.524Z" fill="#CFD6E9"/>
<path d="M121.272 86.9379H97.4388C96.4263 86.9379 95.6055 87.7587 95.6055 88.7712C95.6055 89.7837 96.4263 90.6045 97.4388 90.6045H121.272C122.285 90.6045 123.105 89.7837 123.105 88.7712C123.105 87.7587 122.285 86.9379 121.272 86.9379Z" fill="#CFD6E9"/>
<path d="M121.273 86.9379H118.523C119.01 86.9379 119.476 87.131 119.82 87.4748C120.164 87.8187 120.357 88.285 120.357 88.7712C120.357 89.2574 120.164 89.7237 119.82 90.0676C119.476 90.4114 119.01 90.6045 118.523 90.6045H121.273C121.76 90.6045 122.226 90.4114 122.57 90.0676C122.914 89.7237 123.107 89.2574 123.107 88.7712C123.107 88.285 122.914 87.8187 122.57 87.4748C122.226 87.131 121.76 86.9379 121.273 86.9379Z" fill="#CFD6E9"/>
<path d="M75.4395 118.105H78.1895C76.7308 118.105 75.3318 117.525 74.3004 116.494C73.2689 115.462 72.6895 114.063 72.6895 112.605V82.9045C72.6904 81.5829 72.9767 80.277 73.5289 79.0763C74.081 77.8755 74.8859 76.8081 75.8886 75.947L77.0161 74.9754C77.6715 74.4149 78.1977 73.719 78.5585 72.9357C78.9193 72.1524 79.1061 71.3003 79.1061 70.4379C78.6199 70.4379 78.1536 70.2447 77.8098 69.9009C77.4659 69.5571 77.2728 69.0908 77.2728 68.6045V66.7712C77.2728 66.285 77.4659 65.8187 77.8098 65.4748C78.1536 65.131 78.6199 64.9379 79.1061 64.9379H76.3561C75.8699 64.9379 75.4036 65.131 75.0598 65.4748C74.7159 65.8187 74.5228 66.285 74.5228 66.7712V68.6045C74.5228 69.0908 74.7159 69.5571 75.0598 69.9009C75.4036 70.2447 75.8699 70.4379 76.3561 70.4379C76.3561 71.3003 76.1693 72.1524 75.8085 72.9357C75.4477 73.719 74.9215 74.4149 74.2661 74.9754L73.1386 75.947C72.1359 76.8081 71.331 77.8755 70.7789 79.0763C70.2267 80.277 69.9404 81.5829 69.9395 82.9045V112.605C69.9395 114.063 70.5189 115.462 71.5504 116.494C72.5818 117.525 73.9808 118.105 75.4395 118.105Z" fill="white"/>
<path d="M69.0215 92.438H70.8548V99.7713H69.0215V92.438Z" fill="white"/>
<path d="M121.271 86.0214H120.921L120.355 84.8884C120.028 84.2285 119.545 83.658 118.949 83.2256C118.353 82.7932 117.661 82.512 116.932 82.406L118.21 77.2984C118.277 77.0281 118.282 76.746 118.224 76.4735C118.166 76.2011 118.047 75.9454 117.876 75.7259C117.704 75.5064 117.485 75.3289 117.234 75.2068C116.984 75.0847 116.709 75.0213 116.431 75.0214H114.654C114.245 75.0215 113.848 75.1583 113.526 75.4101C113.203 75.6619 112.975 76.0142 112.876 76.411L111.39 82.3547H107.491C107.42 80.9956 107.075 79.665 106.474 78.4435C105.874 77.2221 105.032 76.1352 104 75.2487L102.873 74.2816C101.945 73.4842 101.337 72.3766 101.164 71.1649C101.684 70.9676 102.132 70.6172 102.449 70.1601C102.765 69.7031 102.936 69.1607 102.938 68.6047V66.7714C102.938 66.042 102.648 65.3425 102.133 64.8268C101.617 64.3111 100.917 64.0214 100.188 64.0214H76.3548C75.6255 64.0214 74.926 64.3111 74.4103 64.8268C73.8945 65.3425 73.6048 66.042 73.6048 66.7714V68.6047C73.6057 69.1618 73.7757 69.7056 74.0925 70.1639C74.4092 70.6223 74.8577 70.9736 75.3786 71.1714C75.2053 72.3837 74.5966 73.4916 73.6662 74.288L72.5397 75.2597C71.4372 76.2054 70.5521 77.3781 69.9449 78.6976C69.3377 80.0171 69.0227 81.4522 69.0215 82.9047V92.438C69.0215 92.6811 69.1181 92.9143 69.29 93.0862C69.4619 93.2581 69.695 93.3547 69.9382 93.3547C70.1813 93.3547 70.4144 93.2581 70.5863 93.0862C70.7582 92.9143 70.8548 92.6811 70.8548 92.438V89.688H94.8568C94.9998 90.0869 95.2331 90.4473 95.5384 90.7412C95.8437 91.035 96.2128 91.2543 96.6168 91.382L98.5913 106.188H70.8548V99.7714C70.8548 99.5282 70.7582 99.2951 70.5863 99.1232C70.4144 98.9513 70.1813 98.8547 69.9382 98.8547C69.695 98.8547 69.4619 98.9513 69.29 99.1232C69.1181 99.2951 69.0215 99.5282 69.0215 99.7714V112.605C69.0237 114.306 69.7004 115.937 70.9033 117.14C72.1062 118.342 73.737 119.019 75.4382 119.021H116C116.665 119.019 117.307 118.777 117.808 118.339C118.309 117.901 118.635 117.297 118.726 116.638L122.096 91.382C122.724 91.1875 123.261 90.774 123.61 90.2168C123.958 89.6595 124.095 88.9956 123.995 88.346C123.895 87.6965 123.565 87.1044 123.065 86.6777C122.565 86.251 121.929 86.0181 121.271 86.0214ZM118.715 85.7079L118.872 86.0214H99.838L99.9947 85.7079C100.222 85.2502 100.573 84.8653 101.007 84.5967C101.442 84.3281 101.943 84.1866 102.454 84.188H116.255C116.766 84.1866 117.268 84.3281 117.702 84.5967C118.137 84.8653 118.488 85.2502 118.715 85.7079ZM114.654 76.8547H116.431L115.056 82.3547H113.278L114.654 76.8547ZM75.4382 66.7714C75.4382 66.5282 75.5347 66.2951 75.7066 66.1232C75.8785 65.9513 76.1117 65.8547 76.3548 65.8547H78.1882V66.7714C78.1882 67.0145 78.2847 67.2476 78.4566 67.4195C78.6285 67.5915 78.8617 67.688 79.1048 67.688C79.3479 67.688 79.5811 67.5915 79.753 67.4195C79.9249 67.2476 80.0215 67.0145 80.0215 66.7714V65.8547H82.7715V66.7714C82.7715 67.0145 82.8681 67.2476 83.04 67.4195C83.2119 67.5915 83.445 67.688 83.6882 67.688C83.9313 67.688 84.1644 67.5915 84.3363 67.4195C84.5082 67.2476 84.6048 67.0145 84.6048 66.7714V65.8547H87.3548V66.7714C87.3548 67.0145 87.4514 67.2476 87.6233 67.4195C87.7952 67.5915 88.0284 67.688 88.2715 67.688C88.5146 67.688 88.7478 67.5915 88.9197 67.4195C89.0916 67.2476 89.1882 67.0145 89.1882 66.7714V65.8547H91.9382V66.7714C91.9382 67.0145 92.0347 67.2476 92.2066 67.4195C92.3785 67.5915 92.6117 67.688 92.8548 67.688C93.0979 67.688 93.3311 67.5915 93.503 67.4195C93.6749 67.2476 93.7715 67.0145 93.7715 66.7714V65.8547H96.5215V66.7714C96.5215 67.0145 96.6181 67.2476 96.79 67.4195C96.9619 67.5915 97.195 67.688 97.4381 67.688C97.6813 67.688 97.9144 67.5915 98.0863 67.4195C98.2582 67.2476 98.3548 67.0145 98.3548 66.7714V65.8547H100.188C100.431 65.8547 100.664 65.9513 100.836 66.1232C101.008 66.2951 101.105 66.5282 101.105 66.7714V68.6047C101.105 68.8478 101.008 69.081 100.836 69.2529C100.664 69.4248 100.431 69.5214 100.188 69.5214H76.3548C76.1117 69.5214 75.8785 69.4248 75.7066 69.2529C75.5347 69.081 75.4382 68.8478 75.4382 68.6047V66.7714ZM70.8548 82.9047C70.8554 81.7149 71.1131 80.5392 71.6104 79.4582C72.1077 78.3773 72.8327 77.4166 73.7359 76.642L74.8607 75.6722C76.1467 74.5707 76.981 73.0333 77.2037 71.3547H99.3393C99.561 73.0332 100.394 74.5709 101.68 75.6731L102.807 76.6411C103.639 77.3552 104.32 78.2286 104.81 79.2098C105.299 80.1911 105.588 81.2603 105.658 82.3547H102.454C101.602 82.352 100.767 82.5879 100.042 83.0357C99.3179 83.4835 98.7333 84.1253 98.3548 84.8884L97.7883 86.0214H97.4381C96.8714 86.0237 96.3192 86.2011 95.8572 86.5293C95.3951 86.8574 95.0457 87.3204 94.8568 87.8547H70.8548V82.9047ZM70.8548 112.605V108.021H98.8351L99.9837 116.638C100.011 116.826 100.057 117.01 100.123 117.188H75.4382C74.223 117.187 73.0581 116.703 72.1989 115.844C71.3396 114.985 70.8563 113.82 70.8548 112.605ZM116.908 116.392C116.879 116.613 116.771 116.815 116.603 116.961C116.436 117.107 116.222 117.188 116 117.188H102.708C102.486 117.188 102.272 117.107 102.105 116.961C101.938 116.815 101.829 116.613 101.8 116.393L101.418 113.521H106.605C106.848 113.521 107.081 113.425 107.253 113.253C107.425 113.081 107.521 112.848 107.521 112.605C107.521 112.362 107.425 112.128 107.253 111.957C107.081 111.785 106.848 111.688 106.605 111.688H101.174L100.685 108.021H105.688C105.931 108.021 106.164 107.925 106.336 107.753C106.508 107.581 106.605 107.348 106.605 107.105C106.605 106.862 106.508 106.628 106.336 106.457C106.164 106.285 105.931 106.188 105.688 106.188H100.44L99.9517 102.521H104.771C105.015 102.521 105.248 102.425 105.42 102.253C105.592 102.081 105.688 101.848 105.688 101.605C105.688 101.362 105.592 101.128 105.42 100.957C105.248 100.785 105.015 100.688 104.771 100.688H99.7069L99.2183 97.0214H103.855C104.098 97.0214 104.331 96.9248 104.503 96.7529C104.675 96.581 104.771 96.3478 104.771 96.1047C104.771 95.8616 104.675 95.6284 104.503 95.4565C104.331 95.2846 104.098 95.188 103.855 95.188H98.9736L98.485 91.5214H120.225L116.908 116.392ZM121.271 89.688H97.4381C97.195 89.688 96.9619 89.5915 96.79 89.4195C96.6181 89.2476 96.5215 89.0145 96.5215 88.7714C96.5215 88.5282 96.6181 88.2951 96.79 88.1232C96.9619 87.9513 97.195 87.8547 97.4381 87.8547H121.271C121.515 87.8547 121.748 87.9513 121.92 88.1232C122.092 88.2951 122.188 88.5282 122.188 88.7714C122.188 89.0145 122.092 89.2476 121.92 89.4195C121.748 89.5915 121.515 89.688 121.271 89.688Z" fill="#161335"/>
<path d="M69.9382 97.0213C70.4444 97.0213 70.8548 96.6109 70.8548 96.1047C70.8548 95.5984 70.4444 95.188 69.9382 95.188C69.4319 95.188 69.0215 95.5984 69.0215 96.1047C69.0215 96.6109 69.4319 97.0213 69.9382 97.0213Z" fill="#161335"/>
</g>
<defs>
<clipPath id="clip0_227_2839">
<rect width="186" height="186" fill="white"/>
</clipPath>
</defs>
</svg>
