<svg width="18" height="15" viewBox="0 0 18 15" fill="none" xmlns="http://www.w3.org/2000/svg">
<path d="M17.8203 4.84489C17.8203 10.3149 9.56692 14.7425 9.21544 14.9254C9.12281 14.9744 9.01925 15 8.91406 15C8.80887 15 8.70532 14.9744 8.61268 14.9254C8.2612 14.7425 0.0078125 10.3149 0.0078125 4.84489C0.0092858 3.56039 0.529194 2.32892 1.45348 1.42064C2.37776 0.512355 3.63093 0.00144779 4.93806 0C6.58015 0 8.01787 0.693913 8.91406 1.86685C9.81025 0.693913 11.248 0 12.8901 0C14.1972 0.00144779 15.4504 0.512355 16.3747 1.42064C17.2989 2.32892 17.8188 3.56039 17.8203 4.84489Z" fill="url(#paint0_linear_210_2838)"/>
<path d="M8.98468 14.4818L8.98468 14.4818L8.98177 14.4834C8.96143 14.4941 8.93813 14.5 8.91406 14.5C8.88999 14.5 8.8667 14.4941 8.84636 14.4833L8.84344 14.4818C8.68442 14.3991 6.5708 13.267 4.50459 11.4889C2.41052 9.68671 0.507958 7.34245 0.507812 4.84518C0.509207 3.69603 0.974284 2.59254 1.80393 1.77726C2.63387 0.961686 3.76094 0.501374 4.93834 0.5C6.43764 0.50008 7.72291 1.13142 8.51676 2.17041L8.91406 2.6904L9.31137 2.17041C10.1052 1.13142 11.3905 0.50008 12.8898 0.5C14.0672 0.501372 15.1943 0.961685 16.0242 1.77726C16.8539 2.59261 17.319 3.69622 17.3203 4.84547C17.32 7.34264 15.4175 9.68677 13.3235 11.4889C11.2573 13.267 9.1437 14.3991 8.98468 14.4818Z" stroke="#D2D2D2" stroke-opacity="0.9"/>
<defs>
<linearGradient id="paint0_linear_210_2838" x1="0.0078125" y1="7.5" x2="17.8203" y2="7.5" gradientUnits="userSpaceOnUse">
<stop stop-color="#D4D4D4"/>
<stop offset="1" stop-color="#E3E3E3"/>
</linearGradient>
</defs>
</svg>
