<svg width="89" height="89" viewBox="0 0 89 89" fill="none" xmlns="http://www.w3.org/2000/svg">
<g clip-path="url(#clip0_48_1159)">
<path d="M66.0715 35.2528C66.0676 36.8028 65.4512 38.2884 64.3565 39.3858C63.2619 40.4832 61.7778 41.1033 60.2278 41.1111H60.1984V45.7801C60.199 46.62 60.0197 47.4502 59.6728 48.215C59.3258 48.9798 58.8192 49.6615 58.1869 50.2143L54.0171 53.8555L50.1115 57.2766C49.044 58.2146 47.6711 58.7314 46.25 58.7302H41.8453C40.4241 58.7314 39.0513 58.2146 37.9838 57.2766L34.0782 53.8555L29.9083 50.2143C29.2761 49.6615 28.7694 48.9798 28.4225 48.215C28.0755 47.4502 27.8963 46.62 27.8968 45.7801V41.1111H27.8675C26.3137 41.1072 24.8252 40.4863 23.7293 39.3848C22.6334 38.2834 22.0199 36.7918 22.0238 35.2381C22.0277 33.6843 22.6487 32.1958 23.7501 31.0999C24.8515 30.004 26.3431 29.3905 27.8968 29.3944C27.8968 20.5555 32.3016 17.619 35.2381 17.619C39.6429 17.619 41.1111 20.5555 44.0476 20.5555C46.9841 20.5555 48.4524 17.619 52.8572 17.619C55.7937 17.619 60.1984 20.5555 60.1984 29.3944C61.6444 29.3972 63.0392 29.9301 64.1187 30.892C64.7345 31.4391 65.227 32.1108 65.5637 32.8625C65.9004 33.6143 66.0734 34.429 66.0715 35.2528Z" fill="#E8EDFC"/>
<path d="M64.1186 30.892C63.0391 29.9301 61.6444 29.3972 60.1984 29.3944C60.1984 20.5555 55.7936 17.619 52.8571 17.619C52.0034 17.6187 51.1546 17.7469 50.3391 17.9993C52.9716 19.0329 55.7936 22.3174 55.7936 29.3944V45.7801C55.7942 46.62 55.6149 47.4502 55.268 48.215C54.921 48.9798 54.4144 49.6615 53.7821 50.2143L49.6123 53.8555L45.7067 57.2766C44.6392 58.2146 43.2663 58.7314 41.8452 58.7302H46.25C47.6711 58.7314 49.044 58.2146 50.1115 57.2766L54.017 53.8555L58.1869 50.2143C58.8192 49.6615 59.3258 48.9798 59.6727 48.215C60.0197 47.4502 60.1989 46.62 60.1984 45.7801V41.1111H60.2278C61.4127 41.1091 62.5692 40.7476 63.5443 40.0743C64.5194 39.401 65.2673 38.4476 65.6889 37.3402C66.1106 36.2327 66.1862 35.0234 65.9058 33.8721C65.6254 32.7207 65.0022 31.6816 64.1186 30.892Z" fill="#CAD9FC"/>
<path d="M82.1635 85.0266C82.1803 85.2299 82.1549 85.4345 82.0888 85.6275C82.0227 85.8205 81.9174 85.9977 81.7795 86.148C81.6416 86.2984 81.4741 86.4185 81.2875 86.5009C81.1009 86.5834 80.8992 86.6263 80.6952 86.627H44.0476C44.0476 86.627 52.4313 74.2496 58.7302 70.4762C60.3878 69.5484 61.8689 68.3356 63.1055 66.8937C67.9802 68.5822 73.9266 70.9901 76.3492 73.4127C79.7409 76.8044 81.8111 80.0786 82.1635 85.0266Z" fill="#E8EDFC"/>
<path d="M76.3492 73.4127C73.9266 70.9901 67.9802 68.5822 63.1055 66.8937C62.753 67.3162 62.3728 67.715 61.9677 68.0874C65.9833 69.629 70.0431 71.5143 71.9518 73.4127C75.3434 76.8044 77.4137 80.0786 77.7661 85.0266C77.7829 85.2299 77.7574 85.4345 77.6914 85.6275C77.6253 85.8205 77.52 85.9977 77.3821 86.148C77.2442 86.2984 77.0766 86.4185 76.89 86.5009C76.7034 86.5834 76.5018 86.6263 76.2978 86.627H80.7026C80.9066 86.6263 81.1082 86.5834 81.2948 86.5009C81.4814 86.4185 81.6489 86.2984 81.7868 86.148C81.9247 85.9977 82.03 85.8205 82.0961 85.6275C82.1622 85.4345 82.1876 85.2299 82.1708 85.0266C81.8111 80.0786 79.7409 76.8044 76.3492 73.4127Z" fill="#CAD9FC"/>
<path d="M44.0476 86.627H7.39998C7.19599 86.6263 6.99436 86.5834 6.80776 86.5009C6.62116 86.4185 6.45364 86.2984 6.31574 86.148C6.17783 85.9977 6.07252 85.8205 6.00644 85.6275C5.94035 85.4345 5.91491 85.2299 5.93173 85.0266C6.28411 80.0786 8.35435 76.8044 11.746 73.4127C14.1686 70.9901 20.1151 68.5822 24.9897 66.8937C26.2263 68.3356 27.7075 69.5484 29.3651 70.4762C35.6639 74.2496 44.0476 86.627 44.0476 86.627Z" fill="#E8EDFC"/>
<path d="M44.0476 86.627C44.0476 86.627 35.6639 74.2496 29.3651 70.4762C27.7075 69.5484 26.2263 68.3356 24.9897 66.8937C22.0238 63.2671 22.0238 58.598 22.0238 49.9207C22.0238 49.9207 22.0238 58.4806 33.1825 62.1953C33.8139 62.4155 34.4746 62.6064 35.1647 62.7826C35.6448 62.9084 36.0846 63.1554 36.4419 63.4999C36.7993 63.8444 37.0622 64.2748 37.2056 64.75L44.0476 86.627Z" fill="#E8EDFC"/>
<path d="M33.1825 62.1952C22.0238 58.4805 22.0238 49.9206 22.0238 49.9206C22.0238 46.1472 23.9766 43.1373 27.8675 41.1111H27.8968V45.7801C27.8963 46.62 28.0755 47.4502 28.4225 48.215C28.7694 48.9798 29.2761 49.6615 29.9083 50.2143L34.0782 53.8555C34.2745 56.6665 33.9713 59.4901 33.1825 62.1952Z" fill="#A4C2F7"/>
<path d="M54.9127 62.1953C54.2814 62.4155 53.6207 62.6064 52.9306 62.7826C52.4505 62.9084 52.0107 63.1554 51.6533 63.4999C51.296 63.8444 51.0331 64.2748 50.8897 64.75L44.0476 86.627L37.2056 64.75C37.0622 64.2748 36.7993 63.8444 36.4419 63.4999C36.0846 63.1554 35.6448 62.9084 35.1647 62.7826C34.4746 62.6064 33.8139 62.4155 33.1826 62.1953C33.9713 59.4901 34.2745 56.6666 34.0782 53.8556L37.9837 57.2766C39.0513 58.2147 40.4241 58.7315 41.8453 58.7302H46.25C47.6711 58.7315 49.044 58.2147 50.1115 57.2766L54.0171 53.8556C53.8207 56.6666 54.124 59.4901 54.9127 62.1953Z" fill="white"/>
<path d="M66.0714 49.9207C66.0714 58.598 66.0714 63.2671 63.1055 66.8937C61.8689 68.3356 60.3878 69.5484 58.7302 70.4762C52.4313 74.2496 44.0476 86.627 44.0476 86.627L50.8897 64.75C51.033 64.2748 51.296 63.8444 51.6533 63.4999C52.0106 63.1554 52.4504 62.9084 52.9305 62.7826C53.6206 62.6064 54.2813 62.4155 54.9127 62.1953C66.0714 58.4806 66.0714 49.9207 66.0714 49.9207Z" fill="#E8EDFC"/>
<path d="M61.4714 58.6098C61.4553 61.596 60.4844 64.4987 58.7008 66.8937C57.4641 68.3356 55.983 69.5484 54.3254 70.4762C51.5889 72.3374 49.1292 74.5762 47.0194 77.126L44.0476 86.627C44.0476 86.627 52.4313 74.2496 58.7302 70.4762C60.3878 69.5484 61.8689 68.3356 63.1055 66.8937C66.0714 63.2671 66.0714 58.598 66.0714 49.9207C65.9329 51.605 65.4538 53.2437 64.6631 54.7373C63.8724 56.2309 62.7865 57.5484 61.4714 58.6098Z" fill="#CAD9FC"/>
<path d="M66.0714 49.9206C66.0714 49.9206 66.0714 58.4805 54.9127 62.1952C54.1239 59.4901 53.8207 56.6665 54.017 53.8555L58.1869 50.2143C58.8191 49.6615 59.3258 48.9798 59.6727 48.215C60.0197 47.4502 60.1989 46.62 60.1984 45.7801V41.1111H60.2277C64.1186 43.1373 66.0714 46.1472 66.0714 49.9206Z" fill="#A4C2F7"/>
<path d="M66.0715 22.0238C66.186 25.0979 65.5139 28.1504 64.1187 30.8921C63.0391 29.9301 61.6444 29.3972 60.1984 29.3944C60.1984 20.5556 55.7937 17.619 52.8572 17.619C48.4524 17.619 46.9841 20.5556 44.0476 20.5556C41.1111 20.5556 39.6429 17.619 35.2381 17.619C32.3016 17.619 27.8968 20.5556 27.8968 29.3944C26.4509 29.3972 25.0561 29.9301 23.9766 30.8921C22.5814 28.1504 21.9093 25.0979 22.0238 22.0238C22.0238 15.9746 22.523 10.0282 30.8334 5.87302C31.468 5.55316 32.1199 5.26886 32.7861 5.02143C32.8795 3.78427 33.2136 2.57726 33.7699 1.46826C37.1064 2.45378 40.5686 2.94838 44.0476 2.93651C44.4588 2.93651 44.8699 2.9512 45.2516 2.98056H45.281C49.4221 3.17509 53.4882 4.15674 57.2619 5.87302C65.5723 10.0282 66.0715 15.9746 66.0715 22.0238Z" fill="#C6D8FB"/>
<path d="M57.2619 5.87302C53.4882 4.15674 49.4221 3.17509 45.281 2.98056H45.2516C44.8699 2.9512 44.4587 2.93651 44.0476 2.93651C40.5686 2.94838 37.1064 2.45378 33.7699 1.46826C33.6187 1.77059 33.4839 2.08084 33.3661 2.39767C35.4397 2.75209 37.5392 2.93234 39.6429 2.93651C40.054 2.93651 40.4651 2.9512 40.8468 2.98056H40.8762C45.0173 3.17509 49.0834 4.15674 52.8572 5.87302C61.1675 10.0282 61.6667 15.9746 61.6667 22.0238C61.7191 24.5446 61.2916 27.0524 60.4069 29.4135C61.7783 29.4606 63.0905 29.9834 64.1187 30.8921C65.5139 28.1504 66.186 25.0979 66.0715 22.0238C66.0715 15.9746 65.5722 10.0282 57.2619 5.87302Z" fill="#A4C3FD"/>
<path d="M37.7635 2.39326C37.6229 2.78046 37.5052 3.17562 37.4111 3.57668C37.3146 4.01518 37.1189 4.42571 36.8389 4.77672C36.5589 5.12772 36.2021 5.40984 35.796 5.6014C35.6081 5.68949 35.4216 5.77906 35.2381 5.87303C26.9278 10.0282 26.4286 15.9746 26.4286 22.0238C26.314 25.0979 26.9862 28.1504 28.3814 30.8921C27.3173 31.8311 26.6344 33.1277 26.462 34.5363C26.2896 35.945 26.6398 37.368 27.4461 38.5358C27.7574 39.0363 27.9142 39.6175 27.8968 40.2067V44.8552C26.9116 46.3587 26.4001 48.1233 26.4286 49.9207C26.4286 56.5998 26.4286 60.9047 27.7809 64.1862C27.935 64.5472 28.0153 64.9354 28.0169 65.3279C28.0185 65.7203 27.9414 66.1092 27.7901 66.4714C27.6389 66.8335 27.4165 67.1617 27.1363 67.4365C26.856 67.7113 26.5235 67.9271 26.1584 68.0712C22.1339 69.6144 18.0595 71.504 16.1508 73.4127C12.7591 76.8044 10.6889 80.0786 10.3365 85.0266C10.3197 85.2299 10.3451 85.4345 10.4112 85.6275C10.4773 85.8205 10.5826 85.9977 10.7205 86.148C10.8584 86.2984 11.026 86.4185 11.2126 86.5009C11.3992 86.5834 11.6008 86.6263 11.8048 86.627H7.40002C7.19624 86.6278 6.99454 86.5861 6.80775 86.5046C6.62096 86.4231 6.45317 86.3037 6.31507 86.1538C6.17696 86.004 6.07156 85.827 6.00557 85.6342C5.93958 85.4414 5.91444 85.237 5.93177 85.034C6.28268 80.0816 8.35292 76.8059 11.7461 73.4127C14.1687 70.9901 20.1151 68.5822 24.9897 66.8937C22.0238 63.2671 22.0238 58.598 22.0238 49.9207C22.0238 46.1472 23.9766 43.1373 27.8675 41.1111C26.6846 41.1046 25.5314 40.7403 24.5594 40.0663C23.5874 39.3923 22.8419 38.4401 22.421 37.3346C22.0001 36.2292 21.9235 35.0223 22.2011 33.8724C22.4787 32.7226 23.0977 31.6837 23.9766 30.8921C22.5814 28.1504 21.9093 25.0979 22.0238 22.0238C22.0238 15.9746 22.523 10.0282 30.8334 5.87303C31.468 5.55316 32.1199 5.26886 32.7861 5.02144C32.8795 3.78427 33.2136 2.57727 33.7699 1.46826C35.0777 1.86992 36.4122 2.17902 37.7635 2.39326Z" fill="white"/>
<path d="M9.58038 73.5596L11.7461 75.5344C10.4986 76.8496 9.45889 78.3473 8.66272 79.9758C7.92989 81.6032 7.49714 83.3496 7.38534 85.1309L4.45764 84.9224C4.59305 82.7856 5.11542 80.6912 5.99931 78.741C6.92154 76.8412 8.12922 75.0938 9.58038 73.5596Z" fill="white"/>
<path d="M46.9842 46.9841H41.1111C40.7217 46.9841 40.3483 47.1388 40.0729 47.4142C39.7976 47.6895 39.6429 48.063 39.6429 48.4524C39.6429 48.8418 39.7976 49.2152 40.0729 49.4906C40.3483 49.7659 40.7217 49.9206 41.1111 49.9206H46.9842C47.3736 49.9206 47.747 49.7659 48.0224 49.4906C48.2977 49.2152 48.4524 48.8418 48.4524 48.4524C48.4524 48.063 48.2977 47.6895 48.0224 47.4142C47.747 47.1388 47.3736 46.9841 46.9842 46.9841Z" fill="#161335"/>
<path d="M36.7064 33.7699C36.317 33.7699 35.9436 33.9246 35.6682 34.1999C35.3928 34.4753 35.2382 34.8487 35.2382 35.2382V36.7064C35.2382 37.0958 35.3928 37.4693 35.6682 37.7446C35.9436 38.02 36.317 38.1747 36.7064 38.1747C37.0958 38.1747 37.4693 38.02 37.7446 37.7446C38.02 37.4693 38.1747 37.0958 38.1747 36.7064V35.2382C38.1747 34.8487 38.02 34.4753 37.7446 34.1999C37.4693 33.9246 37.0958 33.7699 36.7064 33.7699Z" fill="#161335"/>
<path d="M51.389 33.7699C50.9996 33.7699 50.6261 33.9246 50.3508 34.1999C50.0754 34.4753 49.9207 34.8487 49.9207 35.2382V36.7064C49.9207 37.0958 50.0754 37.4693 50.3508 37.7446C50.6261 38.02 50.9996 38.1747 51.389 38.1747C51.7784 38.1747 52.1518 38.02 52.4272 37.7446C52.7025 37.4693 52.8572 37.0958 52.8572 36.7064V35.2382C52.8572 34.8487 52.7025 34.4753 52.4272 34.1999C52.1518 33.9246 51.7784 33.7699 51.389 33.7699Z" fill="#161335"/>
<path d="M42.5794 44.0477H45.5159C45.9053 44.0477 46.2788 43.893 46.5541 43.6177C46.8295 43.3423 46.9842 42.9689 46.9842 42.5795C46.9842 42.1901 46.8295 41.8166 46.5541 41.5412C46.2788 41.2659 45.9053 41.1112 45.5159 41.1112H42.5794C42.19 41.1112 41.8165 41.2659 41.5412 41.5412C41.2658 41.8166 41.1111 42.1901 41.1111 42.5795C41.1111 42.9689 41.2658 43.3423 41.5412 43.6177C41.8165 43.893 42.19 44.0477 42.5794 44.0477Z" fill="#161335"/>
<path d="M7.36184 80.8039C6.97244 80.8059 6.59821 80.6531 6.32148 80.3791C6.04475 80.1051 5.8882 79.7324 5.88625 79.343C5.8843 78.9536 6.03713 78.5794 6.3111 78.3027C6.58507 78.0259 6.95776 77.8694 7.34716 77.8674H7.36184C7.75125 77.8674 8.12471 78.0221 8.40006 78.2975C8.67541 78.5728 8.8301 78.9463 8.8301 79.3357C8.8301 79.7251 8.67541 80.0985 8.40006 80.3739C8.12471 80.6493 7.75125 80.8039 7.36184 80.8039Z" fill="#161335"/>
<path d="M65.4026 66.1595C67.5286 62.4272 67.5404 57.6246 67.5404 49.9207C67.5613 48.3448 67.2263 46.7846 66.5605 45.3561C65.8948 43.9277 64.9153 42.6679 63.695 41.6705C64.8545 41.0458 65.8238 40.1197 66.5006 38.9899C67.1775 37.86 67.5367 36.5684 67.5404 35.2513C67.5331 33.5746 66.9441 31.9523 65.8739 30.6616C67.0476 27.9367 67.6162 24.9897 67.5404 22.0238C67.5404 15.355 66.8062 9.00188 57.9189 4.55894C53.9728 2.76124 49.7214 1.72889 45.3903 1.51672C44.9586 1.48442 44.5113 1.46827 44.0483 1.46827C40.7268 1.47493 37.4214 1.00571 34.233 0.074892C33.8981 -0.0367739 33.5342 -0.0240255 33.2079 0.110801C32.8816 0.245628 32.6148 0.493506 32.4564 0.809019C31.96 1.80746 31.6193 2.87599 31.4463 3.97751C30.9926 4.16838 30.5653 4.35926 30.1777 4.556C21.2903 9.00188 20.5562 15.355 20.5562 22.0238C20.4804 24.9897 21.049 27.9367 22.2227 30.6616C21.1525 31.9523 20.5635 33.5746 20.5562 35.2513C20.5599 36.5684 20.9191 37.86 21.5959 38.9899C22.2728 40.1197 23.2421 41.0458 24.4016 41.6705C23.1813 42.6679 22.2018 43.9277 21.5361 45.3561C20.8703 46.7846 20.5353 48.3448 20.5562 49.9207C20.5562 57.6334 20.568 62.4375 22.7013 66.1713C20.6972 66.9054 18.7048 67.6748 16.7417 68.5895C15.438 69.1842 14.1745 69.8635 12.9595 70.623C12.3146 71.0264 11.7028 71.4806 11.13 71.9812C10.4987 72.5435 10.0934 73.0089 9.58101 73.5493C9.44465 73.6921 9.3392 73.8615 9.27122 74.047C9.20324 74.2324 9.1742 74.4298 9.18591 74.627C9.19762 74.8241 9.24983 75.0167 9.33928 75.1928C9.42873 75.3689 9.5535 75.5246 9.70581 75.6503C9.99812 75.8915 10.3706 76.0135 10.749 75.992C11.1273 75.9705 11.4836 75.8071 11.7467 75.5343C12.5468 74.5851 13.4876 73.7642 14.5364 73.1C15.6422 72.4098 16.7913 71.7913 17.9765 71.2485C20.0937 70.2618 22.3108 69.4147 24.5484 68.6174C25.757 69.8293 27.1194 70.8773 28.6008 71.7345C32.9498 74.3451 38.4939 81.4705 41.194 85.1602H24.961V82.2222C24.961 81.8328 24.8063 81.4594 24.5309 81.184C24.2556 80.9087 23.8821 80.754 23.4927 80.754C23.1033 80.754 22.7299 80.9087 22.4545 81.184C22.1792 81.4594 22.0245 81.8328 22.0245 82.2222V85.1588H7.40506C7.40506 85.1588 7.39625 85.1499 7.40506 85.1235C7.43126 84.7351 7.30213 84.3522 7.04607 84.059C6.79001 83.7657 6.42798 83.5862 6.03958 83.5598C5.84652 83.543 5.65204 83.5653 5.46778 83.6253C5.28352 83.6853 5.11325 83.7819 4.96715 83.9092C4.82105 84.0366 4.70212 84.192 4.61746 84.3664C4.5328 84.5407 4.48415 84.7303 4.47442 84.9238C4.44671 85.3316 4.50275 85.7408 4.63911 86.1261C4.77546 86.5114 4.98924 86.8648 5.26728 87.1644C5.53929 87.4585 5.86929 87.6931 6.23647 87.8533C6.60365 88.0135 7.00004 88.0959 7.40065 88.0953H80.6959C81.0976 88.0973 81.4952 88.0158 81.8637 87.8561C82.2322 87.6964 82.5635 87.4618 82.8367 87.1673C83.115 86.8671 83.329 86.513 83.4654 86.1269C83.6017 85.7408 83.6576 85.3309 83.6295 84.9224C83.2859 80.0992 81.4771 76.4638 77.388 72.3747C75.4587 70.4454 71.4166 68.3561 65.4026 66.1595ZM28.937 51.3126L32.6429 54.5559C32.7205 56.4644 32.5602 58.3751 32.1657 60.2439C23.7467 56.7466 23.4927 50.273 23.4927 49.9207C23.4778 48.744 23.7351 47.5798 24.2445 46.519C24.7539 45.4582 25.5016 44.5294 26.4292 43.8054V45.7905C26.4297 46.8364 26.6537 47.8702 27.0862 48.8226C27.5187 49.7749 28.1497 50.6239 28.937 51.3126ZM35.5442 57.096L37.0124 58.3822C38.3505 59.5529 40.068 60.1983 41.8459 60.1984H46.2507C48.0291 60.1987 49.7472 59.5533 51.0856 58.3822L52.5539 57.096C52.6359 58.4768 52.8324 59.8485 53.1412 61.1968C52.9503 61.2497 52.7815 61.3128 52.5833 61.3628C51.863 61.5517 51.2024 61.9202 50.6632 62.4337C50.124 62.9472 49.7238 63.5891 49.4999 64.2993L44.0483 81.7039L38.6158 64.3095C38.3919 63.5994 37.9917 62.9575 37.4525 62.444C36.9133 61.9304 36.2527 61.562 35.5324 61.373C35.3342 61.3231 35.1654 61.26 34.9745 61.2071C35.2789 59.855 35.4705 58.4799 35.5471 57.096H35.5442ZM52.2823 65.1817C52.3537 64.9479 52.4833 64.736 52.6589 64.566C52.8346 64.396 53.0505 64.2734 53.2866 64.2097C57.6398 63.3255 61.5762 61.0206 64.4776 57.6569C64.2647 61.3921 63.673 63.8456 62.0447 65.8791C62.0221 65.9027 62.001 65.9277 61.9816 65.954C60.843 67.2649 59.4852 68.3678 57.9688 69.2135C54.6843 71.1839 50.9418 75.2686 47.9964 78.8922L52.2823 65.1817ZM55.9235 60.2395C55.5302 58.372 55.3704 56.4629 55.4478 54.5559L59.1537 51.3126C59.9424 50.6241 60.5748 49.7749 61.0083 48.822C61.4418 47.8691 61.6666 46.8344 61.6674 45.7875V43.8024C62.5959 44.5264 63.3442 45.4554 63.8537 46.5169C64.3631 47.5784 64.6199 48.7434 64.6039 49.9207C64.6039 49.9955 64.4673 56.6746 55.9294 60.2395H55.9235ZM31.3846 7.24438C31.7213 9.70834 32.6398 12.0567 34.0642 14.0953C34.2978 14.4068 34.6456 14.6127 35.0311 14.6678C35.4166 14.7229 35.8082 14.6225 36.1197 14.3889C36.4312 14.1553 36.6372 13.8074 36.6923 13.4219C36.7473 13.0365 36.647 12.6449 36.4134 12.3333C36.3767 12.2864 33.1392 7.83608 34.625 3.23017C37.7064 4.00488 40.871 4.39935 44.0483 4.40477C49.8934 4.40477 52.8578 7.36918 52.8578 13.2143C52.8578 13.6037 53.0125 13.9772 53.2879 14.2525C53.5632 14.5279 53.9367 14.6826 54.3261 14.6826C54.7155 14.6826 55.0889 14.5279 55.3643 14.2525C55.6396 13.9772 55.7943 13.6037 55.7943 13.2143C55.8808 10.7194 55.2473 8.2524 53.9693 6.10795C54.8733 6.4084 55.7562 6.76893 56.6122 7.18712C64.0166 10.8901 64.6039 15.8821 64.6039 22.0238C64.6543 24.3124 64.28 26.5905 63.4997 28.7426C62.9078 28.4322 62.2759 28.205 61.6218 28.0672C61.1505 18.6968 55.7708 16.1508 52.8578 16.1508C50.6928 16.1806 48.5827 16.8363 46.7822 18.039C45.9799 18.6245 45.0364 18.9862 44.0483 19.0873C43.0602 18.9862 42.1167 18.6245 41.3144 18.039C39.5139 16.8363 37.4038 16.1806 35.2388 16.1508C32.3258 16.1508 26.9461 18.6968 26.4748 28.0672C25.8207 28.205 25.1888 28.4322 24.5969 28.7426C23.8166 26.5905 23.4423 24.3124 23.4927 22.0238C23.4927 15.9174 24.08 10.9488 31.3846 7.24438ZM26.4292 31.127V32.3016C26.4292 32.691 26.5839 33.0645 26.8593 33.3398C27.1346 33.6152 27.5081 33.7699 27.8975 33.7699C28.2869 33.7699 28.6604 33.6152 28.9357 33.3398C29.2111 33.0645 29.3657 32.691 29.3657 32.3016V29.393C29.3657 21.2412 33.2082 19.0873 35.2388 19.0873C36.8864 19.1211 38.4875 19.64 39.8417 20.5791C41.0811 21.4449 42.5385 21.9455 44.0483 22.0238C45.5581 21.9455 47.0155 21.4449 48.2549 20.5791C49.6091 19.64 51.2102 19.1211 52.8578 19.0873C54.8884 19.0873 58.7308 21.2412 58.7308 29.393V32.3016C58.7308 32.691 58.8855 33.0645 59.1609 33.3398C59.4362 33.6152 59.8097 33.7699 60.1991 33.7699C60.5885 33.7699 60.962 33.6152 61.2373 33.3398C61.5127 33.0645 61.6674 32.691 61.6674 32.3016V31.127C62.6488 31.4666 63.4776 32.1439 64.0057 33.0381C64.5339 33.9323 64.7269 34.9852 64.5505 36.0086C64.374 37.032 63.8395 37.9594 63.0425 38.6251C62.2454 39.2909 61.2376 39.6516 60.1991 39.6429C59.8097 39.6429 59.4362 39.7976 59.1609 40.0729C58.8855 40.3483 58.7308 40.7217 58.7308 41.1111V45.7875C58.7308 46.4155 58.5965 47.0362 58.3369 47.6079C58.0774 48.1797 57.6986 48.6894 57.2259 49.1028L49.1505 56.1725C48.3477 56.8747 47.3173 57.2619 46.2507 57.2619H41.8459C40.7793 57.2619 39.7489 56.8747 38.9461 56.1725L30.8707 49.1028C30.398 48.6894 30.0192 48.1797 29.7597 47.6079C29.5001 47.0362 29.3658 46.4155 29.3657 45.7875V41.1111C29.3657 40.7217 29.2111 40.3483 28.9357 40.0729C28.6604 39.7976 28.2869 39.6429 27.8975 39.6429C26.859 39.6516 25.8512 39.2909 25.0541 38.6251C24.257 37.9594 23.7226 37.032 23.5461 36.0086C23.3696 34.9852 23.5627 33.9323 24.0909 33.0381C24.619 32.1439 25.4478 31.4666 26.4292 31.127ZM30.1219 69.215C25.2355 66.2785 23.9552 63.5828 23.6131 57.6539C26.5126 61.0176 30.4467 63.3235 34.7983 64.2097C35.0346 64.2732 35.2508 64.3957 35.4268 64.5657C35.6027 64.7357 35.7325 64.9477 35.804 65.1817L40.0899 78.8967C37.1475 75.273 33.4064 71.1883 30.1219 69.2179V69.215ZM66.0721 85.1588V82.2222C66.0721 81.8328 65.9174 81.4594 65.6421 81.184C65.3667 80.9087 64.9933 80.754 64.6039 80.754C64.2145 80.754 63.841 80.9087 63.5657 81.184C63.2903 81.4594 63.1356 81.8328 63.1356 82.2222V85.1588H46.8938C49.5939 81.4676 55.138 74.3436 59.487 71.733C60.9707 70.8742 62.3351 69.8243 63.5453 68.6101C69.4726 70.7214 73.6469 72.7843 75.3119 74.4493C78.3027 77.4401 80.3626 80.4016 80.6959 85.1573L66.0721 85.1588Z" fill="#161335"/>
<path d="M33.7699 32.3016H39.6429C40.0323 32.3016 40.4058 32.1469 40.6811 31.8716C40.9565 31.5962 41.1112 31.2228 41.1112 30.8334C41.1112 30.444 40.9565 30.0705 40.6811 29.7952C40.4058 29.5198 40.0323 29.3651 39.6429 29.3651H33.7699C33.3805 29.3651 33.007 29.5198 32.7317 29.7952C32.4563 30.0705 32.3016 30.444 32.3016 30.8334C32.3016 31.2228 32.4563 31.5962 32.7317 31.8716C33.007 32.1469 33.3805 32.3016 33.7699 32.3016Z" fill="#161335"/>
<path d="M48.4524 32.3016H54.3255C54.7149 32.3016 55.0883 32.1469 55.3637 31.8716C55.639 31.5962 55.7937 31.2228 55.7937 30.8334C55.7937 30.444 55.639 30.0705 55.3637 29.7952C55.0883 29.5198 54.7149 29.3651 54.3255 29.3651H48.4524C48.063 29.3651 47.6896 29.5198 47.4142 29.7952C47.1389 30.0705 46.9842 30.444 46.9842 30.8334C46.9842 31.2228 47.1389 31.5962 47.4142 31.8716C47.6896 32.1469 48.063 32.3016 48.4524 32.3016Z" fill="#161335"/>
<rect x="21.4286" y="78.5714" width="5.95238" height="7.14286" fill="#E8EDFC"/>
<rect x="61.9047" y="79.762" width="5.95238" height="7.14286" fill="#E8EDFC"/>
<rect x="26.1905" y="84.5238" width="36.9048" height="4.76191" fill="#E8EDFC"/>
</g>
<defs>
<clipPath id="clip0_48_1159">
<rect width="88.0953" height="88.0953" fill="white"/>
</clipPath>
</defs>
</svg>
