<svg width="215" height="216" viewBox="0 0 215 216" fill="none" xmlns="http://www.w3.org/2000/svg">
<path d="M143.623 9.31583C141.137 14.188 146.475 21.8835 146.705 22.2062C146.766 22.2919 146.846 22.3618 146.94 22.4096C147.034 22.4575 147.137 22.4817 147.242 22.4802C147.638 22.4771 157.002 22.2852 159.489 17.413C160.072 16.2682 160.168 14.935 159.758 13.7059C159.348 12.4767 158.464 11.452 157.3 10.8565C155.837 10.11 154.241 10.0745 152.91 10.7119C152.645 9.25974 151.68 7.98811 150.217 7.24165C149.052 6.64874 147.704 6.53414 146.468 6.92299C145.231 7.31185 144.209 8.17239 143.623 9.31583Z" fill="url(#paint0_linear_210_2826)"/>
<path d="M147.113 21.916L147.113 21.916L147.114 21.9187C147.128 21.9375 147.146 21.9534 147.167 21.9643C147.189 21.9752 147.212 21.9806 147.235 21.9802L147.238 21.9802C147.418 21.9788 149.815 21.9313 152.463 21.2867C155.148 20.6334 157.908 19.4103 159.044 17.186C159.565 16.1618 159.652 14.9675 159.284 13.8642C158.915 12.7605 158.121 11.8381 157.072 11.3017C155.737 10.6202 154.305 10.5983 153.126 11.1629L152.536 11.4454L152.418 10.8016C152.183 9.51535 151.325 8.36875 149.99 7.68713C148.941 7.15313 147.728 7.05079 146.618 7.39995C145.508 7.74902 144.592 8.52059 144.068 9.54363C142.933 11.768 143.562 14.7208 144.608 17.2778C145.64 19.8009 147.008 21.77 147.113 21.916Z" stroke="#D2D2D2" stroke-opacity="0.9"/>
<path d="M164.304 20.8008C160.912 25.0924 164.642 33.6836 164.805 34.045C164.847 34.1409 164.913 34.2252 164.995 34.2904C165.078 34.3556 165.175 34.3997 165.278 34.4187C165.667 34.4932 174.888 36.1368 178.279 31.8451C179.074 30.8364 179.43 29.5479 179.268 28.2622C179.106 26.9765 178.44 25.7986 177.415 24.987C176.127 23.9689 174.568 23.6219 173.138 23.9864C173.162 22.5105 172.464 21.0747 171.176 20.0565C170.15 19.2472 168.85 18.871 167.561 19.0105C166.273 19.1501 165.102 19.7939 164.304 20.8008Z" fill="url(#paint1_linear_210_2826)"/>
<path d="M165.261 33.8401L165.261 33.8401L165.262 33.8431C165.272 33.8641 165.286 33.8832 165.305 33.8981C165.324 33.913 165.346 33.9229 165.369 33.927L165.372 33.9276C165.548 33.9613 167.908 34.3836 170.632 34.2697C173.392 34.1541 176.338 33.4945 177.887 31.5353C178.598 30.6329 178.917 29.4787 178.772 28.3247C178.627 27.1702 178.028 26.1102 177.105 25.3791C175.928 24.4496 174.529 24.148 173.262 24.471L172.627 24.6326L172.638 23.9783C172.66 22.6709 172.043 21.3786 170.866 20.449C169.942 19.72 168.772 19.3824 167.615 19.5076C166.459 19.6329 165.41 20.2104 164.696 21.1112C163.148 23.0706 163.187 26.0894 163.713 28.8016C164.231 31.4778 165.187 33.6766 165.261 33.8401Z" stroke="#D2D2D2" stroke-opacity="0.9"/>
<path d="M182.653 36.1884C178.534 39.7883 180.633 48.9163 180.726 49.3012C180.75 49.4032 180.799 49.4981 180.868 49.5773C180.938 49.6565 181.025 49.7176 181.123 49.7551C181.492 49.8994 190.257 53.1996 194.376 49.5996C195.342 48.7532 195.927 47.5513 196.002 46.2576C196.078 44.964 195.638 43.6842 194.779 42.6991C193.698 41.4627 192.229 40.8369 190.756 40.9341C191.05 39.4874 190.626 37.9482 189.545 36.7119C188.684 35.7287 187.475 35.1214 186.183 35.0232C184.89 34.9251 183.621 35.3441 182.653 36.1884Z" fill="url(#paint2_linear_210_2826)"/>
<path d="M181.212 49.1831L181.212 49.1831L181.213 49.1863C181.218 49.2087 181.229 49.2301 181.245 49.2482C181.261 49.2663 181.28 49.28 181.302 49.2882L181.305 49.2894C181.472 49.3547 183.715 50.201 186.414 50.5865C189.149 50.9771 192.166 50.8668 194.046 49.2234C194.911 48.4661 195.435 47.3897 195.503 46.2285C195.571 45.0668 195.176 43.9153 194.402 43.0279C193.415 41.8991 192.094 41.3469 190.789 41.433L190.136 41.4761L190.266 40.8347C190.526 39.5533 190.156 38.1701 189.169 37.0412C188.393 36.1556 187.305 35.6099 186.145 35.5218C184.985 35.4337 183.848 35.8098 182.982 36.5652C181.102 38.2088 180.589 41.184 180.61 43.9466C180.631 46.6725 181.17 49.0089 181.212 49.1831Z" stroke="#D2D2D2" stroke-opacity="0.9"/>
<path d="M197.269 54.987C192.28 57.2301 191.626 66.5733 191.604 66.9688C191.597 67.0734 191.616 67.1783 191.659 67.2743C191.702 67.3702 191.768 67.4542 191.851 67.5186C192.162 67.7642 199.584 73.476 204.573 71.2329C205.744 70.7048 206.654 69.7256 207.104 68.5101C207.553 67.2947 207.505 65.9422 206.97 64.7495C206.297 63.2518 205.075 62.2251 203.637 61.8887C204.34 60.5903 204.383 58.9945 203.709 57.4968C203.172 56.3052 202.192 55.3718 200.985 54.9013C199.777 54.4307 198.441 54.4616 197.269 54.987Z" fill="url(#paint3_linear_210_2826)"/>
<path d="M192.103 66.9974L192.103 66.9974L192.103 67.0007C192.101 67.0236 192.105 67.0473 192.115 67.0692C192.125 67.0912 192.14 67.11 192.158 67.1242L192.161 67.1262C192.301 67.2373 194.201 68.7008 196.67 69.8561C199.172 71.027 202.09 71.8009 204.368 70.777C205.416 70.3045 206.231 69.4278 206.635 68.3368C207.038 67.2454 206.996 66.0287 206.514 64.9542C205.899 63.5868 204.796 62.6735 203.523 62.3755L202.886 62.2264L203.197 61.6508C203.82 60.5007 203.868 59.0696 203.254 57.7021C202.769 56.6288 201.887 55.7896 200.803 55.3671C199.719 54.9448 198.522 54.9731 197.473 55.4432C195.196 56.4675 193.838 59.164 193.053 61.8128C192.279 64.4265 192.113 66.8184 192.103 66.9974Z" stroke="#D2D2D2" stroke-opacity="0.9"/>
<path d="M209.651 103.292C204.181 103.292 199.754 111.545 199.571 111.897C199.522 111.989 199.496 112.093 199.496 112.198C199.496 112.303 199.522 112.407 199.571 112.5C199.754 112.851 204.181 121.104 209.651 121.104C210.936 121.103 212.167 120.583 213.075 119.659C213.984 118.735 214.495 117.481 214.496 116.174C214.496 114.532 213.802 113.094 212.629 112.198C213.802 111.302 214.496 109.864 214.496 108.222C214.495 106.915 213.984 105.662 213.075 104.738C212.167 103.813 210.936 103.293 209.651 103.292Z" fill="url(#paint4_linear_210_2826)"/>
<path d="M200.014 112.128L200.014 112.128L200.013 112.131C200.002 112.151 199.996 112.174 199.996 112.198C199.996 112.222 200.002 112.246 200.013 112.266L200.014 112.269C200.097 112.428 201.229 114.542 203.007 116.608C204.809 118.702 207.154 120.604 209.651 120.604C210.8 120.603 211.904 120.138 212.719 119.308C213.534 118.478 213.995 117.351 213.996 116.174C213.996 114.675 213.365 113.389 212.326 112.596L211.806 112.198L212.326 111.801C213.365 111.007 213.996 109.722 213.996 108.223C213.995 107.045 213.534 105.918 212.719 105.088C211.903 104.258 210.8 103.793 209.651 103.792C207.153 103.792 204.809 105.695 203.007 107.789C201.229 109.855 200.097 111.969 200.014 112.128Z" stroke="#D2D2D2" stroke-opacity="0.9"/>
<path d="M207.036 76.7665C201.635 77.6314 198.568 86.4811 198.443 86.857C198.409 86.9563 198.401 87.0626 198.417 87.1664C198.434 87.2703 198.475 87.3685 198.539 87.4522C198.775 87.7704 204.452 95.2198 209.853 94.3549C211.121 94.1504 212.255 93.4423 213.005 92.386C213.756 91.3297 214.062 90.0116 213.857 88.7206C213.598 87.0992 212.685 85.7893 211.385 85.0898C212.402 84.0195 212.859 82.4901 212.6 80.8687C212.392 79.5782 211.689 78.4216 210.646 77.6525C209.603 76.8835 208.305 76.5649 207.036 76.7665Z" fill="url(#paint5_linear_210_2826)"/>
<path d="M198.918 87.0148L198.918 87.0148L198.917 87.0179C198.909 87.0397 198.907 87.0636 198.911 87.0874C198.915 87.1111 198.924 87.1332 198.938 87.1516L198.94 87.1542C199.047 87.2982 200.499 89.2062 202.581 90.9652C204.692 92.748 207.308 94.256 209.773 93.8613C210.908 93.6782 211.924 93.0445 212.598 92.0964C213.272 91.1479 213.548 89.9622 213.363 88.7994C213.126 87.319 212.3 86.1497 211.148 85.5301L210.572 85.2201L211.023 84.7455C211.923 83.7974 212.343 82.4285 212.106 80.948C211.919 79.7856 211.286 78.7455 210.349 78.055C209.413 77.3646 208.25 77.0799 207.115 77.2603C204.649 77.6554 202.635 79.9046 201.187 82.2572C199.758 84.5786 198.974 86.8447 198.918 87.0148Z" stroke="#D2D2D2" stroke-opacity="0.9"/>
<path d="M134.623 207.142C132.137 202.27 137.475 194.574 137.705 194.252C137.766 194.166 137.846 194.096 137.94 194.048C138.034 194.001 138.137 193.976 138.242 193.978C138.638 193.981 148.002 194.173 150.489 199.045C151.072 200.19 151.168 201.523 150.758 202.752C150.348 203.981 149.464 205.006 148.3 205.602C146.837 206.348 145.241 206.383 143.91 205.746C143.645 207.198 142.68 208.47 141.217 209.216C140.052 209.809 138.704 209.924 137.468 209.535C136.231 209.146 135.209 208.286 134.623 207.142Z" fill="url(#paint6_linear_210_2826)"/>
<path d="M138.113 194.542L138.113 194.542L138.114 194.539C138.128 194.52 138.146 194.505 138.167 194.494C138.189 194.483 138.212 194.477 138.235 194.478L138.238 194.478C138.418 194.479 140.815 194.527 143.463 195.171C146.148 195.825 148.908 197.048 150.044 199.272C150.565 200.296 150.652 201.49 150.284 202.594C149.915 203.698 149.121 204.62 148.072 205.156C146.737 205.838 145.305 205.86 144.126 205.295L143.536 205.013L143.418 205.656C143.183 206.943 142.325 208.089 140.99 208.771C139.941 209.305 138.728 209.407 137.618 209.058C136.508 208.709 135.592 207.937 135.068 206.914C133.933 204.69 134.562 201.737 135.608 199.18C136.64 196.657 138.008 194.688 138.113 194.542Z" stroke="#D2D2D2" stroke-opacity="0.9"/>
<path d="M156.304 198.012C152.912 193.72 156.642 185.129 156.805 184.768C156.847 184.672 156.913 184.587 156.995 184.522C157.078 184.457 157.175 184.413 157.278 184.394C157.667 184.319 166.888 182.676 170.279 186.967C171.074 187.976 171.43 189.265 171.268 190.55C171.106 191.836 170.44 193.014 169.415 193.825C168.127 194.844 166.568 195.191 165.138 194.826C165.162 196.302 164.464 197.738 163.176 198.756C162.15 199.565 160.85 199.941 159.561 199.802C158.273 199.662 157.102 199.019 156.304 198.012Z" fill="url(#paint7_linear_210_2826)"/>
<path d="M157.261 184.972L157.261 184.972L157.262 184.969C157.272 184.948 157.286 184.929 157.305 184.914C157.324 184.899 157.346 184.89 157.369 184.885L157.372 184.885C157.548 184.851 159.908 184.429 162.632 184.543C165.392 184.658 168.338 185.318 169.887 187.277C170.598 188.18 170.917 189.334 170.772 190.488C170.627 191.642 170.028 192.702 169.105 193.433C167.928 194.363 166.529 194.664 165.262 194.342L164.627 194.18L164.638 194.834C164.66 196.142 164.043 197.434 162.866 198.364C161.942 199.092 160.772 199.43 159.615 199.305C158.459 199.18 157.41 198.602 156.696 197.701C155.148 195.742 155.187 192.723 155.713 190.011C156.231 187.335 157.187 185.136 157.261 184.972Z" stroke="#D2D2D2" stroke-opacity="0.9"/>
<path d="M174.653 185.095C170.534 181.495 172.633 172.367 172.726 171.982C172.75 171.88 172.799 171.785 172.868 171.706C172.938 171.627 173.025 171.566 173.123 171.528C173.492 171.384 182.257 168.084 186.376 171.684C187.342 172.53 187.927 173.732 188.002 175.026C188.078 176.319 187.638 177.599 186.779 178.584C185.698 179.82 184.229 180.446 182.756 180.349C183.05 181.796 182.626 183.335 181.545 184.571C180.684 185.555 179.475 186.162 178.183 186.26C176.89 186.358 175.621 185.939 174.653 185.095Z" fill="url(#paint8_linear_210_2826)"/>
<path d="M173.212 172.1L173.212 172.1L173.213 172.097C173.218 172.075 173.229 172.053 173.245 172.035C173.261 172.017 173.28 172.003 173.302 171.995L173.305 171.994C173.472 171.929 175.715 171.082 178.414 170.697C181.149 170.306 184.166 170.416 186.046 172.06C186.911 172.817 187.435 173.894 187.503 175.055C187.571 176.216 187.176 177.368 186.402 178.255C185.415 179.384 184.094 179.936 182.789 179.85L182.136 179.807L182.266 180.448C182.526 181.73 182.156 183.113 181.169 184.242C180.393 185.128 179.305 185.673 178.145 185.761C176.985 185.85 175.848 185.473 174.982 184.718C173.102 183.074 172.589 180.099 172.61 177.337C172.631 174.611 173.17 172.274 173.212 172.1Z" stroke="#D2D2D2" stroke-opacity="0.9"/>
<path d="M192.269 167.411C187.28 165.167 186.626 155.824 186.604 155.429C186.597 155.324 186.616 155.219 186.659 155.123C186.702 155.027 186.768 154.943 186.851 154.879C187.162 154.633 194.584 148.921 199.573 151.165C200.744 151.693 201.654 152.672 202.104 153.887C202.553 155.103 202.505 156.455 201.97 157.648C201.297 159.146 200.075 160.172 198.637 160.509C199.34 161.807 199.383 163.403 198.709 164.901C198.172 166.092 197.192 167.026 195.985 167.496C194.777 167.967 193.441 167.936 192.269 167.411Z" fill="url(#paint9_linear_210_2826)"/>
<path d="M187.103 155.4L187.103 155.4L187.103 155.397C187.101 155.374 187.105 155.35 187.115 155.328C187.125 155.306 187.14 155.287 187.158 155.273L187.161 155.271C187.301 155.16 189.201 153.697 191.67 152.541C194.172 151.37 197.09 150.597 199.368 151.62C200.416 152.093 201.231 152.97 201.635 154.061C202.038 155.152 201.996 156.369 201.514 157.443C200.899 158.811 199.796 159.724 198.523 160.022L197.886 160.171L198.197 160.747C198.82 161.897 198.868 163.328 198.254 164.695C197.769 165.769 196.887 166.608 195.803 167.03C194.719 167.453 193.522 167.424 192.473 166.954C190.196 165.93 188.838 163.233 188.053 160.585C187.279 157.971 187.113 155.579 187.103 155.4Z" stroke="#D2D2D2" stroke-opacity="0.9"/>
<path d="M204.036 147.194C198.635 146.33 195.568 137.48 195.443 137.104C195.409 137.005 195.401 136.898 195.417 136.795C195.434 136.691 195.475 136.592 195.539 136.509C195.775 136.191 201.452 128.741 206.853 129.606C208.121 129.811 209.255 130.519 210.005 131.575C210.756 132.631 211.062 133.949 210.857 135.24C210.598 136.862 209.685 138.172 208.385 138.871C209.402 139.941 209.859 141.471 209.6 143.092C209.392 144.383 208.689 145.539 207.646 146.308C206.603 147.077 205.305 147.396 204.036 147.194Z" fill="url(#paint10_linear_210_2826)"/>
<path d="M114.82 4.84489C114.82 10.3149 106.567 14.7425 106.215 14.9254C106.123 14.9744 106.019 15 105.914 15C105.809 15 105.705 14.9744 105.613 14.9254C105.261 14.7425 97.0078 10.3149 97.0078 4.84489C97.0093 3.56039 97.5292 2.32892 98.4535 1.42064C99.3778 0.512355 100.631 0.00144779 101.938 0C103.58 0 105.018 0.693913 105.914 1.86685C106.81 0.693913 108.248 0 109.89 0C111.197 0.00144779 112.45 0.512355 113.375 1.42064C114.299 2.32892 114.819 3.56039 114.82 4.84489Z" fill="url(#paint11_linear_210_2826)"/>
<path d="M105.985 14.4818L105.985 14.4818L105.982 14.4834C105.961 14.4941 105.938 14.5 105.914 14.5C105.89 14.5 105.867 14.4941 105.846 14.4833L105.843 14.4818C105.684 14.3991 103.571 13.267 101.505 11.4889C99.4105 9.68671 97.508 7.34245 97.5078 4.84518C97.5092 3.69603 97.9743 2.59254 98.8039 1.77726C99.6339 0.961686 100.761 0.501374 101.938 0.5C103.438 0.50008 104.723 1.13142 105.517 2.17041L105.914 2.6904L106.311 2.17041C107.105 1.13142 108.39 0.50008 109.89 0.5C111.067 0.501372 112.194 0.961685 113.024 1.77726C113.854 2.59261 114.319 3.69622 114.32 4.84547C114.32 7.34264 112.418 9.68677 110.324 11.4889C108.257 13.267 106.144 14.3991 105.985 14.4818Z" stroke="#D2D2D2" stroke-opacity="0.9"/>
<path d="M90.456 5.71687C91.7048 11.0425 84.6801 17.2373 84.3797 17.4956C84.3007 17.5644 84.2057 17.613 84.1033 17.637C84.0009 17.6611 83.8942 17.6597 83.7928 17.6332C83.4089 17.5354 74.3627 15.1089 73.1139 9.78336C72.8221 8.53244 73.0471 7.21479 73.7396 6.11949C74.4321 5.02419 75.5356 4.24068 76.8079 3.94086C78.4066 3.56598 79.9648 3.91335 81.1051 4.85071C81.7098 3.50416 82.9511 2.50034 84.5499 2.12546C85.8228 1.82846 87.1595 2.03979 88.2668 2.71307C89.374 3.38636 90.1613 4.46662 90.456 5.71687Z" fill="url(#paint12_linear_210_2826)"/>
<path d="M84.0537 17.1164L84.0537 17.1164L84.0513 17.1186C84.0339 17.1337 84.0126 17.1448 83.9891 17.1502C83.9657 17.1557 83.9417 17.1553 83.9194 17.1495L83.9162 17.1487C83.7425 17.1044 81.4263 16.4848 79.0087 15.2253C76.5585 13.9488 74.171 12.1008 73.6007 9.66949C73.3397 8.55037 73.5406 7.36985 74.1622 6.38669C74.7841 5.40318 75.7763 4.69772 76.9223 4.42759C78.382 4.08539 79.7775 4.40664 80.7875 5.23696L81.2931 5.65251L81.5612 5.05555C82.0969 3.86277 83.2041 2.95468 84.6637 2.61232C85.8104 2.34486 87.0128 2.53572 88.007 3.14029C89.0009 3.74469 89.7057 4.71297 89.9693 5.83157C90.5391 8.26286 89.222 10.9794 87.5947 13.212C85.989 15.4149 84.1897 16.9996 84.0537 17.1164Z" stroke="#D2D2D2" stroke-opacity="0.9"/>
<path d="M67.8728 11.9838C70.3593 16.856 65.0207 24.5515 64.7908 24.8742C64.7305 24.9599 64.6499 25.0298 64.5562 25.0776C64.4625 25.1254 64.3587 25.1497 64.2539 25.1482C63.8577 25.1451 54.4936 24.9532 52.0071 20.081C51.4245 18.9362 51.3278 17.603 51.7381 16.3738C52.1485 15.1447 53.0325 14.1199 54.1961 13.5244C55.6587 12.778 57.2547 12.7425 58.5862 13.3798C58.8512 11.9277 59.8164 10.6561 61.279 9.90961C62.4439 9.31671 63.7924 9.20211 65.0285 9.59096C66.2647 9.97981 67.2876 10.8404 67.8728 11.9838Z" fill="url(#paint13_linear_210_2826)"/>
<path d="M64.3836 24.584L64.3836 24.584L64.3817 24.5867C64.3685 24.6055 64.3504 24.6213 64.3289 24.6323C64.3075 24.6432 64.2841 24.6485 64.2611 24.6482L64.2578 24.6482C64.0785 24.6468 61.6813 24.5992 59.0326 23.9547C56.3482 23.3014 53.5879 22.0782 52.4526 19.854C51.9314 18.8298 51.844 17.6355 52.2124 16.5322C52.5809 15.4285 53.3755 14.5061 54.4236 13.9697C55.7591 13.2882 57.1909 13.2663 58.3703 13.8308L58.9605 14.1134L59.078 13.4696C59.3128 12.1833 60.1706 11.0367 61.506 10.3551C62.5554 9.82109 63.7685 9.71876 64.8785 10.0679C65.9882 10.417 66.9041 11.1886 67.4277 12.2116C68.5626 14.436 67.9336 17.3888 66.8877 19.9458C65.8556 22.4688 64.4876 24.438 64.3836 24.584Z" stroke="#D2D2D2" stroke-opacity="0.9"/>
<path d="M47.9871 23.8008C51.3787 28.0924 47.6485 36.6836 47.4861 37.045C47.4438 37.1409 47.3785 37.2252 47.2959 37.2904C47.2134 37.3556 47.1163 37.3997 47.0132 37.4187C46.6241 37.4932 37.4034 39.1368 34.0118 34.8451C33.2165 33.8364 32.8609 32.5479 33.0229 31.2622C33.1849 29.9765 33.8513 28.7986 34.876 27.987C36.1643 26.9689 37.7226 26.6219 39.1529 26.9864C39.1288 25.5105 39.8266 24.0747 41.1149 23.0565C42.1413 22.2472 43.4413 21.871 44.7297 22.0105C46.018 22.1501 47.1895 22.7939 47.9871 23.8008Z" fill="url(#paint14_linear_210_2826)"/>
<path d="M47.0301 36.8401L47.0301 36.8401L47.0287 36.8431C47.0194 36.8641 47.0048 36.8832 46.9859 36.8981C46.967 36.913 46.9451 36.9229 46.9225 36.927L46.9193 36.9276C46.7432 36.9613 44.383 37.3836 41.6594 37.2697C38.899 37.1541 35.9528 36.4945 34.4043 34.5353C33.6929 33.6329 33.3735 32.4787 33.519 31.3247C33.6644 30.1702 34.2633 29.1102 35.1862 28.3791C36.3626 27.4496 37.7624 27.148 39.0294 27.471L39.6636 27.6326L39.6529 26.9783C39.6315 25.6709 40.2484 24.3786 41.4247 23.449C42.3493 22.72 43.519 22.3824 44.6758 22.5076C45.8323 22.6329 46.8815 23.2104 47.5951 24.1112C49.1432 26.0706 49.104 29.0894 48.5785 31.8016C48.0599 34.4778 47.1035 36.6766 47.0301 36.8401Z" stroke="#D2D2D2" stroke-opacity="0.9"/>
<path d="M30.3783 40.1884C34.4968 43.7883 32.3987 52.9163 32.3051 53.3012C32.281 53.4032 32.2321 53.4981 32.1629 53.5773C32.0937 53.6565 32.0062 53.7176 31.9084 53.7551C31.5394 53.8994 22.7741 57.1996 18.6556 53.5996C17.6895 52.7532 17.1044 51.5513 17.0288 50.2576C16.9533 48.964 17.3933 47.6842 18.2525 46.6991C19.3332 45.4627 20.8018 44.8369 22.2748 44.9341C21.9814 43.4874 22.4052 41.9482 23.4859 40.7119C24.3472 39.7287 25.5566 39.1214 26.8487 39.0232C28.1409 38.9251 29.4102 39.3441 30.3783 40.1884Z" fill="url(#paint15_linear_210_2826)"/>
<path d="M31.8192 53.1831L31.8192 53.1831L31.8185 53.1863C31.8132 53.2087 31.8023 53.2301 31.7864 53.2482C31.7706 53.2663 31.7508 53.28 31.7293 53.2882L31.7263 53.2894C31.5593 53.3547 29.316 54.201 26.6174 54.5865C23.8823 54.9771 20.8652 54.8668 18.9849 53.2234C18.1206 52.4661 17.5958 51.3897 17.528 50.2285C17.4601 49.0668 17.8553 47.9153 18.6291 47.0279C19.6159 45.8991 20.9371 45.3469 22.2418 45.433L22.8948 45.4761L22.7648 44.8347C22.505 43.5533 22.8755 42.1701 23.8621 41.0412C24.638 40.1556 25.7264 39.6099 26.8866 39.5218C28.0465 39.4337 29.1836 39.8098 30.0497 40.5652C31.9297 42.2088 32.4425 45.184 32.4213 47.9466C32.4003 50.6725 31.8616 53.0089 31.8192 53.1831Z" stroke="#D2D2D2" stroke-opacity="0.9"/>
<path d="M17.0045 59.152C21.9935 61.3951 22.6472 70.7383 22.6698 71.1339C22.6765 71.2384 22.6574 71.3434 22.6143 71.4393C22.5711 71.5353 22.5053 71.6192 22.4226 71.6836C22.1117 71.9292 14.689 77.641 9.70004 75.3979C8.52911 74.8698 7.61915 73.8906 7.16977 72.6752C6.7204 71.4597 6.76833 70.1073 7.30303 68.9145C7.97641 67.4168 9.19887 66.3901 10.6362 66.0537C9.93389 64.7554 9.89058 63.1595 10.564 61.6619C11.1013 60.4703 12.0812 59.5368 13.2886 59.0663C14.496 58.5958 15.8324 58.6266 17.0045 59.152Z" fill="url(#paint16_linear_210_2826)"/>
<path d="M22.1706 71.1624L22.1706 71.1624L22.1708 71.1657C22.1723 71.1887 22.1681 71.2123 22.1582 71.2343C22.1484 71.2562 22.1334 71.2751 22.1153 71.2892L22.1127 71.2912C21.972 71.4024 20.0728 72.8658 17.6037 74.0212C15.1013 75.192 12.183 75.9659 9.90534 74.942C8.85783 74.4695 8.04211 73.5928 7.63875 72.5018C7.23524 71.4104 7.2776 70.1937 7.75917 69.1193C8.37407 67.7519 9.47695 66.8385 10.7501 66.5406L11.3873 66.3914L11.0759 65.8159C10.4539 64.6658 10.4051 63.2346 11.0199 61.8672C11.5039 60.7939 12.386 59.9547 13.4701 59.5322C14.554 59.1098 15.7513 59.1382 16.8 59.6083C19.0774 60.6326 20.4352 63.329 21.2201 65.9778C21.9946 68.5915 22.1604 70.9835 22.1706 71.1624Z" stroke="#D2D2D2" stroke-opacity="0.9"/>
<path d="M4.84489 104.292C10.3149 104.292 14.7425 112.545 14.9254 112.897C14.9744 112.99 15 113.093 15 113.198C15 113.303 14.9744 113.407 14.9254 113.5C14.7425 113.851 10.3149 122.104 4.84489 122.104C3.56039 122.103 2.32892 121.583 1.42064 120.659C0.512355 119.735 0.00144779 118.481 0 117.174C0 115.532 0.693914 114.094 1.86685 113.198C0.693914 112.302 0 110.864 0 109.222C0.00144779 107.915 0.512355 106.662 1.42064 105.738C2.32892 104.813 3.56039 104.293 4.84489 104.292Z" fill="url(#paint17_linear_210_2826)"/>
<path d="M14.4818 113.128L14.4818 113.128L14.4834 113.131C14.4941 113.151 14.5 113.174 14.5 113.198C14.5 113.222 14.4941 113.246 14.4833 113.266L14.4818 113.269C14.3991 113.428 13.267 115.542 11.4889 117.608C9.68671 119.702 7.34245 121.604 4.84518 121.604C3.69603 121.603 2.59254 121.138 1.77726 120.308C0.961686 119.478 0.501374 118.351 0.5 117.174C0.50008 115.675 1.13142 114.389 2.17041 113.596L2.6904 113.198L2.17041 112.801C1.13142 112.007 0.50008 110.722 0.5 109.223C0.501372 108.045 0.961685 106.918 1.77726 106.088C2.59261 105.258 3.69622 104.793 4.84547 104.792C7.34264 104.792 9.68677 106.695 11.4889 108.789C13.267 110.855 14.3991 112.969 14.4818 113.128Z" stroke="#D2D2D2" stroke-opacity="0.9"/>
<path d="M7.60823 80.7665C13.0095 81.6314 16.0764 90.4811 16.2013 90.857C16.235 90.9563 16.244 91.0626 16.2274 91.1664C16.2107 91.2703 16.169 91.3685 16.106 91.4522C15.8699 91.7704 10.193 99.2198 4.79176 98.3549C3.52365 98.1504 2.38987 97.4423 1.63916 96.386C0.888453 95.3297 0.582121 94.0116 0.787372 92.7206C1.04701 91.0992 1.95953 89.7893 3.25941 89.0898C2.24294 88.0195 1.78508 86.4901 2.04472 84.8687C2.25283 83.5782 2.95546 82.4216 3.99846 81.6525C5.04146 80.8835 6.33965 80.5649 7.60823 80.7665Z" fill="url(#paint18_linear_210_2826)"/>
<path d="M15.7269 91.0148L15.7269 91.0148L15.7279 91.0179C15.7353 91.0397 15.7374 91.0636 15.7336 91.0874C15.7298 91.1111 15.7203 91.1332 15.7065 91.1516L15.7045 91.1542C15.5977 91.2982 14.1457 93.2062 12.0632 94.9652C9.95257 96.748 7.33698 98.256 4.8711 97.8613C3.73663 97.6782 2.72056 97.0445 2.04671 96.0964C1.37263 95.1479 1.09631 93.9622 1.28113 92.7994C1.51827 91.319 2.34489 90.1497 3.49633 89.5301L4.0726 89.2201L3.62197 88.7455C2.72158 87.7974 2.3014 86.4285 2.53839 84.948C2.72591 83.7856 3.35864 82.7455 4.29519 82.055C5.23147 81.3646 6.39474 81.0799 7.52974 81.2603C9.99545 81.6554 12.0093 83.9046 13.4576 86.2572C14.8867 88.5786 15.6703 90.8447 15.7269 91.0148Z" stroke="#D2D2D2" stroke-opacity="0.9"/>
<path d="M137.839 9.28149C136.426 14.5659 127.309 16.7114 126.923 16.7972C126.821 16.8206 126.714 16.8186 126.612 16.7915C126.511 16.7643 126.417 16.7128 126.34 16.6415C126.048 16.3741 119.218 9.96489 120.631 4.68048C120.965 3.43995 121.785 2.38456 122.912 1.74584C124.04 1.10713 125.383 0.937258 126.646 1.27349C128.232 1.69765 129.442 2.73938 130.005 4.104C131.173 3.20236 132.742 2.90336 134.328 3.32752C135.59 3.66655 136.669 4.48382 137.327 5.60002C137.986 6.71622 138.17 8.0402 137.839 9.28149Z" fill="url(#paint19_linear_210_2826)"/>
<path d="M126.814 16.3091L126.814 16.3091L126.811 16.3098C126.789 16.315 126.765 16.3147 126.741 16.3084C126.718 16.3022 126.697 16.2905 126.68 16.2749L126.678 16.2726C126.546 16.1516 124.796 14.512 123.259 12.2605C121.702 9.9786 120.469 7.22247 121.114 4.8099C121.412 3.70012 122.147 2.75421 123.159 2.18089C124.171 1.60737 125.379 1.4538 126.517 1.7566C127.965 2.14395 129.044 3.08585 129.542 4.29464L129.792 4.8996L130.31 4.49988C131.345 3.70121 132.75 3.42328 134.198 3.81047C135.336 4.11593 136.305 4.85174 136.897 5.85402C137.488 6.85601 137.652 8.0423 137.356 9.15289C136.711 11.5652 134.267 13.3384 131.779 14.5385C129.324 15.7226 126.989 16.2703 126.814 16.3091Z" stroke="#D2D2D2" stroke-opacity="0.9"/>
<path d="M127.413 208.568C127.156 203.104 118.703 199.069 118.344 198.903C118.249 198.859 118.144 198.838 118.039 198.843C117.934 198.848 117.832 198.878 117.742 198.931C117.399 199.131 109.363 203.941 109.62 209.405C109.682 210.688 110.259 211.894 111.225 212.758C112.191 213.621 113.467 214.073 114.772 214.013C116.413 213.936 117.816 213.175 118.656 211.961C119.607 213.091 121.075 213.716 122.716 213.639C124.021 213.576 125.249 213.007 126.13 212.057C127.01 211.106 127.472 209.851 127.413 208.568Z" fill="url(#paint20_linear_210_2826)"/>
<path d="M118.134 199.357L118.134 199.357L118.131 199.356C118.11 199.346 118.087 199.341 118.063 199.342C118.039 199.343 118.016 199.35 117.996 199.362L117.993 199.364C117.838 199.454 115.78 200.684 113.8 202.557C111.793 204.456 110.002 206.887 110.119 209.381C110.175 210.529 110.691 211.61 111.558 212.385C112.426 213.161 113.573 213.567 114.749 213.514C116.247 213.443 117.501 212.752 118.245 211.677L118.618 211.139L119.039 211.639C119.881 212.64 121.194 213.21 122.692 213.14C123.868 213.083 124.972 212.57 125.763 211.717C126.553 210.863 126.966 209.739 126.913 208.591C126.796 206.097 124.785 203.844 122.609 202.143C120.461 200.464 118.297 199.432 118.134 199.357Z" stroke="#D2D2D2" stroke-opacity="0.9"/>
<path d="M102.396 210.38C103.667 205.059 96.6677 198.835 96.3683 198.576C96.2896 198.507 96.1948 198.458 96.0925 198.433C95.9902 198.409 95.8835 198.41 95.782 198.436C95.3977 198.532 86.3415 200.921 85.0708 206.242C84.7738 207.491 84.9934 208.81 85.6814 209.908C86.3694 211.006 87.4696 211.794 88.7407 212.099C90.3378 212.481 91.8974 212.14 93.0416 211.207C93.6408 212.556 94.878 213.565 96.4751 213.947C97.7469 214.249 99.0844 214.043 100.194 213.374C101.304 212.706 102.096 211.629 102.396 210.38Z" fill="url(#paint21_linear_210_2826)"/>
<path d="M96.0408 198.954L96.0408 198.954L96.0383 198.952C96.021 198.936 95.9997 198.925 95.9763 198.92C95.9529 198.914 95.9289 198.914 95.9066 198.92L95.9034 198.921C95.7295 198.965 93.4107 199.575 90.988 200.824C88.5325 202.091 86.1375 203.929 85.5572 206.358C85.2916 207.476 85.4876 208.657 86.1052 209.643C86.7229 210.629 87.7122 211.338 88.8571 211.613C90.3154 211.961 91.7122 211.646 92.7257 210.82L93.2329 210.406L93.4985 211.004C94.0293 212.199 95.1328 213.112 96.591 213.46C97.7365 213.733 98.9397 213.547 99.9364 212.946C100.933 212.346 101.642 211.38 101.91 210.263C102.49 207.834 101.184 205.112 99.5657 202.873C97.9691 200.663 96.1762 199.071 96.0408 198.954Z" stroke="#D2D2D2" stroke-opacity="0.9"/>
<path d="M80.2177 206.659C82.4993 201.688 76.8449 194.221 76.6017 193.908C76.5379 193.825 76.4545 193.759 76.3589 193.715C76.2633 193.671 76.1585 193.651 76.0539 193.657C75.6582 193.676 66.3102 194.258 64.0286 199.229C63.4942 200.398 63.4531 201.734 63.9143 202.945C64.3755 204.156 65.3013 205.143 66.4887 205.689C67.9811 206.374 69.5773 206.343 70.881 205.651C71.2063 207.091 72.2235 208.321 73.716 209.006C74.9046 209.55 76.2566 209.608 77.4755 209.168C78.6944 208.728 79.6806 207.826 80.2177 206.659Z" fill="url(#paint22_linear_210_2826)"/>
<path d="M76.207 194.215L76.207 194.215L76.205 194.213C76.1909 194.194 76.1722 194.179 76.1504 194.169C76.1285 194.159 76.1049 194.155 76.0819 194.156L76.0786 194.156C75.8996 194.165 73.5064 194.312 70.8868 195.067C68.2319 195.831 65.525 197.168 64.4832 199.438C64.0051 200.483 63.9676 201.68 64.3815 202.767C64.7957 203.854 65.628 204.743 66.6975 205.235C68.0602 205.86 69.4917 205.823 70.6465 205.209L71.2245 204.902L71.3687 205.541C71.6568 206.816 72.5616 207.926 73.9242 208.552C74.9949 209.041 76.2113 209.093 77.3057 208.698C78.3999 208.303 79.2829 207.494 79.7635 206.45C80.8048 204.18 80.0535 201.256 78.902 198.745C77.7658 196.267 76.317 194.357 76.207 194.215Z" stroke="#D2D2D2" stroke-opacity="0.9"/>
<path d="M57.2516 197.704C60.4766 193.286 56.4207 184.843 56.2446 184.489C56.1987 184.394 56.1302 184.313 56.0452 184.251C55.9602 184.189 55.8615 184.148 55.7578 184.133C55.3661 184.074 46.0893 182.784 42.8643 187.202C42.1082 188.24 41.802 189.542 42.0131 190.82C42.2241 192.099 42.9351 193.25 43.99 194.022C45.3163 194.99 46.8867 195.277 48.3021 194.858C48.3344 196.334 49.0866 197.742 50.4129 198.71C51.4695 199.48 52.783 199.806 54.065 199.617C55.3471 199.429 56.4931 198.741 57.2516 197.704Z" fill="url(#paint23_linear_210_2826)"/>
<path d="M55.7967 184.711L55.7967 184.711L55.7953 184.708C55.7852 184.687 55.7699 184.669 55.7504 184.654C55.731 184.64 55.7087 184.631 55.6859 184.628L55.6827 184.627C55.5054 184.601 53.1308 184.269 50.4135 184.487C47.6596 184.708 44.7408 185.48 43.2683 187.497C42.5919 188.426 42.317 189.591 42.5064 190.739C42.6959 191.887 43.3348 192.923 44.285 193.618C45.4961 194.502 46.9064 194.75 48.1602 194.379L48.7877 194.193L48.802 194.847C48.8306 196.155 49.4965 197.422 50.7075 198.306C51.6593 198.999 52.841 199.292 53.9922 199.123C55.1431 198.953 56.1694 198.336 56.8481 197.409C58.3201 195.392 58.1655 192.376 57.5367 189.686C56.9161 187.032 55.8764 184.871 55.7967 184.711Z" stroke="#D2D2D2" stroke-opacity="0.9"/>
<path d="M38.1922 183.164C42.3747 179.639 40.4409 170.475 40.3542 170.088C40.3319 169.986 40.2848 169.89 40.217 169.81C40.1492 169.729 40.0629 169.666 39.9657 169.627C39.5994 169.476 30.8948 166.019 26.7123 169.545C25.7311 170.373 25.1246 171.565 25.0258 172.857C24.927 174.149 25.344 175.436 26.1853 176.437C27.2436 177.692 28.7008 178.344 30.1752 178.274C29.8559 179.715 30.2519 181.261 31.3102 182.517C32.1538 183.515 33.3521 184.144 34.6423 184.266C35.9324 184.387 37.2091 183.991 38.1922 183.164Z" fill="url(#paint24_linear_210_2826)"/>
<path d="M39.8663 170.198L39.8663 170.198L39.8656 170.194C39.8607 170.172 39.8502 170.15 39.8347 170.132C39.8192 170.113 39.7997 170.099 39.7783 170.091L39.7753 170.09C39.6096 170.021 37.3817 169.135 34.6905 168.701C31.9629 168.261 28.9443 168.317 27.0348 169.927C26.157 170.668 25.613 171.735 25.5243 172.895C25.4356 174.055 25.81 175.214 26.5678 176.115C27.5341 177.261 28.8452 177.837 30.1512 177.774L30.8049 177.743L30.6634 178.382C30.3806 179.658 30.7262 181.048 31.6924 182.195C32.4522 183.094 33.5306 183.659 34.6891 183.768C35.8472 183.877 36.9908 183.521 37.8704 182.782C39.7796 181.172 40.3458 178.207 40.3742 175.444C40.4021 172.718 39.9055 170.372 39.8663 170.198Z" stroke="#D2D2D2" stroke-opacity="0.9"/>
<path d="M21.7694 166.415C26.7523 164.158 27.3809 154.814 27.4024 154.418C27.4088 154.313 27.3895 154.208 27.3461 154.113C27.3027 154.017 27.2366 153.933 27.1538 153.869C26.8422 153.624 19.4041 147.932 14.4212 150.189C13.2517 150.72 12.3444 151.702 11.8983 152.918C11.4522 154.135 11.5038 155.487 12.0417 156.679C12.7191 158.175 13.9443 159.198 15.3825 159.53C14.6837 160.831 14.6447 162.427 15.3221 163.923C15.8627 165.113 16.845 166.043 18.0537 166.511C19.2624 166.978 20.5987 166.944 21.7694 166.415Z" fill="url(#paint25_linear_210_2826)"/>
<path d="M26.9032 154.391L26.9032 154.391L26.9034 154.387C26.9048 154.364 26.9005 154.341 26.8906 154.319C26.8807 154.297 26.8657 154.278 26.8475 154.264L26.8449 154.262C26.7039 154.151 24.8008 152.693 22.3286 151.544C19.823 150.38 16.9027 149.614 14.6278 150.644C13.5815 151.12 12.7682 151.998 12.3677 153.09C11.9672 154.183 12.0128 155.4 12.4973 156.473C13.1158 157.838 14.2212 158.749 15.4951 159.043L16.1327 159.191L15.8229 159.767C15.204 160.919 15.159 162.35 15.7775 163.716C16.2644 164.788 17.1487 165.625 18.234 166.044C19.319 166.464 20.5162 166.432 21.5637 165.959C23.8383 164.929 25.1889 162.229 25.9666 159.578C26.7341 156.962 26.8934 154.57 26.9032 154.391Z" stroke="#D2D2D2" stroke-opacity="0.9"/>
<path d="M11.4969 144.552C16.8442 143.4 19.4335 134.399 19.5382 134.016C19.5665 133.916 19.5697 133.809 19.5476 133.706C19.5254 133.603 19.4785 133.507 19.4112 133.427C19.1584 133.122 13.0912 125.987 7.74395 127.139C6.48859 127.411 5.3943 128.179 4.70115 129.274C4.008 130.369 3.7726 131.702 4.04659 132.98C4.39256 134.585 5.37382 135.844 6.70924 136.473C5.75146 137.596 5.37605 139.148 5.72203 140.753C5.99885 142.031 6.76232 143.148 7.84495 143.86C8.92758 144.572 10.241 144.821 11.4969 144.552Z" fill="url(#paint26_linear_210_2826)"/>
<path d="M19.0559 133.884L19.0559 133.884L19.0568 133.881C19.063 133.859 19.0639 133.835 19.0588 133.811C19.0537 133.788 19.0431 133.766 19.0283 133.749L19.0262 133.746C18.9118 133.608 17.3598 131.781 15.1862 130.135C12.9833 128.468 10.2908 127.102 7.84957 127.628C6.72652 127.872 5.74579 128.559 5.12361 129.541C4.50121 130.525 4.28869 131.723 4.53542 132.875C4.85139 134.34 5.73936 135.464 6.92228 136.021L7.51431 136.3L7.0897 136.798C6.2413 137.793 5.89493 139.182 6.21074 140.648C6.46016 141.798 7.1476 142.803 8.11973 143.443C9.0916 144.082 10.2684 144.304 11.3921 144.063C13.8332 143.537 15.7239 141.183 17.0443 138.756C18.3472 136.362 19.0086 134.057 19.0559 133.884Z" stroke="#D2D2D2" stroke-opacity="0.9"/>
<defs>
<linearGradient id="paint0_linear_210_2826" x1="158.282" y1="19.778" x2="142.416" y2="11.6808" gradientUnits="userSpaceOnUse">
<stop stop-color="#D4D4D4"/>
<stop offset="1" stop-color="#E3E3E3"/>
</linearGradient>
<linearGradient id="paint1_linear_210_2826" x1="176.633" y1="33.9283" x2="162.658" y2="22.8839" gradientUnits="userSpaceOnUse">
<stop stop-color="#D4D4D4"/>
<stop offset="1" stop-color="#E3E3E3"/>
</linearGradient>
<linearGradient id="paint2_linear_210_2826" x1="192.377" y1="51.347" x2="180.654" y2="37.9357" gradientUnits="userSpaceOnUse">
<stop stop-color="#D4D4D4"/>
<stop offset="1" stop-color="#E3E3E3"/>
</linearGradient>
<linearGradient id="paint3_linear_210_2826" x1="202.152" y1="72.3217" x2="194.847" y2="56.0758" gradientUnits="userSpaceOnUse">
<stop stop-color="#D4D4D4"/>
<stop offset="1" stop-color="#E3E3E3"/>
</linearGradient>
<linearGradient id="paint4_linear_210_2826" x1="206.996" y1="121.104" x2="206.996" y2="103.292" gradientUnits="userSpaceOnUse">
<stop stop-color="#D4D4D4"/>
<stop offset="1" stop-color="#E3E3E3"/>
</linearGradient>
<linearGradient id="paint5_linear_210_2826" x1="207.231" y1="94.7747" x2="204.415" y2="77.1863" gradientUnits="userSpaceOnUse">
<stop stop-color="#D4D4D4"/>
<stop offset="1" stop-color="#E3E3E3"/>
</linearGradient>
<linearGradient id="paint6_linear_210_2826" x1="149.282" y1="196.68" x2="133.416" y2="204.777" gradientUnits="userSpaceOnUse">
<stop stop-color="#D4D4D4"/>
<stop offset="1" stop-color="#E3E3E3"/>
</linearGradient>
<linearGradient id="paint7_linear_210_2826" x1="168.633" y1="184.884" x2="154.658" y2="195.929" gradientUnits="userSpaceOnUse">
<stop stop-color="#D4D4D4"/>
<stop offset="1" stop-color="#E3E3E3"/>
</linearGradient>
<linearGradient id="paint8_linear_210_2826" x1="184.377" y1="169.936" x2="172.654" y2="183.347" gradientUnits="userSpaceOnUse">
<stop stop-color="#D4D4D4"/>
<stop offset="1" stop-color="#E3E3E3"/>
</linearGradient>
<linearGradient id="paint9_linear_210_2826" x1="197.152" y1="150.076" x2="189.847" y2="166.322" gradientUnits="userSpaceOnUse">
<stop stop-color="#D4D4D4"/>
<stop offset="1" stop-color="#E3E3E3"/>
</linearGradient>
<linearGradient id="paint10_linear_210_2826" x1="204.231" y1="129.186" x2="201.415" y2="146.775" gradientUnits="userSpaceOnUse">
<stop stop-color="#D4D4D4"/>
<stop offset="1" stop-color="#E3E3E3"/>
</linearGradient>
<linearGradient id="paint11_linear_210_2826" x1="97.0078" y1="7.5" x2="114.82" y2="7.5" gradientUnits="userSpaceOnUse">
<stop stop-color="#D4D4D4"/>
<stop offset="1" stop-color="#E3E3E3"/>
</linearGradient>
<linearGradient id="paint12_linear_210_2826" x1="73.72" y1="12.3683" x2="91.0621" y2="8.30186" gradientUnits="userSpaceOnUse">
<stop stop-color="#D4D4D4"/>
<stop offset="1" stop-color="#E3E3E3"/>
</linearGradient>
<linearGradient id="paint13_linear_210_2826" x1="53.214" y1="22.4459" x2="69.0797" y2="14.3487" gradientUnits="userSpaceOnUse">
<stop stop-color="#D4D4D4"/>
<stop offset="1" stop-color="#E3E3E3"/>
</linearGradient>
<linearGradient id="paint14_linear_210_2826" x1="35.6581" y1="36.9283" x2="49.6333" y2="25.8839" gradientUnits="userSpaceOnUse">
<stop stop-color="#D4D4D4"/>
<stop offset="1" stop-color="#E3E3E3"/>
</linearGradient>
<linearGradient id="paint15_linear_210_2826" x1="20.6547" y1="55.347" x2="32.3774" y2="41.9357" gradientUnits="userSpaceOnUse">
<stop stop-color="#D4D4D4"/>
<stop offset="1" stop-color="#E3E3E3"/>
</linearGradient>
<linearGradient id="paint16_linear_210_2826" x1="12.1216" y1="76.4867" x2="19.4261" y2="60.2408" gradientUnits="userSpaceOnUse">
<stop stop-color="#D4D4D4"/>
<stop offset="1" stop-color="#E3E3E3"/>
</linearGradient>
<linearGradient id="paint17_linear_210_2826" x1="7.5" y1="122.104" x2="7.5" y2="104.292" gradientUnits="userSpaceOnUse">
<stop stop-color="#D4D4D4"/>
<stop offset="1" stop-color="#E3E3E3"/>
</linearGradient>
<linearGradient id="paint18_linear_210_2826" x1="7.41346" y1="98.7747" x2="10.2299" y2="81.1863" gradientUnits="userSpaceOnUse">
<stop stop-color="#D4D4D4"/>
<stop offset="1" stop-color="#E3E3E3"/>
</linearGradient>
<linearGradient id="paint19_linear_210_2826" x1="119.946" y1="7.24548" x2="137.154" y2="11.8465" gradientUnits="userSpaceOnUse">
<stop stop-color="#D4D4D4"/>
<stop offset="1" stop-color="#E3E3E3"/>
</linearGradient>
<linearGradient id="paint20_linear_210_2826" x1="109.495" y1="206.753" x2="127.288" y2="205.916" gradientUnits="userSpaceOnUse">
<stop stop-color="#D4D4D4"/>
<stop offset="1" stop-color="#E3E3E3"/>
</linearGradient>
<linearGradient id="paint21_linear_210_2826" x1="85.6876" y1="203.659" x2="103.013" y2="207.797" gradientUnits="userSpaceOnUse">
<stop stop-color="#D4D4D4"/>
<stop offset="1" stop-color="#E3E3E3"/>
</linearGradient>
<linearGradient id="paint22_linear_210_2826" x1="65.1361" y1="196.816" x2="81.3251" y2="204.246" gradientUnits="userSpaceOnUse">
<stop stop-color="#D4D4D4"/>
<stop offset="1" stop-color="#E3E3E3"/>
</linearGradient>
<linearGradient id="paint23_linear_210_2826" x1="44.4297" y1="185.057" x2="58.817" y2="195.559" gradientUnits="userSpaceOnUse">
<stop stop-color="#D4D4D4"/>
<stop offset="1" stop-color="#E3E3E3"/>
</linearGradient>
<linearGradient id="paint24_linear_210_2826" x1="28.7424" y1="167.833" x2="40.2223" y2="181.453" gradientUnits="userSpaceOnUse">
<stop stop-color="#D4D4D4"/>
<stop offset="1" stop-color="#E3E3E3"/>
</linearGradient>
<linearGradient id="paint25_linear_210_2826" x1="16.8399" y1="149.094" x2="24.1881" y2="165.32" gradientUnits="userSpaceOnUse">
<stop stop-color="#D4D4D4"/>
<stop offset="1" stop-color="#E3E3E3"/>
</linearGradient>
<linearGradient id="paint26_linear_210_2826" x1="10.3395" y1="126.58" x2="14.0924" y2="143.993" gradientUnits="userSpaceOnUse">
<stop stop-color="#D4D4D4"/>
<stop offset="1" stop-color="#E3E3E3"/>
</linearGradient>
</defs>
</svg>
