<svg width="75" height="89" viewBox="0 0 75 89" fill="none" xmlns="http://www.w3.org/2000/svg">
<path d="M59.0715 35.2527C59.0676 36.8078 58.4471 38.2979 57.3461 39.3961C56.2452 40.4943 54.7535 41.1111 53.1985 41.1111L51.0401 47.6007C50.4711 49.3288 49.5793 50.9331 48.412 52.3285C47.3615 53.5268 46.1682 54.5919 44.8588 55.5C42.6143 57.296 39.9051 58.4164 37.0477 58.7301C34.7925 58.5442 32.6233 57.7807 30.7489 56.5131C30.235 56.19 29.7211 55.8523 29.2366 55.5C27.9271 54.5919 26.7338 53.5268 25.6834 52.3285C24.516 50.9331 23.6242 49.3288 23.0552 47.6007L20.8969 41.1111C19.3418 41.1111 17.8502 40.4943 16.7492 39.3961C15.6482 38.2979 15.0277 36.8078 15.0238 35.2527C15.0204 34.3533 15.227 33.4655 15.6272 32.66C16.0274 31.8545 16.6101 31.1536 17.329 30.613C18.3513 29.8244 19.6057 29.3959 20.8969 29.3944V27.8968C20.8969 23.492 25.3016 22.0238 31.1746 20.5555C37.0477 19.0873 37.0477 14.6825 37.0477 13.2142C37.0477 14.6825 37.0477 19.0873 42.9207 20.5555C48.7937 22.0238 53.1985 23.492 53.1985 27.8968V29.3944C54.4896 29.3959 55.744 29.8244 56.7663 30.613C57.4852 31.1536 58.0679 31.8545 58.4681 32.66C58.8683 33.4655 59.0749 34.3533 59.0715 35.2527Z" fill="#E8EDFC"/>
<path d="M35.1536 56.5131C34.6397 56.19 34.1258 55.8523 33.6413 55.5C32.3319 54.5919 31.1386 53.5268 30.0881 52.3285C28.9208 50.9331 28.029 49.3288 27.46 47.6007L25.8889 42.8818C25.4992 41.7094 25.3009 40.4819 25.3016 39.2464V27.8968C25.3016 23.492 29.7064 22.0238 35.5794 20.5555C36.9293 20.2577 38.1881 19.6404 39.25 18.7554C38.4952 18.0528 37.906 17.1911 37.5251 16.2328C37.1441 15.2744 36.9811 14.2434 37.0477 13.2142C37.0477 14.6825 37.0477 19.0873 31.1746 20.5555C25.3016 22.0238 20.8969 23.492 20.8969 27.8968V29.3944C19.6057 29.3959 18.3513 29.8244 17.329 30.613C16.6101 31.1536 16.0274 31.8545 15.6272 32.66C15.227 33.4655 15.0204 34.3533 15.0238 35.2527C15.0277 36.8078 15.6482 38.2979 16.7492 39.3961C17.8502 40.4943 19.3418 41.1111 20.8969 41.1111L23.0552 47.6007C23.6242 49.3288 24.516 50.9331 25.6834 52.3285C26.7338 53.5268 27.9271 54.5919 29.2365 55.5C29.7211 55.8523 30.235 56.19 30.7488 56.5131C32.6232 57.7807 34.7925 58.5442 37.0477 58.7301C37.7889 58.714 38.5245 58.5965 39.2339 58.3807C37.7982 57.9386 36.4265 57.3108 35.1536 56.5131Z" fill="white"/>
<path d="M56.7663 30.613C55.744 29.8244 54.4896 29.3959 53.1984 29.3944V27.8968C53.1984 23.492 48.7937 22.0238 42.9206 20.5555C37.0476 19.0873 37.0476 14.6825 37.0476 13.2142C37.1142 14.2434 36.9511 15.2744 36.5702 16.2328C36.1893 17.1911 35.6001 18.0528 34.8453 18.7554C35.9072 19.6404 37.166 20.2577 38.5159 20.5555C44.3889 22.0238 48.7937 23.492 48.7937 27.8968V41.1111L46.6353 47.6007C46.0663 49.3288 45.1745 50.9331 44.0072 52.3285C42.9567 53.5268 41.7634 54.5919 40.454 55.5C38.7504 56.7633 36.8499 57.7367 34.8291 58.3807C35.5489 58.5993 36.2955 58.7169 37.0476 58.7301C39.9051 58.4164 42.6143 57.296 44.8587 55.5C46.1682 54.5919 47.3615 53.5268 48.4119 52.3285C49.5792 50.9331 50.4711 49.3288 51.0401 47.6007L53.1984 41.1111C54.7535 41.1111 56.2451 40.4943 57.3461 39.3961C58.4471 38.2979 59.0676 36.8078 59.0714 35.2527C59.0749 34.3533 58.8683 33.4655 58.4681 32.66C58.0679 31.8545 57.4851 31.1536 56.7663 30.613Z" fill="#FFD97C"/>
<path d="M71.1552 86.627H2.94011C2.68095 86.627 2.42643 86.5583 2.20239 86.4281C1.97835 86.2978 1.79278 86.1106 1.66452 85.8854C1.53627 85.6602 1.4699 85.4051 1.47216 85.146C1.47443 84.8868 1.54524 84.6329 1.67741 84.41L7.27146 75.0719C8.48462 73.0491 10.3558 71.5044 12.5719 70.6965L20.9996 67.6278C21.5429 72.3115 24.3032 80.754 37.0477 80.754C49.7921 80.754 52.5524 72.3115 53.0957 67.6278L61.5235 70.6965C63.7395 71.5044 65.6107 73.0491 66.8239 75.0719L72.4179 84.41C72.5501 84.6329 72.6209 84.8868 72.6231 85.146C72.6254 85.4051 72.559 85.6602 72.4308 85.8854C72.3025 86.1106 72.117 86.2978 71.8929 86.4281C71.6689 86.5583 71.4144 86.627 71.1552 86.627Z" fill="#FFD97C"/>
<path d="M6.08217 84.41L11.6762 75.0719C12.8894 73.0491 14.7606 71.5044 16.9766 70.6965L21.2448 69.1416C21.1391 68.6101 21.054 68.0962 20.9996 67.6278L12.5719 70.6965C10.3558 71.5044 8.48462 73.0491 7.27145 75.0719L1.67741 84.41C1.54524 84.6329 1.47443 84.8868 1.47216 85.146C1.4699 85.4051 1.53627 85.6602 1.66452 85.8854C1.79277 86.1106 1.97835 86.2978 2.20239 86.4281C2.42643 86.5583 2.68095 86.627 2.9401 86.627H7.34487C7.08571 86.627 6.83119 86.5583 6.60715 86.4281C6.38311 86.2978 6.19754 86.1106 6.06928 85.8854C5.94103 85.6602 5.87466 85.4051 5.87692 85.146C5.87919 84.8868 5.95 84.6329 6.08217 84.41Z" fill="white"/>
<path d="M72.4179 84.41L66.8238 75.0719C65.6107 73.0491 63.7394 71.5044 61.5234 70.6965L53.0957 67.6278C53.0413 68.0962 52.9562 68.6101 52.8505 69.1416L57.1187 70.6965C59.3347 71.5044 61.2059 73.0491 62.4191 75.0719L68.0131 84.41C68.1453 84.6329 68.2161 84.8868 68.2184 85.146C68.2206 85.4051 68.1543 85.6602 68.026 85.8854C67.8978 86.1106 67.7122 86.2978 67.4881 86.4281C67.2641 86.5583 67.0096 86.627 66.7504 86.627H71.1552C71.4143 86.627 71.6689 86.5583 71.8929 86.4281C72.1169 86.2978 72.3025 86.1106 72.4308 85.8854C72.559 85.6602 72.6254 85.4051 72.6231 85.146C72.6209 84.8868 72.5501 84.6329 72.4179 84.41Z" fill="#FFD97C"/>
<path d="M53.0957 67.6278C52.5524 72.3115 49.7921 80.754 37.0476 80.754C24.3032 80.754 21.5429 72.3115 20.9996 67.6278L24.1123 66.4972C25.0129 66.1786 25.8413 65.6845 26.5496 65.0437C27.9151 63.915 28.9038 62.3968 29.3839 60.6915C29.864 58.9863 29.8126 57.1752 29.2365 55.5C29.7211 55.8524 30.2349 56.1901 30.7488 56.5131C32.6232 57.7807 34.7925 58.5443 37.0476 58.7302C39.9051 58.4164 42.6143 57.2961 44.8588 55.5C44.2827 57.1752 44.2313 58.9863 44.7114 60.6915C45.1915 62.3968 46.1802 63.915 47.5457 65.0437C48.254 65.6845 49.0824 66.1786 49.983 66.4972L53.0957 67.6278Z" fill="#F5F5F5"/>
<path d="M57.6032 22.0238C57.6584 24.9096 57.3776 27.7921 56.7663 30.6131C55.744 29.8244 54.4896 29.3959 53.1984 29.3944V27.8968C53.1984 23.492 48.7937 22.0238 42.9207 20.5555C37.0477 19.0873 37.0477 14.6825 37.0477 13.2142C37.0477 14.6825 37.0477 19.0873 31.1746 20.5555C25.3016 22.0238 20.8969 23.492 20.8969 27.8968V29.3944C19.6057 29.3959 18.3513 29.8244 17.329 30.6131C16.7177 27.7921 16.4369 24.9096 16.4921 22.0238C16.4871 20.9061 16.5854 19.7904 16.7857 18.6908C16.8592 18.2944 16.9473 17.898 17.0354 17.5015L17.05 17.4722C17.9693 13.5712 20.3363 10.1651 23.6719 7.94321C24.7717 7.19353 25.954 6.57279 27.1957 6.09321C30.3437 4.91371 33.6865 4.34079 37.0477 4.40472C40.4088 4.34079 43.7516 4.91371 46.8996 6.09321C48.1413 6.57279 49.3236 7.19353 50.4234 7.94321C53.76 10.1708 56.1266 13.5817 57.0453 17.4869L57.06 17.5015C57.148 17.898 57.2361 18.2944 57.3096 18.6908C57.5099 19.7904 57.6082 20.9061 57.6032 22.0238Z" fill="#FFD97C"/>
<path d="M20.8968 22.0238C20.8968 12.7283 27.0929 5.28571 39.25 4.49432C26.2927 3.65007 18.9881 9.58916 17.05 17.4722L17.0353 17.5016C16.9472 17.898 16.8591 18.2944 16.7857 18.6909C16.2863 22.6669 16.4701 26.699 17.329 30.6131C18.3513 29.8244 19.6057 29.396 20.8968 29.3944C20.823 28.4118 20.8853 27.4236 21.0818 26.4579C20.9585 25.0367 20.8968 23.52 20.8968 22.0238Z" fill="white"/>
<path d="M57.3095 18.6908C56.8466 15.8568 55.6387 13.1967 53.8095 10.9831C51.9803 8.76951 49.5956 7.08192 46.8996 6.09321C43.7516 4.91371 40.4087 4.34079 37.0476 4.40472C36.2841 4.40472 35.5617 4.4473 34.8452 4.49428C37.4628 4.62582 40.0437 5.1653 42.4948 6.09321C45.1908 7.08192 47.5756 8.76951 49.4048 10.9831C51.234 13.1967 52.4419 15.8568 52.9047 18.6908C53.105 19.7904 53.2033 20.9061 53.1984 22.0238C53.1984 23.5199 53.1367 25.0366 53.0134 26.4535C53.1383 26.9244 53.2005 27.4097 53.1984 27.8968V29.3944C54.4895 29.3959 55.7439 29.8244 56.7662 30.6131C57.3775 27.7921 57.6584 24.9096 57.6031 22.0238C57.6081 20.9061 57.5098 19.7904 57.3095 18.6908Z" fill="#FFD97C"/>
<path d="M23.6718 7.94326C20.3363 10.1652 17.9693 13.5712 17.05 17.4722L17.0353 17.5016C16.6149 17.5857 16.1867 17.625 15.7579 17.6191C14.2293 17.6193 12.7319 17.1857 11.44 16.3685C10.148 15.5514 9.11455 14.3843 8.45969 13.003C7.80484 11.6217 7.55551 10.0829 7.74068 8.56545C7.92586 7.04803 8.53794 5.61434 9.50576 4.43105C10.4736 3.24775 11.7574 2.36347 13.2079 1.88101C14.6585 1.39854 16.2162 1.3377 17.6999 1.70557C19.1837 2.07344 20.5325 2.8549 21.5897 3.95911C22.6469 5.06332 23.3689 6.44491 23.6718 7.94326Z" fill="#FFD97C"/>
<path d="M12.0873 9.5436C12.088 7.794 12.6569 6.09195 13.7084 4.69357C14.7599 3.29519 16.2372 2.27614 17.9178 1.78975C16.8083 1.47942 15.6452 1.41044 14.5068 1.58744C13.3685 1.76443 12.2812 2.18331 11.3184 2.81584C10.3555 3.44838 9.53933 4.2799 8.92486 5.25439C8.31038 6.22889 7.91184 7.32375 7.7561 8.46522C7.60035 9.6067 7.691 10.7683 8.02195 11.8718C8.3529 12.9753 8.91646 13.9951 9.67468 14.8624C10.4329 15.7298 11.3682 16.4246 12.4175 16.9001C13.4669 17.3756 14.6059 17.6208 15.758 17.619C16.1867 17.625 16.6149 17.5856 17.0354 17.5015L17.05 17.4722C17.0853 17.3254 17.1352 17.1785 17.1748 17.042C15.6742 16.4443 14.3872 15.4103 13.4803 14.0736C12.5733 12.7369 12.0881 11.1589 12.0873 9.5436Z" fill="white"/>
<path d="M66.4127 9.54358C66.4127 11.6853 65.5619 13.7393 64.0475 15.2538C62.5331 16.7682 60.4791 17.619 58.3373 17.619C57.9086 17.625 57.4804 17.5856 57.06 17.5015L57.0453 17.4868C56.1266 13.5817 53.76 10.1707 50.4235 7.94318C50.8217 5.98185 51.9341 4.23829 53.5449 3.05056C55.1557 1.86283 57.1502 1.31558 59.1416 1.5149C61.133 1.71422 62.9795 2.64592 64.3229 4.12935C65.6664 5.61277 66.4111 7.54222 66.4127 9.54358Z" fill="#FFD97C"/>
<path d="M26.5027 51.0086L24.1901 52.8175C22.902 51.1213 21.9415 49.1998 21.3579 47.1515L19.5035 41.5721L22.2932 40.6442L24.1446 46.2147C24.6199 47.9476 25.4201 49.5744 26.5027 51.0086Z" fill="white"/>
<path d="M22.7791 48.1587C22.5863 48.1596 22.3952 48.1226 22.2167 48.0497C22.0382 47.9768 21.8758 47.8695 21.7388 47.7338C21.4621 47.4599 21.3055 47.0872 21.3035 46.6978C21.3016 46.3084 21.4544 45.9341 21.7284 45.6574C22.0024 45.3807 22.3751 45.2241 22.7645 45.2222H22.7791C23.1685 45.2222 23.542 45.3769 23.8174 45.6522C24.0927 45.9276 24.2474 46.301 24.2474 46.6904C24.2474 47.0798 24.0927 47.4533 23.8174 47.7286C23.542 48.004 23.1685 48.1587 22.7791 48.1587Z" fill="#161335"/>
<path d="M34.1111 46.9841C33.7217 46.9841 33.3483 47.1388 33.0729 47.4142C32.7976 47.6895 32.6429 48.063 32.6429 48.4524C32.6429 48.8418 32.7976 49.2152 33.0729 49.4906C33.3483 49.7659 33.7217 49.9206 34.1111 49.9206H39.9842C40.3736 49.9206 40.747 49.7659 41.0224 49.4906C41.2977 49.2152 41.4524 48.8418 41.4524 48.4524C41.4524 48.063 41.2977 47.6895 41.0224 47.4142C40.747 47.1388 40.3736 46.9841 39.9842 46.9841H34.1111Z" fill="#161335"/>
<path d="M28.2381 35.238V36.7063C28.2381 37.0957 28.3928 37.4691 28.6681 37.7445C28.9435 38.0199 29.3169 38.1745 29.7064 38.1745C30.0958 38.1745 30.4692 38.0199 30.7446 37.7445C31.0199 37.4691 31.1746 37.0957 31.1746 36.7063V35.238C31.1746 34.8486 31.0199 34.4752 30.7446 34.1998C30.4692 33.9245 30.0958 33.7698 29.7064 33.7698C29.3169 33.7698 28.9435 33.9245 28.6681 34.1998C28.3928 34.4752 28.2381 34.8486 28.2381 35.238Z" fill="#161335"/>
<path d="M42.9207 35.238V36.7063C42.9207 37.0957 43.0753 37.4691 43.3507 37.7445C43.626 38.0199 43.9995 38.1745 44.3889 38.1745C44.7783 38.1745 45.1518 38.0199 45.4271 37.7445C45.7025 37.4691 45.8572 37.0957 45.8572 36.7063V35.238C45.8572 34.8486 45.7025 34.4752 45.4271 34.1998C45.1518 33.9245 44.7783 33.7698 44.3889 33.7698C43.9995 33.7698 43.626 33.9245 43.3507 34.1998C43.0753 34.4752 42.9207 34.8486 42.9207 35.238Z" fill="#161335"/>
<path d="M38.5159 41.1111H35.5794C35.19 41.1111 34.8165 41.2658 34.5412 41.5411C34.2658 41.8165 34.1111 42.1899 34.1111 42.5793C34.1111 42.9687 34.2658 43.3422 34.5412 43.6176C34.8165 43.8929 35.19 44.0476 35.5794 44.0476H38.5159C38.9053 44.0476 39.2788 43.8929 39.5541 43.6176C39.8295 43.3422 39.9842 42.9687 39.9842 42.5793C39.9842 42.1899 39.8295 41.8165 39.5541 41.5411C39.2788 41.2658 38.9053 41.1111 38.5159 41.1111Z" fill="#161335"/>
<path d="M32.6429 29.3651H26.7699C26.3805 29.3651 26.007 29.5198 25.7317 29.7952C25.4563 30.0705 25.3016 30.444 25.3016 30.8334C25.3016 31.2228 25.4563 31.5962 25.7317 31.8716C26.007 32.1469 26.3805 32.3016 26.7699 32.3016H32.6429C33.0323 32.3016 33.4058 32.1469 33.6811 31.8716C33.9565 31.5962 34.1112 31.2228 34.1112 30.8334C34.1112 30.444 33.9565 30.0705 33.6811 29.7952C33.4058 29.5198 33.0323 29.3651 32.6429 29.3651Z" fill="#161335"/>
<path d="M48.7937 30.8334C48.7937 30.444 48.639 30.0705 48.3636 29.7952C48.0883 29.5198 47.7148 29.3651 47.3254 29.3651H41.4524C41.063 29.3651 40.6895 29.5198 40.4142 29.7952C40.1388 30.0705 39.9841 30.444 39.9841 30.8334C39.9841 31.2228 40.1388 31.5962 40.4142 31.8716C40.6895 32.1469 41.063 32.3016 41.4524 32.3016H47.3254C47.7148 32.3016 48.0883 32.1469 48.3636 31.8716C48.639 31.5962 48.7937 31.2228 48.7937 30.8334Z" fill="#161335"/>
<path d="M6.01315 74.3172L0.416162 83.6479C0.148798 84.0935 0.0044707 84.6021 -0.00208555 85.1217C-0.00864181 85.6413 0.122808 86.1534 0.378843 86.6056C0.634878 87.0578 1.00633 87.4339 1.45527 87.6956C1.90421 87.9574 2.41456 88.0953 2.93422 88.0953H71.161C71.6805 88.0951 72.1906 87.9572 72.6393 87.6955C73.0881 87.4339 73.4594 87.0579 73.7153 86.6059C73.9713 86.154 74.1029 85.6422 74.0965 85.1228C74.0901 84.6034 73.9461 84.0949 73.6791 83.6494L68.0821 74.3157C66.6928 72.0064 64.555 70.2422 62.0241 69.3163L50.4778 65.1215C49.7648 64.8683 49.1087 64.4772 48.547 63.9704C47.4496 63.0779 46.6378 61.8834 46.212 60.5346C45.7861 59.1858 45.7648 57.7417 46.1508 56.381C47.3862 55.4757 48.5186 54.4379 49.5278 53.2859C50.8178 51.7471 51.803 49.9766 52.4305 48.0692L54.2805 42.5059C56.0195 42.2468 57.6077 41.3722 58.7563 40.0411C59.905 38.71 60.5378 37.0109 60.5397 35.2528C60.537 34.2969 60.3458 33.351 59.9769 32.4692C59.6081 31.5874 59.0689 30.787 58.3902 30.1139C58.8772 27.4454 59.1054 24.7361 59.0714 22.0238C59.0669 21.0323 58.9899 20.0425 58.8409 19.0623C60.5405 18.9777 62.1864 18.4402 63.6084 17.5055C65.0303 16.5709 66.1765 15.273 66.9282 13.7464C67.6799 12.2198 68.0098 10.52 67.8837 8.82304C67.7575 7.12608 67.18 5.49372 66.2108 4.09503C65.2417 2.69634 63.9162 1.58221 62.3717 0.86804C60.8272 0.15387 59.1198 -0.134361 57.4265 0.0332059C55.7331 0.200772 54.1153 0.818041 52.7408 1.82107C51.3662 2.8241 50.2848 4.17641 49.6085 5.73791C45.7205 3.77169 41.4027 2.80869 37.0476 2.93648C32.6926 2.80869 28.3747 3.77169 24.4867 5.73791C23.8089 4.18114 22.7275 2.8337 21.3544 1.83489C19.9813 0.836087 18.3664 0.222184 16.6765 0.0566592C14.9867 -0.108865 13.2833 0.179998 11.7425 0.89338C10.2017 1.60676 8.87943 2.71877 7.9124 4.11441C6.94537 5.51006 6.36869 7.13868 6.24198 8.83188C6.11528 10.5251 6.44315 12.2214 7.19171 13.7454C7.94026 15.2694 9.08231 16.5658 10.4998 17.5006C11.9172 18.4354 13.5587 18.9745 15.2543 19.0623C15.1054 20.0425 15.0283 21.0323 15.0238 22.0238C14.9899 24.7361 15.218 27.4454 15.7051 30.1139C15.0264 30.787 14.4872 31.5874 14.1184 32.4692C13.7495 33.351 13.5583 34.2969 13.5556 35.2528C13.5595 37.1973 14.3346 39.0608 15.711 40.4343C17.0873 41.8079 18.9524 42.5794 20.8968 42.5794C21.2862 42.5794 21.6597 42.4247 21.9351 42.1493C22.2104 41.874 22.3651 41.5005 22.3651 41.1111C22.3651 40.7217 22.2104 40.3482 21.9351 40.0729C21.6597 39.7975 21.2862 39.6428 20.8968 39.6428C19.8572 39.6537 18.8476 39.2941 18.0489 38.6284C17.2502 37.9628 16.7145 37.0345 16.5379 36.0099C16.3612 34.9853 16.5551 33.9312 17.0848 33.0365C17.6144 32.1418 18.4453 31.4649 19.4286 31.127V32.3016C19.4286 32.691 19.5833 33.0644 19.8586 33.3398C20.134 33.6151 20.5074 33.7698 20.8968 33.7698C21.2862 33.7698 21.6597 33.6151 21.9351 33.3398C22.2104 33.0644 22.3651 32.691 22.3651 32.3016V27.8968C22.3651 24.8135 25.3207 23.5317 31.5314 21.9797C33.734 21.5495 35.6991 20.3188 37.0476 18.5249C38.3961 20.3188 40.3613 21.5495 42.5639 21.9797C48.7746 23.5317 51.7302 24.8135 51.7302 27.8968V32.3016C51.7302 32.691 51.8849 33.0644 52.1602 33.3398C52.4356 33.6151 52.809 33.7698 53.1984 33.7698C53.5878 33.7698 53.9613 33.6151 54.2366 33.3398C54.512 33.0644 54.6667 32.691 54.6667 32.3016V31.127C55.65 31.4649 56.4808 32.1418 57.0105 33.0365C57.5402 33.9312 57.734 34.9853 57.5574 36.0099C57.3807 37.0345 56.8451 37.9628 56.0464 38.6284C55.2477 39.2941 54.2381 39.6537 53.1984 39.6428C52.89 39.6429 52.5893 39.7401 52.3392 39.9206C52.0891 40.1011 51.9022 40.3558 51.8051 40.6486L49.6497 47.1309C49.1403 48.687 48.3396 50.1321 47.2902 51.3889C45.2699 53.7792 40.2778 57.2619 37.0476 57.2619C35.0632 57.0766 33.159 56.3878 31.5153 55.2607C29.619 54.1302 27.9249 52.6911 26.5026 51.0027C26.2601 50.7233 25.9254 50.5401 25.5594 50.4862C25.1933 50.4323 24.82 50.5114 24.5073 50.7091C24.3365 50.8173 24.191 50.961 24.0806 51.1304C23.9702 51.2998 23.8975 51.491 23.8675 51.6909C23.8374 51.8908 23.8506 52.0949 23.9063 52.2893C23.962 52.4837 24.0588 52.6638 24.1901 52.8175C25.2837 54.1544 26.5456 55.3443 27.9445 56.3575C28.3363 57.7214 28.3183 59.1705 27.8924 60.5242C27.4666 61.8779 26.6519 63.0764 25.5497 63.9704C24.9891 64.4771 24.334 64.8683 23.6219 65.1215L12.0697 69.3163C9.53897 70.2426 7.40164 72.0074 6.01315 74.3172ZM58.3373 2.93648C60.0896 2.93648 61.7702 3.63259 63.0093 4.87167C64.2484 6.11075 64.9445 7.7913 64.9445 9.54363C64.9445 11.2959 64.2484 12.9765 63.0093 14.2156C61.7702 15.4547 60.0896 16.1508 58.3373 16.1508C58.2757 16.1508 58.2272 16.1508 58.1699 16.1434C57.1131 12.661 54.9965 9.59481 52.1149 7.37208C52.5636 6.07851 53.4037 4.9566 54.5186 4.16184C55.6336 3.36708 56.9681 2.93884 58.3373 2.93648ZM15.7579 16.1508C14.5445 16.154 13.3536 15.823 12.3159 15.1941C11.2782 14.5652 10.4337 13.6626 9.87502 12.5854C9.31638 11.5083 9.06517 10.298 9.14895 9.08748C9.23273 7.87694 9.64826 6.71285 10.35 5.72288C11.0517 4.73291 12.0124 3.9553 13.1269 3.47533C14.2414 2.99537 15.4665 2.83158 16.6679 3.00194C17.8694 3.1723 19.0007 3.67023 19.9378 4.44111C20.8749 5.21199 21.5816 6.22605 21.9804 7.37208C19.0975 9.59674 16.9808 12.6656 15.9253 16.1508C15.8681 16.1508 15.8196 16.1508 15.7579 16.1508ZM54.6667 27.8968C54.6667 21.9783 48.3532 20.3999 43.2774 19.1313C38.5159 17.9406 38.5159 14.6282 38.5159 13.2143C38.5159 12.8249 38.3612 12.4514 38.0858 12.1761C37.8105 11.9007 37.437 11.746 37.0476 11.746C36.6582 11.746 36.2848 11.9007 36.0094 12.1761C35.7341 12.4514 35.5794 12.8249 35.5794 13.2143C35.5794 14.6282 35.5794 17.9406 30.8178 19.1313C25.7421 20.3999 19.4286 21.9783 19.4286 27.8968V28.073C19.0718 28.1497 18.7214 28.2533 18.3802 28.3828C18.0856 26.2762 17.9452 24.1509 17.9603 22.0238C17.9603 14.2156 22.9744 5.87299 37.0476 5.87299C51.1208 5.87299 56.1349 14.2156 56.1349 22.0238C56.1501 24.1509 56.0097 26.2762 55.715 28.3828C55.3739 28.2533 55.0234 28.1497 54.6667 28.073V27.8968ZM24.6218 67.8803C25.7016 67.4974 26.6937 66.9018 27.5392 66.1287C28.6488 65.1711 29.544 63.9903 30.1663 62.6633C30.7887 61.3364 31.1243 59.8931 31.1511 58.4277C32.9502 59.473 34.9703 60.0797 37.0476 60.1984C39.1258 60.0788 41.1462 59.4695 42.9441 58.4204C42.97 59.8867 43.3049 61.331 43.9271 62.659C44.5492 63.987 45.4445 65.1688 46.5546 66.1272C47.4007 66.9014 48.3939 67.4975 49.4749 67.8803L51.4659 68.6042C50.5849 73.4656 47.5222 78.7131 38.5159 79.2299V76.3492C38.5159 75.9598 38.3612 75.5864 38.0858 75.311C37.8105 75.0357 37.437 74.881 37.0476 74.881C36.6582 74.881 36.2848 75.0357 36.0094 75.311C35.7341 75.5864 35.5794 75.9598 35.5794 76.3492V79.2299C26.5746 78.7131 23.5045 73.4656 22.6294 68.6042L24.6218 67.8803ZM19.8426 69.6173C20.8807 74.4508 24.5029 82.2222 37.0476 82.2222C49.5924 82.2222 53.2146 74.4493 54.2526 69.6173L61.0213 72.0751C62.9188 72.7714 64.5216 74.0949 65.5641 75.8265L71.161 85.1587H59.0714V82.2222C59.0714 81.8328 58.9168 81.4594 58.6414 81.184C58.3661 80.9087 57.9926 80.754 57.6032 80.754C57.2138 80.754 56.8403 80.9087 56.565 81.184C56.2896 81.4594 56.1349 81.8328 56.1349 82.2222V85.1587H17.9603V82.2222C17.9603 81.8328 17.8056 81.4594 17.5303 81.184C17.2549 80.9087 16.8815 80.754 16.4921 80.754C16.1027 80.754 15.7292 80.9087 15.4539 81.184C15.1785 81.4594 15.0238 81.8328 15.0238 82.2222V85.1587H2.93422L8.52973 75.828C9.57207 74.0962 11.1749 72.7726 13.0725 72.0766L19.8426 69.6173Z" fill="#161335"/>
</svg>
