<svg width="116" height="214" viewBox="0 0 116 214" fill="none" xmlns="http://www.w3.org/2000/svg">
<g style="mix-blend-mode:hard-light" opacity="0.87">
<path d="M107.158 68.9209C108.229 67.4501 108.919 65.7369 109.166 63.9343C109.413 62.1317 109.21 60.296 108.574 58.5912C107.938 56.8865 106.89 55.3658 105.523 54.1652C104.156 52.9646 102.512 52.1214 100.74 51.7111C100.125 51.5599 99.5612 51.2479 99.1067 50.807C98.6522 50.3661 98.3231 49.8122 98.1533 49.2022C97.9835 48.5921 97.9791 47.9479 98.1405 47.3355C98.3019 46.7232 98.6233 46.1649 99.0717 45.7178C101.272 43.4726 102.907 40.7362 103.841 37.7346C104.775 34.733 104.982 31.5522 104.444 28.4549C103.907 25.3575 102.64 22.4326 100.749 19.9214C98.8575 17.4103 96.3961 15.385 93.5677 14.0129C92.1935 13.3486 91.0752 12.2518 90.3844 10.8907C89.2307 8.60789 87.5852 6.60916 85.5665 5.03839C83.5477 3.46762 81.2059 2.36387 78.7094 1.80655C76.213 1.24923 73.6241 1.2522 71.129 1.81525C68.6339 2.37831 66.2946 3.48744 64.2795 5.06285C61.704 2.49071 58.3834 0.795755 54.7895 0.218851C51.1955 -0.358052 47.5112 0.21245 44.2601 1.84928C41.009 3.48611 38.3565 6.10599 36.6796 9.3366C35.0026 12.5672 34.3866 16.2442 34.9189 19.8449C33.3283 20.5827 31.8086 21.4647 30.379 22.4798C27.8192 24.1325 25.9496 26.6616 25.1203 29.5935C23.9485 33.9959 25.5095 37.6247 27.7065 40.3277C28.2419 40.9687 28.6245 41.7231 28.8251 42.5338C29.0257 43.3445 29.0392 44.1902 28.8646 45.0069C28.6899 45.8236 28.3316 46.5898 27.817 47.2475C27.3023 47.9052 26.6446 48.4372 25.8939 48.803C19.1701 52.0489 11.043 58.455 10.8956 70.4883C10.8899 71.6014 10.9806 72.713 11.1667 73.8105C9.30956 75.2853 7.82063 77.1715 6.81743 79.3203C5.81423 81.4691 5.32421 83.8217 5.38607 86.1923C5.44792 88.563 6.05994 90.8868 7.17382 92.9804C8.28771 95.0739 9.87297 96.8799 11.8045 98.2558C13.736 99.6317 15.9608 100.54 18.3035 100.909C20.6461 101.277 23.0423 101.096 25.3031 100.38C27.5638 99.6639 29.6271 98.4321 31.3302 96.7818C33.0332 95.1316 34.3294 93.108 35.1163 90.871L80.0854 96.0191C80.9659 98.7937 82.4932 101.319 84.5415 103.388C86.5897 105.456 89.1002 107.008 91.866 107.916C94.6318 108.824 97.5737 109.061 100.449 108.608C103.325 108.156 106.052 107.027 108.405 105.313C110.759 103.6 112.671 101.352 113.985 98.7547C115.299 96.1572 115.977 93.2846 115.963 90.3737C115.949 87.4627 115.243 84.5969 113.904 82.0122C112.565 79.4276 110.631 77.1982 108.261 75.5078C107.756 75.1479 107.326 74.692 106.998 74.1661C106.669 73.6402 106.447 73.0546 106.344 72.4429C106.242 71.8312 106.261 71.2053 106.401 70.601C106.54 69.9967 106.798 69.4258 107.158 68.9209Z" fill="#343C49"/>
<path d="M47.3102 49.3119C47.3102 49.3119 48.0567 60.8023 42.4067 63.9828C36.7567 67.1633 39.0608 75.5037 39.0608 75.5037C39.0608 75.5037 28.3892 78.8816 32.9924 91.0184C37.5957 103.155 89.9092 82.8572 89.9092 82.8572C89.9092 82.8572 94.1551 74.5814 87.0053 70.0984C85.0406 68.92 83.4406 67.2206 82.3826 65.1887C80.882 62.1632 79.4384 57.1693 79.6914 49.3119H47.3102Z" fill="#232935"/>
<path d="M79.6895 77.8348L85.5674 78.6751C93.2684 79.7768 98.999 86.0982 99.0901 93.5914L99.6308 135.797C99.7011 141.224 100.233 146.635 101.222 151.972L108.472 191.124C109.38 195.811 108.397 200.667 105.737 204.632C103.746 207.551 100.733 210.058 96.2432 210.053L89.9774 180.201C89.9774 180.201 84.9036 124.426 85.2206 103.185L79.6895 77.8348Z" fill="#CC938B"/>
<path d="M89.978 180.203L96.2438 210.056C98.1506 210.075 100.026 209.57 101.665 208.596C101.61 183.554 91.8651 167.307 88.4531 162.268C89.2997 172.753 89.978 180.203 89.978 180.203Z" fill="#A56262"/>
<path d="M47.3107 77.8348C42.1783 78.3537 37.4391 80.8169 34.0653 84.7192L2.16301 121.626C0.790319 123.208 0.0239747 125.226 0.000553165 127.32C-0.0228684 129.415 0.698154 131.45 2.03512 133.062C6.39441 138.29 14.288 146.471 27.256 155.95C28.2321 156.67 28.9496 157.685 29.3015 158.846C29.6535 160.006 29.621 161.249 29.2091 162.39C27.322 167.702 25.5302 177.219 34.1174 182.428L41.9477 163.391C42.5381 161.958 42.69 160.381 42.3842 158.862C42.0783 157.343 41.3285 155.948 40.2296 154.855C35.488 150.136 27.1003 141.564 20.3647 133.455C19.7606 132.723 19.3067 131.879 19.0291 130.972C18.7515 130.064 18.6557 129.111 18.747 128.167C18.8384 127.222 19.1152 126.305 19.5615 125.468C20.0078 124.63 20.615 123.889 21.3482 123.287L38.9771 108.756L47.3107 77.8348Z" fill="#CC938B"/>
<path d="M42.4238 159.157L42.4321 159.138C42.4169 159.045 42.3946 158.954 42.3765 158.86C42.3599 158.778 42.346 158.696 42.3265 158.616C42.2667 158.361 42.1942 158.109 42.1089 157.861C42.0888 157.801 42.0652 157.742 42.0436 157.683C41.9533 157.438 41.8518 157.196 41.7371 156.96C41.7281 156.941 41.7204 156.923 41.7107 156.904C41.5771 156.637 41.4281 156.378 41.2645 156.129C41.2561 156.116 41.2506 156.103 41.2422 156.09C40.9497 155.642 40.6118 155.226 40.2337 154.847C39.5255 154.143 38.7283 153.344 37.8755 152.484C38.7206 154.639 39.196 158.151 36.8663 162.84C34.3412 167.2 31.5569 172.961 30.2266 178.97C31.2915 180.358 32.6128 181.53 34.1188 182.421L41.9491 163.384C42.4953 162.046 42.6596 160.582 42.4238 159.157Z" fill="#A56262"/>
<path d="M81.887 153.461C80.6477 148.1 78.523 137.684 78.523 129.283C78.523 129.283 105.838 121.872 79.69 77.8348L75.6754 76.8673C74.3146 76.5396 73.1037 75.7635 72.2375 74.664C71.3714 73.5645 70.9004 72.2055 70.9005 70.8058V58.7281H56.0996V70.8058C56.0997 72.2054 55.6289 73.5643 54.7629 74.6638C53.8968 75.7633 52.6861 76.5395 51.3254 76.8673L47.3109 77.8348C21.1607 121.872 48.5619 129.077 48.5619 129.077C48.5619 137.475 46.3531 148.1 45.1138 153.461C44.596 155.641 43.704 157.714 42.4776 159.589C28.5928 181.121 28.7853 213.847 28.7853 213.847H98.2107C98.2107 213.847 98.406 181.121 84.5219 159.589C83.2956 157.715 82.4041 155.641 81.887 153.461Z" fill="#CC938B"/>
<path d="M69.6278 99.16C67.5888 100.966 65.9693 103.196 64.8827 105.693C64.8163 105.841 64.7087 105.966 64.5727 106.054C64.4368 106.142 64.2783 106.189 64.1165 106.189C63.9546 106.189 63.7962 106.142 63.6602 106.054C63.5243 105.966 63.4166 105.841 63.3502 105.693C62.2659 103.153 60.6273 100.887 58.5544 99.062C58.3364 98.8901 58.0674 98.7957 57.7898 98.7935C57.5122 98.7913 57.2418 98.8815 57.0211 99.0499C56.8004 99.2183 56.642 99.4553 56.5708 99.7236C56.4996 99.9919 56.5196 100.276 56.6278 100.532C58.5961 105.078 60.6395 112.848 52.9844 115.111L64.1133 117.03L75.243 115.111C67.6386 112.863 69.6035 105.182 71.5593 100.624C71.667 100.368 71.6863 100.084 71.6144 99.8154C71.5424 99.5472 71.3832 99.3104 71.1619 99.1426C70.9405 98.9748 70.6696 98.8854 70.3918 98.8885C70.1141 98.8917 69.8453 98.9872 69.6278 99.16Z" fill="#A56262"/>
<path d="M70.9002 68.9939V58.7281H56.0993V70.8058C56.0997 71.689 55.912 72.5621 55.5488 73.3671L70.9002 68.9939Z" fill="#A56262"/>
<path d="M41.3218 89.4586C41.3218 89.4586 31.3508 101.51 33.2684 113.464L38.9781 108.758L42.5833 95.3824L41.3218 89.4586Z" fill="#A56262"/>
<path d="M78.6086 132.338L48.5051 131.365C48.3566 134.428 48.0517 137.482 47.5918 140.513L79.0354 137.369C78.8435 135.682 78.6955 133.99 78.6086 132.338Z" fill="#A56262"/>
<path d="M90.7813 104.025L85.4219 115.081C85.5963 119.842 85.8681 125.13 86.1941 130.581C96.6537 122.104 90.7813 104.025 90.7813 104.025Z" fill="#A56262"/>
<path d="M69.1021 32.6539C60.7067 31.0393 59.12 24.2543 59.0866 19.4822C55.6964 20.4436 52.7122 22.4847 50.587 25.2956C48.4618 28.1066 47.3115 31.5341 47.3105 35.058V49.3119C47.3105 51.4379 47.7293 53.5431 48.5429 55.5073C49.3565 57.4715 50.549 59.2563 52.0524 60.7596C55.0885 63.7957 59.2064 65.5014 63.5001 65.5014C65.6261 65.5014 67.7314 65.0826 69.6956 64.269C71.6598 63.4554 73.4445 62.2629 74.9478 60.7596C76.4512 59.2563 77.6437 57.4715 78.4573 55.5073C79.2709 53.5431 79.6896 51.4379 79.6896 49.3119V46.7923C66.5152 45.2174 69.1021 32.6539 69.1021 32.6539Z" fill="#CC938B"/>
<path d="M75.6749 76.8672C74.6998 76.6321 73.7962 76.1642 73.0414 75.5035C73.0414 75.5035 85.0997 102.218 71.1057 112.227C68.8833 113.805 66.2253 114.652 63.4999 114.652C60.7745 114.652 58.1165 113.805 55.8941 112.227C41.9002 102.219 53.9584 75.5035 53.9584 75.5035C53.2036 76.1641 52.3 76.6319 51.3249 76.8672L47.3104 77.8347C20.6556 121.852 48.4489 129.302 48.4489 129.302C48.4489 131.064 48.3794 132.896 48.2202 134.77C48.2183 134.791 48.2209 134.813 48.2278 134.834C48.2347 134.854 48.2459 134.873 48.2605 134.889C48.2751 134.905 48.293 134.918 48.3128 134.927C48.3327 134.936 48.3541 134.94 48.3759 134.94H78.7991C78.6309 133.008 78.5211 131.098 78.5211 129.283C78.5211 129.283 106.619 122.027 79.6881 77.8347L75.6749 76.8672Z" fill="#FFD85A"/>
<path d="M57.7919 46.0924C58.5285 46.0902 59.2344 45.7966 59.7553 45.2757C60.2762 44.7548 60.5698 44.0489 60.572 43.3123C60.5707 43.1304 60.5521 42.9491 60.5164 42.7708C60.481 42.5921 60.4274 42.4174 60.3566 42.2496C60.2883 42.082 60.2045 41.9212 60.1064 41.7693C60.003 41.6181 59.8868 41.4763 59.7588 41.3453C59.2366 40.8246 58.5293 40.5322 57.7919 40.5322C57.0544 40.5322 56.3471 40.8246 55.8249 41.3453C55.6966 41.4743 55.5822 41.6164 55.4837 41.7693C55.3803 41.9192 55.2943 42.0803 55.2272 42.2496C55.156 42.4173 55.1024 42.592 55.0673 42.7708C55.0309 42.949 55.0123 43.1304 55.0117 43.3123C55.0139 44.0489 55.3075 44.7548 55.8284 45.2757C56.3493 45.7966 57.0552 46.0902 57.7919 46.0924Z" fill="#232935"/>
<path d="M63.4989 151.995C63.9191 151.941 64.3016 151.724 64.5648 151.393C64.8281 151.061 64.9514 150.639 64.9084 150.217V149.773C64.958 149.561 64.9589 149.34 64.9112 149.127C64.8634 148.915 64.7682 148.715 64.6326 148.544C64.4971 148.374 64.3247 148.236 64.1283 148.141C63.9319 148.046 63.7166 147.997 63.4985 147.997C63.2805 147.997 63.0652 148.046 62.8688 148.141C62.6724 148.236 62.5 148.374 62.3644 148.544C62.2289 148.715 62.1337 148.915 62.0859 149.127C62.0382 149.34 62.0391 149.561 62.0887 149.773V150.217C62.0459 150.639 62.1693 151.061 62.4327 151.393C62.6961 151.725 63.0786 151.941 63.4989 151.995Z" fill="#A56262"/>
<path d="M63.4989 188.557L63.2904 192.244H56.1211C56.1211 192.244 61.0635 200.384 62.0887 213.847H63.4989C66.4827 198.894 70.8761 192.244 70.8761 192.244L63.4989 188.557Z" fill="#A56262"/>
<path d="M84.1684 158.985C81.4786 163.521 72.988 176.442 63.5021 176.442C54.0162 176.442 45.5243 163.521 42.8331 158.985C42.8331 158.985 39.0889 164.738 37.9727 167.946C45.0443 175.229 51.1445 183.396 56.1215 192.244C56.8539 193.545 57.9191 194.629 59.2079 195.383C60.4967 196.137 61.9629 196.536 63.4563 196.537H63.548C65.0408 196.535 66.5063 196.137 67.7945 195.382C69.0827 194.628 70.1473 193.545 70.8793 192.244C75.8565 183.396 81.9567 175.229 89.0281 167.946C87.6934 164.813 86.0662 161.812 84.1684 158.985Z" fill="#FFD85A"/>
<path d="M48.2213 134.77C48.2194 134.792 48.2221 134.814 48.2291 134.834C48.2361 134.855 48.2472 134.874 48.2619 134.89C48.2765 134.906 48.2942 134.918 48.3141 134.927C48.3339 134.936 48.3553 134.941 48.3769 134.941H78.8002C78.632 133.008 78.5222 131.098 78.5222 129.283L48.4485 129.302C48.4499 131.064 48.3811 132.899 48.2213 134.77Z" fill="#F7AA43"/>
<path d="M87.738 165.083C85.0086 167.742 75.0973 177.733 70.0027 187.384C66.7117 193.619 61.8499 194.821 58.1641 194.647C59.6578 195.866 61.5262 196.534 63.4547 196.537H63.5464C65.0393 196.535 66.5048 196.137 67.793 195.382C69.0811 194.628 70.1457 193.545 70.8777 192.244C75.8549 183.396 81.9551 175.229 89.0266 167.946C88.6665 167.007 88.2162 166.032 87.738 165.083Z" fill="#F7AA43"/>
<path d="M65.7232 34.0801C65.7232 34.0801 63.2044 49.5697 79.6323 50.613C79.6664 50.1827 79.6893 49.7504 79.6893 49.3119V46.7923C66.5141 45.2174 69.1018 32.6539 69.1018 32.6539C60.7064 31.0393 59.1196 24.2543 59.0863 19.4822C59.0863 19.4822 55.1746 30.8794 65.7232 34.0801Z" fill="#A56262"/>
</g>
</svg>
