<svg width="41" height="55" viewBox="0 0 41 55" fill="none" xmlns="http://www.w3.org/2000/svg">
<path d="M17.4167 2.74984V7.33317H8.25V2.74984C8.25145 2.26405 8.44507 1.79858 8.78857 1.45508C9.13208 1.11157 9.59755 0.917955 10.0833 0.916504H15.5833C16.0691 0.917955 16.5346 1.11157 16.8781 1.45508C17.2216 1.79858 17.4152 2.26405 17.4167 2.74984Z" fill="white"/>
<path d="M15.582 0.916504H12.832C13.3178 0.917955 13.7833 1.11157 14.1268 1.45508C14.4703 1.79858 14.6639 2.26405 14.6654 2.74984V7.33317H17.4154V2.74984C17.4139 2.26405 17.2203 1.79858 16.8768 1.45508C16.5333 1.11157 16.0678 0.917955 15.582 0.916504Z" fill="white"/>
<path d="M24.7493 28.5082V51.3332C24.7493 52.0626 24.4596 52.7621 23.9439 53.2778C23.4282 53.7935 22.7287 54.0832 21.9993 54.0832H18.3327C17.944 54.0858 17.5626 53.9777 17.2331 53.7715C16.9036 53.5654 16.6396 53.2697 16.4718 52.9191L16.371 52.7357C16.1334 52.31 15.7862 51.9555 15.3656 51.7089C14.945 51.4624 14.4661 51.3326 13.9785 51.3332H11.6868C11.1993 51.3326 10.7204 51.4624 10.2998 51.7089C9.87912 51.9555 9.53201 52.31 9.29435 52.7357L9.16601 52.9557C8.99952 53.2987 8.73853 53.5871 8.41375 53.7868C8.08897 53.9865 7.71391 54.0894 7.33268 54.0832H3.66602C2.93667 54.0832 2.2372 53.7935 1.72147 53.2778C1.20575 52.7621 0.916016 52.0626 0.916016 51.3332V21.9999C0.916016 10.0833 8.24935 7.33325 8.24935 7.33325H17.416C17.416 7.33325 21.321 8.79992 23.4293 14.2266L24.7493 28.5082Z" fill="#E1E3E9"/>
<path d="M0.916016 23.8333H24.7493V42.1666H0.916016V23.8333Z" fill="white"/>
<path d="M22 23.8333H24.75V42.1666H22V23.8333Z" fill="#E1E3E9"/>
<path d="M30.2488 30.2499C23.7844 30.2499 19.3542 24.0422 21.7338 18.3176L28.4933 2.05319C28.6414 1.71186 28.887 1.42188 29.1993 1.21966C29.5116 1.01744 29.8767 0.911977 30.2488 0.916523C30.6208 0.911977 30.9859 1.01744 31.2982 1.21966C31.6105 1.42188 31.8561 1.71186 32.0042 2.05319L38.7637 18.3176C41.1433 24.0422 36.7131 30.2499 30.2488 30.2499Z" fill="white"/>
<path d="M38.7649 18.3176L32.0054 2.05319C31.8573 1.71186 31.6117 1.42188 31.2994 1.21966C30.9871 1.01744 30.622 0.911977 30.25 0.916523C29.9932 0.917265 29.7392 0.969577 29.503 1.07035C29.2668 1.17113 29.0532 1.31832 28.875 1.50319C29.0358 1.66051 29.1649 1.84722 29.2554 2.05319L36.0149 18.3176C38.2204 23.6251 34.5702 29.3387 28.875 30.1426C29.3302 30.2107 29.7897 30.2465 30.25 30.2499C36.7143 30.2499 41.1446 24.0422 38.7649 18.3176Z" fill="#E1E3E9"/>
<path d="M8.24935 2.75008V7.33341C8.24935 7.33341 0.916016 10.0834 0.916016 22.0001V51.3334C0.916016 52.0628 1.20575 52.7622 1.72147 53.2779C2.2372 53.7937 2.93667 54.0834 3.66602 54.0834H6.41602C5.68667 54.0834 4.9872 53.7937 4.47147 53.2779C3.95575 52.7622 3.66602 52.0628 3.66602 51.3334V22.0001C3.66602 10.0834 10.9993 7.33341 10.9993 7.33341V2.75008C11.0008 2.2643 11.1944 1.79882 11.5379 1.45532C11.8814 1.11182 12.3469 0.918199 12.8327 0.916748H10.0827C9.5969 0.918199 9.13142 1.11182 8.78792 1.45532C8.44442 1.79882 8.2508 2.2643 8.24935 2.75008Z" fill="white"/>
<path d="M0 44H1.83333V51.3333H0V44Z" fill="white"/>
<path d="M0.916667 48.5833C1.42293 48.5833 1.83333 48.1729 1.83333 47.6667C1.83333 47.1604 1.42293 46.75 0.916667 46.75C0.410406 46.75 0 47.1604 0 47.6667C0 48.1729 0.410406 48.5833 0.916667 48.5833Z" fill="#161335"/>
<path d="M3.66667 55H7.33333C7.66175 55.0003 7.98815 54.9487 8.30042 54.8469C9.01793 54.5924 9.61347 54.0774 9.96875 53.4041L10.0934 53.1841C10.2529 52.9008 10.4848 52.665 10.7654 52.5009C11.046 52.3367 11.3652 52.2501 11.6902 52.25H13.9764C14.3015 52.2501 14.6207 52.3367 14.9013 52.5009C15.1819 52.665 15.4138 52.9008 15.5732 53.1841L15.6768 53.3674C15.8933 53.7796 16.2004 54.1373 16.5752 54.4136C16.9499 54.6899 17.3824 54.8775 17.8402 54.9624C18.0033 54.9878 18.1682 55.0004 18.3333 55H22C22.9725 55 23.9051 54.6137 24.5927 53.926C25.2804 53.2384 25.6667 52.3058 25.6667 51.3333V30.1033C27.0935 30.8024 28.6611 31.1661 30.25 31.1667C31.9233 31.1817 33.5743 30.7828 35.0562 30.0056C36.5381 29.2283 37.8049 28.0968 38.7438 26.7117C39.6084 25.4428 40.1409 23.9772 40.2924 22.4493C40.4439 20.9213 40.2096 19.3797 39.611 17.9657L32.8515 1.70133C32.6295 1.19628 32.2653 0.766758 31.8034 0.465184C31.3414 0.16361 30.8017 0.00302453 30.25 0.00302453C29.6983 0.00302453 29.1586 0.16361 28.6966 0.465184C28.2346 0.766758 27.8705 1.19628 27.6485 1.70133L23.3832 11.968C22.2425 9.77566 20.4877 7.96319 18.3333 6.75217V2.75C18.3333 2.02065 18.0436 1.32118 17.5279 0.805456C17.0121 0.289731 16.3127 0 15.5833 0L10.0833 0C9.35399 0 8.65451 0.289731 8.13879 0.805456C7.62306 1.32118 7.33333 2.02065 7.33333 2.75V6.74942C5.47892 7.7165 0 11.4666 0 22V44C0 44.2431 0.0965773 44.4763 0.268486 44.6482C0.440394 44.8201 0.673551 44.9167 0.916667 44.9167C1.15978 44.9167 1.39294 44.8201 1.56485 44.6482C1.73676 44.4763 1.83333 44.2431 1.83333 44V43.0833H23.8333V51.3333C23.8333 51.8196 23.6402 52.2859 23.2964 52.6297C22.9525 52.9735 22.4862 53.1667 22 53.1667H18.3333C18.2645 53.167 18.1958 53.1615 18.128 53.1502C17.944 53.1062 17.772 53.0221 17.6243 52.9039C17.4766 52.7856 17.3569 52.6362 17.2737 52.4663L17.171 52.283C16.8513 51.717 16.3872 51.246 15.8259 50.9181C15.2647 50.5902 14.6264 50.4172 13.9764 50.4167H11.6902C11.0402 50.4169 10.4018 50.5899 9.84066 50.918C9.27947 51.2461 8.8156 51.7175 8.49658 52.2839L8.37191 52.5039C8.23781 52.775 8.00977 52.988 7.73025 53.1034C7.60209 53.1452 7.46814 53.1666 7.33333 53.1667H3.66667C3.18044 53.1667 2.71412 52.9735 2.3703 52.6297C2.02649 52.2859 1.83333 51.8196 1.83333 51.3333C1.83333 51.0902 1.73676 50.8571 1.56485 50.6851C1.39294 50.5132 1.15978 50.4167 0.916667 50.4167C0.673551 50.4167 0.440394 50.5132 0.268486 50.6851C0.0965773 50.8571 0 51.0902 0 51.3333C0 52.3058 0.386308 53.2384 1.07394 53.926C1.76157 54.6137 2.69421 55 3.66667 55ZM29.3407 2.40533C29.4228 2.23386 29.5518 2.08911 29.7127 1.9878C29.8736 1.88648 30.0599 1.83272 30.25 1.83272C30.4401 1.83272 30.6264 1.88648 30.7873 1.9878C30.9482 2.08911 31.0772 2.23386 31.1593 2.40533L37.9188 18.6697C38.3987 19.8059 38.5858 21.0443 38.4631 22.2715C38.3404 23.4987 37.9119 24.6755 37.2167 25.6942C36.4344 26.8168 35.3924 27.7338 34.1794 28.3671C32.9664 29.0003 31.6183 29.331 30.25 29.331C28.8817 29.331 27.5336 29.0003 26.3206 28.3671C25.1076 27.7338 24.0656 26.8168 23.2833 25.6942C22.5884 24.6753 22.1602 23.4984 22.0378 22.2712C21.9155 21.044 22.1029 19.8057 22.583 18.6697L29.3407 2.40533ZM10.0833 1.83333H15.5833C15.8264 1.83333 16.0596 1.92991 16.2315 2.10182C16.4034 2.27373 16.5 2.50688 16.5 2.75V6.41667H9.16667V2.75C9.16667 2.50688 9.26324 2.27373 9.43515 2.10182C9.60706 1.92991 9.84022 1.83333 10.0833 1.83333ZM8.43333 8.25H17.2333C19.6478 9.53592 21.5028 11.6677 22.4427 14.2367L20.889 17.9667C20.2349 19.5293 20.0255 21.2424 20.284 22.9167H1.83333V22C1.83333 11.6618 7.46625 8.68542 8.43333 8.25ZM1.83333 41.25V24.75H20.7542C21.0118 25.4402 21.348 26.0984 21.7562 26.7117C22.3286 27.5579 23.0294 28.3097 23.8333 28.9401V41.25H1.83333Z" fill="#161335"/>
<path d="M4.58342 21.0834C4.60847 21.0834 4.63322 21.0834 4.65767 21.0834C4.8878 21.083 5.10936 20.996 5.27834 20.8398C5.44731 20.6835 5.55134 20.4695 5.56975 20.2401C5.61833 19.6351 5.6935 19.0484 5.7925 18.4984C5.83529 18.259 5.78124 18.0125 5.64225 17.813C5.50327 17.6135 5.29072 17.4774 5.05137 17.4346C4.81203 17.3918 4.56549 17.4459 4.36599 17.5848C4.16649 17.7238 4.03037 17.9364 3.98758 18.1757C3.8785 18.7862 3.796 19.4334 3.74283 20.1007C3.72461 20.3424 3.8028 20.5814 3.96032 20.7655C4.11784 20.9497 4.34187 21.064 4.58342 21.0834Z" fill="#161335"/>
<path d="M5.64022 15.4917C5.85903 15.5973 6.11085 15.6118 6.34032 15.5319C6.56979 15.4519 6.75814 15.2842 6.86397 15.0654C7.47175 13.6061 8.5445 12.3883 9.91555 11.6013C10.0252 11.5516 10.124 11.4808 10.2063 11.3929C10.2886 11.305 10.3528 11.2018 10.3952 11.0891C10.4375 10.9764 10.4573 10.8564 10.4534 10.7361C10.4494 10.6157 10.4218 10.4973 10.372 10.3877C10.3223 10.278 10.2515 10.1792 10.1636 10.0969C10.0757 10.0146 9.97246 9.95045 9.85976 9.90806C9.74706 9.86567 9.62712 9.8459 9.50677 9.84986C9.38643 9.85383 9.26805 9.88146 9.15838 9.93117C7.39634 10.8951 6.00846 12.4221 5.21672 14.2679C5.11087 14.4864 5.09601 14.738 5.17541 14.9674C5.2548 15.1968 5.42196 15.3854 5.64022 15.4917Z" fill="#161335"/>
<path d="M8.2513 28.4166C8.00819 28.4166 7.77503 28.5132 7.60312 28.6851C7.43121 28.857 7.33463 29.0902 7.33463 29.3333V32.0833H5.5013V29.3333C5.5013 29.0902 5.40472 28.857 5.23282 28.6851C5.06091 28.5132 4.82775 28.4166 4.58464 28.4166C4.34152 28.4166 4.10836 28.5132 3.93645 28.6851C3.76455 28.857 3.66797 29.0902 3.66797 29.3333V36.6666C3.66797 36.9097 3.76455 37.1429 3.93645 37.3148C4.10836 37.4867 4.34152 37.5833 4.58464 37.5833C4.82775 37.5833 5.06091 37.4867 5.23282 37.3148C5.40472 37.1429 5.5013 36.9097 5.5013 36.6666V33.9166H7.33463V36.6666C7.33463 36.9097 7.43121 37.1429 7.60312 37.3148C7.77503 37.4867 8.00819 37.5833 8.2513 37.5833C8.49442 37.5833 8.72757 37.4867 8.89948 37.3148C9.07139 37.1429 9.16797 36.9097 9.16797 36.6666V29.3333C9.16797 29.0902 9.07139 28.857 8.89948 28.6851C8.72757 28.5132 8.49442 28.4166 8.2513 28.4166Z" fill="#161335"/>
<path d="M14.6652 35.7499H13.0601L13.2214 35.5519C14.1775 34.3694 16.4151 31.602 15.1281 29.6092C14.7829 29.1215 14.2925 28.7554 13.7269 28.5632C13.1612 28.3709 12.5493 28.3623 11.9784 28.5385C11.3775 28.7603 10.8333 29.1129 10.3853 29.5707C10.2107 29.735 10.1075 29.9611 10.0977 30.2006C10.0879 30.4401 10.1723 30.6739 10.3328 30.8519C10.4934 31.03 10.7172 31.138 10.9564 31.153C11.1957 31.1679 11.4312 31.0886 11.6127 30.9319C11.8709 30.6606 12.1798 30.4426 12.522 30.2903C12.7112 30.235 12.9122 30.2353 13.1012 30.2911C13.2902 30.3468 13.4592 30.4557 13.5881 30.6047C13.7998 30.9329 13.8484 31.8614 11.796 34.3997C11.3428 34.9648 10.8599 35.5054 10.3495 36.0194C10.2216 36.1477 10.1346 36.3111 10.0994 36.4888C10.0643 36.6665 10.0826 36.8506 10.152 37.018C10.2215 37.1853 10.3389 37.3283 10.4896 37.4289C10.6403 37.5295 10.8173 37.5832 10.9985 37.5833H14.6652C14.9083 37.5833 15.1414 37.4867 15.3134 37.3148C15.4853 37.1429 15.5818 36.9097 15.5818 36.6666C15.5818 36.4235 15.4853 36.1903 15.3134 36.0184C15.1414 35.8465 14.9083 35.7499 14.6652 35.7499Z" fill="#161335"/>
<path d="M19.25 28.4166C17.6825 28.4166 16.5 30.3865 16.5 33C16.5 35.6134 17.6825 37.5833 19.25 37.5833C20.8175 37.5833 22 35.6134 22 33C22 30.3865 20.8175 28.4166 19.25 28.4166ZM19.25 35.75C19.0217 35.75 18.3333 34.7746 18.3333 33C18.3333 31.2253 19.0217 30.25 19.25 30.25C19.4782 30.25 20.1667 31.2253 20.1667 33C20.1667 34.7746 19.4782 35.75 19.25 35.75Z" fill="#161335"/>
<path d="M30.2501 27.5C30.4932 27.5 30.7264 27.4034 30.8983 27.2315C31.0702 27.0596 31.1668 26.8264 31.1668 26.5833C31.1668 26.3402 31.0702 26.107 30.8983 25.9351C30.7264 25.7632 30.4932 25.6666 30.2501 25.6666C29.4821 25.6807 28.7225 25.5047 28.0389 25.1545C27.3552 24.8043 26.7687 24.2906 26.3314 23.6591C25.9753 23.1404 25.7551 22.5406 25.6911 21.9147C25.627 21.2888 25.7211 20.6569 25.9647 20.0768C26.0581 19.8523 26.0584 19.5999 25.9657 19.3751C25.8729 19.1503 25.6947 18.9716 25.4702 18.8782C25.2456 18.7849 24.9932 18.7846 24.7685 18.8773C24.5437 18.97 24.365 19.1483 24.2716 19.3728C23.9098 20.2308 23.7689 21.1659 23.8618 22.0924C23.9546 23.019 24.2784 23.9075 24.8033 24.6766C25.4081 25.5598 26.2218 26.2797 27.1721 26.7723C28.1225 27.2649 29.1798 27.5149 30.2501 27.5Z" fill="#161335"/>
</svg>
