<svg width="55" height="55" viewBox="0 0 55 55" fill="none" xmlns="http://www.w3.org/2000/svg">
<path d="M39.416 28.5176V6.41675C39.416 4.95806 38.8366 3.55911 37.8051 2.52766C36.7737 1.49621 35.3747 0.916748 33.916 0.916748H6.41602C4.95733 0.916748 3.55838 1.49621 2.52693 2.52766C1.49548 3.55911 0.916016 4.95806 0.916016 6.41675V48.5834C0.916016 50.0421 1.49548 51.4411 2.52693 52.4725C3.55838 53.504 4.95733 54.0834 6.41602 54.0834H33.916C34.6691 54.0824 35.4142 53.9297 36.1068 53.6342H36.116L39.416 28.5176Z" fill="#E1E3E9"/>
<path d="M33.916 0.916748H31.166C32.6247 0.916748 34.0237 1.49621 35.0551 2.52766C36.0866 3.55911 36.666 4.95806 36.666 6.41675V28.5176L33.366 53.6342H33.3568C32.6642 53.9297 31.9191 54.0824 31.166 54.0834H33.916C34.6691 54.0824 35.4142 53.9297 36.1068 53.6342H36.116L39.416 28.5176V6.41675C39.416 4.95806 38.8366 3.55911 37.8051 2.52766C36.7737 1.49621 35.3747 0.916748 33.916 0.916748Z" fill="white"/>
<path d="M32.9987 4.58337H7.33203C5.81325 4.58337 4.58203 5.81459 4.58203 7.33337V11C4.58203 12.5188 5.81325 13.75 7.33203 13.75H32.9987C34.5175 13.75 35.7487 12.5188 35.7487 11V7.33337C35.7487 5.81459 34.5175 4.58337 32.9987 4.58337Z" fill="white"/>
<path d="M33 4.58337H30.25C30.9793 4.58337 31.6788 4.87311 32.1945 5.38883C32.7103 5.90456 33 6.60403 33 7.33337V11C33 11.7294 32.7103 12.4289 32.1945 12.9446C31.6788 13.4603 30.9793 13.75 30.25 13.75H33C33.7293 13.75 34.4288 13.4603 34.9445 12.9446C35.4603 12.4289 35.75 11.7294 35.75 11V7.33337C35.75 6.60403 35.4603 5.90456 34.9445 5.38883C34.4288 4.87311 33.7293 4.58337 33 4.58337Z" fill="#E1E3E9"/>
<path d="M17.416 13.75L22.916 4.58337H29.3327L23.8327 13.75H17.416Z" fill="white"/>
<path d="M26.582 4.58337L21.082 13.75H23.832L29.332 4.58337H26.582Z" fill="white"/>
<path d="M8.2487 25.6667C10.2737 25.6667 11.9154 24.0251 11.9154 22C11.9154 19.975 10.2737 18.3334 8.2487 18.3334C6.22365 18.3334 4.58203 19.975 4.58203 22C4.58203 24.0251 6.22365 25.6667 8.2487 25.6667Z" fill="#E1E3E9"/>
<path d="M8.2487 25.6667C10.2737 25.6667 11.9154 24.0251 11.9154 22C11.9154 19.975 10.2737 18.3334 8.2487 18.3334C6.22365 18.3334 4.58203 19.975 4.58203 22C4.58203 24.0251 6.22365 25.6667 8.2487 25.6667Z" fill="white"/>
<path d="M8.25 18.3334C7.77821 18.3354 7.31127 18.4288 6.875 18.6084C7.55205 18.881 8.13209 19.3499 8.54058 19.9548C8.94907 20.5597 9.16735 21.2729 9.16735 22.0028C9.16735 22.7327 8.94907 23.4459 8.54058 24.0508C8.13209 24.6557 7.55205 25.1246 6.875 25.3972C7.37651 25.6009 7.91691 25.691 8.45738 25.6611C8.99785 25.6312 9.52499 25.482 10.001 25.2242C10.4769 24.9664 10.8899 24.6064 11.2103 24.1701C11.5306 23.7338 11.7504 23.2319 11.8539 22.7006C11.9573 22.1693 11.9418 21.6217 11.8085 21.097C11.6752 20.5724 11.4274 20.0838 11.0828 19.6663C10.7383 19.2488 10.3056 18.9128 9.81583 18.6823C9.32604 18.4518 8.7913 18.3327 8.25 18.3334Z" fill="#E1E3E9"/>
<path d="M20.1667 25.6667C22.1917 25.6667 23.8333 24.0251 23.8333 22C23.8333 19.975 22.1917 18.3334 20.1667 18.3334C18.1416 18.3334 16.5 19.975 16.5 22C16.5 24.0251 18.1416 25.6667 20.1667 25.6667Z" fill="white"/>
<path d="M20.166 18.3334C19.6942 18.3354 19.2273 18.4288 18.791 18.6084C19.4681 18.881 20.0481 19.3499 20.4566 19.9548C20.8651 20.5597 21.0834 21.2729 21.0834 22.0028C21.0834 22.7327 20.8651 23.4459 20.4566 24.0508C20.0481 24.6557 19.4681 25.1246 18.791 25.3972C19.2925 25.6009 19.8329 25.691 20.3734 25.6611C20.9139 25.6312 21.441 25.482 21.917 25.2242C22.393 24.9664 22.8059 24.6064 23.1263 24.1701C23.4467 23.7338 23.6664 23.2319 23.7699 22.7006C23.8733 22.1693 23.8578 21.6217 23.7245 21.097C23.5912 20.5724 23.3434 20.0838 22.9988 19.6663C22.6543 19.2488 22.2216 18.9128 21.7318 18.6823C21.2421 18.4518 20.7073 18.3327 20.166 18.3334Z" fill="#E1E3E9"/>
<path d="M32.0827 25.6667C34.1077 25.6667 35.7493 24.0251 35.7493 22C35.7493 19.975 34.1077 18.3334 32.0827 18.3334C30.0576 18.3334 28.416 19.975 28.416 22C28.416 24.0251 30.0576 25.6667 32.0827 25.6667Z" fill="white"/>
<path d="M32.082 18.3334C31.6102 18.3354 31.1433 18.4288 30.707 18.6084C31.3841 18.881 31.9641 19.3499 32.3726 19.9548C32.7811 20.5597 32.9994 21.2729 32.9994 22.0028C32.9994 22.7327 32.7811 23.4459 32.3726 24.0508C31.9641 24.6557 31.3841 25.1246 30.707 25.3972C31.2085 25.6009 31.7489 25.691 32.2894 25.6611C32.8299 25.6312 33.357 25.482 33.833 25.2242C34.309 24.9664 34.722 24.6064 35.0423 24.1701C35.3627 23.7338 35.5825 23.2319 35.6859 22.7006C35.7893 22.1693 35.7738 21.6217 35.6405 21.097C35.5072 20.5724 35.2594 20.0838 34.9149 19.6663C34.5703 19.2488 34.1376 18.9128 33.6479 18.6823C33.1581 18.4518 32.6233 18.3327 32.082 18.3334Z" fill="#E1E3E9"/>
<path d="M8.2487 37.5835C10.2737 37.5835 11.9154 35.9418 11.9154 33.9168C11.9154 31.8917 10.2737 30.2501 8.2487 30.2501C6.22365 30.2501 4.58203 31.8917 4.58203 33.9168C4.58203 35.9418 6.22365 37.5835 8.2487 37.5835Z" fill="white"/>
<path d="M8.25 30.2501C7.77821 30.2521 7.31127 30.3455 6.875 30.5251C7.55205 30.7978 8.13209 31.2667 8.54058 31.8716C8.94907 32.4764 9.16735 33.1896 9.16735 33.9195C9.16735 34.6494 8.94907 35.3626 8.54058 35.9675C8.13209 36.5724 7.55205 37.0413 6.875 37.314C7.37651 37.5176 7.91691 37.6078 8.45738 37.5779C8.99785 37.5479 9.52499 37.3987 10.001 37.1409C10.4769 36.8831 10.8899 36.5232 11.2103 36.0869C11.5306 35.6505 11.7504 35.1487 11.8539 34.6174C11.9573 34.086 11.9418 33.5384 11.8085 33.0138C11.6752 32.4892 11.4274 32.0005 11.0828 31.583C10.7383 31.1655 10.3056 30.8295 9.81583 30.599C9.32604 30.3686 8.7913 30.2494 8.25 30.2501Z" fill="#E1E3E9"/>
<path d="M20.1667 37.5835C22.1917 37.5835 23.8333 35.9418 23.8333 33.9168C23.8333 31.8917 22.1917 30.2501 20.1667 30.2501C18.1416 30.2501 16.5 31.8917 16.5 33.9168C16.5 35.9418 18.1416 37.5835 20.1667 37.5835Z" fill="white"/>
<path d="M20.166 30.2501C19.6942 30.2521 19.2273 30.3455 18.791 30.5251C19.4681 30.7978 20.0481 31.2667 20.4566 31.8716C20.8651 32.4764 21.0834 33.1896 21.0834 33.9195C21.0834 34.6494 20.8651 35.3626 20.4566 35.9675C20.0481 36.5724 19.4681 37.0413 18.791 37.314C19.2925 37.5176 19.8329 37.6078 20.3734 37.5779C20.9139 37.5479 21.441 37.3987 21.917 37.1409C22.393 36.8831 22.8059 36.5232 23.1263 36.0869C23.4467 35.6505 23.6664 35.1487 23.7699 34.6174C23.8733 34.086 23.8578 33.5384 23.7245 33.0138C23.5912 32.4892 23.3434 32.0005 22.9988 31.583C22.6543 31.1655 22.2216 30.8295 21.7318 30.599C21.2421 30.3686 20.7073 30.2494 20.166 30.2501Z" fill="#E1E3E9"/>
<path d="M30.6953 37.3085C29.9103 36.986 29.2614 36.4012 28.8594 35.6538C28.4574 34.9063 28.327 34.0426 28.4907 33.2098C28.6543 32.3771 29.1018 31.6268 29.7567 31.0871C30.4117 30.5474 31.2336 30.2516 32.0823 30.2501C33.6855 30.2501 35.1714 31.3006 34.8744 32.9855L30.6953 37.3085Z" fill="white"/>
<path d="M32.0837 30.2501C31.6038 30.2488 31.1285 30.3422 30.6848 30.5251C31.1791 30.6944 31.5963 31.0352 31.8607 31.4858C32.1251 31.9364 32.2192 32.4669 32.1258 32.9809L29.1348 36.0765C29.5333 36.6202 30.0719 37.0456 30.6931 37.3076L34.8722 32.9809C35.1728 31.3006 33.6869 30.2501 32.0837 30.2501Z" fill="white"/>
<path d="M8.2487 49.5001C10.2737 49.5001 11.9154 47.8585 11.9154 45.8334C11.9154 43.8084 10.2737 42.1667 8.2487 42.1667C6.22365 42.1667 4.58203 43.8084 4.58203 45.8334C4.58203 47.8585 6.22365 49.5001 8.2487 49.5001Z" fill="white"/>
<path d="M8.25 42.1668C7.77821 42.1687 7.31127 42.2621 6.875 42.4418C7.55205 42.7144 8.13209 43.1833 8.54058 43.7882C8.94907 44.3931 9.16735 45.1063 9.16735 45.8362C9.16735 46.5661 8.94907 47.2793 8.54058 47.8841C8.13209 48.489 7.55205 48.9579 6.875 49.2306C7.37651 49.4343 7.91691 49.5244 8.45738 49.4945C8.99785 49.4646 9.52499 49.3154 10.001 49.0576C10.4769 48.7998 10.8899 48.4398 11.2103 48.0035C11.5306 47.5672 11.7504 47.0653 11.8539 46.534C11.9573 46.0027 11.9418 45.455 11.8085 44.9304C11.6752 44.4058 11.4274 43.9172 11.0828 43.4997C10.7383 43.0822 10.3056 42.7461 9.81583 42.5157C9.32604 42.2852 8.7913 42.1661 8.25 42.1668Z" fill="#E1E3E9"/>
<path d="M20.1667 49.5001C22.1917 49.5001 23.8333 47.8585 23.8333 45.8334C23.8333 43.8084 22.1917 42.1667 20.1667 42.1667C18.1416 42.1667 16.5 43.8084 16.5 45.8334C16.5 47.8585 18.1416 49.5001 20.1667 49.5001Z" fill="white"/>
<path d="M20.166 42.1668C19.6942 42.1687 19.2273 42.2621 18.791 42.4418C19.4681 42.7144 20.0481 43.1833 20.4566 43.7882C20.8651 44.3931 21.0834 45.1063 21.0834 45.8362C21.0834 46.5661 20.8651 47.2793 20.4566 47.8841C20.0481 48.489 19.4681 48.9579 18.791 49.2306C19.2925 49.4343 19.8329 49.5244 20.3734 49.4945C20.9139 49.4646 21.441 49.3154 21.917 49.0576C22.393 48.7998 22.8059 48.4398 23.1263 48.0035C23.4467 47.5672 23.6664 47.0653 23.7699 46.534C23.8733 46.0027 23.8578 45.455 23.7245 44.9304C23.5912 44.4058 23.3434 43.9172 22.9988 43.4997C22.6543 43.0822 22.2216 42.7461 21.7318 42.5157C21.2421 42.2852 20.7073 42.1661 20.166 42.1668Z" fill="#E1E3E9"/>
<path d="M41.3127 30.0851C40.8172 31.1415 40.5131 32.2775 40.4144 33.4401C40.1661 33.3686 39.9286 33.2638 39.7085 33.1285C38.1581 32.2468 36.361 31.899 34.5935 32.1385C34.4572 32.1457 34.322 32.1672 34.1902 32.2026C33.5255 31.1786 33.1197 30.0083 33.0077 28.7926C32.9812 28.5964 33.0234 28.3971 33.1269 28.2284C33.2305 28.0597 33.3891 27.932 33.576 27.8668C34.6106 27.5167 35.713 27.4148 36.7941 27.5693C37.8753 27.7237 38.9051 28.1302 39.8002 28.756C40.3588 29.133 40.867 29.5796 41.3127 30.0851Z" fill="#E1E3E9"/>
<path d="M34.1719 32.175L34.1902 32.2053C34.2195 32.197 34.2516 32.1971 34.2819 32.1906L34.1719 32.175Z" fill="white"/>
<path d="M39.8018 28.7559C39.0304 28.2153 38.1568 27.8375 37.2345 27.6457C36.3122 27.4539 35.3605 27.4521 34.4375 27.6403C35.375 27.8329 36.2641 28.2123 37.0518 28.7559C37.6104 29.1329 38.1187 29.5795 38.5643 30.085C38.2241 30.8069 37.9776 31.5693 37.831 32.3538C38.4918 32.5215 39.1255 32.7823 39.7129 33.1284C39.933 33.2637 40.1705 33.3686 40.4187 33.44C40.5174 32.2774 40.8216 31.1414 41.3171 30.085C40.8706 29.5794 40.3614 29.1327 39.8018 28.7559Z" fill="white"/>
<path d="M45.8685 29.9842C45.0853 30.6103 44.5363 31.4823 44.3102 32.4592C44.1652 32.9647 44.073 33.4839 44.0352 34.0084L40.3594 34.2284C40.3685 33.9625 40.3869 33.6967 40.4144 33.44C40.5131 32.2774 40.8172 31.1415 41.3127 30.085C41.8779 28.7682 42.8063 27.6395 43.9894 26.8309C44.4075 26.5817 44.9076 26.5088 45.3794 26.6283C45.8513 26.7478 46.2564 27.0498 46.5056 27.468C46.7548 27.8861 46.8277 28.3861 46.7082 28.858C46.5887 29.3299 46.2867 29.735 45.8685 29.9842Z" fill="white"/>
<path d="M46.4998 27.49C46.2524 27.0714 45.8499 26.7673 45.3796 26.6438C44.9093 26.5202 44.4093 26.5871 43.9881 26.83C43.9588 26.8502 43.7736 26.9684 43.5151 27.1774C43.7008 27.376 43.8396 27.6136 43.9213 27.8729C44.0031 28.1322 44.0257 28.4064 43.9876 28.6756C43.9494 28.9447 43.8514 29.2019 43.7008 29.4282C43.5502 29.6545 43.3508 29.8442 43.1173 29.9834C43.0045 30.0631 41.5195 31.098 41.2839 34.0094L40.3673 34.0644C40.3673 34.1212 40.3553 34.1725 40.3535 34.2303L44.033 34.0094C44.2649 31.098 45.7499 30.0677 45.8663 29.9834C46.2781 29.7341 46.5753 29.3329 46.6938 28.8664C46.8123 28.4 46.7426 27.9056 46.4998 27.49Z" fill="white"/>
<path d="M54.0827 39.6092C54.0827 48.0151 48.8577 54.0834 44.1002 54.0834H38.3985C33.641 54.0834 28.416 48.0151 28.416 39.6092C28.416 36.1076 30.726 32.7526 34.191 32.2026C34.3228 32.1671 34.458 32.1456 34.5944 32.1384C36.3618 31.8989 38.1589 32.2467 39.7093 33.1284C39.9294 33.2637 40.1669 33.3686 40.4152 33.4401C40.8106 33.5577 41.2264 33.5907 41.6354 33.537C42.0445 33.4833 42.4377 33.3441 42.7893 33.1284C43.2688 32.8469 43.7795 32.6224 44.311 32.4592C45.4738 32.1055 46.6973 31.9963 47.9043 32.1384C51.5893 32.4959 54.0827 35.9701 54.0827 39.6092Z" fill="white"/>
<path d="M47.9039 32.1357C47.0977 32.0514 46.2841 32.0683 45.4821 32.1861C48.9837 32.7168 51.3331 36.0801 51.3331 39.6111C51.3331 48.0133 46.1081 54.0834 41.3516 54.0834H44.1016C48.8581 54.0834 54.0831 48.0133 54.0831 39.6074C54.0831 35.9701 51.5889 32.4978 47.9039 32.1357Z" fill="#E1E3E9"/>
<path d="M6.41602 54.0834H9.16602C7.70732 54.0834 6.30838 53.504 5.27693 52.4725C4.24548 51.4411 3.66602 50.0421 3.66602 48.5834V6.41675C3.66602 4.95806 4.24548 3.55911 5.27693 2.52766C6.30838 1.49621 7.70732 0.916748 9.16602 0.916748H6.41602C4.95732 0.916748 3.55838 1.49621 2.52693 2.52766C1.49548 3.55911 0.916016 4.95806 0.916016 6.41675V48.5834C0.916016 50.0421 1.49548 51.4411 2.52693 52.4725C3.55838 53.504 4.95732 54.0834 6.41602 54.0834Z" fill="white"/>
<path d="M0 6.41663H1.83333V13.75H0V6.41663Z" fill="white"/>
<path d="M0.916667 11C1.42293 11 1.83333 10.5896 1.83333 10.0833C1.83333 9.57703 1.42293 9.16663 0.916667 9.16663C0.410406 9.16663 0 9.57703 0 10.0833C0 10.5896 0.410406 11 0.916667 11Z" fill="#161335"/>
<path d="M36.668 7.33329C36.668 6.36083 36.2817 5.4282 35.594 4.74057C34.9064 4.05293 33.9738 3.66663 33.0013 3.66663H7.33464C6.36217 3.66663 5.42954 4.05293 4.74191 4.74057C4.05428 5.4282 3.66797 6.36083 3.66797 7.33329V11C3.66797 11.9724 4.05428 12.9051 4.74191 13.5927C5.42954 14.2803 6.36217 14.6666 7.33464 14.6666H33.0013C33.9738 14.6666 34.9064 14.2803 35.594 13.5927C36.2817 12.9051 36.668 11.9724 36.668 11V7.33329ZM27.7158 5.49996L23.3158 12.8333H19.0368L23.4368 5.49996H27.7158ZM5.5013 11V7.33329C5.5013 6.84706 5.69446 6.38075 6.03827 6.03693C6.38209 5.69311 6.84841 5.49996 7.33464 5.49996H21.2991L16.8991 12.8333H7.33464C6.84841 12.8333 6.38209 12.6401 6.03827 12.2963C5.69446 11.9525 5.5013 11.4862 5.5013 11ZM34.8346 11C34.8346 11.4862 34.6415 11.9525 34.2977 12.2963C33.9538 12.6401 33.4875 12.8333 33.0013 12.8333H25.4535L29.8535 5.49996H33.0013C33.4875 5.49996 33.9538 5.69311 34.2977 6.03693C34.6415 6.38075 34.8346 6.84706 34.8346 7.33329V11Z" fill="#161335"/>
<path d="M8.2513 26.5833C9.1578 26.5833 10.0439 26.3145 10.7977 25.8109C11.5514 25.3072 12.1388 24.5914 12.4858 23.7539C12.8327 22.9164 12.9234 21.9949 12.7466 21.1058C12.5697 20.2167 12.1332 19.4 11.4922 18.7591C10.8512 18.1181 10.0345 17.6815 9.14547 17.5047C8.25639 17.3278 7.33483 17.4186 6.49734 17.7655C5.65984 18.1124 4.94402 18.6999 4.4404 19.4536C3.93678 20.2073 3.66797 21.0935 3.66797 22C3.66942 23.2151 4.15278 24.38 5.012 25.2393C5.87123 26.0985 7.03617 26.5818 8.2513 26.5833ZM8.2513 19.25C8.7952 19.25 9.32688 19.4112 9.77912 19.7134C10.2314 20.0156 10.5838 20.4451 10.792 20.9476C11.0001 21.4501 11.0546 22.003 10.9485 22.5365C10.8424 23.0699 10.5804 23.5599 10.1958 23.9445C9.81125 24.3291 9.32125 24.591 8.7878 24.6971C8.25435 24.8032 7.70142 24.7488 7.19892 24.5406C6.69643 24.3325 6.26693 23.98 5.96476 23.5278C5.66259 23.0755 5.5013 22.5439 5.5013 22C5.5013 21.2706 5.79103 20.5711 6.30676 20.0554C6.82248 19.5397 7.52196 19.25 8.2513 19.25Z" fill="#161335"/>
<path d="M20.1654 17.4166C19.2589 17.4166 18.3727 17.6854 17.619 18.1891C16.8653 18.6927 16.2778 19.4085 15.9309 20.246C15.584 21.0835 15.4933 22.005 15.6701 22.8941C15.8469 23.7832 16.2835 24.5999 16.9245 25.2409C17.5655 25.8819 18.3821 26.3184 19.2712 26.4952C20.1603 26.6721 21.0818 26.5813 21.9193 26.2344C22.7568 25.8875 23.4726 25.3 23.9763 24.5463C24.4799 23.7926 24.7487 22.9065 24.7487 22C24.7472 20.7848 24.2639 19.6199 23.4047 18.7607C22.5454 17.9014 21.3805 17.4181 20.1654 17.4166ZM20.1654 24.75C19.6215 24.75 19.0898 24.5887 18.6375 24.2865C18.1853 23.9843 17.8328 23.5548 17.6247 23.0523C17.4166 22.5498 17.3621 21.9969 17.4682 21.4635C17.5743 20.93 17.8362 20.44 18.2208 20.0554C18.6054 19.6708 19.0954 19.4089 19.6289 19.3028C20.1623 19.1967 20.7152 19.2511 21.2177 19.4593C21.7202 19.6674 22.1497 20.0199 22.4519 20.4721C22.7541 20.9244 22.9154 21.4561 22.9154 22C22.9154 22.7293 22.6256 23.4288 22.1099 23.9445C21.5942 24.4602 20.8947 24.75 20.1654 24.75Z" fill="#161335"/>
<path d="M32.0833 17.4166C31.1768 17.4166 30.2907 17.6854 29.537 18.1891C28.7832 18.6927 28.1958 19.4085 27.8489 20.246C27.502 21.0835 27.4112 22.005 27.5881 22.8941C27.7649 23.7832 28.2014 24.5999 28.8424 25.2409C29.4834 25.8819 30.3001 26.3184 31.1892 26.4952C32.0783 26.6721 32.9998 26.5813 33.8373 26.2344C34.6748 25.8875 35.3906 25.3 35.8942 24.5463C36.3979 23.7926 36.6667 22.9065 36.6667 22C36.6652 20.7848 36.1819 19.6199 35.3226 18.7607C34.4634 17.9014 33.2985 17.4181 32.0833 17.4166ZM32.0833 24.75C31.5394 24.75 31.0078 24.5887 30.5555 24.2865C30.1033 23.9843 29.7508 23.5548 29.5427 23.0523C29.3345 22.5498 29.2801 21.9969 29.3862 21.4635C29.4923 20.93 29.7542 20.44 30.1388 20.0554C30.5234 19.6708 31.0134 19.4089 31.5468 19.3028C32.0803 19.1967 32.6332 19.2511 33.1357 19.4593C33.6382 19.6674 34.0677 20.0199 34.3699 20.4721C34.672 20.9244 34.8333 21.4561 34.8333 22C34.8333 22.7293 34.5436 23.4288 34.0279 23.9445C33.5122 24.4602 32.8127 24.75 32.0833 24.75Z" fill="#161335"/>
<path d="M8.2513 38.5C9.1578 38.5 10.0439 38.2312 10.7977 37.7276C11.5514 37.224 12.1388 36.5082 12.4858 35.6707C12.8327 34.8332 12.9234 33.9116 12.7466 33.0225C12.5697 32.1335 12.1332 31.3168 11.4922 30.6758C10.8512 30.0348 10.0345 29.5983 9.14547 29.4214C8.25639 29.2446 7.33483 29.3354 6.49734 29.6823C5.65984 30.0292 4.94402 30.6166 4.4404 31.3703C3.93678 32.1241 3.66797 33.0102 3.66797 33.9167C3.66942 35.1318 4.15278 36.2968 5.012 37.156C5.87123 38.0152 7.03617 38.4986 8.2513 38.5ZM8.2513 31.1667C8.7952 31.1667 9.32688 31.328 9.77912 31.6302C10.2314 31.9323 10.5838 32.3618 10.792 32.8643C11.0001 33.3668 11.0546 33.9198 10.9485 34.4532C10.8424 34.9867 10.5804 35.4767 10.1958 35.8613C9.81125 36.2458 9.32125 36.5078 8.7878 36.6139C8.25435 36.72 7.70142 36.6655 7.19892 36.4574C6.69643 36.2492 6.26693 35.8968 5.96476 35.4445C5.66259 34.9923 5.5013 34.4606 5.5013 33.9167C5.5013 33.1874 5.79103 32.4879 6.30676 31.9722C6.82248 31.4564 7.52196 31.1667 8.2513 31.1667Z" fill="#161335"/>
<path d="M20.1654 29.3334C19.2589 29.3334 18.3727 29.6022 17.619 30.1058C16.8653 30.6094 16.2778 31.3252 15.9309 32.1627C15.584 33.0002 15.4933 33.9218 15.6701 34.8109C15.8469 35.7 16.2835 36.5166 16.9245 37.1576C17.5655 37.7986 18.3821 38.2351 19.2712 38.412C20.1603 38.5888 21.0818 38.4981 21.9193 38.1512C22.7568 37.8043 23.4726 37.2168 23.9763 36.4631C24.4799 35.7093 24.7487 34.8232 24.7487 33.9167C24.7472 32.7016 24.2639 31.5366 23.4047 30.6774C22.5454 29.8182 21.3805 29.3348 20.1654 29.3334ZM20.1654 36.6667C19.6215 36.6667 19.0898 36.5054 18.6375 36.2032C18.1853 35.9011 17.8328 35.4716 17.6247 34.9691C17.4166 34.4666 17.3621 33.9137 17.4682 33.3802C17.5743 32.8468 17.8362 32.3568 18.2208 31.9722C18.6054 31.5876 19.0954 31.3257 19.6289 31.2195C20.1623 31.1134 20.7152 31.1679 21.2177 31.376C21.7202 31.5842 22.1497 31.9367 22.4519 32.3889C22.7541 32.8411 22.9154 33.3728 22.9154 33.9167C22.9154 34.6461 22.6256 35.3455 22.1099 35.8612C21.5942 36.377 20.8947 36.6667 20.1654 36.6667Z" fill="#161335"/>
<path d="M8.2513 50.4167C9.1578 50.4167 10.0439 50.1479 10.7977 49.6442C11.5514 49.1406 12.1388 48.4248 12.4858 47.5873C12.8327 46.7498 12.9234 45.8283 12.7466 44.9392C12.5697 44.0501 12.1332 43.2334 11.4922 42.5924C10.8512 41.9514 10.0345 41.5149 9.14547 41.3381C8.25639 41.1612 7.33483 41.252 6.49734 41.5989C5.65984 41.9458 4.94402 42.5332 4.4404 43.287C3.93678 44.0407 3.66797 44.9268 3.66797 45.8333C3.66942 47.0485 4.15278 48.2134 5.012 49.0726C5.87123 49.9319 7.03617 50.4152 8.2513 50.4167ZM8.2513 43.0833C8.7952 43.0833 9.32688 43.2446 9.77912 43.5468C10.2314 43.849 10.5838 44.2785 10.792 44.781C11.0001 45.2835 11.0546 45.8364 10.9485 46.3698C10.8424 46.9033 10.5804 47.3933 10.1958 47.7779C9.81125 48.1625 9.32125 48.4244 8.7878 48.5305C8.25435 48.6366 7.70142 48.5821 7.19892 48.374C6.69643 48.1659 6.26693 47.8134 5.96476 47.3612C5.66259 46.9089 5.5013 46.3772 5.5013 45.8333C5.5013 45.104 5.79103 44.4045 6.30676 43.8888C6.82248 43.3731 7.52196 43.0833 8.2513 43.0833Z" fill="#161335"/>
<path d="M20.1654 41.25C19.2589 41.25 18.3727 41.5188 17.619 42.0224C16.8653 42.5261 16.2778 43.2419 15.9309 44.0794C15.584 44.9169 15.4933 45.8384 15.6701 46.7275C15.8469 47.6166 16.2835 48.4332 16.9245 49.0742C17.5655 49.7152 18.3821 50.1518 19.2712 50.3286C20.1603 50.5054 21.0818 50.4147 21.9193 50.0678C22.7568 49.7209 23.4726 49.1334 23.9763 48.3797C24.4799 47.626 24.7487 46.7398 24.7487 45.8333C24.7472 44.6182 24.2639 43.4533 23.4047 42.594C22.5454 41.7348 21.3805 41.2515 20.1654 41.25ZM20.1654 48.5833C19.6215 48.5833 19.0898 48.422 18.6375 48.1199C18.1853 47.8177 17.8328 47.3882 17.6247 46.8857C17.4166 46.3832 17.3621 45.8303 17.4682 45.2968C17.5743 44.7634 17.8362 44.2734 18.2208 43.8888C18.6054 43.5042 19.0954 43.2423 19.6289 43.1362C20.1623 43.0301 20.7152 43.0845 21.2177 43.2927C21.7202 43.5008 22.1497 43.8533 22.4519 44.3055C22.7541 44.7578 22.9154 45.2894 22.9154 45.8333C22.9154 46.5627 22.6256 47.2622 22.1099 47.7779C21.5942 48.2936 20.8947 48.5833 20.1654 48.5833Z" fill="#161335"/>
<path d="M47.9939 31.2235C47.3037 31.1545 46.6083 31.1524 45.9177 31.2171C46.0403 31.0483 46.1845 30.8964 46.3467 30.7652C46.9644 30.3913 47.4099 29.789 47.5864 29.0889C47.763 28.3888 47.6565 27.6473 47.2899 27.0252C46.9082 26.3924 46.2908 25.9371 45.5735 25.7594C44.8562 25.5817 44.0977 25.696 43.4647 26.0773C42.5037 26.738 41.6931 27.5943 41.0859 28.5899C40.8458 28.3832 40.5946 28.1898 40.3333 28.0106V6.41667C40.3314 4.71546 39.6547 3.08448 38.4518 1.88154C37.2489 0.678604 35.6179 0.00194091 33.9167 0L6.41667 0C4.71546 0.00194091 3.08448 0.678604 1.88154 1.88154C0.678604 3.08448 0.00194091 4.71546 0 6.41667C0 6.65978 0.0965771 6.89294 0.268485 7.06485C0.440394 7.23676 0.673552 7.33333 0.916667 7.33333C1.15978 7.33333 1.39294 7.23676 1.56485 7.06485C1.73676 6.89294 1.83333 6.65978 1.83333 6.41667C1.83479 5.20154 2.31814 4.03659 3.17737 3.17737C4.03659 2.31814 5.20154 1.83479 6.41667 1.83333H33.9167C35.1318 1.83479 36.2967 2.31814 37.156 3.17737C38.0152 4.03659 38.4985 5.20154 38.5 6.41667V27.0591C36.82 26.4457 34.9811 26.4237 33.2869 26.9967C32.9038 27.1248 32.5763 27.3807 32.3594 27.7215C32.1424 28.0623 32.0492 28.4672 32.0953 28.8686C32.1063 29.0015 32.1264 29.1647 32.1521 29.3398C32.1292 29.3398 32.1063 29.3333 32.0833 29.3333C30.8682 29.3348 29.7033 29.8181 28.844 30.6774C27.9848 31.5366 27.5015 32.7015 27.5 33.9167C27.5011 34.742 27.7281 35.5514 28.1563 36.2569C27.7241 37.3211 27.5012 38.4587 27.5 39.6073C27.5 45.7747 30.1583 50.6632 33.4757 53.1667H6.41667C5.20154 53.1652 4.03659 52.6819 3.17737 51.8226C2.31814 50.9634 1.83479 49.7985 1.83333 48.5833V13.75C1.83333 13.5069 1.73676 13.2737 1.56485 13.1018C1.39294 12.9299 1.15978 12.8333 0.916667 12.8333C0.673552 12.8333 0.440394 12.9299 0.268485 13.1018C0.0965771 13.2737 0 13.5069 0 13.75L0 48.5833C0.00194091 50.2845 0.678604 51.9155 1.88154 53.1185C3.08448 54.3214 4.71546 54.9981 6.41667 55H33.9167C34.6755 54.9975 35.428 54.8613 36.1396 54.5976C36.8655 54.8539 37.6285 54.9898 38.3983 55H44.1017C49.2562 55 55 48.675 55 39.6073C55 35.2917 51.9227 31.6094 47.9939 31.2235ZM42.1456 30.4654C42.6387 29.3264 43.4336 28.3438 44.4446 27.6238C44.5502 27.5648 44.6663 27.5273 44.7864 27.5132C44.9065 27.4992 45.0281 27.5089 45.1445 27.5419C45.2608 27.5749 45.3695 27.6305 45.4643 27.7055C45.5591 27.7805 45.6383 27.8734 45.6972 27.979C45.7561 28.0845 45.7937 28.2007 45.8077 28.3208C45.8218 28.4408 45.812 28.5625 45.779 28.6788C45.746 28.7952 45.6905 28.9038 45.6155 28.9987C45.5405 29.0935 45.4476 29.1727 45.342 29.2316C44.522 29.8741 43.9124 30.7467 43.5912 31.7378C43.1497 31.901 42.7239 32.1038 42.3188 32.3437C42.0545 32.4956 41.76 32.5876 41.4562 32.6132C41.5912 31.8702 41.823 31.1481 42.1456 30.4654ZM39.2911 29.5167C39.6258 29.7482 39.9396 30.0086 40.2288 30.2949C39.9995 30.8742 39.8219 31.4727 39.6981 32.0833C38.1364 31.3321 36.3959 31.0324 34.6729 31.218C34.2768 30.4403 34.0055 29.6051 33.869 28.743C34.7699 28.4359 35.7305 28.3459 36.6727 28.4804C37.6149 28.6148 38.5121 28.9699 39.2911 29.5167ZM29.3333 33.9167C29.3333 33.1873 29.6231 32.4879 30.1388 31.9721C30.6545 31.4564 31.354 31.1667 32.0833 31.1667C32.2809 31.169 32.4776 31.193 32.67 31.2382C32.7195 31.3619 32.769 31.4848 32.8268 31.6113C31.4503 32.1188 30.2462 33.0067 29.3544 34.1715C29.3462 34.0872 29.3333 34.0028 29.3333 33.9167ZM44.1017 53.1667H38.3983C34.1193 53.1667 29.3333 47.3678 29.3333 39.6073C29.3333 36.6419 31.3353 33.374 34.6848 33.0477C35.0167 33.0156 35.3265 33 35.6299 33C36.8923 32.9699 38.1388 33.287 39.2333 33.9167C39.8418 34.2842 40.5391 34.4785 41.25 34.4785C41.9609 34.4785 42.6582 34.2842 43.2667 33.9167C44.6488 33.1387 46.2473 32.8335 47.8188 33.0477C51.1683 33.3777 53.1703 36.6419 53.1703 39.6073C53.1667 47.3678 48.3808 53.1667 44.1017 53.1667Z" fill="#161335"/>
<path d="M35.6431 34.8334C35.3956 34.8334 35.1371 34.8462 34.8658 34.8728C32.5512 35.1001 31.168 37.4587 31.168 39.6074C31.168 39.8505 31.2645 40.0836 31.4365 40.2556C31.6084 40.4275 31.8415 40.524 32.0846 40.524C32.3278 40.524 32.5609 40.4275 32.7328 40.2556C32.9047 40.0836 33.0013 39.8505 33.0013 39.6074C33.0013 38.2993 33.8263 36.817 35.0455 36.697C35.2545 36.6768 35.4537 36.6667 35.6431 36.6667C35.8863 36.6667 36.1194 36.5701 36.2913 36.3982C36.4632 36.2263 36.5598 35.9932 36.5598 35.75C36.5598 35.5069 36.4632 35.2738 36.2913 35.1019C36.1194 34.93 35.8863 34.8334 35.6431 34.8334Z" fill="#161335"/>
</svg>
