<svg width="55" height="55" viewBox="0 0 55 55" fill="none" xmlns="http://www.w3.org/2000/svg">
<path d="M38.5013 0.916748H9.16797C4.61162 0.916748 0.917969 4.6104 0.917969 9.16675V45.8334C0.917969 50.3898 4.61162 54.0834 9.16797 54.0834H38.5013C43.0577 54.0834 46.7513 50.3898 46.7513 45.8334V9.16675C46.7513 4.6104 43.0577 0.916748 38.5013 0.916748Z" fill="#E1E3E9"/>
<path d="M38.4922 0.916748H35.7422C37.9302 0.916748 40.0286 1.78594 41.5758 3.33312C43.123 4.88029 43.9922 6.97871 43.9922 9.16675V45.8334C43.9922 48.0214 43.123 50.1199 41.5758 51.667C40.0286 53.2142 37.9302 54.0834 35.7422 54.0834H38.4922C40.6802 54.0834 42.7786 53.2142 44.3258 51.667C45.873 50.1199 46.7422 48.0214 46.7422 45.8334V9.16675C46.7422 6.97871 45.873 4.88029 44.3258 3.33312C42.7786 1.78594 40.6802 0.916748 38.4922 0.916748Z" fill="white"/>
<path d="M29.6877 20.1674C29.8154 20.1683 29.9416 20.1408 30.0574 20.0869C30.1731 20.033 30.2754 19.9541 30.3569 19.8558L35.2977 14.0716C35.6036 13.7158 35.7641 13.2576 35.7471 12.7887C35.7301 12.3197 35.5369 11.8744 35.2061 11.5416C32.9877 9.38744 29.3302 7.33411 23.8302 7.33411C18.3302 7.33411 14.6727 9.38744 12.4544 11.5416C12.1235 11.8744 11.9303 12.3197 11.9133 12.7887C11.8963 13.2576 12.0568 13.7158 12.3627 14.0716L17.3036 19.8558C17.385 19.9541 17.4873 20.033 17.6031 20.0869C17.7188 20.1408 17.8451 20.1683 17.9727 20.1674H29.6877Z" fill="#F4F9FE"/>
<path d="M35.2118 11.5416C32.9934 9.38744 29.3359 7.33411 23.8359 7.33411C23.3574 7.33411 22.9119 7.36894 22.4609 7.39827C26.1847 7.53028 29.7357 9.00148 32.4618 11.5416C32.7926 11.8744 32.9858 12.3197 33.0028 12.7887C33.0198 13.2576 32.8593 13.7158 32.5534 14.0716L27.6126 19.8558C27.5311 19.9541 27.4288 20.033 27.3131 20.0869C27.1974 20.1408 27.0711 20.1683 26.9434 20.1674H29.6934C29.8211 20.1683 29.9474 20.1408 30.0631 20.0869C30.1788 20.033 30.2811 19.9541 30.3626 19.8558L35.3034 14.0716C35.6093 13.7158 35.7698 13.2576 35.7528 12.7887C35.7358 12.3197 35.5426 11.8744 35.2118 11.5416Z" fill="#E3E3F4"/>
<path d="M7.32357 9.16691C8.33609 9.16691 9.1569 8.3461 9.1569 7.33358C9.1569 6.32106 8.33609 5.50024 7.32357 5.50024C6.31105 5.50024 5.49023 6.32106 5.49023 7.33358C5.49023 8.3461 6.31105 9.16691 7.32357 9.16691Z" fill="#E3E3F4"/>
<path d="M40.3294 9.16691C41.342 9.16691 42.1628 8.3461 42.1628 7.33358C42.1628 6.32106 41.342 5.50024 40.3294 5.50024C39.3169 5.50024 38.4961 6.32106 38.4961 7.33358C38.4961 8.3461 39.3169 9.16691 40.3294 9.16691Z" fill="#E3E3F4"/>
<path d="M40.3294 49.5005C41.342 49.5005 42.1628 48.6797 42.1628 47.6672C42.1628 46.6547 41.342 45.8339 40.3294 45.8339C39.3169 45.8339 38.4961 46.6547 38.4961 47.6672C38.4961 48.6797 39.3169 49.5005 40.3294 49.5005Z" fill="#E3E3F4"/>
<path d="M7.32357 49.5005C8.33609 49.5005 9.1569 48.6797 9.1569 47.6672C9.1569 46.6547 8.33609 45.8339 7.32357 45.8339C6.31105 45.8339 5.49023 46.6547 5.49023 47.6672C5.49023 48.6797 6.31105 49.5005 7.32357 49.5005Z" fill="#E3E3F4"/>
<path d="M54.0782 24.5664V35.7864C51.6948 35.4839 49.3023 35.1539 46.7448 34.9889C40.2159 34.5433 33.6648 35.4386 27.4948 37.6197C19.2998 40.3514 13.644 39.0131 11.2973 38.1514C10.9425 38.0229 10.6355 37.7889 10.4176 37.4808C10.1997 37.1728 10.0812 36.8054 10.0781 36.4281V26.3447C10.0776 26.0647 10.1413 25.7882 10.2643 25.5366C10.3873 25.2849 10.5662 25.0648 10.7875 24.8931C11.0088 24.7214 11.2664 24.6027 11.5407 24.5461C11.815 24.4894 12.0986 24.4964 12.3698 24.5664C15.7706 25.4739 22.3156 26.7297 27.4948 24.7864C33.3615 22.5864 38.0548 21.5597 46.7448 22.1739C48.4773 22.3022 50.3657 22.4856 52.4557 22.7422C52.9016 22.7971 53.3124 23.0125 53.611 23.3482C53.9096 23.684 54.0757 24.1171 54.0782 24.5664Z" fill="#F4F9FE"/>
<path d="M52.4658 22.7464C48.5739 22.2104 44.6471 21.9686 40.7188 22.0232C43.2909 22.0846 46.2188 22.3156 49.7158 22.7464C50.1612 22.8003 50.5716 23.0151 50.8697 23.3503C51.1679 23.6856 51.3332 24.1183 51.3347 24.5669V35.4432C52.2587 35.555 53.1726 35.6732 54.0847 35.7878V24.5669C54.0832 24.1183 53.9179 23.6856 53.6197 23.3503C53.3216 23.0151 52.9112 22.8003 52.4658 22.7464Z" fill="#E3E3F4"/>
<path d="M46.7578 40.1962V34.9895C49.3153 35.1545 51.7078 35.4845 54.0912 35.787C54.0912 35.787 54.8062 39.362 46.7578 40.1962Z" fill="#E3E3F4"/>
<path d="M54.0912 35.787C51.7078 35.4845 49.3153 35.1545 46.7578 34.9895V35.2324C48.3161 35.3974 49.8323 35.5991 51.3411 35.7824C51.3411 35.7824 51.8701 38.471 46.7578 39.7287V40.1916C54.8062 39.362 54.0912 35.787 54.0912 35.787Z" fill="#E3E3F4"/>
<path d="M9.16797 54.0834H11.918C9.72994 54.0834 7.63152 53.2142 6.08434 51.667C4.53716 50.1199 3.66797 48.0214 3.66797 45.8334V9.16675C3.66797 6.97871 4.53716 4.88029 6.08434 3.33312C7.63152 1.78594 9.72994 0.916748 11.918 0.916748H9.16797C6.97994 0.916748 4.88152 1.78594 3.33434 3.33312C1.78716 4.88029 0.917969 6.97871 0.917969 9.16675V45.8334C0.917969 48.0214 1.78716 50.1199 3.33434 51.667C4.88152 53.2142 6.97994 54.0834 9.16797 54.0834Z" fill="white"/>
<path d="M0 38.5011H1.83333V45.8344H0V38.5011Z" fill="white"/>
<path d="M0.940792 43.0833C0.697677 43.0845 0.464037 42.9891 0.291269 42.8181C0.118501 42.647 0.0207583 42.4144 0.0195427 42.1713C0.0183271 41.9281 0.113738 41.6945 0.284787 41.5217C0.455836 41.349 0.688511 41.2512 0.931626 41.25H0.940792C1.18391 41.25 1.41707 41.3466 1.58897 41.5185C1.76088 41.6904 1.85746 41.9236 1.85746 42.1667C1.85746 42.4098 1.76088 42.6429 1.58897 42.8148C1.41707 42.9868 1.18391 43.0833 0.940792 43.0833Z" fill="#161335"/>
<path d="M9.16667 55H38.5C40.9303 54.9973 43.2604 54.0307 44.9789 52.3122C46.6974 50.5937 47.664 48.2637 47.6667 45.8333V41.0978C50.2278 41.0062 52.1877 40.326 53.482 39.0546C54.3821 38.1961 54.9243 37.0291 55 35.7876V24.5667C54.9981 23.8941 54.7506 23.2454 54.3042 22.7424C53.8577 22.2394 53.243 21.9167 52.5754 21.835C50.8008 21.6168 49.1838 21.4518 47.6667 21.329V9.16667C47.664 6.73633 46.6974 4.40631 44.9789 2.6878C43.2604 0.969297 40.9303 0.00266896 38.5 0H9.16667C6.73633 0.00266896 4.40631 0.969297 2.6878 2.6878C0.969297 4.40631 0.00266896 6.73633 0 9.16667L0 38.5C0 38.7431 0.0965771 38.9763 0.268485 39.1482C0.440394 39.3201 0.673552 39.4167 0.916667 39.4167C1.15978 39.4167 1.39294 39.3201 1.56485 39.1482C1.73676 38.9763 1.83333 38.7431 1.83333 38.5V9.16667C1.83552 7.22242 2.60883 5.35842 3.98363 3.98363C5.35842 2.60883 7.22242 1.83552 9.16667 1.83333H38.5C40.4443 1.83552 42.3082 2.60883 43.683 3.98363C45.0578 5.35842 45.8312 7.22242 45.8333 9.16667V21.1988C37.6283 20.7093 33 21.7488 27.1773 23.9287C22.2521 25.7758 15.9381 24.5703 12.6106 23.6803C12.2062 23.5708 11.782 23.5567 11.3713 23.6391C10.9606 23.7215 10.5746 23.8981 10.2438 24.1551C9.90762 24.4114 9.63544 24.7421 9.44856 25.1213C9.26169 25.5004 9.1652 25.9177 9.16667 26.3404V36.4238C9.17005 36.9897 9.34644 37.5411 9.67217 38.004C9.9979 38.4669 10.4574 38.8191 10.989 39.0133C13.2693 39.812 15.6718 40.2051 18.0877 40.1748C21.3914 40.1396 24.6677 39.5703 27.7897 38.489C33.5755 36.4455 39.705 35.5527 45.8333 35.8609V45.8333C45.8312 47.7776 45.0578 49.6416 43.683 51.0164C42.3082 52.3912 40.4443 53.1645 38.5 53.1667H9.16667C7.22242 53.1645 5.35842 52.3912 3.98363 51.0164C2.60883 49.6416 1.83552 47.7776 1.83333 45.8333C1.83333 45.5902 1.73676 45.3571 1.56485 45.1852C1.39294 45.0132 1.15978 44.9167 0.916667 44.9167C0.673552 44.9167 0.440394 45.0132 0.268485 45.1852C0.0965771 45.3571 0 45.5902 0 45.8333C0.00266896 48.2637 0.969297 50.5937 2.6878 52.3122C4.40631 54.0307 6.73633 54.9973 9.16667 55ZM27.5 36.6593V34.8709C27.5 34.6278 27.4034 34.3946 27.2315 34.2227C27.0596 34.0508 26.8264 33.9543 26.5833 33.9543C26.3402 33.9543 26.1071 34.0508 25.9352 34.2227C25.7632 34.3946 25.6667 34.6278 25.6667 34.8709V37.224C24.4619 37.5632 23.2374 37.8277 22 38.016V35.7876C22 35.5445 21.9034 35.3113 21.7315 35.1394C21.5596 34.9675 21.3264 34.8709 21.0833 34.8709C20.8402 34.8709 20.6071 34.9675 20.4352 35.1394C20.2632 35.3113 20.1667 35.5445 20.1667 35.7876V38.2332C18.947 38.3367 17.7212 38.3471 16.5 38.2644V35.7894C16.5 35.5463 16.4034 35.3131 16.2315 35.1412C16.0596 34.9693 15.8264 34.8727 15.5833 34.8727C15.3402 34.8727 15.1071 34.9693 14.9352 35.1412C14.7632 35.3131 14.6667 35.5463 14.6667 35.7894V38.06C13.6291 37.9019 12.6088 37.6456 11.6197 37.2946C11.439 37.2316 11.2824 37.114 11.1714 36.9582C11.0604 36.8024 11.0005 36.616 11 36.4247V26.3413C10.9994 26.1995 11.0316 26.0594 11.0943 25.9322C11.157 25.8049 11.2483 25.694 11.3612 25.608C11.5182 25.4853 11.7119 25.4191 11.9112 25.4201C11.9892 25.4202 12.0668 25.4303 12.1422 25.4503C15.6805 26.3936 22.4226 27.6723 27.8273 25.6447C34.782 23.0358 39.9758 22.1283 52.3563 23.6555C52.5791 23.6829 52.7842 23.7905 52.9334 23.9582C53.0825 24.1259 53.1655 24.3422 53.1667 24.5667V34.7481C51.9585 34.595 50.7412 34.4428 49.5 34.3118V31.2043C49.5 30.9611 49.4034 30.728 49.2315 30.5561C49.0596 30.3842 48.8265 30.2876 48.5833 30.2876C48.3402 30.2876 48.1071 30.3842 47.9352 30.5561C47.7632 30.728 47.6667 30.9611 47.6667 31.2043V34.1376C46.4814 34.0459 45.2613 33.9799 44 33.9616V31.2043C44 30.9611 43.9034 30.728 43.7315 30.5561C43.5596 30.3842 43.3265 30.2876 43.0833 30.2876C42.8402 30.2876 42.6071 30.3842 42.4352 30.5561C42.2632 30.728 42.1667 30.9611 42.1667 31.2043V33.9717C40.9906 34.0001 39.7733 34.0734 38.5 34.2091V32.1209C38.5 31.8778 38.4034 31.6446 38.2315 31.4727C38.0596 31.3008 37.8265 31.2043 37.5833 31.2043C37.3402 31.2043 37.1071 31.3008 36.9352 31.4727C36.7632 31.6446 36.6667 31.8778 36.6667 32.1209V34.4447C35.4933 34.617 34.2733 34.8425 33 35.1294V33.0376C33 32.7945 32.9034 32.5613 32.7315 32.3894C32.5596 32.2175 32.3265 32.1209 32.0833 32.1209C31.8402 32.1209 31.6071 32.2175 31.4352 32.3894C31.2632 32.5613 31.1667 32.7945 31.1667 33.0376V35.574C29.9927 35.8814 28.7705 36.2432 27.5 36.6593ZM52.9833 36.575C52.6029 37.5641 51.4039 39.1297 47.6667 39.27V35.9801C49.4918 36.1304 51.2417 36.3523 52.9833 36.575Z" fill="#161335"/>
<path d="M17.9712 21.0826H29.6862C29.9466 21.0845 30.2042 21.0288 30.4405 20.9194C30.6768 20.8101 30.886 20.6498 31.053 20.4501L35.9902 14.6659C36.4493 14.1334 36.6895 13.4465 36.6621 12.7439C36.6347 12.0413 36.3418 11.3752 35.8426 10.8801C33.7443 8.84414 29.9576 6.41589 23.8287 6.41589C17.6999 6.41589 13.9131 8.84414 11.8094 10.8874C11.3125 11.3824 11.0213 12.0471 10.9943 12.748C10.9672 13.4489 11.2064 14.134 11.6636 14.6659L16.5916 20.4345C16.759 20.6382 16.9697 20.8021 17.2083 20.9142C17.447 21.0263 17.7076 21.0838 17.9712 21.0826ZM13.0909 12.1973C14.9471 10.3961 18.315 8.24923 23.8287 8.24923C29.3425 8.24923 32.7103 10.3961 34.5611 12.1909C34.7262 12.3616 34.8217 12.5878 34.8286 12.8253C34.8356 13.0627 34.7535 13.2941 34.5987 13.4742L29.667 19.2492H25.542L28.2608 15.171C28.3276 15.0708 28.3741 14.9585 28.3975 14.8404C28.4209 14.7223 28.4208 14.6007 28.3972 14.4827C28.3736 14.3646 28.327 14.2524 28.26 14.1523C28.1931 14.0522 28.1071 13.9664 28.0069 13.8996C27.9067 13.8327 27.7944 13.7863 27.6763 13.7629C27.5582 13.7395 27.4367 13.7396 27.3186 13.7632C27.2005 13.7868 27.0883 13.8334 26.9882 13.9003C26.8882 13.9673 26.8023 14.0533 26.7355 14.1535L23.3374 19.2511H18.0024L13.0551 13.4742C12.9016 13.2949 12.8203 13.0649 12.8269 12.8289C12.8335 12.5929 12.9276 12.3678 13.0909 12.1973Z" fill="#161335"/>
<path d="M7.33985 10.0825C7.88374 10.0825 8.41543 9.92124 8.86766 9.61906C9.3199 9.31689 9.67237 8.8874 9.88052 8.3849C10.0887 7.8824 10.1431 7.32947 10.037 6.79602C9.9309 6.26258 9.66899 5.77257 9.28439 5.38798C8.8998 5.00338 8.40979 4.74147 7.87634 4.63536C7.3429 4.52925 6.78996 4.58371 6.28747 4.79185C5.78497 4.99999 5.35548 5.35247 5.0533 5.8047C4.75113 6.25694 4.58984 6.78862 4.58984 7.33252C4.58984 8.06187 4.87958 8.76134 5.3953 9.27707C5.91103 9.79279 6.6105 10.0825 7.33985 10.0825ZM7.33985 6.41585C7.52115 6.41585 7.69837 6.46962 7.84912 6.57034C7.99986 6.67107 8.11736 6.81423 8.18674 6.98173C8.25612 7.14923 8.27427 7.33354 8.2389 7.51135C8.20353 7.68917 8.11623 7.85251 7.98803 7.9807C7.85983 8.1089 7.69649 8.19621 7.51868 8.23158C7.34086 8.26695 7.15655 8.24879 6.98905 8.17941C6.82155 8.11003 6.67839 7.99254 6.57766 7.8418C6.47694 7.69105 6.42318 7.51382 6.42318 7.33252C6.42318 7.08941 6.51976 6.85625 6.69166 6.68434C6.86357 6.51243 7.09673 6.41585 7.33985 6.41585Z" fill="#161335"/>
<path d="M43.0781 7.33252C43.0781 6.78862 42.9168 6.25694 42.6147 5.8047C42.3125 5.35247 41.883 4.99999 41.3805 4.79185C40.878 4.58371 40.3251 4.52925 39.7916 4.63536C39.2582 4.74147 38.7682 5.00338 38.3836 5.38798C37.999 5.77257 37.7371 6.26258 37.631 6.79602C37.5249 7.32947 37.5793 7.8824 37.7875 8.3849C37.9956 8.8874 38.3481 9.31689 38.8003 9.61906C39.2525 9.92124 39.7842 10.0825 40.3281 10.0825C41.0575 10.0825 41.7569 9.79279 42.2727 9.27707C42.7884 8.76134 43.0781 8.06187 43.0781 7.33252ZM39.4115 7.33252C39.4115 7.15122 39.4652 6.97399 39.5659 6.82325C39.6667 6.6725 39.8098 6.55501 39.9773 6.48563C40.1448 6.41625 40.3291 6.3981 40.507 6.43347C40.6848 6.46884 40.8481 6.55614 40.9763 6.68434C41.1045 6.81254 41.1918 6.97587 41.2272 7.15369C41.2626 7.33151 41.2444 7.51582 41.175 7.68332C41.1056 7.85081 40.9881 7.99398 40.8374 8.0947C40.6867 8.19543 40.5094 8.24919 40.3281 8.24919C40.085 8.24919 39.8519 8.15261 39.6799 7.9807C39.508 7.80879 39.4115 7.57564 39.4115 7.33252Z" fill="#161335"/>
<path d="M43.0781 47.667C43.0781 47.1231 42.9168 46.5914 42.6147 46.1392C42.3125 45.6869 41.883 45.3345 41.3805 45.1263C40.878 44.9182 40.3251 44.8637 39.7916 44.9698C39.2582 45.0759 38.7682 45.3379 38.3836 45.7225C37.999 46.107 37.7371 46.597 37.631 47.1305C37.5249 47.6639 37.5793 48.2169 37.7875 48.7194C37.9956 49.2219 38.3481 49.6514 38.8003 49.9535C39.2525 50.2557 39.7842 50.417 40.3281 50.417C41.0575 50.417 41.7569 50.1273 42.2727 49.6115C42.7884 49.0958 43.0781 48.3963 43.0781 47.667ZM39.4115 47.667C39.4115 47.4857 39.4652 47.3085 39.5659 47.1577C39.6667 47.007 39.8098 46.8895 39.9773 46.8201C40.1448 46.7507 40.3291 46.7326 40.507 46.7679C40.6848 46.8033 40.8481 46.8906 40.9763 47.0188C41.1045 47.147 41.1918 47.3103 41.2272 47.4882C41.2626 47.666 41.2444 47.8503 41.175 48.0178C41.1056 48.1853 40.9881 48.3285 40.8374 48.4292C40.6867 48.5299 40.5094 48.5837 40.3281 48.5837C40.085 48.5837 39.8519 48.4871 39.6799 48.3152C39.508 48.1433 39.4115 47.9101 39.4115 47.667Z" fill="#161335"/>
<path d="M7.33985 50.417C7.88374 50.417 8.41543 50.2557 8.86766 49.9535C9.3199 49.6514 9.67237 49.2219 9.88052 48.7194C10.0887 48.2169 10.1431 47.6639 10.037 47.1305C9.9309 46.597 9.66899 46.107 9.28439 45.7225C8.8998 45.3379 8.40979 45.0759 7.87634 44.9698C7.3429 44.8637 6.78996 44.9182 6.28747 45.1263C5.78497 45.3345 5.35548 45.6869 5.0533 46.1392C4.75113 46.5914 4.58984 47.1231 4.58984 47.667C4.58984 48.3963 4.87958 49.0958 5.3953 49.6115C5.91103 50.1273 6.6105 50.417 7.33985 50.417ZM7.33985 46.7503C7.52115 46.7503 7.69837 46.8041 7.84912 46.9048C7.99986 47.0055 8.11736 47.1487 8.18674 47.3162C8.25612 47.4837 8.27427 47.668 8.2389 47.8458C8.20353 48.0236 8.11623 48.187 7.98803 48.3152C7.85983 48.4434 7.69649 48.5307 7.51868 48.566C7.34086 48.6014 7.15655 48.5833 6.98905 48.5139C6.82155 48.4445 6.67839 48.327 6.57766 48.1763C6.47694 48.0255 6.42318 47.8483 6.42318 47.667C6.42318 47.4239 6.51976 47.1907 6.69166 47.0188C6.86357 46.8469 7.09673 46.7503 7.33985 46.7503Z" fill="#161335"/>
</svg>
