<svg width="512" height="512" viewBox="0 0 512 512" fill="none" xmlns="http://www.w3.org/2000/svg">
<g clip-path="url(#clip0_26_411)">
<path d="M384 418.133H298.667V51.2C298.667 43.3606 296.507 35.6726 292.425 28.98C288.343 22.2874 282.495 16.8488 275.525 13.2613C268.555 9.67386 260.731 8.07614 252.912 8.64356C245.093 9.21097 237.581 11.9216 231.202 16.4779L111.735 101.811C102.527 108.388 96.3074 118.354 94.4463 129.516C92.5851 140.678 95.2343 152.122 101.811 161.331C108.388 170.54 118.354 176.759 129.516 178.62C140.678 180.481 152.122 177.832 161.331 171.255L213.333 134.11V418.133H128C116.684 418.133 105.832 422.629 97.83 430.63C89.8285 438.632 85.3333 449.484 85.3333 460.8C85.3333 472.116 89.8285 482.968 97.83 490.97C105.832 498.971 116.684 503.467 128 503.467H384C395.316 503.467 406.168 498.971 414.17 490.97C422.171 482.968 426.667 472.116 426.667 460.8C426.667 449.484 422.171 438.632 414.17 430.63C406.168 422.629 395.316 418.133 384 418.133Z" fill="#FFB500"/>
<path d="M273.067 51.2V418.133H298.667V51.2C298.671 44.5015 297.096 37.8963 294.069 31.921C291.041 25.9456 286.647 20.7686 281.243 16.8104C275.839 12.8523 269.578 10.2245 262.968 9.14072C256.358 8.0569 249.585 8.54754 243.2 10.5728C251.865 13.2669 259.439 18.6647 264.813 25.9755C270.188 33.2864 273.08 42.1262 273.067 51.2Z" fill="#FFB500"/>
<path d="M384 418.133H358.4C369.716 418.133 380.568 422.629 388.57 430.63C396.571 438.632 401.067 449.484 401.067 460.8C401.067 472.116 396.571 482.968 388.57 490.97C380.568 498.971 369.716 503.467 358.4 503.467H384C395.316 503.467 406.168 498.971 414.17 490.97C422.171 482.968 426.667 472.116 426.667 460.8C426.667 449.484 422.171 438.632 414.17 430.63C406.168 422.629 395.316 418.133 384 418.133Z" fill="#FFB500"/>
<path d="M145.067 145.067C154.492 145.067 162.133 137.426 162.133 128C162.133 118.574 154.492 110.933 145.067 110.933C135.641 110.933 128 118.574 128 128C128 137.426 135.641 145.067 145.067 145.067Z" fill="#E8EDFC"/>
<path d="M256 145.067C265.426 145.067 273.067 137.426 273.067 128C273.067 118.574 265.426 110.933 256 110.933C246.574 110.933 238.933 118.574 238.933 128C238.933 137.426 246.574 145.067 256 145.067Z" fill="#E8EDFC"/>
<path d="M145.067 264.533C142.565 264.559 140.089 264.028 137.818 262.978C135.547 261.928 133.539 260.387 131.937 258.464C130.336 256.542 129.183 254.288 128.561 251.865C127.939 249.441 127.864 246.91 128.341 244.454L132.608 223.377C133.225 220.534 134.797 217.988 137.062 216.162C139.327 214.336 142.149 213.34 145.058 213.34C147.968 213.34 150.789 214.336 153.054 216.162C155.319 217.988 156.891 220.534 157.508 223.377L161.775 244.454C162.252 246.909 162.177 249.438 161.556 251.86C160.935 254.282 159.784 256.536 158.184 258.458C156.585 260.38 154.578 261.922 152.31 262.973C150.041 264.023 147.567 264.556 145.067 264.533Z" fill="#E8EDFC"/>
<path d="M128 503.467H153.6C142.284 503.467 131.432 498.971 123.43 490.97C115.428 482.968 110.933 472.116 110.933 460.8C110.933 449.484 115.428 438.632 123.43 430.63C131.432 422.629 142.284 418.133 153.6 418.133H128C116.684 418.133 105.832 422.629 97.83 430.63C89.8285 438.632 85.3333 449.484 85.3333 460.8C85.3333 472.116 89.8285 482.968 97.83 490.97C105.832 498.971 116.684 503.467 128 503.467Z" fill="white"/>
<path d="M111.735 101.811C103.454 107.685 97.5462 116.326 95.0787 126.175C92.6112 136.023 93.7467 146.429 98.2802 155.514C102.814 164.598 110.446 171.762 119.799 175.711C129.152 179.661 139.61 180.135 149.282 177.05C141.733 174.675 134.996 170.243 129.827 164.251C124.658 158.259 121.262 150.944 120.021 143.128C118.78 135.312 119.743 127.306 122.802 120.007C125.86 112.708 130.893 106.407 137.335 101.811C267.093 9.13919 259.208 13.6533 268.911 10.6325C262.61 8.56579 255.909 8.01799 249.356 9.03384C242.802 10.0497 236.582 12.6004 231.202 16.4779L111.735 101.811Z" fill="white"/>
<path d="M238.933 134.11L213.333 152.397V418.133H238.933V134.11Z" fill="white"/>
<path d="M204.8 349.867H221.867V418.133H204.8V349.867Z" fill="white"/>
<path d="M213.333 392.533C218.046 392.533 221.867 388.713 221.867 384C221.867 379.287 218.046 375.467 213.333 375.467C208.621 375.467 204.8 379.287 204.8 384C204.8 388.713 208.621 392.533 213.333 392.533Z" fill="#161335"/>
<path d="M76.8 460.8C76.8136 474.375 82.2122 487.39 91.8111 496.989C101.41 506.588 114.425 511.987 128 512H384C397.579 512 410.602 506.606 420.204 497.004C429.806 487.402 435.2 474.379 435.2 460.8C435.2 447.221 429.806 434.198 420.204 424.596C410.602 414.994 397.579 409.6 384 409.6H307.2V51.2C307.201 41.7928 304.609 32.5674 299.711 24.5362C294.812 16.5051 287.796 9.97882 279.431 5.67371C271.067 1.36858 261.678 -0.548924 252.296 0.131653C242.913 0.812231 233.9 4.06458 226.244 9.53172L106.778 94.8651C95.8756 102.815 88.5522 114.746 86.3995 128.066C84.2469 141.386 87.439 155.017 95.282 165.996C103.125 176.975 114.985 184.415 128.283 186.697C141.581 188.979 155.243 185.92 166.298 178.185L204.8 150.69V349.867C204.8 352.13 205.699 354.3 207.299 355.901C208.9 357.501 211.07 358.4 213.333 358.4C215.597 358.4 217.767 357.501 219.367 355.901C220.968 354.3 221.867 352.13 221.867 349.867V134.11H221.713C221.774 132.346 221.269 130.608 220.271 129.152C218.956 127.312 216.965 126.069 214.735 125.696C212.504 125.324 210.217 125.851 208.376 127.164L156.373 164.309C149.007 169.571 139.852 171.691 130.922 170.203C121.992 168.715 114.019 163.74 108.757 156.373C103.495 149.007 101.375 139.851 102.864 130.922C104.352 121.992 109.327 114.019 116.693 108.757L236.16 23.424C241.263 19.7786 247.273 17.6097 253.528 17.1555C259.783 16.7012 266.042 17.9791 271.619 20.849C277.196 23.7188 281.874 28.0696 285.14 33.4237C288.406 38.7778 290.134 44.9283 290.133 51.2V418.133C290.133 420.397 291.032 422.567 292.633 424.167C294.233 425.768 296.404 426.667 298.667 426.667H384C393.053 426.667 401.735 430.263 408.136 436.664C414.537 443.065 418.133 451.747 418.133 460.8C418.133 469.853 414.537 478.535 408.136 484.936C401.735 491.337 393.053 494.933 384 494.933H128C118.947 494.933 110.265 491.337 103.864 484.936C97.4629 478.535 93.8667 469.853 93.8667 460.8C93.8667 451.747 97.4629 443.065 103.864 436.664C110.265 430.263 118.947 426.667 128 426.667H213.333C215.597 426.667 217.767 425.768 219.367 424.167C220.968 422.567 221.867 420.397 221.867 418.133C221.867 415.87 220.968 413.7 219.367 412.099C217.767 410.499 215.597 409.6 213.333 409.6H128C114.425 409.614 101.41 415.012 91.8111 424.611C82.2122 434.21 76.8136 447.225 76.8 460.8Z" fill="#161335"/>
<path d="M119.467 128C119.467 133.063 120.968 138.013 123.781 142.223C126.594 146.432 130.592 149.714 135.27 151.651C139.948 153.589 145.095 154.096 150.061 153.108C155.027 152.12 159.589 149.682 163.169 146.102C166.749 142.522 169.187 137.96 170.175 132.994C171.163 128.028 170.656 122.881 168.718 118.203C166.781 113.526 163.499 109.527 159.289 106.714C155.079 103.901 150.13 102.4 145.067 102.4C138.277 102.4 131.766 105.097 126.965 109.898C122.164 114.699 119.467 121.21 119.467 128ZM153.6 128C153.6 129.688 153.1 131.338 152.162 132.741C151.224 134.144 149.892 135.238 148.332 135.884C146.773 136.53 145.057 136.699 143.402 136.369C141.747 136.04 140.226 135.227 139.033 134.034C137.839 132.841 137.027 131.32 136.697 129.665C136.368 128.009 136.537 126.294 137.183 124.734C137.829 123.175 138.923 121.842 140.326 120.905C141.729 119.967 143.379 119.467 145.067 119.467C147.33 119.467 149.5 120.366 151.101 121.966C152.701 123.566 153.6 125.737 153.6 128Z" fill="#161335"/>
<path d="M256 153.6C261.063 153.6 266.013 152.099 270.223 149.286C274.433 146.473 277.714 142.474 279.651 137.797C281.589 133.119 282.096 127.972 281.108 123.006C280.12 118.04 277.682 113.478 274.102 109.898C270.522 106.318 265.96 103.88 260.994 102.892C256.029 101.904 250.881 102.411 246.203 104.349C241.526 106.286 237.527 109.567 234.715 113.777C231.902 117.987 230.4 122.937 230.4 128C230.4 134.79 233.097 141.301 237.898 146.102C242.699 150.903 249.211 153.6 256 153.6ZM256 119.467C257.688 119.467 259.338 119.967 260.741 120.905C262.144 121.842 263.238 123.175 263.884 124.734C264.53 126.294 264.699 128.009 264.37 129.665C264.04 131.32 263.228 132.841 262.034 134.034C260.841 135.227 259.32 136.04 257.665 136.369C256.01 136.699 254.294 136.53 252.735 135.884C251.175 135.238 249.843 134.144 248.905 132.741C247.967 131.338 247.467 129.688 247.467 128C247.467 125.737 248.366 123.566 249.966 121.966C251.566 120.366 253.737 119.467 256 119.467Z" fill="#161335"/>
<path d="M230.4 477.867C232.663 477.867 234.834 476.968 236.434 475.367C238.034 473.767 238.933 471.597 238.933 469.333C238.933 464.807 240.731 460.466 243.932 457.265C247.133 454.065 251.474 452.267 256 452.267C260.526 452.267 264.867 454.065 268.068 457.265C271.269 460.466 273.067 464.807 273.067 469.333C273.067 471.597 273.966 473.767 275.566 475.367C277.166 476.968 279.337 477.867 281.6 477.867C283.863 477.867 286.034 476.968 287.634 475.367C289.234 473.767 290.133 471.597 290.133 469.333C290.133 460.281 286.537 451.599 280.136 445.197C273.735 438.796 265.053 435.2 256 435.2C246.947 435.2 238.265 438.796 231.864 445.197C225.463 451.599 221.867 460.281 221.867 469.333C221.867 471.597 222.766 473.767 224.366 475.367C225.966 476.968 228.137 477.867 230.4 477.867Z" fill="#161335"/>
<path d="M164.975 263.68C167.342 260.8 169.035 257.427 169.931 253.808C170.827 250.19 170.904 246.417 170.155 242.765L165.888 221.696C164.995 216.879 162.42 212.536 158.622 209.441C154.824 206.347 150.05 204.702 145.152 204.8C140.25 204.732 135.478 206.38 131.663 209.459C127.848 212.539 125.23 216.855 124.263 221.662L119.996 242.731C119.247 246.383 119.324 250.156 120.22 253.774C121.116 257.393 122.809 260.765 125.176 263.646C127.594 266.586 130.633 268.953 134.076 270.579C137.518 272.204 141.277 273.047 145.084 273.047C148.891 273.047 152.65 272.204 156.092 270.579C159.534 268.953 162.574 266.586 164.992 263.646L164.975 263.68ZM136.704 246.153L140.971 225.075C141.152 224.12 141.679 223.266 142.45 222.674C143.221 222.082 144.183 221.795 145.152 221.867C146.101 221.785 147.045 222.071 147.789 222.665C148.534 223.258 149.022 224.115 149.154 225.058L153.421 246.135C153.662 247.311 153.633 248.526 153.337 249.689C153.042 250.852 152.487 251.933 151.714 252.851C150.872 253.791 149.84 254.543 148.687 255.058C147.535 255.572 146.287 255.838 145.024 255.838C143.762 255.838 142.514 255.572 141.361 255.058C140.208 254.543 139.177 253.791 138.334 252.851C137.577 251.928 137.038 250.847 136.756 249.688C136.473 248.528 136.456 247.32 136.704 246.153Z" fill="#161335"/>
</g>
<defs>
<clipPath id="clip0_26_411">
<rect width="512" height="512" fill="white"/>
</clipPath>
</defs>
</svg>
