<svg width="41" height="41" viewBox="0 0 41 41" fill="none" xmlns="http://www.w3.org/2000/svg">
<g clip-path="url(#clip0_44_2544)">
<path d="M30.119 32.9074H23.4259V4.12697C23.4259 3.51208 23.2566 2.90908 22.9364 2.38414C22.6162 1.8592 22.1575 1.43263 21.6108 1.15125C21.0641 0.869864 20.4504 0.744547 19.8371 0.789052C19.2239 0.833557 18.6347 1.04616 18.1343 1.40354L8.76397 8.09666C8.04167 8.61251 7.55387 9.39416 7.40789 10.2697C7.26191 11.1452 7.46971 12.0428 7.98556 12.7651C8.50141 13.4874 9.28306 13.9752 10.1586 14.1212C11.0341 14.2672 11.9317 14.0594 12.654 13.5435L16.7328 10.63V32.9074H10.0397C9.15211 32.9074 8.3009 33.26 7.6733 33.8876C7.0457 34.5152 6.69312 35.3664 6.69312 36.2539C6.69312 37.1415 7.0457 37.9927 7.6733 38.6203C8.3009 39.2479 9.15211 39.6005 10.0397 39.6005H30.119C31.0066 39.6005 31.8578 39.2479 32.4854 38.6203C33.113 37.9927 33.4656 37.1415 33.4656 36.2539C33.4656 35.3664 33.113 34.5152 32.4854 33.8876C31.8578 33.26 31.0066 32.9074 30.119 32.9074Z" fill="white"/>
<path d="M21.418 4.12699V32.9074H23.426V4.12699C23.4263 3.6016 23.3028 3.08352 23.0653 2.61484C22.8279 2.14617 22.4832 1.74011 22.0594 1.42965C21.6355 1.11919 21.1444 0.913084 20.6259 0.828075C20.1075 0.743065 19.5762 0.781549 19.0754 0.940399C19.7551 1.15171 20.3491 1.57509 20.7707 2.14851C21.1922 2.72194 21.4191 3.41529 21.418 4.12699Z" fill="white"/>
<path d="M30.119 32.9073H28.1111C28.9986 32.9073 29.8499 33.2599 30.4775 33.8875C31.1051 34.5151 31.4576 35.3663 31.4576 36.2539C31.4576 37.1415 31.1051 37.9927 30.4775 38.6203C29.8499 39.2479 28.9986 39.6005 28.1111 39.6005H30.119C31.0066 39.6005 31.8578 39.2479 32.4854 38.6203C33.113 37.9927 33.4656 37.1415 33.4656 36.2539C33.4656 35.3663 33.113 34.5151 32.4854 33.8875C31.8578 33.2599 31.0066 32.9073 30.119 32.9073Z" fill="white"/>
<path d="M11.3783 11.4894C12.1176 11.4894 12.7169 10.8901 12.7169 10.1508C12.7169 9.41146 12.1176 8.81213 11.3783 8.81213C10.639 8.81213 10.0397 9.41146 10.0397 10.1508C10.0397 10.8901 10.639 11.4894 11.3783 11.4894Z" fill="#E8EDFC"/>
<path d="M20.0793 11.4894C20.8186 11.4894 21.418 10.8901 21.418 10.1508C21.418 9.41146 20.8186 8.81213 20.0793 8.81213C19.34 8.81213 18.7407 9.41146 18.7407 10.1508C18.7407 10.8901 19.34 11.4894 20.0793 11.4894Z" fill="#E8EDFC"/>
<path d="M11.3783 20.8597C11.1821 20.8617 10.9879 20.82 10.8097 20.7377C10.6316 20.6554 10.4741 20.5344 10.3485 20.3837C10.2229 20.2329 10.1324 20.0561 10.0836 19.866C10.0349 19.676 10.029 19.4774 10.0664 19.2848L10.4011 17.6316C10.4495 17.4086 10.5728 17.2089 10.7504 17.0657C10.9281 16.9225 11.1494 16.8444 11.3776 16.8444C11.6058 16.8444 11.8271 16.9225 12.0048 17.0657C12.1824 17.2089 12.3057 17.4086 12.3541 17.6316L12.6888 19.2848C12.7262 19.4773 12.7204 19.6757 12.6716 19.8657C12.6229 20.0556 12.5326 20.2324 12.4072 20.3831C12.2817 20.5339 12.1243 20.6549 11.9464 20.7373C11.7684 20.8197 11.5744 20.8615 11.3783 20.8597Z" fill="#E8EDFC"/>
<path d="M10.0397 39.6006H12.0476C11.16 39.6006 10.3088 39.248 9.68124 38.6204C9.05363 37.9928 8.70105 37.1416 8.70105 36.254C8.70105 35.3665 9.05363 34.5153 9.68124 33.8877C10.3088 33.2601 11.16 32.9075 12.0476 32.9075H10.0397C9.15211 32.9075 8.3009 33.2601 7.6733 33.8877C7.0457 34.5153 6.69312 35.3665 6.69312 36.254C6.69312 37.1416 7.0457 37.9928 7.6733 38.6204C8.3009 39.248 9.15211 39.6006 10.0397 39.6006Z" fill="white"/>
<path d="M8.76395 8.0967C8.11441 8.5574 7.65102 9.23519 7.45749 10.0076C7.26395 10.7801 7.35301 11.5963 7.70859 12.3088C8.06417 13.0214 8.66283 13.5833 9.39644 13.8931C10.1301 14.2028 10.9503 14.2401 11.7089 13.998C11.1168 13.8118 10.5884 13.4641 10.1829 12.9941C9.77752 12.5241 9.51118 11.9504 9.41384 11.3374C9.3165 10.7244 9.39203 10.0964 9.63192 9.52388C9.87182 8.95142 10.2666 8.45718 10.7719 8.0967C20.9494 0.82797 20.331 1.18204 21.092 0.945099C20.5978 0.782994 20.0722 0.740028 19.5582 0.819706C19.0442 0.899384 18.5563 1.09945 18.1343 1.40358L8.76395 8.0967Z" fill="white"/>
<path d="M18.7407 10.63L16.7328 12.0643V32.9074H18.7407V10.63Z" fill="white"/>
<path d="M16.0635 27.5529H17.4021V32.9074H16.0635V27.5529Z" fill="white"/>
<path d="M16.7328 30.8994C17.1024 30.8994 17.4021 30.5998 17.4021 30.2301C17.4021 29.8605 17.1024 29.5608 16.7328 29.5608C16.3631 29.5608 16.0635 29.8605 16.0635 30.2301C16.0635 30.5998 16.3631 30.8994 16.7328 30.8994Z" fill="#161335"/>
<path d="M6.0238 36.2539C6.02487 37.3186 6.44831 38.3395 7.2012 39.0924C7.95409 39.8453 8.97493 40.2687 10.0397 40.2698H30.119C31.1841 40.2698 32.2056 39.8467 32.9587 39.0935C33.7118 38.3404 34.1349 37.319 34.1349 36.2539C34.1349 35.1888 33.7118 34.1674 32.9587 33.4142C32.2056 32.6611 31.1841 32.238 30.119 32.238H24.0952V4.12691C24.0953 3.38906 23.892 2.66546 23.5078 2.03554C23.1236 1.40562 22.5732 0.893728 21.9172 0.556056C21.2611 0.218383 20.5247 0.0679837 19.7888 0.121365C19.0529 0.174746 18.3459 0.429844 17.7455 0.858659L8.3751 7.55178C7.51999 8.17531 6.94558 9.11117 6.77674 10.1559C6.6079 11.2006 6.85827 12.2698 7.47343 13.1309C8.0886 13.9921 9.01882 14.5756 10.0619 14.7546C11.1049 14.9336 12.1765 14.6937 13.0435 14.0869L16.0635 11.9304V27.5528C16.0635 27.7303 16.134 27.9006 16.2595 28.0261C16.385 28.1516 16.5553 28.2221 16.7328 28.2221C16.9103 28.2221 17.0806 28.1516 17.2061 28.0261C17.3316 27.9006 17.4021 27.7303 17.4021 27.5528V10.6299H17.3901C17.3948 10.4916 17.3552 10.3553 17.2769 10.2411C17.1738 10.0968 17.0176 9.99928 16.8427 9.97003C16.6678 9.94079 16.4884 9.98219 16.3439 10.0851L12.2651 12.9986C11.6873 13.4114 10.9692 13.5776 10.2688 13.4609C9.56844 13.3442 8.94309 12.954 8.53038 12.3762C8.11766 11.7984 7.95138 11.0803 8.06811 10.3799C8.18485 9.67948 8.57503 9.05414 9.15284 8.64142L18.5232 1.9483C18.9235 1.66237 19.3948 1.49226 19.8854 1.45663C20.3761 1.421 20.867 1.52123 21.3044 1.74633C21.7418 1.97142 22.1088 2.31268 22.3649 2.73263C22.6211 3.15258 22.7566 3.63499 22.7566 4.12691V32.9073C22.7566 33.0848 22.8271 33.2551 22.9526 33.3806C23.0782 33.5061 23.2484 33.5766 23.4259 33.5766H30.119C30.8291 33.5766 31.5101 33.8587 32.0121 34.3608C32.5142 34.8629 32.7963 35.5438 32.7963 36.2539C32.7963 36.9639 32.5142 37.6449 32.0121 38.147C31.5101 38.6491 30.8291 38.9311 30.119 38.9311H10.0397C9.32963 38.9311 8.64866 38.6491 8.14658 38.147C7.64449 37.6449 7.36243 36.9639 7.36243 36.2539C7.36243 35.5438 7.64449 34.8629 8.14658 34.3608C8.64866 33.8587 9.32963 33.5766 10.0397 33.5766H16.7328C16.9103 33.5766 17.0806 33.5061 17.2061 33.3806C17.3316 33.2551 17.4021 33.0848 17.4021 32.9073C17.4021 32.7298 17.3316 32.5596 17.2061 32.4341C17.0806 32.3085 16.9103 32.238 16.7328 32.238H10.0397C8.97493 32.2391 7.95409 32.6625 7.2012 33.4154C6.44831 34.1683 6.02487 35.1891 6.0238 36.2539Z" fill="#161335"/>
<path d="M9.37036 10.1508C9.37036 10.5479 9.48812 10.9361 9.70876 11.2663C9.92939 11.5965 10.243 11.8539 10.6099 12.0059C10.9768 12.1578 11.3805 12.1976 11.77 12.1201C12.1595 12.0426 12.5173 11.8514 12.7981 11.5706C13.0789 11.2898 13.2702 10.932 13.3477 10.5425C13.4251 10.153 13.3854 9.74926 13.2334 9.38235C13.0814 9.01545 12.824 8.70186 12.4938 8.48122C12.1636 8.26059 11.7754 8.14282 11.3783 8.14282C10.8458 8.14282 10.335 8.35437 9.95847 8.73093C9.58191 9.10749 9.37036 9.61822 9.37036 10.1508ZM12.0476 10.1508C12.0476 10.2831 12.0084 10.4125 11.9348 10.5226C11.8613 10.6327 11.7567 10.7185 11.6344 10.7691C11.5121 10.8198 11.3776 10.833 11.2477 10.8072C11.1179 10.7814 10.9986 10.7176 10.905 10.624C10.8114 10.5304 10.7477 10.4112 10.7218 10.2813C10.696 10.1515 10.7093 10.0169 10.7599 9.89462C10.8106 9.77232 10.8964 9.66779 11.0064 9.59425C11.1165 9.5207 11.2459 9.48145 11.3783 9.48145C11.5558 9.48145 11.7261 9.55196 11.8516 9.67748C11.9771 9.803 12.0476 9.97325 12.0476 10.1508Z" fill="#161335"/>
<path d="M20.0793 12.1587C20.4765 12.1587 20.8647 12.0409 21.1949 11.8203C21.5251 11.5997 21.7825 11.2861 21.9344 10.9192C22.0864 10.5523 22.1262 10.1485 22.0487 9.75903C21.9712 9.36953 21.78 9.01175 21.4992 8.73093C21.2184 8.45012 20.8606 8.25888 20.4711 8.18141C20.0816 8.10393 19.6778 8.14369 19.3109 8.29567C18.944 8.44764 18.6304 8.70501 18.4098 9.03521C18.1892 9.36541 18.0714 9.75363 18.0714 10.1508C18.0714 10.6833 18.283 11.194 18.6595 11.5706C19.0361 11.9471 19.5468 12.1587 20.0793 12.1587ZM20.0793 9.48145C20.2117 9.48145 20.3411 9.5207 20.4512 9.59425C20.5613 9.66779 20.6471 9.77232 20.6977 9.89462C20.7484 10.0169 20.7616 10.1515 20.7358 10.2813C20.71 10.4112 20.6462 10.5304 20.5526 10.624C20.459 10.7176 20.3398 10.7814 20.2099 10.8072C20.0801 10.833 19.9455 10.8198 19.8232 10.7691C19.7009 10.7185 19.5964 10.6327 19.5228 10.5226C19.4493 10.4125 19.41 10.2831 19.41 10.1508C19.41 9.97325 19.4806 9.803 19.6061 9.67748C19.7316 9.55196 19.9018 9.48145 20.0793 9.48145Z" fill="#161335"/>
<path d="M18.0714 37.5925C18.2489 37.5925 18.4192 37.522 18.5447 37.3965C18.6702 37.271 18.7407 37.1007 18.7407 36.9232C18.7407 36.5682 18.8818 36.2277 19.1328 35.9767C19.3838 35.7256 19.7243 35.5846 20.0793 35.5846C20.4344 35.5846 20.7749 35.7256 21.0259 35.9767C21.2769 36.2277 21.418 36.5682 21.418 36.9232C21.418 37.1007 21.4885 37.271 21.614 37.3965C21.7395 37.522 21.9098 37.5925 22.0873 37.5925C22.2648 37.5925 22.435 37.522 22.5606 37.3965C22.6861 37.271 22.7566 37.1007 22.7566 36.9232C22.7566 36.2132 22.4745 35.5322 21.9724 35.0301C21.4704 34.528 20.7894 34.246 20.0793 34.246C19.3693 34.246 18.6883 34.528 18.1862 35.0301C17.6842 35.5322 17.4021 36.2132 17.4021 36.9232C17.4021 37.1007 17.4726 37.271 17.5981 37.3965C17.7237 37.522 17.8939 37.5925 18.0714 37.5925Z" fill="#161335"/>
<path d="M12.9398 20.7928C13.1254 20.5668 13.2582 20.3023 13.3285 20.0185C13.3988 19.7347 13.4048 19.4387 13.346 19.1523L13.0114 17.4998C12.9413 17.1219 12.7394 16.7813 12.4415 16.5386C12.1436 16.2958 11.7691 16.1668 11.385 16.1745C11.0004 16.1691 10.6262 16.2984 10.3269 16.54C10.0277 16.7815 9.82236 17.1201 9.74649 17.4971L9.41183 19.1496C9.3531 19.4361 9.3591 19.732 9.42939 20.0158C9.49968 20.2996 9.63249 20.5642 9.8181 20.7901C10.0078 21.0207 10.2462 21.2064 10.5162 21.3339C10.7862 21.4614 11.081 21.5275 11.3796 21.5275C11.6782 21.5275 11.9731 21.4614 12.243 21.3339C12.513 21.2064 12.7514 21.0207 12.9411 20.7901L12.9398 20.7928ZM10.7223 19.418L11.057 17.7648C11.0713 17.6899 11.1125 17.6229 11.173 17.5765C11.2335 17.5301 11.3089 17.5075 11.385 17.5131C11.4594 17.5068 11.5334 17.5292 11.5918 17.5757C11.6502 17.6223 11.6885 17.6895 11.6989 17.7635L12.0335 19.4167C12.0524 19.5089 12.0502 19.6042 12.027 19.6954C12.0038 19.7866 11.9603 19.8714 11.8997 19.9434C11.8336 20.0171 11.7527 20.0761 11.6623 20.1165C11.5718 20.1568 11.4739 20.1777 11.3749 20.1777C11.2759 20.1777 11.178 20.1568 11.0876 20.1165C10.9972 20.0761 10.9163 20.0171 10.8502 19.9434C10.7908 19.871 10.7485 19.7862 10.7264 19.6953C10.7042 19.6043 10.7029 19.5096 10.7223 19.418Z" fill="#161335"/>
</g>
<defs>
<clipPath id="clip0_44_2544">
<rect width="40.1587" height="40.1587" fill="white" transform="translate(0 0.111084)"/>
</clipPath>
</defs>
</svg>
