<svg width="41" height="41" viewBox="0 0 41 41" fill="none" xmlns="http://www.w3.org/2000/svg">
<g clip-path="url(#clip0_51_1621)">
<path d="M26.4399 3.04497L37.7513 1.05042L31.761 12.3685L26.4399 3.04497Z" fill="#E8EDFC"/>
<path d="M35.5365 1.44062L30.7188 10.5433L31.7609 12.3685L37.7512 1.05042L35.5365 1.44062Z" fill="white"/>
<path d="M30.3418 2.3556L34.3711 7.42898L35.8435 4.65134L33.4742 1.80676L30.3418 2.3556Z" fill="#E8EDFC"/>
<path d="M33.4744 1.80676L31.7222 2.11398L33.8359 4.65134L33.1672 5.91299L34.3713 7.42898L35.8438 4.65134L33.4744 1.80676Z" fill="white"/>
<path d="M32.3967 39.8705H8.30148C7.63526 39.8705 6.98421 39.6716 6.4317 39.2994C5.87919 38.9271 5.45036 38.3984 5.20012 37.781C4.94988 37.1635 4.88963 36.4855 5.02707 35.8336C5.16451 35.1817 5.49339 34.5857 5.9716 34.1218L23.3904 17.2304C26.7424 13.9802 24.8308 8.02934 20.1155 7.75626C19.1139 7.69795 18.111 7.84474 17.1682 8.18764C16.2254 8.53055 15.3625 9.06234 14.6324 9.75044C13.9023 10.4385 13.3204 11.2685 12.9223 12.1894C12.5242 13.1103 12.3184 14.1027 12.3173 15.106C12.3173 15.9935 11.9648 16.8448 11.3372 17.4724C10.7096 18.1 9.85835 18.4525 8.97079 18.4525C8.08322 18.4525 7.23201 18.1 6.60441 17.4724C5.97681 16.8448 5.62423 15.9935 5.62423 15.106C5.62635 13.1915 6.01916 11.2975 6.77862 9.54008C7.53808 7.78264 8.64821 6.19867 10.0411 4.88515C11.4339 3.57162 13.0802 2.55617 14.8791 1.90094C16.678 1.24572 18.5917 0.964504 20.503 1.07452C30.9443 1.6769 35.6496 14.6676 28.0495 22.0354L16.5594 33.1774H32.3967C33.2843 33.1774 34.1355 33.53 34.7631 34.1576C35.3907 34.7852 35.7433 35.6364 35.7433 36.524C35.7433 37.4115 35.3907 38.2627 34.7631 38.8903C34.1355 39.5179 33.2843 39.8705 32.3967 39.8705Z" fill="white"/>
<path d="M26.0414 22.0353L14.5513 33.1774H16.5592L28.0493 22.0353C35.9867 14.3403 30.5485 0.314154 18.7425 1.09792C29.0499 1.90511 33.5604 14.7459 26.0414 22.0353Z" fill="white"/>
<path d="M10.3094 15.106C10.3076 15.8158 10.0795 16.5065 9.65817 17.0778C9.23688 17.649 8.64438 18.0711 7.9668 18.2825C8.46686 18.4442 8.9981 18.4851 9.51702 18.4018C10.0359 18.3186 10.5277 18.1137 10.9522 17.8038C11.3766 17.4939 11.7216 17.0878 11.9589 16.6189C12.1962 16.15 12.319 15.6315 12.3173 15.106C12.3204 13.3348 12.9614 11.624 14.123 10.2869C15.2846 8.94978 16.889 8.07587 18.6423 7.82519C17.6036 7.68375 16.5465 7.7664 15.5424 8.06758C14.5382 8.36876 13.6102 8.88148 12.8207 9.57126C12.0313 10.261 11.3987 11.1119 10.9655 12.0666C10.5323 13.0212 10.3086 14.0576 10.3094 15.106Z" fill="white"/>
<path d="M32.3966 33.1774H30.3887C31.2762 33.1774 32.1274 33.53 32.755 34.1576C33.3826 34.7852 33.7352 35.6364 33.7352 36.5239C33.7352 37.4115 33.3826 38.2627 32.755 38.8903C32.1274 39.5179 31.2762 39.8705 30.3887 39.8705H32.3966C33.2842 39.8705 34.1354 39.5179 34.763 38.8903C35.3906 38.2627 35.7432 37.4115 35.7432 36.5239C35.7432 35.6364 35.3906 34.7852 34.763 34.1576C34.1354 33.53 33.2842 33.1774 32.3966 33.1774Z" fill="white"/>
<path d="M15.6638 6.40491C16.4031 6.40491 17.0024 5.80559 17.0024 5.06629C17.0024 4.32698 16.4031 3.72766 15.6638 3.72766C14.9245 3.72766 14.3252 4.32698 14.3252 5.06629C14.3252 5.80559 14.9245 6.40491 15.6638 6.40491Z" fill="#E8EDFC"/>
<path d="M22.3572 6.40491C23.0965 6.40491 23.6958 5.80559 23.6958 5.06629C23.6958 4.32698 23.0965 3.72766 22.3572 3.72766C21.6179 3.72766 21.0186 4.32698 21.0186 5.06629C21.0186 5.80559 21.6179 6.40491 22.3572 6.40491Z" fill="#E8EDFC"/>
<path d="M5.62402 15.106C5.62502 15.6312 5.74989 16.1487 5.98848 16.6166C6.22707 17.0845 6.57266 17.4895 6.99717 17.7987C7.42169 18.1079 7.91315 18.3126 8.43165 18.3962C8.95015 18.4798 9.48105 18.44 9.98125 18.2799C9.30185 18.0714 8.70713 17.6507 8.28433 17.0795C7.86152 16.5083 7.63289 15.8166 7.63196 15.106C7.63665 11.5538 8.98467 8.13483 11.4055 5.53527C13.8263 2.9357 17.1407 1.34792 20.6835 1.09058C18.7587 0.95373 16.8262 1.21452 15.0065 1.85672C13.1867 2.49892 11.5186 3.50878 10.106 4.82346C8.6934 6.13814 7.56648 7.7295 6.7954 9.49849C6.02433 11.2675 5.62559 13.1762 5.62402 15.106Z" fill="white"/>
<path d="M8.30147 39.8705H10.3094C9.64319 39.8705 8.99215 39.6716 8.43964 39.2993C7.88713 38.9271 7.4583 38.3984 7.20806 37.781C6.95782 37.1635 6.89756 36.4854 7.035 35.8336C7.17244 35.1817 7.50132 34.5856 7.97954 34.1218L25.3984 17.2304C28.9591 13.7774 26.6594 6.94304 20.6215 7.82251H20.6503H20.6396C24.962 8.49183 26.6132 14.1 23.3904 17.225L5.9716 34.1218C5.49339 34.5856 5.16451 35.1817 5.02707 35.8336C4.88963 36.4854 4.94988 37.1635 5.20012 37.781C5.45036 38.3984 5.87919 38.9271 6.4317 39.2993C6.98421 39.6716 7.63526 39.8705 8.30147 39.8705Z" fill="white"/>
<path d="M5.50098 33.6448L9.34551 29.918L10.2772 30.8792L6.43266 34.6059L5.50098 33.6448Z" fill="white"/>
<path d="M7.90689 32.9271C7.81899 32.9275 7.73186 32.9107 7.65048 32.8775C7.56909 32.8443 7.49503 32.7954 7.43254 32.7336C7.30633 32.6088 7.23487 32.4389 7.2339 32.2614C7.23292 32.0839 7.3025 31.9133 7.42733 31.7871C7.55216 31.6609 7.72201 31.5894 7.89953 31.5884H7.90689C8.0844 31.5884 8.25464 31.659 8.38017 31.7845C8.50569 31.91 8.5762 32.0802 8.5762 32.2578C8.5762 32.4353 8.50569 32.6055 8.38017 32.731C8.25464 32.8565 8.0844 32.9271 7.90689 32.9271Z" fill="#161335"/>
<path d="M6.45202 33.6553C6.32837 33.5279 6.15921 33.4549 5.98172 33.4522C5.80424 33.4496 5.63298 33.5176 5.50561 33.6412C4.93172 34.1978 4.53702 34.9131 4.37206 35.6953C4.2071 36.4776 4.27939 37.2913 4.57966 38.0322C4.87994 38.7732 5.39453 39.4077 6.05755 39.8544C6.72058 40.3011 7.50185 40.5398 8.30132 40.5398H32.3966C33.4616 40.5398 34.4831 40.1167 35.2362 39.3636C35.9893 38.6105 36.4124 37.589 36.4124 36.5239C36.4124 35.4589 35.9893 34.4374 35.2362 33.6843C34.4831 32.9312 33.4616 32.5081 32.3966 32.5081H18.2112L28.5145 22.5159C29.8561 21.2336 30.9023 19.6744 31.5803 17.9469C32.2583 16.2194 32.5519 14.3649 32.4407 12.5124L38.3427 1.36363C38.4015 1.25284 38.4279 1.12778 38.419 1.0027C38.4101 0.877624 38.3662 0.75756 38.2924 0.656191C38.2186 0.554823 38.1178 0.476228 38.0015 0.429363C37.8852 0.382498 37.7581 0.369248 37.6346 0.391123L26.5769 2.34083C24.7645 1.18874 22.6861 0.522385 20.5417 0.405848C18.5393 0.290542 16.5344 0.585128 14.6498 1.27157C12.7652 1.95801 11.0406 3.02187 9.5814 4.39801C8.12224 5.77415 6.95929 7.43362 6.16375 9.27483C5.36821 11.116 4.95682 13.1002 4.95476 15.1059C4.95476 16.171 5.37786 17.1925 6.13099 17.9456C6.88411 18.6987 7.90556 19.1218 8.97064 19.1218C10.0357 19.1218 11.0572 18.6987 11.8103 17.9456C12.5634 17.1925 12.9865 16.171 12.9865 15.1059C12.9877 14.1939 13.1751 13.2918 13.5371 12.4547C13.8991 11.6176 14.4282 10.8632 15.092 10.2377C15.7557 9.61227 16.5402 9.12888 17.3973 8.81716C18.2543 8.50543 19.166 8.37195 20.0765 8.42488C20.9703 8.46786 21.8307 8.77782 22.5466 9.31471C23.2624 9.85161 23.8009 10.5908 24.0924 11.4368C24.443 12.3386 24.5195 13.3239 24.3122 14.269C24.1049 15.2141 23.623 16.0769 22.9271 16.7491L9.34947 29.9138C9.28354 29.9743 9.2304 30.0474 9.1932 30.1287C9.156 30.2101 9.13549 30.2981 9.13288 30.3875C9.13027 30.477 9.14562 30.566 9.17802 30.6494C9.21041 30.7328 9.2592 30.8088 9.32149 30.8731C9.38378 30.9373 9.45832 30.9884 9.54069 31.0233C9.62306 31.0582 9.7116 31.0762 9.80106 31.0763C9.89053 31.0765 9.97911 31.0586 10.0616 31.0239C10.144 30.9892 10.2187 30.9383 10.2811 30.8743L23.8561 17.7109C24.7317 16.8532 25.3386 15.7591 25.6028 14.5623C25.867 13.3654 25.7771 12.1175 25.344 10.9709C24.9574 9.88468 24.2586 8.93678 23.3354 8.24616C22.4121 7.55554 21.3054 7.15296 20.1542 7.08893C19.0611 7.01911 17.9654 7.17633 16.9361 7.5507C15.9067 7.92506 14.966 8.50847 14.1732 9.26419C13.378 10.0157 12.744 10.9211 12.3099 11.9254C11.8757 12.9297 11.6505 14.0118 11.6479 15.1059C11.6479 15.816 11.3658 16.497 10.8637 16.999C10.3617 17.5011 9.68069 17.7832 8.97064 17.7832C8.26059 17.7832 7.57962 17.5011 7.07754 16.999C6.57545 16.497 6.29339 15.816 6.29339 15.1059C6.29538 13.2825 6.66948 11.4787 7.39279 9.80494C8.1161 8.13114 9.1734 6.62257 10.5 5.37156C11.8265 4.12056 13.3945 3.15345 15.1078 2.52944C16.8211 1.90543 18.6437 1.63764 20.4641 1.74246C22.6598 1.86264 24.7711 2.62842 26.5333 3.94378C28.2956 5.25913 29.6302 7.0655 30.3699 9.13635C31.1797 11.2509 31.3471 13.5575 30.8509 15.7668C30.3547 17.9761 29.2171 19.9896 27.5809 21.5548L16.0935 32.6968C15.9976 32.7897 15.9317 32.9092 15.9043 33.0398C15.8769 33.1705 15.8891 33.3063 15.9395 33.4299C15.9899 33.5536 16.076 33.6593 16.187 33.7336C16.2979 33.8078 16.4285 33.8472 16.562 33.8467H32.3966C33.1066 33.8467 33.7876 34.1288 34.2897 34.6308C34.7917 35.1329 35.0738 35.8139 35.0738 36.5239C35.0738 37.234 34.7917 37.915 34.2897 38.417C33.7876 38.9191 33.1066 39.2012 32.3966 39.2012H8.30132C7.76823 39.2013 7.24723 39.0423 6.80509 38.7444C6.36294 38.4466 6.01977 38.0236 5.81954 37.5295C5.61931 37.0354 5.57114 36.4928 5.6812 35.9712C5.79125 35.4496 6.05453 34.9727 6.43729 34.6017C6.56474 34.4781 6.63789 34.309 6.64065 34.1315C6.64341 33.954 6.57556 33.7827 6.45202 33.6553ZM36.5189 1.94727L35.7197 3.45992L34.7258 2.26319L36.5189 1.94727ZM33.2064 2.53158L35.043 4.7363L34.2606 6.21347L31.5659 2.82073L33.2064 2.53158ZM28.046 3.44185L30.068 3.0851L33.5792 7.50256L32.1088 10.2802C31.9817 9.73402 31.821 9.1962 31.6275 8.66984C30.8895 6.6552 29.6581 4.85774 28.046 3.44185Z" fill="#161335"/>
<path d="M13.6558 5.06629C13.6558 5.46342 13.7735 5.85163 13.9942 6.18184C14.2148 6.51204 14.5284 6.7694 14.8953 6.92138C15.2622 7.07335 15.6659 7.11312 16.0554 7.03564C16.4449 6.95816 16.8027 6.76693 17.0835 6.48611C17.3643 6.2053 17.5556 5.84752 17.6331 5.45801C17.7105 5.06851 17.6708 4.66478 17.5188 4.29788C17.3668 3.93098 17.1095 3.61738 16.7792 3.39675C16.449 3.17611 16.0608 3.05835 15.6637 3.05835C15.1312 3.05835 14.6204 3.2699 14.2439 3.64646C13.8673 4.02302 13.6558 4.53375 13.6558 5.06629ZM16.333 5.06629C16.333 5.19866 16.2938 5.32807 16.2202 5.43814C16.1467 5.5482 16.0421 5.63399 15.9198 5.68465C15.7975 5.73531 15.663 5.74856 15.5331 5.72274C15.4033 5.69691 15.284 5.63317 15.1904 5.53956C15.0968 5.44596 15.0331 5.3267 15.0072 5.19686C14.9814 5.06703 14.9947 4.93245 15.0453 4.81015C15.096 4.68785 15.1818 4.58332 15.2918 4.50977C15.4019 4.43623 15.5313 4.39697 15.6637 4.39697C15.8412 4.39697 16.0115 4.46749 16.137 4.59301C16.2625 4.71853 16.333 4.88877 16.333 5.06629Z" fill="#161335"/>
<path d="M20.3491 5.06629C20.3491 5.46342 20.4669 5.85163 20.6875 6.18184C20.9082 6.51204 21.2218 6.7694 21.5887 6.92138C21.9556 7.07335 22.3593 7.11312 22.7488 7.03564C23.1383 6.95816 23.4961 6.76693 23.7769 6.48611C24.0577 6.2053 24.2489 5.84752 24.3264 5.45801C24.4039 5.06851 24.3641 4.66478 24.2121 4.29788C24.0602 3.93098 23.8028 3.61738 23.4726 3.39675C23.1424 3.17611 22.7542 3.05835 22.3571 3.05835C21.8245 3.05835 21.3138 3.2699 20.9372 3.64646C20.5607 4.02302 20.3491 4.53375 20.3491 5.06629ZM23.0264 5.06629C23.0264 5.19866 22.9871 5.32807 22.9136 5.43814C22.84 5.5482 22.7355 5.63399 22.6132 5.68465C22.4909 5.73531 22.3563 5.74856 22.2265 5.72274C22.0966 5.69691 21.9774 5.63317 21.8838 5.53956C21.7902 5.44596 21.7264 5.3267 21.7006 5.19686C21.6748 5.06703 21.688 4.93245 21.7387 4.81015C21.7894 4.68785 21.8751 4.58332 21.9852 4.50977C22.0953 4.43623 22.2247 4.39697 22.3571 4.39697C22.5346 4.39697 22.7048 4.46749 22.8303 4.59301C22.9559 4.71853 23.0264 4.88877 23.0264 5.06629Z" fill="#161335"/>
<path d="M15.1224 37.4663C15.9893 37.4545 16.8458 37.2756 17.645 36.9396C17.8096 36.8729 17.9409 36.7436 18.0102 36.5801C18.0794 36.4166 18.0808 36.2323 18.0142 36.0678C17.9475 35.9032 17.8182 35.7719 17.6547 35.7027C17.4912 35.6335 17.3069 35.632 17.1424 35.6987C16.5297 36.0015 15.8523 36.1499 15.1691 36.1309C14.4859 36.1119 13.8178 35.926 13.2229 35.5896C12.728 35.2396 12.326 34.7742 12.0515 34.2337C11.7771 33.6933 11.6386 33.094 11.648 32.488C11.6427 32.3105 11.5671 32.1423 11.4378 32.0206C11.3085 31.8988 11.1361 31.8334 10.9586 31.8387C10.7811 31.8441 10.613 31.9197 10.4912 32.049C10.3695 32.1783 10.3041 32.3506 10.3094 32.5281C10.3048 33.3503 10.5012 34.1611 10.8815 34.8901C11.2618 35.619 11.8144 36.244 12.4913 36.7107C13.2753 37.215 14.1903 37.4778 15.1224 37.4663Z" fill="#161335"/>
</g>
<defs>
<clipPath id="clip0_51_1621">
<rect width="40.1587" height="40.1587" fill="white" transform="translate(0.269531 0.381104)"/>
</clipPath>
</defs>
</svg>
