<svg width="512" height="512" viewBox="0 0 512 512" fill="none" xmlns="http://www.w3.org/2000/svg">
<g clip-path="url(#clip0_26_449)">
<path d="M333.653 33.9627L477.867 8.53333L401.493 152.832L333.653 33.9627Z" fill="#E8EDFC"/>
<path d="M449.63 13.5083L388.207 129.562L401.493 152.832L477.867 8.53333L449.63 13.5083Z" fill="#FFB500"/>
<path d="M383.403 25.1733L434.773 89.856L453.547 54.4427L423.339 18.176L383.403 25.1733Z" fill="#E8EDFC"/>
<path d="M423.339 18.176L400.998 22.0928L427.947 54.4427L419.422 70.528L434.773 89.856L453.547 54.4427L423.339 18.176Z" fill="#FFB500"/>
<path d="M409.6 503.467H102.4C93.9061 503.466 85.6056 500.931 78.5614 496.185C71.5172 491.439 66.0499 484.698 62.8595 476.826C59.6691 468.954 58.9009 460.309 60.6532 451.998C62.4055 443.687 66.5985 436.088 72.6954 430.174L294.775 214.818C337.51 173.38 313.139 97.5104 253.022 94.0288C240.253 93.2853 227.466 95.1568 215.445 99.5286C203.425 103.9 192.424 110.68 183.115 119.453C173.807 128.226 166.388 138.807 161.313 150.548C156.238 162.289 153.613 174.942 153.6 187.733C153.6 199.049 149.105 209.902 141.103 217.903C133.102 225.905 122.249 230.4 110.933 230.4C99.6174 230.4 88.7649 225.905 80.7634 217.903C72.7618 209.902 68.2666 199.049 68.2666 187.733C68.2936 163.324 73.3017 139.178 82.9844 116.771C92.6671 94.365 106.821 74.1705 124.579 57.4238C142.337 40.6771 163.325 27.7306 186.26 19.3769C209.195 11.0232 233.594 7.43788 257.963 8.84052C391.083 16.5205 451.072 182.144 354.176 276.079L207.684 418.133H409.6C420.916 418.133 431.768 422.629 439.77 430.63C447.771 438.632 452.267 449.484 452.267 460.8C452.267 472.116 447.771 482.968 439.77 490.97C431.768 498.971 420.916 503.467 409.6 503.467Z" fill="#FFB500"/>
<path d="M328.576 276.079L182.084 418.133H207.684L354.176 276.079C455.373 177.971 386.039 -0.85335 235.52 9.13918C366.933 19.4304 424.439 183.142 328.576 276.079Z" fill="#FFB500"/>
<path d="M128 187.733C127.977 196.783 125.068 205.589 119.697 212.873C114.326 220.156 106.772 225.537 98.1333 228.233C104.509 230.294 111.282 230.815 117.898 229.754C124.513 228.693 130.784 226.08 136.195 222.129C141.607 218.178 146.005 213.001 149.03 207.022C152.056 201.044 153.622 194.434 153.6 187.733C153.639 165.152 161.812 143.34 176.621 126.293C191.431 109.246 211.886 98.1037 234.24 94.9077C220.996 93.1045 207.52 94.1582 194.717 97.9981C181.915 101.838 170.083 108.375 160.018 117.169C149.953 125.963 141.888 136.811 136.365 148.983C130.842 161.154 127.99 174.367 128 187.733Z" fill="#FFB500"/>
<path d="M409.6 418.133H384C395.316 418.133 406.168 422.629 414.17 430.63C422.171 438.632 426.667 449.484 426.667 460.8C426.667 472.116 422.171 482.968 414.17 490.97C406.168 498.971 395.316 503.467 384 503.467H409.6C420.916 503.467 431.768 498.971 439.77 490.97C447.771 482.968 452.267 472.116 452.267 460.8C452.267 449.484 447.771 438.632 439.77 430.63C431.768 422.629 420.916 418.133 409.6 418.133Z" fill="#FFB500"/>
<path d="M196.267 76.8C205.692 76.8 213.333 69.159 213.333 59.7333C213.333 50.3077 205.692 42.6667 196.267 42.6667C186.841 42.6667 179.2 50.3077 179.2 59.7333C179.2 69.159 186.841 76.8 196.267 76.8Z" fill="#E8EDFC"/>
<path d="M281.6 76.8C291.026 76.8 298.667 69.159 298.667 59.7333C298.667 50.3077 291.026 42.6667 281.6 42.6667C272.174 42.6667 264.533 50.3077 264.533 59.7333C264.533 69.159 272.174 76.8 281.6 76.8Z" fill="#E8EDFC"/>
<path d="M68.2666 187.733C68.2793 194.429 69.8713 201.028 72.9132 206.993C75.9551 212.958 80.3612 218.121 85.7734 222.064C91.1857 226.006 97.4516 228.616 104.062 229.682C110.673 230.748 117.441 230.24 123.819 228.198C115.157 225.541 107.574 220.177 102.184 212.895C96.7934 205.612 93.8785 196.794 93.8666 187.733C93.9264 142.445 111.113 98.8553 141.977 65.7124C172.84 32.5695 215.097 12.3262 260.267 9.04531C235.726 7.30049 211.088 10.6254 187.887 18.813C164.687 27.0007 143.419 39.8759 125.409 56.6373C107.399 73.3987 93.0318 93.6876 83.201 116.241C73.3702 138.795 68.2866 163.13 68.2666 187.733Z" fill="white"/>
<path d="M102.4 503.467H128C119.506 503.466 111.206 500.931 104.161 496.185C97.1172 491.439 91.6499 484.698 88.4595 476.826C85.2691 468.954 84.5009 460.309 86.2532 451.998C88.0055 443.687 92.1985 436.088 98.2954 430.174L320.375 214.818C365.773 170.795 336.452 83.6608 259.473 94.8736H259.84H259.703C314.812 103.407 335.863 174.908 294.775 214.75L72.6954 430.174C66.5985 436.088 62.4055 443.687 60.6532 451.998C58.9009 460.309 59.6691 468.954 62.8595 476.826C66.0499 484.698 71.5172 491.439 78.5614 496.185C85.6056 500.931 93.9061 503.466 102.4 503.467Z" fill="white"/>
<path d="M66.7002 424.092L115.716 376.579L127.594 388.833L78.5786 436.346L66.7002 424.092Z" fill="white"/>
<path d="M97.3739 414.942C96.2532 414.948 95.1424 414.733 94.1047 414.31C93.067 413.887 92.1229 413.264 91.3261 412.476C89.717 410.884 88.806 408.719 88.7936 406.455C88.7811 404.192 89.6682 402.017 91.2597 400.408C92.8513 398.799 95.0168 397.888 97.28 397.875H97.3739C99.637 397.875 101.808 398.774 103.408 400.375C105.008 401.975 105.907 404.145 105.907 406.409C105.907 408.672 105.008 410.842 103.408 412.443C101.808 414.043 99.637 414.942 97.3739 414.942Z" fill="#161335"/>
<path d="M78.8223 424.226C77.246 422.602 75.0892 421.671 72.8264 421.638C70.5636 421.604 68.3801 422.471 66.7562 424.047C59.4394 431.143 54.4073 440.262 52.3042 450.236C50.201 460.209 51.1226 470.584 54.9509 480.03C58.7793 489.477 65.34 497.566 73.7932 503.261C82.2463 508.957 92.2071 512 102.4 512H409.6C423.179 512 436.202 506.606 445.804 497.004C455.406 487.402 460.8 474.379 460.8 460.8C460.8 447.221 455.406 434.198 445.804 424.596C436.202 414.994 423.179 409.6 409.6 409.6H228.744L360.107 282.206C377.211 265.857 390.548 245.979 399.193 223.954C407.837 201.929 411.581 178.285 410.163 154.667L485.41 12.5269C486.159 11.1144 486.496 9.51993 486.382 7.92526C486.269 6.33059 485.71 4.79984 484.769 3.50745C483.828 2.21507 482.543 1.21303 481.06 0.615525C479.577 0.0180232 477.956 -0.150908 476.382 0.127982L335.403 24.9856C312.296 10.2972 285.798 1.8015 258.458 0.315715C232.928 -1.15437 207.367 2.60143 183.34 11.3532C159.312 20.1049 137.324 33.6685 118.72 51.2134C100.117 68.7584 85.2898 89.9157 75.1471 113.39C65.0045 136.864 59.7595 162.162 59.7333 187.733C59.7333 201.312 65.1275 214.335 74.7294 223.937C84.3313 233.539 97.3542 238.933 110.933 238.933C124.512 238.933 137.535 233.539 147.137 223.937C156.739 214.335 162.133 201.312 162.133 187.733C162.149 176.106 164.537 164.603 169.153 153.931C173.769 143.259 180.514 133.641 188.977 125.667C197.439 117.692 207.44 111.529 218.368 107.555C229.295 103.581 240.919 101.879 252.527 102.554C263.922 103.102 274.891 107.053 284.018 113.898C293.145 120.744 300.01 130.168 303.727 140.954C308.197 152.451 309.172 165.013 306.529 177.062C303.886 189.112 297.743 200.112 288.87 208.683L115.763 376.525C114.923 377.296 114.245 378.228 113.771 379.265C113.297 380.302 113.035 381.424 113.002 382.564C112.969 383.705 113.164 384.84 113.577 385.903C113.99 386.966 114.612 387.936 115.406 388.755C116.201 389.573 117.151 390.225 118.201 390.67C119.251 391.115 120.38 391.345 121.521 391.346C122.661 391.348 123.791 391.121 124.842 390.678C125.893 390.236 126.845 389.587 127.642 388.77L300.715 220.945C311.877 210.009 319.615 196.061 322.983 180.802C326.352 165.543 325.205 149.633 319.684 135.014C314.755 121.165 305.846 109.08 294.075 100.275C282.304 91.4701 268.194 86.3374 253.517 85.5211C239.581 84.6309 225.611 86.6353 212.488 91.4083C199.364 96.1813 187.371 103.619 177.263 113.254C167.124 122.835 159.041 134.379 153.506 147.183C147.971 159.987 145.1 173.784 145.067 187.733C145.067 196.786 141.47 205.468 135.069 211.869C128.668 218.27 119.986 221.867 110.933 221.867C101.881 221.867 93.1986 218.27 86.7974 211.869C80.3961 205.468 76.7999 196.786 76.7999 187.733C76.8254 164.486 81.5949 141.489 90.8167 120.149C100.038 98.8086 113.518 79.5752 130.431 63.6257C147.344 47.6761 167.334 35.3461 189.178 27.3903C211.021 19.4344 234.259 16.0203 257.468 17.3568C285.462 18.889 312.38 28.6522 334.847 45.4222C357.315 62.1922 374.331 85.2224 383.761 111.625C394.086 138.584 396.22 167.992 389.894 196.159C383.568 224.326 369.064 249.997 348.203 269.952L201.745 412.006C200.523 413.191 199.683 414.714 199.333 416.38C198.984 418.045 199.14 419.777 199.782 421.353C200.424 422.929 201.523 424.277 202.937 425.224C204.351 426.171 206.016 426.673 207.718 426.667H409.6C418.653 426.667 427.335 430.263 433.736 436.664C440.137 443.065 443.733 451.747 443.733 460.8C443.733 469.853 440.137 478.535 433.736 484.936C427.335 491.337 418.653 494.933 409.6 494.933H102.4C95.6033 494.935 88.9609 492.907 83.3238 489.11C77.6867 485.313 73.3115 479.919 70.7587 473.62C68.2059 467.321 67.5917 460.404 68.9949 453.753C70.398 447.103 73.7546 441.023 78.6346 436.292C80.2595 434.717 81.1921 432.561 81.2274 430.298C81.2626 428.035 80.3975 425.851 78.8223 424.226ZM462.157 19.968L451.968 39.2533L439.296 23.9957L462.157 19.968ZM419.925 27.4176L443.341 55.5264L433.365 74.3595L399.01 31.104L419.925 27.4176ZM354.133 39.0229L379.913 34.4747L424.678 90.7947L405.931 126.208C404.31 119.244 402.261 112.388 399.795 105.677C390.385 79.9913 374.686 57.0747 354.133 39.0229Z" fill="#161335"/>
<path d="M170.667 59.7333C170.667 64.7965 172.168 69.746 174.981 73.9559C177.794 78.1658 181.792 81.447 186.47 83.3846C191.148 85.3222 196.295 85.8292 201.261 84.8414C206.227 83.8536 210.788 81.4155 214.369 77.8353C217.949 74.255 220.387 69.6935 221.375 64.7276C222.363 59.7617 221.856 54.6144 219.918 49.9366C217.98 45.2588 214.699 41.2607 210.489 38.4477C206.279 35.6347 201.33 34.1333 196.267 34.1333C189.477 34.1333 182.966 36.8305 178.165 41.6314C173.364 46.4323 170.667 52.9438 170.667 59.7333ZM204.8 59.7333C204.8 61.4211 204.299 63.0709 203.362 64.4742C202.424 65.8775 201.091 66.9712 199.532 67.6171C197.973 68.263 196.257 68.4319 194.602 68.1027C192.947 67.7734 191.426 66.9607 190.233 65.7673C189.039 64.5739 188.227 63.0534 187.897 61.3981C187.568 59.7428 187.737 58.027 188.383 56.4678C189.029 54.9085 190.122 53.5758 191.526 52.6381C192.929 51.7005 194.579 51.2 196.267 51.2C198.53 51.2 200.7 52.099 202.301 53.6993C203.901 55.2997 204.8 57.4701 204.8 59.7333Z" fill="#161335"/>
<path d="M256 59.7333C256 64.7965 257.501 69.746 260.314 73.9559C263.127 78.1658 267.126 81.447 271.803 83.3846C276.481 85.3222 281.628 85.8292 286.594 84.8414C291.56 83.8536 296.122 81.4155 299.702 77.8353C303.282 74.255 305.72 69.6935 306.708 64.7276C307.696 59.7617 307.189 54.6144 305.251 49.9366C303.314 45.2588 300.032 41.2607 295.823 38.4477C291.613 35.6347 286.663 34.1333 281.6 34.1333C274.81 34.1333 268.299 36.8305 263.498 41.6314C258.697 46.4323 256 52.9438 256 59.7333ZM290.133 59.7333C290.133 61.4211 289.633 63.0709 288.695 64.4742C287.758 65.8775 286.425 66.9712 284.866 67.6171C283.306 68.263 281.591 68.4319 279.935 68.1027C278.28 67.7734 276.759 66.9607 275.566 65.7673C274.373 64.5739 273.56 63.0534 273.231 61.3981C272.901 59.7428 273.07 58.027 273.716 56.4678C274.362 54.9085 275.456 53.5758 276.859 52.6381C278.262 51.7005 279.912 51.2 281.6 51.2C283.863 51.2 286.034 52.099 287.634 53.6993C289.234 55.2997 290.133 57.4701 290.133 59.7333Z" fill="#161335"/>
<path d="M189.363 472.815C200.416 472.664 211.336 470.384 221.525 466.099C223.623 465.249 225.298 463.601 226.18 461.517C227.063 459.432 227.081 457.083 226.231 454.985C225.382 452.887 223.733 451.212 221.649 450.33C219.564 449.447 217.215 449.429 215.117 450.278C207.306 454.14 198.668 456.032 189.958 455.789C181.248 455.547 172.73 453.177 165.146 448.887C158.836 444.425 153.71 438.492 150.211 431.601C146.713 424.711 144.947 417.071 145.067 409.344C144.999 407.081 144.035 404.937 142.386 403.385C140.738 401.833 138.54 400.999 136.277 401.067C134.014 401.135 131.871 402.099 130.318 403.747C128.766 405.395 127.932 407.593 128 409.856C127.942 420.338 130.446 430.676 135.294 439.97C140.142 449.263 147.188 457.231 155.819 463.181C165.814 469.611 177.479 472.961 189.363 472.815Z" fill="#161335"/>
</g>
<defs>
<clipPath id="clip0_26_449">
<rect width="512" height="512" fill="white"/>
</clipPath>
</defs>
</svg>
