<svg width="41" height="41" viewBox="0 0 41 41" fill="none" xmlns="http://www.w3.org/2000/svg">
<g clip-path="url(#clip0_51_1622)">
<path d="M31.9182 12.6987C31.9182 9.68103 30.7195 6.78691 28.5856 4.65306C26.4518 2.51922 23.5576 1.32043 20.5399 1.32043C17.5222 1.32043 14.6281 2.51922 12.4943 4.65306C10.3604 6.78691 9.16162 9.68103 9.16162 12.6987C9.16162 13.5863 9.51421 14.4375 10.1418 15.0651C10.7694 15.6927 11.6206 16.0453 12.5082 16.0453C13.3957 16.0453 14.247 15.6927 14.8746 15.0651C15.5022 14.4375 15.8547 13.5863 15.8547 12.6987C15.8547 11.7721 16.1295 10.8663 16.6443 10.0958C17.1592 9.32532 17.8909 8.7248 18.747 8.37019C19.6031 8.01558 20.5451 7.9228 21.454 8.10358C22.3628 8.28436 23.1976 8.73058 23.8529 9.38581C24.5081 10.041 24.9543 10.8759 25.1351 11.7847C25.3159 12.6935 25.2231 13.6356 24.8685 14.4917C24.5139 15.3478 23.9134 16.0795 23.1429 16.5943C22.3724 17.1091 21.4666 17.3839 20.5399 17.3839C19.6524 17.3839 18.8012 17.7365 18.1736 18.3641C17.546 18.9917 17.1934 19.8429 17.1934 20.7305C17.1934 21.618 17.546 22.4693 18.1736 23.0969C18.8012 23.7245 19.6524 24.077 20.5399 24.077C21.4666 24.077 22.3724 24.3518 23.1429 24.8666C23.9134 25.3815 24.5139 26.1132 24.8685 26.9693C25.2231 27.8254 25.3159 28.7674 25.1351 29.6763C24.9543 30.5851 24.5081 31.4199 23.8529 32.0752C23.1976 32.7304 22.3628 33.1766 21.454 33.3574C20.5451 33.5382 19.6031 33.4454 18.747 33.0908C17.8909 32.7362 17.1592 32.1357 16.6443 31.3652C16.1295 30.5947 15.8547 29.6889 15.8547 28.7622C15.8547 27.8747 15.5022 27.0235 14.8746 26.3959C14.247 25.7683 13.3957 25.4157 12.5082 25.4157C11.6206 25.4157 10.7694 25.7683 10.1418 26.3959C9.51421 27.0235 9.16162 27.8747 9.16162 28.7622C9.16024 30.6334 9.62035 32.4761 10.5012 34.127C11.3821 35.7779 12.6565 37.1861 14.2116 38.2268C15.7667 39.2675 17.5545 39.9086 19.4165 40.0934C21.2786 40.2781 23.1575 40.0008 24.8867 39.286C26.616 38.5711 28.1423 37.4408 29.3304 35.9952C30.5185 34.5496 31.3317 32.8332 31.6981 30.9982C32.0644 29.1633 31.9725 27.2662 31.4306 25.4752C30.8886 23.6842 29.9133 22.0545 28.5911 20.7305C29.6467 19.6763 30.4839 18.4243 31.0548 17.0461C31.6258 15.6679 31.9192 14.1905 31.9182 12.6987Z" fill="white"/>
<path d="M15.8549 28.7622C15.8566 28.2367 15.7338 27.7182 15.4965 27.2493C15.2592 26.7804 14.9142 26.3743 14.4898 26.0644C14.0653 25.7545 13.5735 25.5496 13.0546 25.4664C12.5357 25.3831 12.0045 25.424 11.5044 25.5857C12.182 25.7971 12.7745 26.2192 13.1958 26.7904C13.6171 27.3617 13.8452 28.0524 13.847 28.7622C13.8473 29.4626 14.0047 30.1539 14.3074 30.7854C14.6102 31.4169 15.0507 31.9725 15.5965 32.4113C16.1423 32.8502 16.7795 33.161 17.4613 33.3211C18.1431 33.4812 18.8521 33.4864 19.5361 33.3363C18.4936 33.1066 17.5606 32.5281 16.8913 31.6965C16.222 30.8648 15.8564 29.8298 15.8549 28.7622Z" fill="white"/>
<path d="M31.9184 12.6987C31.9175 11.1204 31.5883 9.55956 30.9516 8.11536C30.3149 6.67116 29.3848 5.37522 28.2202 4.30989C27.0557 3.24456 25.6823 2.43316 24.1872 1.92726C22.6922 1.42136 21.1083 1.23202 19.5361 1.37128C29.1515 2.2173 33.3722 13.9256 26.5833 20.7305C28.108 22.2624 29.1648 24.197 29.6301 26.3077C30.0953 28.4185 29.9498 30.618 29.2104 32.6491C28.4711 34.6801 27.1686 36.4585 25.4553 37.7762C23.742 39.0939 21.6889 39.8963 19.5361 40.0897C21.8615 40.2979 24.1947 39.7852 26.2185 38.6211C28.2423 37.4571 29.8586 35.6981 30.8478 33.5833C31.837 31.4685 32.1511 29.1004 31.7474 26.8009C31.3436 24.5013 30.2417 22.3818 28.5913 20.7305C29.6468 19.6763 30.4841 18.4243 31.055 17.0461C31.6259 15.6678 31.9193 14.1905 31.9184 12.6987Z" fill="white"/>
<path d="M13.847 12.6987C13.8452 13.4085 13.6171 14.0993 13.1958 14.6705C12.7745 15.2418 12.182 15.6638 11.5044 15.8753C12.0045 16.0369 12.5357 16.0778 13.0546 15.9946C13.5735 15.9114 14.0653 15.7064 14.4898 15.3965C14.9142 15.0866 15.2592 14.6806 15.4965 14.2116C15.7338 13.7427 15.8566 13.2243 15.8549 12.6987C15.8564 11.6312 16.222 10.5961 16.8913 9.76446C17.5606 8.93281 18.4936 8.35435 19.5361 8.12464C18.8521 7.97457 18.1431 7.97976 17.4613 8.13984C16.7795 8.29991 16.1423 8.61079 15.5965 9.04961C15.0507 9.48844 14.6102 10.044 14.3074 10.6755C14.0047 11.307 13.8473 11.9984 13.847 12.6987Z" fill="white"/>
<path d="M23.8864 22.0691C23.3538 22.0691 22.8431 21.8575 22.4665 21.481C22.09 21.1044 21.8784 20.5937 21.8784 20.0612V19.3918H25.8943V20.0612C25.8943 20.5937 25.6827 21.1044 25.3062 21.481C24.9296 21.8575 24.4189 22.0691 23.8864 22.0691Z" fill="#E8EDFC"/>
<path d="M13.5188 15.8726C12.8394 15.6642 12.2447 15.2435 11.8219 14.6723C11.3991 14.1011 11.1705 13.4094 11.1696 12.6987C11.1738 9.86708 12.233 7.13858 14.1404 5.04568C16.0478 2.95278 18.6665 1.64565 21.4857 1.37934C19.9183 1.24609 18.3403 1.43976 16.8517 1.94809C15.363 2.45642 13.9962 3.26833 12.8377 4.33241C11.6791 5.39649 10.7542 6.68955 10.1214 8.1297C9.48863 9.56985 9.1618 11.1257 9.16162 12.6987C9.16334 13.2237 9.28867 13.7409 9.52747 14.2083C9.76627 14.6758 10.1118 15.0805 10.5361 15.3896C10.9604 15.6987 11.4516 15.9035 11.9698 15.9874C12.488 16.0713 13.0187 16.032 13.5188 15.8726Z" fill="white"/>
<path d="M21.4863 40.0816C18.6671 39.8155 16.0482 38.5084 14.1406 36.4155C12.2331 34.3226 11.1738 31.594 11.1696 28.7622C11.1706 28.0516 11.3992 27.36 11.8218 26.7888C12.2445 26.2175 12.839 25.7966 13.5182 25.5877C13.018 25.4294 12.4876 25.3908 11.9698 25.4752C11.452 25.5596 10.9613 25.7646 10.5373 26.0735C10.1133 26.3825 9.76786 26.7868 9.5289 27.2539C9.28993 27.7209 9.16412 28.2376 9.16162 28.7622C9.16553 31.6044 10.232 34.3423 12.1516 36.4383C14.0712 38.5342 16.7051 39.8366 19.536 40.0897C20.1847 40.1522 20.8381 40.1495 21.4863 40.0816Z" fill="white"/>
<path d="M11.0055 33.6134L9.81341 34.2225C8.95592 32.5293 8.50361 30.6601 8.49219 28.7622H9.83081C9.842 30.4483 10.2441 32.1089 11.0055 33.6134Z" fill="white"/>
<path d="M9.49625 32.0887C9.31873 32.0897 9.1481 32.0201 9.02189 31.8953C8.89568 31.7704 8.82423 31.6006 8.82325 31.4231C8.82228 31.2455 8.89186 31.0749 9.01669 30.9487C9.14152 30.8225 9.31137 30.751 9.48888 30.7501H9.49625C9.67376 30.7501 9.844 30.8206 9.96952 30.9461C10.095 31.0716 10.1656 31.2419 10.1656 31.4194C10.1656 31.5969 10.095 31.7671 9.96952 31.8926C9.844 32.0182 9.67376 32.0887 9.49625 32.0887Z" fill="#161335"/>
<path d="M20.5398 32.7781C19.4751 32.777 18.4542 32.3536 17.7013 31.6007C16.9484 30.8478 16.525 29.8269 16.5239 28.7622C16.5239 27.6971 16.1008 26.6757 15.3477 25.9225C14.5946 25.1694 13.5731 24.7463 12.5081 24.7463C11.443 24.7463 10.4215 25.1694 9.66841 25.9225C8.91529 26.6757 8.49219 27.6971 8.49219 28.7622C8.49219 28.9397 8.56271 29.11 8.68823 29.2355C8.81375 29.361 8.98399 29.4315 9.1615 29.4315C9.33901 29.4315 9.50926 29.361 9.63478 29.2355C9.7603 29.11 9.83081 28.9397 9.83081 28.7622C9.83081 28.0521 10.1129 27.3712 10.615 26.8691C11.117 26.367 11.798 26.0849 12.5081 26.0849C13.2181 26.0849 13.8991 26.367 14.4012 26.8691C14.9032 27.3712 15.1853 28.0521 15.1853 28.7622C15.1853 29.8212 15.4993 30.8565 16.0877 31.737C16.6761 32.6175 17.5123 33.3038 18.4907 33.7091C19.4691 34.1144 20.5457 34.2204 21.5844 34.0138C22.6231 33.8072 23.5772 33.2972 24.326 32.5484C25.0748 31.7996 25.5848 30.8455 25.7914 29.8068C25.998 28.7681 25.892 27.6915 25.4867 26.7131C25.0814 25.7347 24.3951 24.8985 23.5146 24.3101C22.6341 23.7217 21.5988 23.4077 20.5398 23.4077C19.8298 23.4077 19.1488 23.1256 18.6467 22.6236C18.1446 22.1215 17.8626 21.4405 17.8626 20.7305C17.8626 20.0204 18.1446 19.3394 18.6467 18.8374C19.1488 18.3353 19.8298 18.0532 20.5398 18.0532C21.5988 18.0532 22.6341 17.7392 23.5146 17.1508C24.3951 16.5624 25.0814 15.7262 25.4867 14.7478C25.892 13.7694 25.998 12.6928 25.7914 11.6541C25.5848 10.6154 25.0748 9.66135 24.326 8.91251C23.5772 8.16367 22.6231 7.6537 21.5844 7.4471C20.5457 7.24049 19.4691 7.34653 18.4907 7.7518C17.5123 8.15707 16.6761 8.84337 16.0877 9.72391C15.4993 10.6045 15.1853 11.6397 15.1853 12.6987C15.1853 13.4088 14.9032 14.0897 14.4012 14.5918C13.8991 15.0939 13.2181 15.376 12.5081 15.376C11.798 15.376 11.117 15.0939 10.615 14.5918C10.1129 14.0897 9.83081 13.4088 9.83081 12.6987C9.83516 10.1063 10.779 7.60334 12.4876 5.65359C14.1961 3.70384 16.5535 2.43949 19.1229 2.0948L17.9964 3.59607C17.8899 3.73808 17.8442 3.91658 17.8693 4.09231C17.8944 4.26804 17.9883 4.42659 18.1303 4.5331C18.2723 4.63961 18.4508 4.68534 18.6265 4.66024C18.8023 4.63513 18.9608 4.54125 19.0673 4.39924L20.5398 2.43615L22.0123 4.39924C22.065 4.46956 22.1311 4.5288 22.2067 4.57358C22.2824 4.61836 22.3661 4.64781 22.4531 4.66024C22.5401 4.67267 22.6287 4.66784 22.7139 4.64602C22.799 4.62421 22.879 4.58584 22.9493 4.5331C23.0196 4.48036 23.0789 4.41429 23.1237 4.33866C23.1685 4.26303 23.1979 4.17932 23.2103 4.09231C23.2228 4.0053 23.2179 3.91669 23.1961 3.83154C23.1743 3.7464 23.1359 3.66638 23.0832 3.59607L21.9567 2.0948C23.9347 2.35689 25.7999 3.16708 27.3414 4.43379C28.883 5.70049 30.0394 7.37319 30.68 9.26278C31.3206 11.1524 31.4198 13.1835 30.9665 15.1265C30.5131 17.0695 29.5252 18.847 28.1144 20.2579C27.9893 20.3834 27.9191 20.5533 27.9191 20.7305C27.9191 20.9076 27.9893 21.0775 28.1144 21.203C29.6106 22.7004 30.6293 24.6078 31.0415 26.6841C31.4536 28.7604 31.2409 30.9122 30.4301 32.8676C29.6194 34.823 28.247 36.494 26.4865 37.6695C24.7261 38.8449 22.6566 39.4719 20.5398 39.4712C18.5666 39.4631 16.6336 38.9125 14.9524 37.8796C14.5339 37.6229 14.1316 37.3408 13.7476 37.0349C13.3732 36.7177 13.0186 36.3778 12.6861 36.0169C12.0148 35.2993 11.4487 34.4901 11.0048 33.6134C10.9225 33.4604 10.7853 33.3444 10.6208 33.2887C10.4563 33.2331 10.2768 33.2419 10.1186 33.3135C10.037 33.3509 9.96396 33.4045 9.90393 33.4712C9.84389 33.5379 9.79816 33.6162 9.76956 33.7012C9.74096 33.7863 9.7301 33.8763 9.73764 33.9657C9.74518 34.0551 9.77097 34.142 9.81341 34.2211C10.3129 35.2082 10.9497 36.1195 11.7049 36.9278C12.0786 37.3316 12.4772 37.7116 12.8983 38.0656C13.3277 38.4117 13.7786 38.7303 14.2483 39.0194C16.0716 40.145 18.1627 40.7628 20.305 40.8089C22.4473 40.8551 24.563 40.3279 26.4331 39.2819C28.3033 38.2359 29.8599 36.7091 30.9419 34.8596C32.024 33.0101 32.5921 30.905 32.5874 28.7622C32.5943 25.7962 31.4984 22.9336 29.5126 20.7305C30.8163 19.2754 31.7466 17.5252 32.2233 15.6306C32.7 13.736 32.7088 11.7539 32.2489 9.85511C31.7891 7.95636 30.8743 6.19792 29.5836 4.73137C28.2929 3.26482 26.6649 2.13416 24.8399 1.43685C23.0149 0.739548 21.0478 0.496514 19.108 0.728701C17.1682 0.960889 15.3139 1.66133 13.7051 2.76965C12.0962 3.87797 10.7811 5.36092 9.87293 7.09067C8.96479 8.82041 8.49093 10.7451 8.49219 12.6987C8.49219 13.7638 8.91529 14.7852 9.66841 15.5384C10.4215 16.2915 11.443 16.7146 12.5081 16.7146C13.5731 16.7146 14.5946 16.2915 15.3477 15.5384C16.1008 14.7852 16.5239 13.7638 16.5239 12.6987C16.5239 11.9044 16.7595 11.128 17.2007 10.4676C17.642 9.8072 18.2692 9.29248 19.003 8.98853C19.7368 8.68458 20.5443 8.60505 21.3233 8.76C22.1023 8.91495 22.8178 9.29743 23.3795 9.85906C23.9411 10.4207 24.3236 11.1362 24.4785 11.9152C24.6335 12.6943 24.5539 13.5017 24.25 14.2355C23.946 14.9693 23.4313 15.5965 22.7709 16.0378C22.1105 16.4791 21.3341 16.7146 20.5398 16.7146C19.4747 16.7146 18.4533 17.1377 17.7002 17.8908C16.947 18.6439 16.5239 19.6654 16.5239 20.7305C16.5239 21.7955 16.947 22.817 17.7002 23.5701C18.4533 24.3232 19.4747 24.7463 20.5398 24.7463C21.6049 24.7463 22.6263 25.1694 23.3795 25.9225C24.1326 26.6757 24.5557 27.6971 24.5557 28.7622C24.5557 29.8273 24.1326 30.8487 23.3795 31.6018C22.6263 32.355 21.6049 32.7781 20.5398 32.7781Z" fill="#161335"/>
<path d="M13.1772 11.3601C13.1772 11.5376 13.1067 11.7079 12.9812 11.8334C12.8557 11.9589 12.6854 12.0294 12.5079 12.0294C12.3304 12.0294 12.1602 11.9589 12.0347 11.8334C11.9091 11.7079 11.8386 11.5376 11.8386 11.3601C11.8386 11.1826 11.7681 11.0124 11.6426 10.8868C11.5171 10.7613 11.3468 10.6908 11.1693 10.6908C10.9918 10.6908 10.8216 10.7613 10.696 10.8868C10.5705 11.0124 10.5 11.1826 10.5 11.3601C10.5 11.8926 10.7115 12.4034 11.0881 12.7799C11.4647 13.1565 11.9754 13.368 12.5079 13.368C13.0405 13.368 13.5512 13.1565 13.9278 12.7799C14.3043 12.4034 14.5159 11.8926 14.5159 11.3601C14.5159 11.1826 14.4454 11.0124 14.3198 10.8868C14.1943 10.7613 14.0241 10.6908 13.8466 10.6908C13.669 10.6908 13.4988 10.7613 13.3733 10.8868C13.2478 11.0124 13.1772 11.1826 13.1772 11.3601Z" fill="#161335"/>
<path d="M30.5793 11.3601C30.5793 11.1826 30.5088 11.0124 30.3833 10.8868C30.2578 10.7613 30.0876 10.6908 29.91 10.6908C29.7325 10.6908 29.5623 10.7613 29.4368 10.8868C29.3112 11.0124 29.2407 11.1826 29.2407 11.3601C29.2407 11.5376 29.1702 11.7079 29.0447 11.8334C28.9192 11.9589 28.7489 12.0294 28.5714 12.0294C28.3939 12.0294 28.2237 11.9589 28.0981 11.8334C27.9726 11.7079 27.9021 11.5376 27.9021 11.3601C27.9021 11.1826 27.8316 11.0124 27.7061 10.8868C27.5805 10.7613 27.4103 10.6908 27.2328 10.6908C27.0553 10.6908 26.885 10.7613 26.7595 10.8868C26.634 11.0124 26.5635 11.1826 26.5635 11.3601C26.5635 11.8926 26.775 12.4034 27.1516 12.7799C27.5281 13.1565 28.0389 13.368 28.5714 13.368C29.104 13.368 29.6147 13.1565 29.9912 12.7799C30.3678 12.4034 30.5793 11.8926 30.5793 11.3601Z" fill="#161335"/>
<path d="M25.8942 18.7225H21.8783C21.7008 18.7225 21.5305 18.7931 21.405 18.9186C21.2795 19.0441 21.209 19.2143 21.209 19.3918V20.0612C21.209 20.7712 21.4911 21.4522 21.9931 21.9543C22.4952 22.4563 23.1762 22.7384 23.8862 22.7384C24.5963 22.7384 25.2773 22.4563 25.7793 21.9543C26.2814 21.4522 26.5635 20.7712 26.5635 20.0612V19.3918C26.5635 19.2143 26.493 19.0441 26.3674 18.9186C26.2419 18.7931 26.0717 18.7225 25.8942 18.7225ZM23.8862 21.3998C23.5312 21.3998 23.1907 21.2587 22.9397 21.0077C22.6886 20.7567 22.5476 20.4162 22.5476 20.0612H25.2249C25.2249 20.4162 25.0838 20.7567 24.8328 21.0077C24.5817 21.2587 24.2413 21.3998 23.8862 21.3998Z" fill="#161335"/>
</g>
<defs>
<clipPath id="clip0_51_1622">
<rect width="40.1587" height="40.1587" fill="white" transform="translate(0.460449 0.651123)"/>
</clipPath>
</defs>
</svg>
