<svg width="512" height="512" viewBox="0 0 512 512" fill="none" xmlns="http://www.w3.org/2000/svg">
<g clip-path="url(#clip0_26_447)">
<path d="M401.067 153.6C401.067 115.126 385.783 78.2276 358.578 51.0224C331.372 23.8171 294.474 8.53333 256 8.53333C217.526 8.53333 180.628 23.8171 153.422 51.0224C126.217 78.2276 110.933 115.126 110.933 153.6C110.933 164.916 115.429 175.768 123.43 183.77C131.432 191.771 142.284 196.267 153.6 196.267C164.916 196.267 175.768 191.771 183.77 183.77C191.771 175.768 196.267 164.916 196.267 153.6C196.267 141.786 199.77 130.237 206.334 120.414C212.897 110.591 222.226 102.935 233.141 98.4136C244.056 93.8925 256.066 92.7096 267.653 95.0144C279.241 97.3193 289.884 103.008 298.238 111.362C306.592 119.716 312.281 130.359 314.586 141.947C316.89 153.534 315.708 165.544 311.186 176.459C306.665 187.374 299.009 196.703 289.186 203.266C279.363 209.83 267.814 213.333 256 213.333C244.684 213.333 233.832 217.829 225.83 225.83C217.829 233.832 213.333 244.684 213.333 256C213.333 267.316 217.829 278.168 225.83 286.17C233.832 294.171 244.684 298.667 256 298.667C267.814 298.667 279.363 302.17 289.186 308.734C299.009 315.297 306.665 324.626 311.186 335.541C315.708 346.456 316.89 358.466 314.586 370.053C312.281 381.641 306.592 392.284 298.238 400.638C289.884 408.992 279.241 414.681 267.653 416.986C256.066 419.29 244.056 418.107 233.141 413.586C222.226 409.065 212.897 401.409 206.334 391.586C199.77 381.763 196.267 370.214 196.267 358.4C196.267 347.084 191.771 336.232 183.77 328.23C175.768 320.229 164.916 315.733 153.6 315.733C142.284 315.733 131.432 320.229 123.43 328.23C115.429 336.232 110.933 347.084 110.933 358.4C110.916 382.257 116.782 405.75 128.012 426.798C139.243 447.846 155.491 465.799 175.318 479.068C195.144 492.336 217.937 500.51 241.677 502.866C265.417 505.221 289.372 501.685 311.419 492.571C333.466 483.457 352.926 469.047 368.073 450.616C383.221 432.185 393.589 410.303 398.26 386.908C402.93 363.513 401.759 339.327 394.849 316.493C387.94 293.659 375.505 272.881 358.648 256C372.106 242.56 382.78 226.598 390.059 209.026C397.338 191.455 401.079 172.62 401.067 153.6Z" fill="#FFB500"/>
<path d="M196.267 358.4C196.288 351.7 194.722 345.09 191.697 339.111C188.672 333.133 184.273 327.956 178.862 324.005C173.451 320.053 167.18 317.44 160.564 316.379C153.949 315.319 147.176 315.84 140.8 317.901C149.439 320.597 156.993 325.977 162.364 333.261C167.735 340.544 170.644 349.35 170.667 358.4C170.671 367.329 172.677 376.143 176.537 384.194C180.397 392.246 186.013 399.329 192.971 404.924C199.93 410.519 208.054 414.482 216.747 416.523C225.439 418.564 234.479 418.63 243.2 416.717C229.909 413.788 218.014 406.413 209.48 395.81C200.947 385.207 196.286 372.01 196.267 358.4Z" fill="#FFB500"/>
<path d="M401.067 153.6C401.055 133.478 396.858 113.578 388.74 95.1648C380.623 76.7522 368.764 60.2296 353.917 46.6473C339.07 33.0651 321.56 22.7202 302.499 16.2702C283.438 9.82027 263.244 7.40634 243.2 9.18185C365.79 19.968 419.601 169.242 333.048 256C352.486 275.532 365.96 300.196 371.892 327.107C377.823 354.017 375.968 382.061 366.541 407.955C357.115 433.849 340.509 456.523 318.666 473.323C296.823 490.123 270.646 500.354 243.2 502.818C272.848 505.474 302.594 498.937 328.396 484.095C354.199 469.254 374.806 446.828 387.418 419.866C400.029 392.903 404.033 362.712 398.886 333.394C393.739 304.076 379.689 277.054 358.648 256C372.106 242.56 382.78 226.598 390.059 209.026C397.338 191.455 401.079 172.62 401.067 153.6Z" fill="#FFB500"/>
<path d="M170.667 153.6C170.644 162.65 167.735 171.456 162.364 178.739C156.993 186.023 149.439 191.403 140.8 194.099C147.176 196.16 153.949 196.682 160.564 195.621C167.18 194.56 173.451 191.947 178.862 187.995C184.273 184.044 188.672 178.867 191.697 172.889C194.722 166.91 196.288 160.3 196.267 153.6C196.286 139.99 200.947 126.793 209.48 116.19C218.014 105.587 229.909 98.2119 243.2 95.2832C234.479 93.3699 225.439 93.4361 216.747 95.4769C208.054 97.5178 199.93 101.481 192.971 107.076C186.013 112.671 180.397 119.754 176.537 127.806C172.677 135.857 170.671 144.671 170.667 153.6Z" fill="#FFB500"/>
<path d="M298.667 273.067C291.877 273.067 285.366 270.37 280.565 265.569C275.764 260.768 273.067 254.256 273.067 247.467V238.933H324.267V247.467C324.267 254.256 321.57 260.768 316.769 265.569C311.968 270.37 305.456 273.067 298.667 273.067Z" fill="#E8EDFC"/>
<path d="M166.485 194.065C157.823 191.407 150.241 186.044 144.851 178.761C139.46 171.479 136.545 162.66 136.533 153.6C136.588 117.498 150.091 82.7111 174.41 56.0279C198.728 29.3447 232.115 12.6795 268.058 9.28425C248.074 7.58531 227.956 10.0545 208.977 16.5354C189.998 23.0163 172.571 33.3678 157.801 46.9342C143.03 60.5006 131.238 76.9863 123.17 95.3474C115.103 113.708 110.936 133.545 110.933 153.6C110.955 160.293 112.553 166.886 115.598 172.846C118.642 178.807 123.048 183.966 128.458 187.907C133.867 191.847 140.129 194.458 146.736 195.528C153.343 196.598 160.108 196.097 166.485 194.065Z" fill="white"/>
<path d="M268.066 502.716C232.122 499.323 198.733 482.658 174.413 455.975C150.093 429.291 136.588 394.503 136.533 358.4C136.547 349.34 139.461 340.523 144.85 333.239C150.238 325.956 157.817 320.59 166.477 317.926C160.1 315.908 153.338 315.416 146.736 316.492C140.134 317.568 133.878 320.181 128.472 324.121C123.067 328.06 118.663 333.215 115.616 339.169C112.569 345.124 110.965 351.711 110.933 358.4C110.983 394.636 124.58 429.543 149.054 456.265C173.527 482.987 207.108 499.592 243.2 502.818C251.471 503.615 259.802 503.581 268.066 502.716Z" fill="white"/>
<path d="M134.443 420.25L119.245 428.015C108.312 406.428 102.546 382.597 102.4 358.4H119.467C119.609 379.897 124.735 401.068 134.443 420.25Z" fill="white"/>
<path d="M115.2 400.811C112.937 400.823 110.761 399.936 109.152 398.345C107.543 396.753 106.632 394.587 106.62 392.324C106.607 390.061 107.494 387.886 109.086 386.277C110.677 384.667 112.843 383.756 115.106 383.744H115.2C117.463 383.744 119.634 384.643 121.234 386.243C122.834 387.844 123.733 390.014 123.733 392.277C123.733 394.541 122.834 396.711 121.234 398.311C119.634 399.912 117.463 400.811 115.2 400.811Z" fill="#161335"/>
<path d="M256 409.6C242.425 409.586 229.41 404.188 219.811 394.589C210.212 384.99 204.813 371.975 204.8 358.4C204.8 344.821 199.406 331.798 189.804 322.196C180.202 312.594 167.179 307.2 153.6 307.2C140.021 307.2 126.998 312.594 117.396 322.196C107.794 331.798 102.4 344.821 102.4 358.4C102.4 360.663 103.299 362.834 104.899 364.434C106.5 366.034 108.67 366.933 110.933 366.933C113.196 366.933 115.367 366.034 116.967 364.434C118.568 362.834 119.467 360.663 119.467 358.4C119.467 349.347 123.063 340.665 129.464 334.264C135.865 327.863 144.547 324.267 153.6 324.267C162.653 324.267 171.335 327.863 177.736 334.264C184.137 340.665 187.733 349.347 187.733 358.4C187.733 371.902 191.737 385.101 199.238 396.327C206.74 407.553 217.401 416.303 229.875 421.47C242.35 426.637 256.076 427.989 269.318 425.355C282.561 422.721 294.724 416.219 304.272 406.672C313.819 397.125 320.321 384.961 322.955 371.718C325.589 358.476 324.237 344.75 319.07 332.276C313.903 319.801 305.153 309.14 293.927 301.638C282.7 294.137 269.502 290.133 256 290.133C246.947 290.133 238.265 286.537 231.864 280.136C225.463 273.735 221.867 265.053 221.867 256C221.867 246.947 225.463 238.265 231.864 231.864C238.265 225.463 246.947 221.867 256 221.867C269.502 221.867 282.7 217.863 293.927 210.362C305.153 202.86 313.903 192.199 319.07 179.725C324.237 167.25 325.589 153.524 322.955 140.282C320.321 127.039 313.819 114.875 304.272 105.328C294.724 95.7809 282.561 89.2791 269.318 86.6451C256.076 84.011 242.35 85.3629 229.875 90.5298C217.401 95.6968 206.74 104.447 199.238 115.673C191.737 126.899 187.733 140.098 187.733 153.6C187.733 162.653 184.137 171.335 177.736 177.736C171.335 184.137 162.653 187.733 153.6 187.733C144.547 187.733 135.865 184.137 129.464 177.736C123.063 171.335 119.467 162.653 119.467 153.6C119.522 120.548 131.556 88.637 153.339 63.7789C175.122 38.9208 205.177 22.801 237.935 18.4064L223.573 37.5467C222.215 39.3572 221.632 41.633 221.952 43.8735C222.272 46.1139 223.469 48.1354 225.28 49.4933C227.09 50.8512 229.366 51.4343 231.607 51.1142C233.847 50.7942 235.869 49.5972 237.227 47.7867L256 22.7584L274.773 47.7867C275.446 48.6832 276.288 49.4384 277.252 50.0094C278.217 50.5803 279.284 50.9558 280.393 51.1142C281.502 51.2727 282.632 51.2111 283.718 50.933C284.803 50.6549 285.823 50.1657 286.72 49.4933C287.616 48.821 288.372 47.9786 288.943 47.0143C289.514 46.0501 289.889 44.9828 290.048 43.8735C290.206 42.7641 290.144 41.6344 289.866 40.5489C289.588 39.4633 289.099 38.4432 288.427 37.5467L274.065 18.4064C299.283 21.7479 323.062 32.0774 342.716 48.2271C362.37 64.3769 377.114 85.7028 385.282 109.794C393.449 133.885 394.714 159.781 388.934 184.553C383.153 209.326 370.558 231.987 352.572 249.975C350.977 251.575 350.082 253.741 350.082 256C350.082 258.259 350.977 260.425 352.572 262.025C371.648 281.115 384.634 305.434 389.89 331.905C395.145 358.376 392.433 385.812 382.096 410.742C371.759 435.672 354.262 456.977 331.817 471.962C309.372 486.948 282.988 494.942 256 494.933C230.843 494.83 206.199 487.81 184.764 474.641C179.428 471.369 174.299 467.773 169.404 463.872C164.629 459.828 160.109 455.494 155.87 450.893C147.311 441.744 140.093 431.427 134.434 420.25C133.386 418.3 131.636 416.82 129.539 416.111C127.441 415.401 125.153 415.514 123.136 416.427C122.096 416.903 121.164 417.587 120.399 418.437C119.633 419.288 119.05 420.286 118.686 421.37C118.321 422.454 118.183 423.602 118.279 424.742C118.375 425.882 118.704 426.99 119.245 427.998C125.613 440.582 133.732 452.201 143.36 462.507C148.124 467.655 153.206 472.5 158.575 477.013C164.05 481.426 169.799 485.487 175.787 489.173C199.034 503.524 225.693 511.4 253.006 511.989C280.319 512.577 307.293 505.856 331.136 492.52C354.98 479.184 374.826 459.719 388.621 436.138C402.416 412.558 409.659 385.719 409.6 358.4C409.687 320.586 395.715 284.089 370.398 256C387.019 237.449 398.88 215.135 404.957 190.979C411.035 166.824 411.147 141.554 405.284 117.346C399.421 93.1378 387.759 70.7187 371.303 52.0211C354.847 33.3235 334.091 18.9082 310.824 10.018C287.556 1.12776 262.476 -1.97078 237.745 0.989472C213.014 3.94973 189.373 12.88 168.861 27.0104C148.35 41.1408 131.582 60.0476 120.004 82.1008C108.425 104.154 102.384 128.692 102.4 153.6C102.4 167.179 107.794 180.202 117.396 189.804C126.998 199.406 140.021 204.8 153.6 204.8C167.179 204.8 180.202 199.406 189.804 189.804C199.406 180.202 204.8 167.179 204.8 153.6C204.8 143.474 207.803 133.575 213.429 125.155C219.055 116.735 227.051 110.173 236.407 106.297C245.762 102.422 256.057 101.408 265.989 103.384C275.92 105.359 285.043 110.236 292.204 117.396C299.364 124.557 304.241 133.68 306.216 143.611C308.192 153.543 307.178 163.838 303.303 173.193C299.427 182.549 292.865 190.545 284.445 196.171C276.025 201.797 266.126 204.8 256 204.8C242.421 204.8 229.398 210.194 219.796 219.796C210.194 229.398 204.8 242.421 204.8 256C204.8 269.579 210.194 282.602 219.796 292.204C229.398 301.806 242.421 307.2 256 307.2C269.579 307.2 282.602 312.594 292.204 322.196C301.806 331.798 307.2 344.821 307.2 358.4C307.2 371.979 301.806 385.002 292.204 394.604C282.602 404.206 269.579 409.6 256 409.6Z" fill="#161335"/>
<path d="M162.133 136.533C162.133 138.797 161.234 140.967 159.634 142.567C158.034 144.168 155.863 145.067 153.6 145.067C151.337 145.067 149.166 144.168 147.566 142.567C145.966 140.967 145.067 138.797 145.067 136.533C145.067 134.27 144.168 132.1 142.567 130.499C140.967 128.899 138.797 128 136.533 128C134.27 128 132.1 128.899 130.499 130.499C128.899 132.1 128 134.27 128 136.533C128 143.323 130.697 149.834 135.498 154.635C140.299 159.436 146.81 162.133 153.6 162.133C160.39 162.133 166.901 159.436 171.702 154.635C176.503 149.834 179.2 143.323 179.2 136.533C179.2 134.27 178.301 132.1 176.701 130.499C175.1 128.899 172.93 128 170.667 128C168.403 128 166.233 128.899 164.633 130.499C163.032 132.1 162.133 134.27 162.133 136.533Z" fill="#161335"/>
<path d="M384 136.533C384 134.27 383.101 132.1 381.501 130.499C379.9 128.899 377.73 128 375.467 128C373.203 128 371.033 128.899 369.433 130.499C367.832 132.1 366.933 134.27 366.933 136.533C366.933 138.797 366.034 140.967 364.434 142.567C362.834 144.168 360.663 145.067 358.4 145.067C356.137 145.067 353.966 144.168 352.366 142.567C350.766 140.967 349.867 138.797 349.867 136.533C349.867 134.27 348.968 132.1 347.367 130.499C345.767 128.899 343.596 128 341.333 128C339.07 128 336.9 128.899 335.299 130.499C333.699 132.1 332.8 134.27 332.8 136.533C332.8 143.323 335.497 149.834 340.298 154.635C345.099 159.436 351.61 162.133 358.4 162.133C365.189 162.133 371.701 159.436 376.502 154.635C381.303 149.834 384 143.323 384 136.533Z" fill="#161335"/>
<path d="M324.267 230.4H273.067C270.803 230.4 268.633 231.299 267.033 232.899C265.432 234.5 264.533 236.67 264.533 238.933V247.467C264.533 256.519 268.129 265.201 274.531 271.603C280.932 278.004 289.614 281.6 298.667 281.6C307.719 281.6 316.401 278.004 322.802 271.603C329.204 265.201 332.8 256.519 332.8 247.467V238.933C332.8 236.67 331.901 234.5 330.301 232.899C328.7 231.299 326.53 230.4 324.267 230.4ZM298.667 264.533C294.14 264.533 289.799 262.735 286.599 259.535C283.398 256.334 281.6 251.993 281.6 247.467H315.733C315.733 251.993 313.935 256.334 310.735 259.535C307.534 262.735 303.193 264.533 298.667 264.533Z" fill="#161335"/>
</g>
<defs>
<clipPath id="clip0_26_447">
<rect width="512" height="512" fill="white"/>
</clipPath>
</defs>
</svg>
