<svg width="41" height="42" viewBox="0 0 41 42" fill="none" xmlns="http://www.w3.org/2000/svg">
<g clip-path="url(#clip0_51_1623)">
<path d="M23.2868 40.3942C22.444 40.2892 21.6696 39.8763 21.1127 39.235C20.5557 38.5937 20.2555 37.7691 20.2696 36.9198V28.3627C20.2696 28.1852 20.1991 28.0149 20.0735 27.8894C19.948 27.7639 19.7778 27.6934 19.6003 27.6934H7.6738C7.02839 27.7171 6.3899 27.5536 5.83535 27.2226C5.2808 26.8916 4.83389 26.4072 4.54852 25.8278C4.26315 25.2484 4.15152 24.5989 4.2271 23.9575C4.30268 23.3161 4.56224 22.7102 4.97446 22.2131L21.038 2.80301C21.4838 2.26299 22.0877 1.87643 22.7648 1.69775C23.4419 1.51907 24.158 1.55729 24.8122 1.80702C25.4664 2.05674 26.0258 2.5054 26.4116 3.0898C26.7974 3.6742 26.9901 4.36489 26.9627 5.06461V20.331C26.9627 20.5085 27.0332 20.6787 27.1587 20.8042C27.2843 20.9297 27.4545 21.0003 27.632 21.0003H31.504C32.3533 20.9861 33.1778 21.2864 33.8191 21.8434C34.4605 22.4003 34.8733 23.1746 34.9784 24.0175C35.0244 24.4825 34.9725 24.952 34.826 25.3957C34.6796 25.8394 34.4418 26.2476 34.1281 26.5938C33.8143 26.9401 33.4316 27.2168 33.0044 27.4062C32.5772 27.5956 32.1151 27.6934 31.6479 27.6934H27.632C27.4545 27.6934 27.2843 27.7639 27.1587 27.8894C27.0332 28.0149 26.9627 28.1852 26.9627 28.3627V37.0638C26.9627 37.531 26.8649 37.9931 26.6755 38.4203C26.4861 38.8474 26.2094 39.2302 25.8631 39.5439C25.5169 39.8577 25.1087 40.0954 24.665 40.2419C24.2213 40.3883 23.7518 40.4402 23.2868 40.3942ZM16.0891 21.0003H19.6003C19.7778 21.0003 19.948 20.9297 20.0735 20.8042C20.1991 20.6787 20.2696 20.5085 20.2696 20.331V16.0882C20.2696 15.9505 20.2271 15.8161 20.1479 15.7034C20.0688 15.5908 19.9568 15.5052 19.8272 15.4586C19.6977 15.4119 19.5569 15.4063 19.424 15.4425C19.2912 15.4788 19.1728 15.5551 19.0849 15.6612L15.573 19.9039C15.4919 20.0018 15.4404 20.1208 15.4244 20.2469C15.4084 20.373 15.4287 20.501 15.4828 20.616C15.537 20.731 15.6227 20.8282 15.7301 20.8963C15.8374 20.9643 15.9619 21.0004 16.0891 21.0003Z" fill="white"/>
<path d="M24.9547 5.06459V20.3309C24.9547 20.5084 25.0252 20.6787 25.1507 20.8042C25.2762 20.9297 25.4465 21.0002 25.624 21.0002H27.6319C27.4544 21.0002 27.2842 20.9297 27.1587 20.8042C27.0331 20.6787 26.9626 20.5084 26.9626 20.3309V5.06459C26.983 4.52788 26.8737 3.99417 26.6441 3.50864C26.4144 3.02311 26.0712 2.60008 25.6433 2.27535C25.2155 1.95063 24.7157 1.73379 24.1863 1.64318C23.6569 1.55257 23.1135 1.59088 22.6021 1.75485C23.3018 1.974 23.9105 2.41617 24.3353 3.01381C24.7602 3.61145 24.9777 4.33171 24.9547 5.06459Z" fill="white"/>
<path d="M24.9546 28.3627V37.0637C24.9541 37.7746 24.7272 38.4669 24.3069 39.0402C23.8865 39.6135 23.2945 40.0381 22.6167 40.2523C23.1174 40.41 23.6482 40.4476 24.1661 40.3619C24.6839 40.2762 25.1744 40.0698 25.5976 39.7592C26.0208 39.4487 26.3649 39.0429 26.6021 38.5745C26.8392 38.1062 26.9627 37.5887 26.9625 37.0637V28.3627C26.9625 28.1852 27.0331 28.0149 27.1586 27.8894C27.2841 27.7639 27.4543 27.6934 27.6319 27.6934H25.6239C25.4464 27.6934 25.2762 27.7639 25.1506 27.8894C25.0251 28.0149 24.9546 28.1852 24.9546 28.3627Z" fill="white"/>
<path d="M34.9784 24.0175C34.8734 23.1746 34.4605 22.4003 33.8192 21.8433C33.1779 21.2864 32.3533 20.9861 31.504 21.0002H29.4961C30.3454 20.9862 31.17 21.2865 31.8114 21.8435C32.4528 22.4004 32.8658 23.1746 32.9712 24.0175C33.0171 24.4825 32.9652 24.9521 32.8187 25.3958C32.6722 25.8396 32.4344 26.2478 32.1206 26.594C31.8068 26.9403 31.424 27.217 30.9967 27.4064C30.5695 27.5957 30.1073 27.6935 29.64 27.6934H31.6479C32.1152 27.6934 32.5773 27.5956 33.0044 27.4062C33.4316 27.2168 33.8144 26.9401 34.1281 26.5938C34.4419 26.2475 34.6796 25.8394 34.8261 25.3957C34.9725 24.952 35.0244 24.4825 34.9784 24.0175Z" fill="white"/>
<path d="M20.2694 28.3627V36.9198C20.2568 37.7687 20.5576 38.5925 21.1142 39.2335C21.6709 39.8745 22.4444 40.2878 23.2867 40.3942C23.3536 40.4009 23.5972 40.4096 23.701 40.4069C24.0144 40.3974 24.3252 40.3454 24.6246 40.2523C23.9341 40.0119 23.3363 39.5612 22.9153 38.9634C22.4942 38.3657 22.2711 37.651 22.2773 36.9198V28.3627C22.2773 28.1852 22.2068 28.0149 22.0813 27.8894C21.9558 27.7639 21.7855 27.6934 21.608 27.6934H19.6001C19.7776 27.6934 19.9479 27.7639 20.0734 27.8894C20.1989 28.0149 20.2694 28.1852 20.2694 28.3627Z" fill="white"/>
<path d="M7.67379 27.6934H9.68173C9.03633 27.7171 8.39784 27.5536 7.84329 27.2226C7.28874 26.8916 6.84182 26.4072 6.55645 25.8278C6.27108 25.2484 6.15946 24.5989 6.23503 23.9575C6.31061 23.3161 6.57017 22.7102 6.9824 22.2131L23.0459 2.80301C23.4523 2.30604 23.9957 1.93946 24.6087 1.74884C23.9766 1.54433 23.2975 1.53556 22.6603 1.72366C22.0231 1.91177 21.4576 2.28799 21.0379 2.80301L4.97446 22.2131C4.56224 22.7102 4.30268 23.3161 4.2271 23.9575C4.15152 24.5989 4.26315 25.2484 4.54852 25.8278C4.83389 26.4072 5.2808 26.8916 5.83535 27.2226C6.3899 27.5536 7.02839 27.7171 7.67379 27.6934Z" fill="white"/>
<path d="M4.45264 21.7956L7.86881 17.6726L8.89955 18.5267L5.48338 22.6496L4.45264 21.7956Z" fill="white"/>
<path d="M6.69464 20.8196C6.60674 20.82 6.51962 20.8031 6.43825 20.7699C6.35688 20.7367 6.28285 20.6878 6.22038 20.6259C6.09424 20.501 6.02287 20.3311 6.02198 20.1536C6.02109 19.9761 6.09076 19.8055 6.21565 19.6794C6.34054 19.5532 6.51043 19.4818 6.68795 19.481H6.69464C6.87215 19.481 7.04239 19.5515 7.16791 19.677C7.29344 19.8025 7.36395 19.9728 7.36395 20.1503C7.36395 20.3278 7.29344 20.498 7.16791 20.6235C7.04239 20.7491 6.87215 20.8196 6.69464 20.8196Z" fill="#161335"/>
<path d="M3.91714 26.0516C4.25096 26.7603 4.78409 27.3563 5.45131 27.7668C6.11853 28.1772 6.89092 28.3843 7.67399 28.3627H19.6005V36.9199C19.5891 37.9349 19.9524 38.9186 20.6208 39.6826C21.2892 40.4466 22.2159 40.9373 23.2234 41.0609C23.352 41.073 23.4798 41.0797 23.6076 41.0797C24.1357 41.0808 24.6589 40.9778 25.1471 40.7765C25.6353 40.5752 26.0791 40.2795 26.4529 39.9065C26.8267 39.5335 27.1233 39.0904 27.3257 38.6026C27.528 38.1148 27.6322 37.5919 27.6322 37.0638V28.3627H31.6481C32.2086 28.3628 32.763 28.2455 33.2755 28.0184C33.788 27.7914 34.2472 27.4595 34.6237 27.0442C35.0002 26.6289 35.2856 26.1394 35.4616 25.6072C35.6375 25.075 35.7001 24.5118 35.6452 23.954C35.5216 22.9464 35.0308 22.0198 34.2669 21.3513C33.5029 20.6829 32.5192 20.3196 31.5042 20.331H27.6322V5.06464C27.6582 4.21573 27.4146 3.3804 26.9364 2.67852C26.4582 1.97664 25.7699 1.44429 24.9704 1.15786C24.1944 0.872805 23.3488 0.837024 22.5515 1.05551C21.7542 1.274 21.045 1.73586 20.5228 2.37668L7.87278 17.6618C7.81674 17.7295 7.7746 17.8076 7.74875 17.8916C7.7229 17.9756 7.71385 18.0639 7.72211 18.1514C7.73038 18.2389 7.7558 18.3239 7.79692 18.4016C7.83805 18.4793 7.89407 18.5481 7.9618 18.6042C8.02952 18.6602 8.10762 18.7023 8.19163 18.7282C8.27564 18.754 8.36392 18.7631 8.45143 18.7548C8.53894 18.7466 8.62396 18.7211 8.70165 18.68C8.77933 18.6389 8.84816 18.5829 8.90419 18.5151L21.5535 3.23005C21.9016 2.80309 22.3741 2.49533 22.9054 2.34968C23.4366 2.20403 24.0001 2.22774 24.5172 2.41751C25.058 2.61003 25.5225 2.97124 25.8424 3.44786C26.1622 3.92448 26.3204 4.49128 26.2936 5.06464V20.331C26.2936 20.686 26.4346 21.0265 26.6857 21.2775C26.9367 21.5286 27.2772 21.6696 27.6322 21.6696H31.5042C32.1871 21.6552 32.8513 21.893 33.3699 22.3375C33.8885 22.782 34.2251 23.4021 34.3153 24.0791C34.3527 24.4517 34.3116 24.828 34.1946 25.1837C34.0775 25.5393 33.8872 25.8665 33.6358 26.1441C33.3845 26.4216 33.0777 26.6433 32.7353 26.7949C32.3929 26.9465 32.0225 27.0246 31.6481 27.0241H27.6322C27.2772 27.0241 26.9367 27.1651 26.6857 27.4162C26.4346 27.6672 26.2936 28.0077 26.2936 28.3627V37.0638C26.2937 37.438 26.2153 37.8081 26.0636 38.1502C25.9118 38.4922 25.69 38.7987 25.4125 39.0498C25.1351 39.3008 24.808 39.4909 24.4525 39.6078C24.097 39.7247 23.721 39.7657 23.3486 39.7283C22.6716 39.6381 22.0515 39.3015 21.607 38.7829C21.1625 38.2643 20.9247 37.6001 20.9391 36.9172V28.3627C20.9391 28.0077 20.7981 27.6672 20.547 27.4162C20.296 27.1651 19.9555 27.0241 19.6005 27.0241H7.67399C7.14641 27.0419 6.62505 26.9058 6.17345 26.6325C5.72184 26.3592 5.35951 25.9604 5.13061 25.4847C4.91207 25.0262 4.82996 24.5145 4.89404 24.0107C4.95812 23.5068 5.16569 23.032 5.49204 22.6428C5.60529 22.506 5.65957 22.3298 5.64294 22.1531C5.62631 21.9763 5.54013 21.8133 5.40335 21.7001C5.26658 21.5868 5.09042 21.5325 4.91362 21.5492C4.73683 21.5658 4.57388 21.652 4.46063 21.7887C3.97134 22.3726 3.66002 23.0848 3.56368 23.8405C3.46734 24.5961 3.59002 25.3636 3.91714 26.0516Z" fill="#161335"/>
<path d="M20.0542 14.8286C19.7952 14.7334 19.513 14.7213 19.2468 14.794C18.9806 14.8667 18.7437 15.0206 18.569 15.2342L15.0578 19.4776C14.8959 19.6733 14.793 19.911 14.7611 20.163C14.7292 20.4149 14.7697 20.6708 14.8777 20.9006C14.9858 21.1304 15.157 21.3248 15.3714 21.461C15.5858 21.5971 15.8345 21.6695 16.0885 21.6696H19.6004C19.9554 21.6696 20.2959 21.5286 20.5469 21.2775C20.798 21.0265 20.939 20.686 20.939 20.331V16.0882C20.941 15.8123 20.8569 15.5426 20.6982 15.3167C20.5396 15.0909 20.3145 14.9203 20.0542 14.8286ZM19.6004 20.331H16.0885L19.6004 16.0882V20.331Z" fill="#161335"/>
<path d="M16.254 11.6299C15.7215 11.6299 15.2108 11.8415 14.8342 12.2181C14.4576 12.5946 14.2461 13.1053 14.2461 13.6379C14.2461 13.8154 14.3166 13.9856 14.4421 14.1112C14.5677 14.2367 14.7379 14.3072 14.9154 14.3072C15.0929 14.3072 15.2632 14.2367 15.3887 14.1112C15.5142 13.9856 15.5847 13.8154 15.5847 13.6379C15.5847 13.4604 15.6552 13.2901 15.7808 13.1646C15.9063 13.0391 16.0765 12.9686 16.254 12.9686C16.4315 12.9686 16.6018 13.0391 16.7273 13.1646C16.8528 13.2901 16.9233 13.4604 16.9233 13.6379C16.9233 13.8154 16.9939 13.9856 17.1194 14.1112C17.2449 14.2367 17.4151 14.3072 17.5927 14.3072C17.7702 14.3072 17.9404 14.2367 18.0659 14.1112C18.1914 13.9856 18.262 13.8154 18.262 13.6379C18.262 13.1053 18.0504 12.5946 17.6739 12.2181C17.2973 11.8415 16.7866 11.6299 16.254 11.6299Z" fill="#161335"/>
<path d="M22.2776 13.6379C22.2776 13.4604 22.3481 13.2901 22.4736 13.1646C22.5991 13.0391 22.7694 12.9686 22.9469 12.9686C23.1244 12.9686 23.2947 13.0391 23.4202 13.1646C23.5457 13.2901 23.6162 13.4604 23.6162 13.6379C23.6162 13.8154 23.6867 13.9856 23.8123 14.1112C23.9378 14.2367 24.108 14.3072 24.2855 14.3072C24.463 14.3072 24.6333 14.2367 24.7588 14.1112C24.8843 13.9856 24.9548 13.8154 24.9548 13.6379C24.9548 13.1053 24.7433 12.5946 24.3667 12.2181C23.9902 11.8415 23.4794 11.6299 22.9469 11.6299C22.4144 11.6299 21.9036 11.8415 21.5271 12.2181C21.1505 12.5946 20.939 13.1053 20.939 13.6379C20.939 13.8154 21.0095 13.9856 21.135 14.1112C21.2605 14.2367 21.4308 14.3072 21.6083 14.3072C21.7858 14.3072 21.956 14.2367 22.0816 14.1112C22.2071 13.9856 22.2776 13.8154 22.2776 13.6379Z" fill="#161335"/>
<path d="M30.8622 2.46032C30.738 2.3335 30.5685 2.2612 30.391 2.25932C30.2135 2.25743 30.0426 2.32612 29.9157 2.45028C29.6109 2.73489 29.3693 3.08036 29.2065 3.46431C29.0437 3.84825 28.9633 4.26211 28.9707 4.67909C28.9905 5.09507 29.0975 5.50226 29.2846 5.87431C29.4717 6.24636 29.7348 6.575 30.057 6.83896L30.478 7.20105C30.6588 7.34501 30.8075 7.52518 30.9146 7.73001C31.0217 7.93483 31.0847 8.15978 31.0998 8.39042C31.0998 8.62146 31.0515 8.84995 30.958 9.06123C30.8646 9.27251 30.7279 9.46191 30.5569 9.61727L30.16 10.0061C29.8505 10.2866 29.6057 10.631 29.4426 11.0156C29.2796 11.4001 29.2022 11.8155 29.2158 12.233C29.2295 12.6504 29.3338 13.0599 29.5216 13.433C29.7094 13.8061 29.9761 14.1338 30.3033 14.3935L30.7243 14.7556C30.9106 14.8944 31.0632 15.0734 31.1707 15.2793C31.2783 15.4851 31.3381 15.7126 31.3456 15.9448C31.3531 16.177 31.3082 16.4079 31.2142 16.6203C31.1202 16.8327 30.9795 17.0212 30.8026 17.1718C30.7398 17.2333 30.6897 17.3066 30.6552 17.3875C30.6208 17.4684 30.6026 17.5552 30.6017 17.6432C30.6008 17.7311 30.6172 17.8183 30.65 17.8999C30.6828 17.9814 30.7313 18.0557 30.7929 18.1185C30.8544 18.1813 30.9277 18.2314 31.0086 18.2659C31.0894 18.3004 31.1763 18.3186 31.2642 18.3195C31.4418 18.3213 31.6128 18.2525 31.7396 18.1282C32.0492 17.8479 32.294 17.5035 32.4572 17.1189C32.6203 16.7344 32.6977 16.319 32.6842 15.9016C32.6706 15.4841 32.5663 15.0746 32.3786 14.7015C32.1909 14.3284 31.9242 14.0006 31.5971 13.7409L31.1754 13.3788C30.9888 13.2399 30.836 13.0608 30.7283 12.8546C30.6207 12.6485 30.5609 12.4207 30.5535 12.1883C30.5461 11.9558 30.5913 11.7247 30.6856 11.5121C30.78 11.2996 30.9211 11.111 31.0984 10.9606L31.4946 10.5717C31.7984 10.2878 32.0393 9.94354 32.202 9.56095C32.3646 9.17835 32.4454 8.76595 32.439 8.35026C32.4191 7.9342 32.3122 7.52694 32.125 7.15478C31.9379 6.78263 31.6748 6.45387 31.3528 6.18972L30.9311 5.82763C30.7498 5.68333 30.6008 5.50263 30.4937 5.29719C30.3866 5.09175 30.3238 4.86614 30.3093 4.63491C30.3093 4.40388 30.3576 4.1754 30.4511 3.96413C30.5445 3.75285 30.6811 3.56345 30.8521 3.40806C30.9151 3.34655 30.9653 3.27322 31 3.19226C31.0346 3.1113 31.0528 3.02431 31.0538 2.93627C31.0547 2.84823 31.0383 2.76087 31.0054 2.6792C30.9725 2.59753 30.9238 2.52315 30.8622 2.46032Z" fill="#161335"/>
<path d="M6.54866 13.4257L6.05337 13.5441C5.4112 13.6971 4.82885 14.0372 4.38009 14.5213C4.3185 14.5854 4.27029 14.6611 4.23828 14.7441C4.20626 14.827 4.19109 14.9154 4.19363 15.0043C4.19618 15.0932 4.2164 15.1806 4.25312 15.2616C4.28983 15.3425 4.3423 15.4153 4.40747 15.4758C4.47263 15.5362 4.54919 15.5831 4.63266 15.6137C4.71614 15.6442 4.80486 15.6578 4.89366 15.6537C4.98245 15.6496 5.06953 15.6278 5.14983 15.5897C5.23012 15.5516 5.30201 15.4978 5.3613 15.4316C5.63055 15.1412 5.97999 14.9374 6.36527 14.8459L6.86056 14.7268C7.63851 14.5359 8.3229 14.0738 8.79079 13.4237C9.25868 12.7735 9.4794 11.9778 9.41332 11.1795L9.36915 10.6714C9.32951 10.1926 9.46193 9.71528 9.74262 9.32528C10.0233 8.93529 10.4339 8.65817 10.9005 8.5437L11.3965 8.42456C12.1744 8.23352 12.8587 7.77144 13.3265 7.12129C13.7944 6.47113 14.0152 5.67549 13.9492 4.87721C13.9338 4.70032 13.8487 4.53681 13.7127 4.42264C13.5767 4.30848 13.4009 4.25303 13.224 4.26847C13.0472 4.28391 12.8836 4.36899 12.7695 4.50499C12.6553 4.641 12.5999 4.81678 12.6153 4.99367C12.6549 5.47267 12.5224 5.9501 12.2418 6.34028C11.9611 6.73047 11.5506 7.00788 11.0839 7.12275L10.5886 7.24122C9.81054 7.43189 9.126 7.89388 8.65806 8.54413C8.19013 9.19437 7.96952 9.99022 8.03588 10.7886L8.08005 11.2959C8.11977 11.775 7.98742 12.2526 7.70675 12.6429C7.42609 13.0333 7.01549 13.3108 6.54866 13.4257Z" fill="#161335"/>
<path d="M30.8964 30.7763C30.9478 30.7033 30.9842 30.6209 31.0033 30.5337C31.0224 30.4465 31.0239 30.3564 31.0076 30.2686C30.9914 30.1809 30.9578 30.0972 30.9087 30.0227C30.8597 29.9481 30.7962 29.8841 30.7221 29.8344C30.6479 29.7847 30.5646 29.7504 30.477 29.7334C30.3894 29.7164 30.2992 29.7171 30.2119 29.7354C30.1246 29.7538 30.0418 29.7894 29.9684 29.8402C29.895 29.891 29.8326 29.956 29.7847 30.0313L29.5256 30.4182C29.1193 31.0413 28.9267 31.7798 28.9771 32.522C29.0274 33.2642 29.318 33.9699 29.8048 34.5325L30.1113 34.8778C30.4009 35.2196 30.5734 35.6452 30.6036 36.0921C30.6338 36.5391 30.5202 36.9839 30.2793 37.3616C30.228 37.4347 30.1918 37.5172 30.1728 37.6044C30.1539 37.6916 30.1525 37.7818 30.1689 37.8695C30.1853 37.9572 30.2191 38.0408 30.2683 38.1153C30.3175 38.1898 30.381 38.2537 30.4553 38.3032C30.5295 38.3528 30.6129 38.387 30.7006 38.4038C30.7882 38.4207 30.8784 38.4198 30.9657 38.4013C31.053 38.3828 31.1357 38.347 31.209 38.296C31.2823 38.2451 31.3446 38.18 31.3924 38.1046C31.7989 37.4815 31.9916 36.743 31.9412 36.0007C31.8909 35.2585 31.6003 34.5528 31.1133 33.9903L30.8067 33.6449C30.5173 33.3034 30.3447 32.8781 30.3144 32.4314C30.284 31.9847 30.3975 31.5401 30.638 31.1625L30.8964 30.7763Z" fill="#161335"/>
<path d="M17.2119 31.4128C17.2613 31.3398 17.2959 31.2577 17.3135 31.1714C17.3311 31.085 17.3316 30.996 17.3147 30.9095C17.2978 30.8229 17.2641 30.7406 17.2153 30.6672C17.1665 30.5937 17.1038 30.5306 17.0305 30.4815C16.9573 30.4324 16.8751 30.3983 16.7887 30.381C16.7022 30.3638 16.6132 30.3638 16.5268 30.381C16.4403 30.3983 16.3582 30.4324 16.2849 30.4815C16.2117 30.5306 16.1489 30.5937 16.1002 30.6671L15.8405 31.054C15.434 31.6769 15.2413 32.4152 15.2915 33.1574C15.3417 33.8995 15.6322 34.6051 16.1189 35.1676L16.4261 35.5136C16.716 35.8553 16.8886 36.2809 16.9187 36.728C16.9489 37.175 16.8348 37.62 16.5935 37.9974C16.4949 38.1451 16.4591 38.3259 16.4939 38.5C16.5287 38.6741 16.6312 38.8273 16.7789 38.9258C16.9265 39.0243 17.1073 39.0601 17.2814 39.0253C17.4555 38.9906 17.6087 38.8881 17.7072 38.7404C18.1137 38.1175 18.3064 37.3791 18.2561 36.637C18.2059 35.8949 17.9155 35.1893 17.4288 34.6268L17.1215 34.2801C16.8319 33.9388 16.6592 33.5136 16.6288 33.0669C16.5985 32.6203 16.712 32.1757 16.9529 31.7983L17.2119 31.4128Z" fill="#161335"/>
<path d="M18.9665 24.0791C18.7504 24.2116 18.5113 24.3024 18.2617 24.3469C18.0121 24.3024 17.7731 24.2116 17.5569 24.0791C17.1601 23.8448 16.7137 23.7072 16.2538 23.6776C15.5671 23.7449 14.9259 24.0512 14.442 24.543C14.3275 24.6701 14.266 24.8362 14.2702 25.0072C14.2744 25.1782 14.3439 25.3411 14.4644 25.4625C14.5849 25.5838 14.7473 25.6545 14.9183 25.6598C15.0892 25.6652 15.2558 25.6049 15.3837 25.4914C15.6187 25.2482 15.9222 25.0825 16.2538 25.0162C16.5034 25.0606 16.7424 25.1514 16.9586 25.2839C17.3554 25.5182 17.8018 25.6558 18.2617 25.6855C18.7216 25.6558 19.168 25.5182 19.5649 25.2839C19.781 25.1514 20.0201 25.0606 20.2697 25.0162C20.6011 25.0824 20.9046 25.2479 21.1398 25.4907C21.2662 25.6125 21.4353 25.6797 21.6108 25.6779C21.7863 25.6762 21.9541 25.6055 22.078 25.4813C22.202 25.357 22.2721 25.189 22.2734 25.0135C22.2747 24.838 22.2069 24.669 22.0848 24.543C21.6001 24.0505 20.9575 23.7441 20.2697 23.6776C19.8098 23.7072 19.3633 23.8448 18.9665 24.0791Z" fill="#161335"/>
</g>
<defs>
<clipPath id="clip0_51_1623">
<rect width="40.1587" height="40.1587" fill="white" transform="translate(0.19043 0.920898)"/>
</clipPath>
</defs>
</svg>
