<svg width="512" height="512" viewBox="0 0 512 512" fill="none" xmlns="http://www.w3.org/2000/svg">
<g clip-path="url(#clip0_26_445)">
<path d="M294.468 503.262C283.722 501.923 273.85 496.659 266.749 488.482C259.648 480.306 255.82 469.793 256 458.965V349.867C256 347.603 255.101 345.433 253.501 343.833C251.9 342.232 249.73 341.333 247.467 341.333H95.4112C87.1827 341.636 79.0423 339.552 71.9721 335.331C64.9019 331.111 59.204 324.935 55.5657 317.548C51.9274 310.162 50.5042 301.88 51.4678 293.702C52.4314 285.525 55.7406 277.801 60.9962 271.462L265.796 23.9957C271.48 17.1108 279.18 12.1824 287.813 9.90434C296.445 7.62632 305.574 8.11356 313.915 11.2974C322.256 14.4813 329.388 20.2014 334.307 27.6522C339.225 35.1029 341.683 43.9088 341.333 52.8299V247.467C341.333 249.73 342.232 251.9 343.833 253.501C345.433 255.101 347.603 256 349.867 256H399.232C410.06 255.82 420.572 259.648 428.749 266.749C436.925 273.85 442.189 283.722 443.529 294.468C444.115 300.397 443.453 306.382 441.586 312.039C439.719 317.696 436.688 322.9 432.688 327.315C428.688 331.729 423.808 335.258 418.361 337.672C412.915 340.086 407.024 341.334 401.067 341.333H349.867C347.603 341.333 345.433 342.232 343.833 343.833C342.232 345.433 341.333 347.603 341.333 349.867V460.8C341.334 466.757 340.086 472.649 337.672 478.095C335.258 483.541 331.729 488.421 327.315 492.421C322.9 496.421 317.696 499.452 312.039 501.319C306.382 503.186 300.397 503.848 294.468 503.262ZM202.701 256H247.467C249.73 256 251.9 255.101 253.501 253.501C255.101 251.9 256 249.73 256 247.467V193.374C256 191.618 255.458 189.905 254.449 188.469C253.44 187.032 252.012 185.942 250.36 185.346C248.709 184.751 246.914 184.68 245.22 185.142C243.526 185.604 242.016 186.578 240.896 187.93L196.122 242.022C195.088 243.27 194.43 244.787 194.227 246.394C194.023 248.002 194.282 249.635 194.972 251.101C195.662 252.567 196.755 253.806 198.124 254.674C199.493 255.542 201.08 256.002 202.701 256Z" fill="#FFB500"/>
<path d="M315.733 52.8299V247.467C315.733 249.73 316.632 251.9 318.233 253.501C319.833 255.101 322.003 256 324.267 256H349.867C347.603 256 345.433 255.101 343.833 253.501C342.232 251.9 341.333 249.73 341.333 247.467V52.8299C341.593 45.9871 340.2 39.1825 337.272 32.9923C334.344 26.8022 329.968 21.4087 324.513 17.2687C319.059 13.1287 312.687 10.364 305.938 9.20885C299.188 8.05369 292.259 8.54203 285.739 10.6325C294.66 13.4267 302.421 19.064 307.837 26.6836C313.253 34.3031 316.026 43.4861 315.733 52.8299Z" fill="#FFB500"/>
<path d="M315.733 349.867V460.8C315.727 469.864 312.835 478.69 307.475 485.999C302.116 493.308 294.568 498.721 285.926 501.453C292.31 503.463 299.077 503.942 305.68 502.85C312.282 501.758 318.535 499.125 323.931 495.166C329.327 491.207 333.714 486.033 336.738 480.062C339.761 474.091 341.335 467.493 341.333 460.8V349.867C341.333 347.604 342.232 345.433 343.833 343.833C345.433 342.232 347.603 341.333 349.867 341.333H324.267C322.003 341.333 319.833 342.232 318.233 343.833C316.632 345.433 315.733 347.604 315.733 349.867Z" fill="#FFB500"/>
<path d="M443.529 294.468C442.189 283.722 436.925 273.85 428.749 266.749C420.572 259.648 410.06 255.82 399.232 256H373.632C384.46 255.822 394.973 259.65 403.15 266.751C411.328 273.851 416.594 283.722 417.937 294.468C418.523 300.397 417.861 306.384 415.994 312.041C414.126 317.699 411.094 322.903 407.093 327.318C403.092 331.733 398.211 335.261 392.764 337.675C387.317 340.089 381.425 341.335 375.467 341.333H401.067C407.024 341.334 412.915 340.086 418.361 337.672C423.808 335.258 428.688 331.729 432.688 327.315C436.688 322.9 439.719 317.696 441.586 312.039C443.453 306.382 444.115 300.397 443.529 294.468Z" fill="#FFB500"/>
<path d="M256 349.867V458.965C255.839 469.788 259.674 480.291 266.771 488.463C273.868 496.636 283.73 501.905 294.468 503.262C295.322 503.347 298.428 503.458 299.75 503.424C303.747 503.303 307.708 502.64 311.526 501.453C302.723 498.388 295.101 492.641 289.733 485.02C284.365 477.399 281.521 468.287 281.6 458.965V349.867C281.6 347.603 280.701 345.433 279.101 343.833C277.5 342.232 275.33 341.333 273.067 341.333H247.467C249.73 341.333 251.9 342.232 253.501 343.833C255.101 345.433 256 347.603 256 349.867Z" fill="white"/>
<path d="M95.4112 341.333H121.011C112.783 341.636 104.642 339.552 97.5721 335.331C90.5019 331.111 84.804 324.935 81.1657 317.548C77.5274 310.162 76.1042 301.88 77.0678 293.702C78.0314 285.525 81.3406 277.801 86.5962 271.462L291.396 23.9957C296.577 17.6596 303.506 12.986 311.322 10.5557C303.263 7.94836 294.604 7.83649 286.48 10.2348C278.357 12.633 271.147 17.4295 265.796 23.9957L60.9962 271.462C55.7406 277.801 52.4314 285.525 51.4678 293.702C50.5042 301.88 51.9274 310.162 55.5657 317.548C59.204 324.935 64.9019 331.111 71.9721 335.331C79.0423 339.552 87.1827 341.636 95.4112 341.333Z" fill="white"/>
<path d="M54.3439 266.14L97.898 213.575L111.039 224.463L67.4852 277.029L54.3439 266.14Z" fill="white"/>
<path d="M82.9269 253.696C81.8063 253.702 80.6956 253.486 79.6581 253.063C78.6207 252.639 77.6768 252.015 76.8805 251.227C75.2721 249.635 74.3623 247.469 74.3509 245.205C74.3396 242.942 75.2278 240.767 76.8201 239.159C78.4124 237.551 80.5784 236.641 82.8416 236.629H82.9269C85.1901 236.629 87.3606 237.528 88.9609 239.129C90.5612 240.729 91.4603 242.9 91.4603 245.163C91.4603 247.426 90.5612 249.596 88.9609 251.197C87.3606 252.797 85.1901 253.696 82.9269 253.696Z" fill="#161335"/>
<path d="M47.5136 320.401C51.7696 329.436 58.5666 337.035 67.0733 342.269C75.58 347.502 85.4275 350.142 95.4112 349.867H247.467V458.965C247.322 471.907 251.954 484.447 260.476 494.188C268.998 503.928 280.812 510.185 293.658 511.761C295.296 511.915 296.926 512 298.556 512C305.289 512.015 311.959 510.701 318.183 508.135C324.408 505.568 330.065 501.799 334.831 497.043C339.598 492.287 343.379 486.638 345.959 480.419C348.539 474.2 349.867 467.533 349.867 460.8V349.867H401.067C408.213 349.868 415.281 348.372 421.815 345.477C428.349 342.582 434.204 338.351 439.005 333.057C443.805 327.762 447.444 321.521 449.686 314.736C451.929 307.95 452.727 300.77 452.028 293.658C450.452 280.812 444.195 268.998 434.454 260.476C424.714 251.954 412.173 247.322 399.232 247.467H349.867V52.8299C350.198 42.0067 347.093 31.3568 340.996 22.4083C334.898 13.4597 326.123 6.67261 315.93 3.02079C306.036 -0.613535 295.256 -1.06972 285.091 1.71586C274.926 4.50144 265.884 10.3899 259.226 18.56L97.9456 213.436C97.2312 214.299 96.6939 215.295 96.3643 216.366C96.0347 217.437 95.9193 218.563 96.0247 219.678C96.1301 220.794 96.4542 221.878 96.9785 222.868C97.5028 223.859 98.2171 224.736 99.0806 225.451C99.944 226.165 100.94 226.702 102.011 227.032C103.082 227.362 104.207 227.477 105.323 227.372C106.439 227.266 107.523 226.942 108.513 226.418C109.504 225.893 110.381 225.179 111.095 224.316L272.367 29.44C276.804 23.9964 282.829 20.0727 289.603 18.2158C296.376 16.3589 303.559 16.6611 310.153 19.0805C317.047 21.5351 322.969 26.1403 327.047 32.2169C331.125 38.2936 333.142 45.5198 332.8 52.8299V247.467C332.8 251.993 334.598 256.334 337.799 259.535C340.999 262.735 345.34 264.533 349.867 264.533H399.232C407.938 264.35 416.407 267.382 423.019 273.049C429.63 278.716 433.922 286.621 435.072 295.253C435.549 300.003 435.025 304.801 433.533 309.336C432.041 313.87 429.614 318.042 426.409 321.58C423.205 325.118 419.293 327.945 414.928 329.878C410.563 331.811 405.841 332.806 401.067 332.8H349.867C345.34 332.8 340.999 334.598 337.799 337.799C334.598 340.999 332.8 345.34 332.8 349.867V460.8C332.801 465.571 331.802 470.289 329.868 474.651C327.933 479.012 325.105 482.919 321.567 486.12C318.029 489.321 313.86 491.745 309.327 493.235C304.795 494.725 300.001 495.248 295.253 494.771C286.621 493.621 278.716 489.33 273.049 482.718C267.382 476.106 264.35 467.638 264.533 458.931V349.867C264.533 345.34 262.735 340.999 259.535 337.799C256.334 334.598 251.993 332.8 247.467 332.8H95.4112C88.6849 333.027 82.0378 331.292 76.2801 327.807C70.5225 324.322 65.9029 319.238 62.9846 313.173C60.1984 307.328 59.1514 300.804 59.9684 294.381C60.7854 287.957 63.4319 281.903 67.5926 276.941C69.0365 275.197 69.7285 272.951 69.5165 270.697C69.3044 268.443 68.2057 266.366 66.4619 264.922C64.7181 263.478 62.4722 262.786 60.2181 262.998C57.9641 263.21 55.8866 264.309 54.4427 266.052C48.2046 273.497 44.2355 282.576 43.0071 292.21C41.7788 301.845 43.343 311.63 47.5136 320.401Z" fill="#161335"/>
<path d="M253.252 177.314C249.95 176.101 246.352 175.947 242.958 176.874C239.564 177.8 236.544 179.762 234.317 182.485L189.551 236.587C187.487 239.081 186.175 242.112 185.768 245.325C185.362 248.537 185.878 251.799 187.256 254.729C188.634 257.659 190.817 260.137 193.55 261.873C196.283 263.609 199.454 264.532 202.692 264.533H247.467C251.993 264.533 256.334 262.735 259.535 259.535C262.735 256.334 264.533 251.993 264.533 247.467V193.374C264.559 189.856 263.486 186.417 261.464 183.538C259.441 180.659 256.571 178.483 253.252 177.314ZM247.467 247.467H202.692L247.467 193.374V247.467Z" fill="#161335"/>
<path d="M204.8 136.533C198.01 136.533 191.499 139.23 186.698 144.031C181.897 148.832 179.2 155.344 179.2 162.133C179.2 164.397 180.099 166.567 181.699 168.167C183.3 169.768 185.47 170.667 187.733 170.667C189.997 170.667 192.167 169.768 193.767 168.167C195.368 166.567 196.267 164.397 196.267 162.133C196.267 159.87 197.166 157.7 198.766 156.099C200.366 154.499 202.537 153.6 204.8 153.6C207.063 153.6 209.234 154.499 210.834 156.099C212.434 157.7 213.333 159.87 213.333 162.133C213.333 164.397 214.232 166.567 215.833 168.167C217.433 169.768 219.604 170.667 221.867 170.667C224.13 170.667 226.3 169.768 227.901 168.167C229.501 166.567 230.4 164.397 230.4 162.133C230.4 155.344 227.703 148.832 222.902 144.031C218.101 139.23 211.59 136.533 204.8 136.533Z" fill="#161335"/>
<path d="M281.6 162.133C281.6 159.87 282.499 157.7 284.099 156.099C285.7 154.499 287.87 153.6 290.133 153.6C292.397 153.6 294.567 154.499 296.167 156.099C297.768 157.7 298.667 159.87 298.667 162.133C298.667 164.397 299.566 166.567 301.166 168.167C302.766 169.768 304.937 170.667 307.2 170.667C309.463 170.667 311.634 169.768 313.234 168.167C314.834 166.567 315.733 164.397 315.733 162.133C315.733 155.344 313.036 148.832 308.235 144.031C303.434 139.23 296.923 136.533 290.133 136.533C283.344 136.533 276.832 139.23 272.031 144.031C267.23 148.832 264.533 155.344 264.533 162.133C264.533 164.397 265.432 166.567 267.033 168.167C268.633 169.768 270.804 170.667 273.067 170.667C275.33 170.667 277.5 169.768 279.101 168.167C280.701 166.567 281.6 164.397 281.6 162.133Z" fill="#161335"/>
<path d="M391.049 19.6267C389.465 18.0098 387.305 17.088 385.042 17.064C382.779 17.04 380.6 17.9158 378.982 19.4987C375.096 23.1273 372.015 27.5319 369.94 32.4269C367.864 37.322 366.84 42.5985 366.933 47.9147C367.186 53.2182 368.55 58.4096 370.936 63.1531C373.321 67.8965 376.676 72.0864 380.783 75.4517L386.15 80.0683C388.456 81.9036 390.352 84.2007 391.717 86.8121C393.082 89.4235 393.887 92.2915 394.078 95.232C394.078 98.1776 393.463 101.091 392.271 103.784C391.079 106.478 389.338 108.893 387.157 110.874L382.097 115.831C378.151 119.407 375.03 123.798 372.951 128.701C370.872 133.604 369.885 138.9 370.059 144.222C370.233 149.545 371.563 154.765 373.957 159.522C376.351 164.279 379.752 168.457 383.923 171.767L389.291 176.384C391.666 178.153 393.611 180.436 394.983 183.061C396.354 185.686 397.116 188.586 397.212 191.546C397.308 194.506 396.735 197.45 395.537 200.158C394.338 202.867 392.545 205.27 390.289 207.189C389.488 207.974 388.85 208.908 388.411 209.939C387.971 210.97 387.739 212.078 387.727 213.199C387.716 214.32 387.925 215.432 388.344 216.472C388.762 217.512 389.381 218.459 390.165 219.26C390.95 220.06 391.884 220.699 392.915 221.138C393.947 221.578 395.054 221.81 396.175 221.821C398.439 221.845 400.619 220.968 402.236 219.383C406.183 215.809 409.304 211.418 411.384 206.516C413.464 201.613 414.451 196.317 414.278 190.995C414.105 185.672 412.776 180.451 410.382 175.694C407.989 170.937 404.589 166.758 400.418 163.447L395.042 158.831C392.664 157.061 390.715 154.776 389.343 152.148C387.97 149.52 387.208 146.616 387.114 143.652C387.019 140.689 387.595 137.742 388.798 135.032C390.001 132.322 391.8 129.918 394.061 128L399.113 123.042C402.985 119.423 406.057 115.033 408.131 110.156C410.204 105.278 411.234 100.02 411.153 94.72C410.899 89.4154 409.535 84.2231 407.15 79.4784C404.764 74.7337 401.41 70.5421 397.304 67.1744L391.928 62.5579C389.617 60.7181 387.717 58.4143 386.352 55.7951C384.986 53.1759 384.185 50.2994 384 47.3515C384 44.406 384.616 41.493 385.808 38.7994C386.999 36.1058 388.741 33.691 390.921 31.7099C391.724 30.9256 392.364 29.9907 392.805 28.9585C393.247 27.9263 393.48 26.8173 393.492 25.6948C393.504 24.5724 393.294 23.4586 392.875 22.4173C392.455 21.3761 391.835 20.4277 391.049 19.6267Z" fill="#161335"/>
<path d="M81.0667 159.428L74.752 160.939C66.5647 162.889 59.1401 167.225 53.4187 173.397C52.6334 174.214 52.0188 175.18 51.6106 176.237C51.2025 177.294 51.009 178.422 51.0415 179.555C51.074 180.688 51.3318 181.803 51.7999 182.835C52.2679 183.867 52.9369 184.795 53.7677 185.566C54.5986 186.337 55.5746 186.935 56.6388 187.324C57.7031 187.713 58.8343 187.887 59.9663 187.835C61.0984 187.782 62.2087 187.505 63.2323 187.018C64.256 186.532 65.1726 185.847 65.9286 185.003C69.3613 181.301 73.8164 178.702 78.7286 177.536L85.0432 176.017C94.9617 173.583 103.687 167.692 109.652 159.403C115.618 151.113 118.432 140.968 117.589 130.79L117.026 124.314C116.521 118.208 118.209 112.123 121.788 107.151C125.366 102.179 130.601 98.6455 136.55 97.1861L142.874 95.6672C152.791 93.2315 161.516 87.3403 167.481 79.0512C173.446 70.7621 176.261 60.6181 175.42 50.4405C175.223 48.1853 174.138 46.1006 172.404 44.6451C170.67 43.1896 168.429 42.4826 166.174 42.6795C163.919 42.8764 161.834 43.9611 160.379 45.695C158.923 47.429 158.216 49.6701 158.413 51.9253C158.917 58.0324 157.229 64.1192 153.651 69.0939C150.072 74.0685 144.839 77.6054 138.889 79.0699L132.574 80.5803C122.654 83.0112 113.926 88.9013 107.96 97.1916C101.994 105.482 99.1817 115.628 100.028 125.807L100.591 132.275C101.097 138.384 99.41 144.473 95.8317 149.449C92.2534 154.425 87.0185 157.964 81.0667 159.428Z" fill="#161335"/>
<path d="M391.484 380.638C392.14 379.708 392.603 378.657 392.847 377.545C393.09 376.434 393.109 375.285 392.902 374.166C392.695 373.047 392.266 371.981 391.641 371.03C391.015 370.079 390.206 369.263 389.261 368.63C388.316 367.996 387.253 367.558 386.136 367.342C385.019 367.125 383.87 367.134 382.757 367.368C381.643 367.602 380.588 368.056 379.652 368.704C378.717 369.352 377.92 370.18 377.31 371.14L374.007 376.073C368.827 384.017 366.372 393.432 367.014 402.895C367.656 412.358 371.36 421.355 377.566 428.527L381.474 432.93C385.166 437.288 387.365 442.713 387.751 448.412C388.136 454.11 386.687 459.782 383.616 464.597C382.962 465.528 382.5 466.581 382.258 467.693C382.017 468.805 382 469.954 382.209 471.072C382.418 472.191 382.849 473.256 383.476 474.206C384.103 475.156 384.913 475.97 385.86 476.602C386.806 477.234 387.869 477.67 388.987 477.885C390.105 478.099 391.254 478.089 392.367 477.853C393.48 477.617 394.535 477.16 395.469 476.511C396.403 475.861 397.198 475.031 397.807 474.069C402.99 466.126 405.447 456.71 404.805 447.247C404.163 437.783 400.457 428.786 394.249 421.615L390.34 417.212C386.65 412.857 384.45 407.435 384.064 401.74C383.677 396.045 385.123 390.376 388.19 385.562L391.484 380.638Z" fill="#161335"/>
<path d="M217.011 388.753C217.641 387.823 218.082 386.777 218.307 385.676C218.532 384.574 218.537 383.44 218.322 382.337C218.107 381.233 217.676 380.183 217.055 379.247C216.433 378.311 215.632 377.507 214.699 376.881C213.766 376.255 212.718 375.819 211.616 375.599C210.513 375.379 209.379 375.379 208.277 375.599C207.174 375.819 206.126 376.255 205.193 376.881C204.26 377.507 203.459 378.311 202.837 379.247L199.526 384.179C194.344 392.121 191.887 401.534 192.527 410.996C193.168 420.458 196.871 429.454 203.076 436.625L206.993 441.037C210.688 445.393 212.89 450.82 213.274 456.519C213.658 462.219 212.204 467.891 209.126 472.704C207.87 474.587 207.414 476.892 207.857 479.111C208.3 481.331 209.607 483.284 211.49 484.54C213.373 485.796 215.678 486.252 217.898 485.809C220.117 485.366 222.07 484.059 223.326 482.176C228.508 474.234 230.965 464.821 230.325 455.359C229.684 445.897 225.982 436.901 219.776 429.73L215.859 425.31C212.166 420.958 209.964 415.538 209.577 409.843C209.19 404.148 210.638 398.48 213.709 393.668L217.011 388.753Z" fill="#161335"/>
<path d="M239.386 295.253C236.63 296.942 233.582 298.1 230.4 298.667C227.218 298.1 224.17 296.942 221.414 295.253C216.355 292.266 210.663 290.512 204.8 290.133C196.045 290.992 187.87 294.897 181.7 301.167C180.241 302.787 179.458 304.905 179.511 307.085C179.564 309.265 180.45 311.342 181.986 312.89C183.523 314.437 185.593 315.338 187.773 315.406C189.953 315.475 192.076 314.706 193.707 313.259C196.703 310.159 200.573 308.045 204.8 307.2C207.982 307.767 211.03 308.925 213.786 310.613C218.845 313.601 224.537 315.355 230.4 315.733C236.263 315.355 241.955 313.601 247.014 310.613C249.77 308.925 252.818 307.767 256 307.2C260.226 308.045 264.095 310.155 267.093 313.25C268.705 314.802 270.862 315.66 273.099 315.637C275.337 315.615 277.476 314.714 279.056 313.13C280.636 311.545 281.53 309.404 281.546 307.166C281.563 304.928 280.699 302.774 279.142 301.167C272.962 294.888 264.77 290.982 256 290.133C250.137 290.512 244.445 292.266 239.386 295.253Z" fill="#161335"/>
</g>
<defs>
<clipPath id="clip0_26_445">
<rect width="512" height="512" fill="white"/>
</clipPath>
</defs>
</svg>
