<svg width="41" height="41" viewBox="0 0 41 41" fill="none" xmlns="http://www.w3.org/2000/svg">
<g clip-path="url(#clip0_51_1624)">
<path d="M32.5876 26.2938C32.5662 29.8607 31.1306 33.2734 28.5959 35.783C26.0612 38.2926 22.6344 39.6942 19.0675 39.6801C15.8854 39.6763 12.8049 38.5594 10.3597 36.5229C9.96527 36.1906 9.6531 35.7714 9.4477 35.2982C9.2423 34.825 9.14925 34.3107 9.17583 33.7956C9.20241 33.2805 9.3479 32.7785 9.60091 32.3289C9.85392 31.8794 10.2076 31.4946 10.6342 31.2046C11.2461 30.7972 11.9739 30.5995 12.7079 30.6412C13.4418 30.683 14.1424 30.962 14.7043 31.4362C19.1344 35.0411 25.8945 31.9643 25.8945 26.2938C25.8943 25.287 25.6646 24.2935 25.2227 23.3889C24.7808 22.4842 24.1384 21.6922 23.3444 21.0732C19.4236 17.9857 16.9531 21.0946 14.4626 19.1791C14.0677 18.8655 13.7476 18.4679 13.5253 18.0153C13.303 17.5627 13.1842 17.0663 13.1776 16.562V4.20655C13.1776 3.31899 13.5301 2.46777 14.1577 1.84017C14.7853 1.21257 15.6365 0.859988 16.5241 0.859988H29.0958C29.9451 0.845651 30.7697 1.14564 31.4112 1.70231C32.0528 2.25899 32.466 3.03309 32.5715 3.87591C32.6177 4.34101 32.566 4.81062 32.4196 5.2545C32.2732 5.69838 32.0355 6.10668 31.7218 6.4531C31.408 6.79952 31.0252 7.07638 30.5979 7.26583C30.1706 7.45529 29.7084 7.55315 29.241 7.55311H19.8707V12.9411C23.2953 13.12 26.5214 14.6034 28.8864 17.0867C31.2515 19.57 32.5759 22.8646 32.5876 26.2938Z" fill="white"/>
<path d="M30.5636 3.87591C30.6098 4.34101 30.558 4.81062 30.4117 5.2545C30.2653 5.69838 30.0276 6.10668 29.7139 6.4531C29.4001 6.79952 29.0173 7.07638 28.59 7.26583C28.1627 7.45529 27.7005 7.55315 27.2331 7.55311H29.2411C29.7085 7.55315 30.1707 7.45529 30.5979 7.26583C31.0252 7.07638 31.408 6.79952 31.7218 6.4531C32.0356 6.10668 32.2733 5.69838 32.4196 5.2545C32.566 4.81062 32.6177 4.34101 32.5716 3.87591C32.466 3.03309 32.0528 2.25899 31.4113 1.70231C30.7697 1.14564 29.9451 0.845651 29.0958 0.859988H27.0879C27.9372 0.845651 28.7618 1.14564 29.4033 1.70231C30.0449 2.25899 30.4581 3.03309 30.5636 3.87591Z" fill="white"/>
<path d="M19.8707 12.9411V7.5531H17.8628V12.9411C21.2784 13.1077 24.5001 14.5773 26.8651 17.0472C29.2301 19.5172 30.5584 22.7997 30.5767 26.2193C30.5949 29.6389 29.3018 32.9354 26.9633 35.4305C24.6248 37.9256 21.419 39.4294 18.0054 39.6326C19.7776 39.7915 21.5637 39.5954 23.2592 39.0556C24.9548 38.5159 26.5256 37.6435 27.8799 36.4893C29.2341 35.3352 30.3446 33.9225 31.1463 32.334C31.948 30.7455 32.4248 29.013 32.5489 27.238C32.6729 25.463 32.4417 23.6811 31.8687 21.9965C31.2958 20.3119 30.3926 18.7585 29.2121 17.4272C28.0315 16.0959 26.5973 15.0135 24.9933 14.2431C23.3893 13.4728 21.6478 13.0302 19.8707 12.9411Z" fill="white"/>
<path d="M17.1936 5.54517C17.9329 5.54517 18.5322 4.94585 18.5322 4.20654C18.5322 3.46724 17.9329 2.86792 17.1936 2.86792C16.4543 2.86792 15.855 3.46724 15.855 4.20654C15.855 4.94585 16.4543 5.54517 17.1936 5.54517Z" fill="#E8EDFC"/>
<path d="M10.6342 31.2046C10.2077 31.4947 9.85426 31.8796 9.60135 32.329C9.34844 32.7785 9.20298 33.2804 9.17634 33.7955C9.1497 34.3105 9.2426 34.8248 9.44779 35.2979C9.65297 35.7711 9.96486 36.1904 10.3591 36.523C13.0541 38.7687 16.5142 39.8832 20.0132 39.6326C17.2046 39.4101 14.5337 38.3238 12.367 36.523C11.9114 36.1394 11.5668 35.6407 11.3691 35.0789C11.1715 34.517 11.128 33.9125 11.2431 33.3281C11.3582 32.7438 11.6278 32.2009 12.0238 31.756C12.4198 31.3111 12.9277 30.9804 13.4948 30.7983C13.0183 30.645 12.5133 30.6019 12.0177 30.6723C11.5222 30.7427 11.0491 30.9247 10.6342 31.2046Z" fill="white"/>
<path d="M13.1777 4.20655V16.562C13.1844 17.0663 13.3032 17.5627 13.5255 18.0153C13.7477 18.4679 14.0679 18.8655 14.4628 19.1791C15.5156 19.9883 16.5651 19.8999 17.7217 19.7614C17.0007 19.5911 16.3583 19.1827 15.8981 18.6021C15.4379 18.0216 15.1869 17.3028 15.1857 16.562V4.20655C15.1857 3.31898 15.5383 2.46777 16.1659 1.84017C16.7935 1.21257 17.6447 0.859985 18.5322 0.859985H16.5243C15.6367 0.859985 14.7855 1.21257 14.1579 1.84017C13.5303 2.46777 13.1777 3.31898 13.1777 4.20655Z" fill="white"/>
<path d="M19.6336 32.2722L19.7634 33.6048C17.7904 33.7978 15.8208 33.2052 14.2817 31.9556L15.1264 30.9175C16.3918 31.9449 18.0114 32.4317 19.6336 32.2722Z" fill="white"/>
<path d="M17.0594 33.3551C16.9715 33.3555 16.8844 33.3387 16.803 33.3054C16.7216 33.2722 16.6476 33.2233 16.5851 33.1614C16.5227 33.0996 16.473 33.0261 16.439 32.945C16.4049 32.864 16.3872 32.777 16.3867 32.6891C16.3863 32.6012 16.4032 32.5141 16.4364 32.4327C16.4696 32.3514 16.5186 32.2773 16.5804 32.2149C16.6422 32.1524 16.7158 32.1028 16.7968 32.0687C16.8778 32.0347 16.9648 32.0169 17.0527 32.0165H17.0594C17.2369 32.0165 17.4071 32.087 17.5327 32.2125C17.6582 32.338 17.7287 32.5083 17.7287 32.6858C17.7287 32.8633 17.6582 33.0335 17.5327 33.1591C17.4071 33.2846 17.2369 33.3551 17.0594 33.3551Z" fill="#161335"/>
<path d="M11.0123 31.7574C11.5051 31.4313 12.0906 31.2745 12.6804 31.3107C13.2702 31.347 13.8321 31.5743 14.2812 31.9582C14.3494 32.0138 14.4278 32.0553 14.5121 32.0805C14.5963 32.1057 14.6846 32.114 14.7721 32.1051C14.8595 32.0961 14.9443 32.0701 15.0217 32.0283C15.0991 31.9866 15.1675 31.93 15.223 31.8619C15.2785 31.7937 15.32 31.7153 15.3452 31.6311C15.3704 31.5468 15.3788 31.4585 15.3698 31.371C15.3609 31.2836 15.3348 31.1988 15.293 31.1214C15.2513 31.044 15.1947 30.9756 15.1266 30.9201C14.4541 30.3525 13.6151 30.0193 12.7364 29.971C11.8578 29.9227 10.9873 30.1619 10.2567 30.6524C9.74007 31.0023 9.31266 31.4684 9.00871 32.0133C8.70476 32.5582 8.53273 33.1668 8.50642 33.7901C8.47409 34.4053 8.58611 35.0195 8.83354 35.5836C9.08097 36.1477 9.45693 36.6461 9.93139 37.039C12.4972 39.1747 15.7291 40.3458 19.0675 40.3494C22.69 40.3869 26.1869 39.0233 28.8277 36.5434C31.4685 34.0636 33.049 30.6592 33.2391 27.0415C33.4292 23.4239 32.2141 19.8726 29.8476 17.1297C27.4812 14.3868 24.1464 12.6642 20.54 12.322V8.22243H29.241C29.8017 8.22252 30.3562 8.10521 30.8688 7.87804C31.3814 7.65088 31.8407 7.3189 32.2172 6.90347C32.5938 6.48804 32.8791 5.99837 33.055 5.46599C33.2308 4.9336 33.2932 4.3703 33.2382 3.81233C33.1138 2.80495 32.6226 1.87871 31.8585 1.21062C31.0943 0.542522 30.1108 0.179415 29.0958 0.190684H16.5241C15.4594 0.191747 14.4385 0.615188 13.6856 1.36808C12.9327 2.12097 12.5093 3.14181 12.5082 4.20656V16.5621C12.514 17.1688 12.6559 17.7665 12.9236 18.311C13.1914 18.8555 13.578 19.3328 14.055 19.7078C15.3695 20.7192 16.6821 20.5605 17.9524 20.4066C19.4303 20.2279 20.9576 20.0438 22.9294 21.5966C23.5828 22.1037 24.123 22.7418 24.5153 23.4699C24.9076 24.1981 25.1433 25.0002 25.2073 25.8248C25.2714 26.6494 25.1623 27.4783 24.8871 28.2582C24.6119 29.0382 24.1767 29.752 23.6094 30.3539C22.5558 31.4472 21.1454 32.127 19.6337 32.2701C19.4669 32.2981 19.3151 32.3837 19.205 32.5122C19.0949 32.6407 19.0334 32.8037 19.0314 32.9729C19.0304 33.0649 19.0495 33.1559 19.0874 33.2397C19.1253 33.3235 19.181 33.398 19.2507 33.4579C19.3204 33.5179 19.4023 33.562 19.4908 33.587C19.5793 33.612 19.6721 33.6174 19.7629 33.6027C21.5948 33.4284 23.3035 32.6029 24.5786 31.2762C25.2743 30.5395 25.8083 29.6655 26.1464 28.7103C26.4845 27.7551 26.6193 26.7398 26.542 25.7295C26.4648 24.7192 26.1772 23.7361 25.6978 22.8435C25.2183 21.9508 24.5576 21.1682 23.758 20.5458C21.3485 18.647 19.3747 18.8859 17.7911 19.078C16.6071 19.2206 15.7511 19.3243 14.8702 18.647C14.5565 18.3964 14.302 18.0795 14.1251 17.7191C13.9482 17.3587 13.8532 16.9635 13.8469 16.5621V4.20656C13.8469 3.49651 14.1289 2.81554 14.631 2.31346C15.1331 1.81137 15.8141 1.52931 16.5241 1.52931H29.0958C29.7786 1.51522 30.4427 1.75312 30.9612 2.19758C31.4797 2.64204 31.8164 3.26191 31.9069 3.93883C31.9443 4.31129 31.9032 4.68745 31.7863 5.04305C31.6693 5.39864 31.4791 5.72575 31.2279 6.00327C30.9767 6.28078 30.6701 6.50253 30.3278 6.6542C29.9856 6.80587 29.6154 6.88409 29.241 6.8838H19.8707C19.6932 6.8838 19.5229 6.95432 19.3974 7.07984C19.2719 7.20536 19.2014 7.3756 19.2014 7.55312V12.9411C19.2011 13.1123 19.2664 13.2771 19.384 13.4016C19.5015 13.5261 19.6623 13.6008 19.8332 13.6104C23.1521 13.7819 26.2718 15.2465 28.5238 17.6906C30.7757 20.1346 31.9808 23.3635 31.8806 26.6853C31.7805 30.0071 30.3831 33.1576 27.9881 35.4615C25.593 37.7654 22.3907 39.0395 19.0675 39.0108C16.0417 39.0067 13.1126 37.9445 10.7874 36.0083C10.4727 35.7474 10.2234 35.4165 10.0595 35.0421C9.89561 34.6676 9.82171 34.2599 9.84371 33.8517C9.86142 33.4356 9.97635 33.0295 10.1793 32.6658C10.3822 32.3021 10.6675 31.991 11.0123 31.7574Z" fill="#161335"/>
<path d="M17.1935 6.21448C17.5906 6.21448 17.9788 6.09672 18.309 5.87608C18.6392 5.65545 18.8966 5.34185 19.0486 4.97495C19.2006 4.60805 19.2403 4.20432 19.1628 3.81482C19.0854 3.42532 18.8941 3.06754 18.6133 2.78672C18.3325 2.50591 17.9747 2.31467 17.5852 2.23719C17.1957 2.15971 16.792 2.19948 16.4251 2.35145C16.0582 2.50343 15.7446 2.76079 15.5239 3.091C15.3033 3.4212 15.1855 3.80941 15.1855 4.20655C15.1855 4.73908 15.3971 5.24981 15.7737 5.62637C16.1502 6.00293 16.6609 6.21448 17.1935 6.21448ZM17.1935 3.53723C17.3259 3.53723 17.4553 3.57649 17.5653 3.65003C17.6754 3.72358 17.7612 3.82811 17.8118 3.95041C17.8625 4.07271 17.8758 4.20729 17.8499 4.33712C17.8241 4.46696 17.7604 4.58622 17.6668 4.67982C17.5732 4.77343 17.4539 4.83717 17.3241 4.863C17.1942 4.88882 17.0596 4.87557 16.9373 4.82491C16.815 4.77425 16.7105 4.68846 16.637 4.5784C16.5634 4.46833 16.5242 4.33892 16.5242 4.20655C16.5242 4.02903 16.5947 3.85879 16.7202 3.73327C16.8457 3.60775 17.016 3.53723 17.1935 3.53723Z" fill="#161335"/>
<path d="M17.3673 16.8385C18.1514 17.3425 19.0664 17.6049 19.9984 17.5928C20.8653 17.5813 21.7219 17.4024 22.521 17.0661C22.6046 17.0346 22.6809 16.9867 22.7457 16.9252C22.8104 16.8638 22.8622 16.79 22.898 16.7082C22.9338 16.6264 22.9529 16.5383 22.9541 16.449C22.9553 16.3597 22.9387 16.2711 22.9052 16.1884C22.8716 16.1057 22.8219 16.0305 22.7589 15.9673C22.6958 15.904 22.6208 15.8541 22.5382 15.8203C22.4555 15.7865 22.367 15.7696 22.2777 15.7705C22.1884 15.7715 22.1003 15.7903 22.0184 15.8258C21.4058 16.1289 20.7283 16.2773 20.0451 16.2583C19.3619 16.2393 18.6937 16.0534 18.0989 15.7167C17.604 15.3667 17.2019 14.9013 16.9275 14.3609C16.6531 13.8204 16.5146 13.2212 16.524 12.6151C16.523 12.5268 16.5042 12.4395 16.4687 12.3586C16.4332 12.2776 16.3817 12.2047 16.3173 12.1441C16.253 12.0836 16.177 12.0366 16.0941 12.0061C16.0111 11.9756 15.9229 11.9622 15.8346 11.9666C15.7467 11.9692 15.6602 11.9891 15.5799 12.0251C15.4997 12.0612 15.4274 12.1127 15.3671 12.1767C15.3068 12.2408 15.2597 12.316 15.2286 12.3983C15.1974 12.4805 15.1827 12.5681 15.1854 12.656C15.1808 13.4781 15.3772 14.289 15.7575 15.0179C16.1378 15.7469 16.6904 16.3719 17.3673 16.8385Z" fill="#161335"/>
<path d="M29.2412 4.87586C29.4187 4.87586 29.589 4.80534 29.7145 4.67982C29.84 4.5543 29.9105 4.38406 29.9105 4.20654C29.9105 4.02903 29.84 3.85879 29.7145 3.73327C29.589 3.60775 29.4187 3.53723 29.2412 3.53723H27.2333C27.0558 3.53723 26.8855 3.60775 26.76 3.73327C26.6345 3.85879 26.564 4.02903 26.564 4.20654C26.564 4.38406 26.6345 4.5543 26.76 4.67982C26.8855 4.80534 27.0558 4.87586 27.2333 4.87586H29.2412Z" fill="#161335"/>
</g>
<defs>
<clipPath id="clip0_51_1624">
<rect width="40.1587" height="40.1587" fill="white" transform="translate(0.460449 0.190674)"/>
</clipPath>
</defs>
</svg>
