<svg width="512" height="512" viewBox="0 0 512 512" fill="none" xmlns="http://www.w3.org/2000/svg">
<g clip-path="url(#clip0_26_443)">
<path d="M409.6 332.8C409.327 378.275 391.024 421.785 358.708 453.781C326.392 485.777 282.702 503.646 237.227 503.467C196.657 503.418 157.382 489.179 126.208 463.215C121.179 458.977 117.199 453.633 114.58 447.6C111.961 441.568 110.775 435.011 111.114 428.443C111.453 421.875 113.308 415.475 116.533 409.744C119.759 404.013 124.268 399.106 129.707 395.409C137.509 390.215 146.787 387.694 156.145 388.227C165.503 388.759 174.435 392.316 181.598 398.362C238.08 444.322 324.267 405.094 324.267 332.8C324.265 319.964 321.336 307.297 315.702 295.763C310.068 284.229 301.878 274.132 291.755 266.24C241.766 226.876 210.27 266.513 178.517 242.091C173.483 238.093 169.401 233.024 166.567 227.254C163.733 221.483 162.219 215.154 162.133 208.725V51.2C162.133 39.8841 166.629 29.0316 174.63 21.0301C182.632 13.0285 193.484 8.53332 204.8 8.53332H365.082C375.909 8.35052 386.423 12.1752 394.602 19.2724C402.782 26.3697 408.05 36.2391 409.395 46.9845C409.984 52.9143 409.324 58.9016 407.458 64.5608C405.592 70.22 402.561 75.4256 398.561 79.8422C394.561 84.2588 389.68 87.7886 384.233 90.2041C378.785 92.6196 372.892 93.8672 366.933 93.8667H247.467V162.56C291.128 164.841 332.26 183.754 362.412 215.414C392.565 247.075 409.45 289.079 409.6 332.8Z" fill="#FFB500"/>
<path d="M383.795 46.9845C384.384 52.9143 383.724 58.9016 381.858 64.5608C379.992 70.22 376.961 75.4256 372.961 79.8422C368.961 84.2588 364.08 87.7886 358.633 90.2041C353.185 92.6196 347.292 93.8672 341.333 93.8667H366.933C372.892 93.8672 378.785 92.6196 384.233 90.2041C389.68 87.7886 394.561 84.2588 398.561 79.8422C402.561 75.4256 405.592 70.22 407.458 64.5608C409.324 58.9016 409.984 52.9143 409.395 46.9845C408.05 36.2391 402.782 26.3697 394.602 19.2724C386.423 12.1752 375.909 8.35052 365.082 8.53332H339.482C350.309 8.35052 360.823 12.1752 369.002 19.2724C377.182 26.3697 382.45 36.2391 383.795 46.9845Z" fill="#FFB500"/>
<path d="M247.467 162.56V93.8667H221.867V162.56C265.413 164.685 306.489 183.42 336.641 214.911C366.793 246.402 383.728 288.252 383.961 331.849C384.194 375.447 367.707 417.476 337.893 449.287C308.079 481.098 267.206 500.271 223.684 502.861C246.279 504.887 269.051 502.387 290.668 495.506C312.285 488.624 332.313 477.501 349.579 462.786C366.845 448.072 381.002 430.061 391.224 409.808C401.445 389.556 407.524 367.468 409.105 344.838C410.687 322.207 407.739 299.489 400.434 278.011C393.13 256.534 381.614 236.729 366.563 219.756C351.512 202.783 333.226 188.982 312.776 179.161C292.327 169.34 270.124 163.696 247.467 162.56Z" fill="#FFB500"/>
<path d="M213.333 68.2667C222.759 68.2667 230.4 60.6256 230.4 51.2C230.4 41.7743 222.759 34.1333 213.333 34.1333C203.908 34.1333 196.267 41.7743 196.267 51.2C196.267 60.6256 203.908 68.2667 213.333 68.2667Z" fill="#E8EDFC"/>
<path d="M129.707 395.409C124.27 399.108 119.763 404.015 116.539 409.745C113.315 415.476 111.46 421.875 111.12 428.441C110.781 435.008 111.965 441.564 114.581 447.597C117.197 453.629 121.174 458.975 126.199 463.215C160.559 491.846 204.673 506.056 249.284 502.861C213.476 500.024 179.424 486.175 151.799 463.215C145.99 458.325 141.597 451.967 139.077 444.804C136.557 437.641 136.003 429.933 137.47 422.483C138.938 415.032 142.375 408.111 147.424 402.439C152.472 396.767 158.948 392.551 166.178 390.229C160.104 388.275 153.664 387.725 147.346 388.623C141.028 389.52 134.997 391.84 129.707 395.409Z" fill="white"/>
<path d="M162.133 51.2V208.725C162.219 215.154 163.733 221.483 166.567 227.254C169.401 233.024 173.483 238.093 178.517 242.091C191.94 252.407 205.321 251.281 220.066 249.515C210.874 247.344 202.683 242.137 196.816 234.735C190.949 227.334 187.749 218.17 187.733 208.725V51.2C187.733 39.8841 192.229 29.0317 200.23 21.0301C208.232 13.0286 219.084 8.53333 230.4 8.53333H204.8C193.484 8.53333 182.632 13.0286 174.63 21.0301C166.629 29.0317 162.133 39.8841 162.133 51.2Z" fill="white"/>
<path d="M244.446 409.02L246.101 426.01C220.946 428.47 195.835 420.915 176.213 404.983L186.982 391.748C203.116 404.847 223.764 411.053 244.446 409.02Z" fill="white"/>
<path d="M211.627 422.827C210.506 422.832 209.395 422.617 208.358 422.193C207.32 421.77 206.377 421.146 205.58 420.358C204.784 419.569 204.151 418.631 203.717 417.598C203.283 416.565 203.056 415.457 203.051 414.336C203.045 413.215 203.26 412.105 203.684 411.067C204.108 410.03 204.731 409.086 205.52 408.29C206.308 407.493 207.246 406.86 208.279 406.426C209.312 405.992 210.421 405.766 211.541 405.76H211.627C213.89 405.76 216.06 406.659 217.661 408.259C219.261 409.86 220.16 412.03 220.16 414.293C220.16 416.557 219.261 418.727 217.661 420.327C216.06 421.928 213.89 422.827 211.627 422.827Z" fill="#161335"/>
<path d="M134.528 402.458C140.81 398.3 148.275 396.3 155.795 396.762C163.314 397.224 170.479 400.122 176.205 405.018C177.074 405.725 178.074 406.255 179.147 406.576C180.221 406.897 181.348 407.004 182.462 406.89C183.577 406.776 184.659 406.443 185.645 405.911C186.632 405.379 187.504 404.658 188.211 403.789C188.919 402.92 189.448 401.92 189.77 400.846C190.091 399.772 190.198 398.646 190.083 397.531C189.969 396.416 189.637 395.335 189.105 394.348C188.573 393.362 187.851 392.49 186.982 391.782C178.409 384.545 167.712 380.298 156.51 379.682C145.307 379.066 134.209 382.115 124.894 388.369C118.308 392.83 112.858 398.773 108.983 405.72C105.108 412.667 102.915 420.426 102.579 428.373C102.167 436.216 103.595 444.047 106.75 451.239C109.904 458.431 114.698 464.785 120.747 469.794C153.459 497.024 194.665 511.954 237.227 512C283.411 512.478 327.994 495.093 361.663 463.476C395.332 431.859 415.483 388.456 417.906 342.333C420.329 296.209 404.838 250.933 374.667 215.962C344.496 180.992 301.98 159.03 256 154.667V102.4H366.933C374.082 102.401 381.151 100.905 387.686 98.0093C394.221 95.1131 400.078 90.8805 404.878 85.5841C409.679 80.2876 413.317 74.0446 415.559 67.257C417.8 60.4694 418.596 53.2876 417.894 46.1738C416.309 33.3303 410.046 21.5214 400.304 13.0035C390.561 4.4857 378.022 -0.143692 365.082 -1.88695e-05H204.8C191.225 0.0135357 178.21 5.41216 168.611 15.0111C159.012 24.61 153.614 37.6251 153.6 51.2V208.725C153.673 216.461 155.483 224.081 158.896 231.023C162.31 237.965 167.239 244.051 173.321 248.832C190.08 261.726 206.814 259.703 223.01 257.741C241.852 255.462 261.325 253.116 286.464 272.913C294.795 279.378 301.682 287.513 306.683 296.797C311.684 306.08 314.69 316.306 315.506 326.82C316.323 337.333 314.932 347.901 311.424 357.845C307.915 367.789 302.367 376.89 295.134 384.563C281.7 398.502 263.718 407.169 244.446 408.994C242.318 409.35 240.384 410.443 238.98 412.08C237.576 413.718 236.792 415.797 236.766 417.954C236.753 419.126 236.997 420.287 237.48 421.355C237.963 422.423 238.674 423.373 239.562 424.138C240.451 424.903 241.495 425.464 242.623 425.783C243.751 426.102 244.935 426.171 246.093 425.984C269.448 423.761 291.233 413.237 307.49 396.322C316.36 386.929 323.168 375.787 327.479 363.608C331.79 351.43 333.508 338.486 332.523 325.605C331.538 312.724 327.871 300.191 321.759 288.81C315.646 277.429 307.223 267.451 297.028 259.516C266.308 235.307 241.143 238.353 220.954 240.802C205.858 242.62 194.944 243.942 183.714 235.307C179.714 232.112 176.47 228.072 174.214 223.477C171.958 218.881 170.747 213.844 170.667 208.725V51.2C170.667 42.1473 174.263 33.4653 180.664 27.0641C187.065 20.6628 195.747 17.0666 204.8 17.0666H365.082C373.787 16.8871 382.253 19.9201 388.864 25.5867C395.475 31.2533 399.768 39.1563 400.922 47.7867C401.399 52.5352 400.875 57.3311 399.384 61.8647C397.893 66.3983 395.467 70.5688 392.265 74.107C389.062 77.6451 385.153 80.4723 380.789 82.406C376.426 84.3397 371.706 85.337 366.933 85.3333H247.467C245.203 85.3333 243.033 86.2324 241.433 87.8327C239.832 89.433 238.933 91.6035 238.933 93.8667V162.56C238.93 164.743 239.763 166.844 241.261 168.431C242.76 170.018 244.809 170.971 246.989 171.093C289.303 173.279 329.077 191.953 357.789 223.113C386.5 254.273 401.863 295.439 400.586 337.791C399.31 380.142 381.495 420.308 350.959 449.682C320.423 479.056 279.596 495.3 237.227 494.933C198.649 494.881 161.305 481.339 131.661 456.653C127.648 453.328 124.469 449.109 122.38 444.334C120.29 439.56 119.348 434.362 119.629 429.158C119.855 423.853 121.32 418.675 123.907 414.038C126.495 409.402 130.132 405.436 134.528 402.458Z" fill="#161335"/>
<path d="M213.333 76.8C218.397 76.8 223.346 75.2986 227.556 72.4856C231.766 69.6726 235.047 65.6745 236.985 60.9967C238.922 56.3189 239.429 51.1716 238.441 46.2057C237.454 41.2398 235.016 36.6783 231.435 33.0981C227.855 29.5178 223.294 27.0797 218.328 26.0919C213.362 25.1041 208.214 25.6111 203.537 27.5487C198.859 29.4863 194.861 32.7675 192.048 36.9774C189.235 41.1873 187.733 46.1368 187.733 51.2C187.733 57.9895 190.43 64.501 195.231 69.3019C200.032 74.1029 206.544 76.8 213.333 76.8ZM213.333 42.6667C215.021 42.6667 216.671 43.1671 218.074 44.1048C219.478 45.0424 220.571 46.3752 221.217 47.9344C221.863 49.4937 222.032 51.2095 221.703 52.8648C221.373 54.5201 220.561 56.0406 219.367 57.234C218.174 58.4274 216.653 59.2401 214.998 59.5694C213.343 59.8986 211.627 59.7296 210.068 59.0838C208.509 58.4379 207.176 57.3442 206.238 55.9409C205.3 54.5376 204.8 52.8877 204.8 51.2C204.8 48.9368 205.699 46.7663 207.299 45.166C208.9 43.5657 211.07 42.6667 213.333 42.6667Z" fill="#161335"/>
<path d="M215.552 212.25C225.548 218.676 237.214 222.02 249.097 221.867C260.15 221.72 271.07 219.44 281.259 215.151C282.324 214.749 283.297 214.139 284.123 213.355C284.948 212.571 285.609 211.631 286.065 210.588C286.521 209.545 286.765 208.422 286.78 207.284C286.796 206.146 286.584 205.016 286.156 203.961C285.729 202.906 285.094 201.948 284.291 201.142C283.487 200.336 282.531 199.699 281.477 199.268C280.424 198.837 279.295 198.621 278.156 198.634C277.018 198.646 275.894 198.886 274.85 199.339C267.04 203.202 258.402 205.095 249.692 204.853C240.981 204.61 232.462 202.24 224.879 197.948C218.57 193.485 213.443 187.552 209.945 180.661C206.446 173.771 204.68 166.131 204.8 158.404C204.788 157.277 204.548 156.165 204.095 155.133C203.642 154.101 202.986 153.171 202.165 152.399C201.345 151.627 200.376 151.028 199.319 150.64C198.261 150.251 197.136 150.079 196.011 150.135C194.89 150.169 193.787 150.422 192.764 150.882C191.741 151.342 190.819 151.998 190.05 152.815C189.282 153.631 188.681 154.591 188.284 155.639C187.886 156.688 187.699 157.804 187.733 158.925C187.675 169.407 190.179 179.745 195.027 189.038C199.876 198.332 206.922 206.3 215.552 212.25Z" fill="#161335"/>
<path d="M366.933 59.7333C369.197 59.7333 371.367 58.8343 372.967 57.234C374.568 55.6337 375.467 53.4632 375.467 51.2C375.467 48.9368 374.568 46.7663 372.967 45.166C371.367 43.5657 369.197 42.6667 366.933 42.6667H341.333C339.07 42.6667 336.9 43.5657 335.299 45.166C333.699 46.7663 332.8 48.9368 332.8 51.2C332.8 53.4632 333.699 55.6337 335.299 57.234C336.9 58.8343 339.07 59.7333 341.333 59.7333H366.933Z" fill="#161335"/>
</g>
<defs>
<clipPath id="clip0_26_443">
<rect width="512" height="512" fill="white"/>
</clipPath>
</defs>
</svg>
