<svg width="41" height="41" viewBox="0 0 41 41" fill="none" xmlns="http://www.w3.org/2000/svg">
<g clip-path="url(#clip0_51_1625)">
<path d="M18.2117 14.8601V11.6253C18.2127 10.6888 18.5852 9.791 19.2473 9.12875C19.9094 8.4665 20.8072 8.0939 21.7436 8.09266H24.2355C26.0118 8.09266 26.9127 8.5431 26.9127 9.43128C26.9127 10.3188 27.2653 11.1701 27.8929 11.7977C28.5205 12.4253 29.3717 12.7778 30.2593 12.7778C31.1469 12.7778 31.9981 12.4253 32.6257 11.7977C33.2533 11.1701 33.6059 10.3188 33.6059 9.43128C33.6059 5.43348 30.7084 1.39954 24.2355 1.39954H21.7436C19.0329 1.40361 16.4344 2.48229 14.5177 4.39913C12.601 6.31596 11.5224 8.91456 11.5186 11.6253V26.8334C11.5186 34.2146 16.9232 40.2196 23.5662 40.2196C30.2091 40.2196 35.6138 34.2146 35.6138 26.8334C35.6138 16.9229 26.2086 10.4259 18.2117 14.8601ZM23.5662 33.5265C20.6138 33.5265 18.2117 30.524 18.2117 26.8334C18.2117 23.1428 20.6138 20.1403 23.5662 20.1403C26.5185 20.1403 28.9207 23.1428 28.9207 26.8334C28.9207 30.524 26.5185 33.5265 23.5662 33.5265Z" fill="white"/>
<path d="M22.5386 13.5021C28.7237 14.0603 33.6056 19.8204 33.6056 26.8334C33.6056 33.8465 28.7357 39.5932 22.562 40.1634C29.7832 40.8301 35.6136 34.4435 35.6136 26.8334C35.6136 19.1022 29.65 12.816 22.5386 13.5021Z" fill="white"/>
<path d="M31.5979 9.43128C31.5962 10.1411 31.3681 10.8319 30.9468 11.4032C30.5255 11.9745 29.933 12.3965 29.2553 12.6078C29.7554 12.7695 30.2866 12.8104 30.8055 12.7272C31.3244 12.644 31.8163 12.439 32.2407 12.1291C32.6651 11.8192 33.0101 11.4131 33.2474 10.9442C33.4847 10.4753 33.6075 9.95682 33.6058 9.43128C33.6058 5.43348 30.7084 1.39954 24.2355 1.39954H22.2275C28.7005 1.39954 31.5979 5.43348 31.5979 9.43128Z" fill="white"/>
<path d="M22.5621 20.2621C19.0957 19.4362 16.2036 22.8503 16.2036 26.8334C16.2036 30.8326 19.1319 34.2219 22.5621 33.4047C20.0856 32.8151 18.2115 30.095 18.2115 26.8334C18.2115 23.5719 20.0856 20.8518 22.5621 20.2621Z" fill="white"/>
<path d="M24.905 8.11945V9.4313C24.905 9.96384 24.6935 10.4746 24.3169 10.8511C23.9404 11.2277 23.4296 11.4392 22.8971 11.4392C22.3646 11.4392 21.8538 11.2277 21.4773 10.8511C21.1007 10.4746 20.8892 9.96384 20.8892 9.4313V8.19976L24.905 8.11945Z" fill="#E8EDFC"/>
<path d="M21.7436 1.39954C19.0329 1.40361 16.4344 2.48229 14.5177 4.39913C12.601 6.31596 11.5224 8.91456 11.5186 11.6253V26.8334C11.5186 34.3377 17.2572 40.814 24.5701 40.1627C18.3971 39.5938 13.5265 33.8384 13.5265 26.8334V11.6253C13.5304 8.91456 14.6089 6.31596 16.5256 4.39913C18.4423 2.48229 21.0408 1.40361 23.7516 1.39954H21.7436Z" fill="white"/>
<path d="M13.1061 31.8318L11.8565 32.3117C11.1879 30.5627 10.8465 28.7058 10.8491 26.8334H12.1878C12.1852 28.5417 12.4965 30.2359 13.1061 31.8318Z" fill="white"/>
<path d="M11.7762 30.1666C11.5987 30.1675 11.4281 30.0978 11.3019 29.9729C11.1758 29.848 11.1044 29.6781 11.1035 29.5006C11.1026 29.3231 11.1723 29.1525 11.2972 29.0263C11.4221 28.9002 11.592 28.8288 11.7695 28.8279H11.7762C11.9537 28.8279 12.1239 28.8985 12.2495 29.024C12.375 29.1495 12.4455 29.3197 12.4455 29.4973C12.4455 29.6748 12.375 29.845 12.2495 29.9705C12.1239 30.096 11.9537 30.1666 11.7762 30.1666Z" fill="#161335"/>
<path d="M29.5896 26.8334C29.5896 22.774 26.8876 19.4709 23.5658 19.4709C20.244 19.4709 17.542 22.774 17.542 26.8334C17.542 30.8928 20.244 34.1958 23.5658 34.1958C26.8876 34.1958 29.5896 30.8928 29.5896 26.8334ZM18.8806 26.8334C18.8806 23.5123 20.9829 20.8096 23.5658 20.8096C26.1487 20.8096 28.251 23.5123 28.251 26.8334C28.251 30.1545 26.1487 32.8572 23.5658 32.8572C20.9829 32.8572 18.8806 30.1545 18.8806 26.8334Z" fill="#161335"/>
<path d="M18.2112 5.41541C18.2112 5.23789 18.2817 5.06765 18.4072 4.94213C18.5327 4.81661 18.703 4.74609 18.8805 4.74609C19.058 4.74609 19.2282 4.81661 19.3538 4.94213C19.4793 5.06765 19.5498 5.23789 19.5498 5.41541C19.5498 5.59292 19.6203 5.76316 19.7458 5.88868C19.8714 6.0142 20.0416 6.08472 20.2191 6.08472C20.3966 6.08472 20.5669 6.0142 20.6924 5.88868C20.8179 5.76316 20.8884 5.59292 20.8884 5.41541C20.8884 4.88287 20.6769 4.37214 20.3003 3.99558C19.9238 3.61902 19.413 3.40747 18.8805 3.40747C18.348 3.40747 17.8372 3.61902 17.4607 3.99558C17.0841 4.37214 16.8726 4.88287 16.8726 5.41541C16.8726 5.59292 16.9431 5.76316 17.0686 5.88868C17.1941 6.0142 17.3644 6.08472 17.5419 6.08472C17.7194 6.08472 17.8896 6.0142 18.0151 5.88868C18.1407 5.76316 18.2112 5.59292 18.2112 5.41541Z" fill="#161335"/>
<path d="M25.5736 6.08472C25.7511 6.08472 25.9214 6.0142 26.0469 5.88868C26.1724 5.76316 26.2429 5.59292 26.2429 5.41541C26.2429 5.23789 26.3134 5.06765 26.439 4.94213C26.5645 4.81661 26.7347 4.74609 26.9122 4.74609C27.0897 4.74609 27.26 4.81661 27.3855 4.94213C27.511 5.06765 27.5815 5.23789 27.5815 5.41541C27.5815 5.59292 27.6521 5.76316 27.7776 5.88868C27.9031 6.0142 28.0733 6.08472 28.2509 6.08472C28.4284 6.08472 28.5986 6.0142 28.7241 5.88868C28.8497 5.76316 28.9202 5.59292 28.9202 5.41541C28.9202 4.88287 28.7086 4.37214 28.3321 3.99558C27.9555 3.61902 27.4448 3.40747 26.9122 3.40747C26.3797 3.40747 25.869 3.61902 25.4924 3.99558C25.1158 4.37214 24.9043 4.88287 24.9043 5.41541C24.9043 5.59292 24.9748 5.76316 25.1003 5.88868C25.2259 6.0142 25.3961 6.08472 25.5736 6.08472Z" fill="#161335"/>
<path d="M22.8967 12.1085C23.6068 12.1085 24.2878 11.8265 24.7898 11.3244C25.2919 10.8223 25.574 10.1413 25.574 9.43128V8.90052C25.9481 8.9969 26.2433 9.15619 26.2433 9.43128C26.2433 10.4964 26.6664 11.5178 27.4195 12.2709C28.1726 13.0241 29.1941 13.4472 30.2592 13.4472C31.3242 13.4472 32.3457 13.0241 33.0988 12.2709C33.8519 11.5178 34.275 10.4964 34.275 9.43128C34.275 5.10016 31.1708 0.730225 24.2354 0.730225H21.7435C18.8553 0.734297 16.0865 1.8835 14.0443 3.92585C12.002 5.96821 10.853 8.73705 10.8491 11.6253V26.8334C10.8491 27.0109 10.9196 27.1812 11.0452 27.3067C11.1707 27.4322 11.3409 27.5027 11.5184 27.5027C11.6959 27.5027 11.8662 27.4322 11.9917 27.3067C12.1172 27.1812 12.1877 27.0109 12.1877 26.8334V11.6253C12.1906 9.09175 13.1982 6.66278 14.9897 4.87123C16.7811 3.07968 19.21 2.07186 21.7435 2.06885H24.2354C30.2458 2.06885 32.9364 5.7668 32.9364 9.43128C32.9364 10.1413 32.6544 10.8223 32.1523 11.3244C31.6502 11.8265 30.9692 12.1085 30.2592 12.1085C29.5491 12.1085 28.8682 11.8265 28.3661 11.3244C27.864 10.8223 27.5819 10.1413 27.5819 9.43128C27.5819 8.59531 27.0927 7.61544 24.9047 7.45012C24.6958 7.43405 24.4763 7.42335 24.2354 7.42335H21.7435C20.6296 7.42476 19.5617 7.86794 18.7741 8.65567C17.9865 9.4434 17.5435 10.5114 17.5422 11.6253V14.8594C17.5422 14.9759 17.5726 15.0905 17.6304 15.1917C17.6882 15.2929 17.7714 15.3772 17.8718 15.4364C17.9722 15.4955 18.0863 15.5275 18.2028 15.529C18.3193 15.5305 18.4343 15.5016 18.5362 15.4451C20.1119 14.5468 21.899 14.0861 23.7126 14.1107C25.5262 14.1353 27.3002 14.6443 28.8509 15.5849C30.7531 16.7723 32.3146 18.4331 33.3827 20.4047C34.4507 22.3764 34.9888 24.5915 34.9444 26.8334C34.9444 33.8458 29.8402 39.5503 23.5661 39.5503C22.4207 39.5283 21.2849 39.3361 20.1961 38.9801C19.1174 38.5825 18.1013 38.0323 17.1788 37.3463C16.2689 36.6335 15.4575 35.8033 14.7659 34.8772C14.0921 33.9326 13.5347 32.9101 13.106 31.8318C13.0455 31.6697 12.9239 31.5377 12.7674 31.464C12.6108 31.3903 12.4316 31.3809 12.2681 31.4376C12.183 31.467 12.1046 31.5131 12.0376 31.5733C11.9706 31.6334 11.9163 31.7064 11.8779 31.7879C11.8396 31.8693 11.8179 31.9576 11.8142 32.0476C11.8105 32.1376 11.8249 32.2274 11.8564 32.3117C12.3276 33.5009 12.9421 34.628 13.6863 35.6683C14.454 36.6983 15.3557 37.6212 16.3676 38.4125C17.4028 39.1837 18.5442 39.801 19.7563 40.2451C20.9867 40.65 22.271 40.867 23.5661 40.8889C30.5784 40.8889 36.283 34.584 36.283 26.8334C36.3272 24.3585 35.7281 21.9144 34.5445 19.7405C33.3608 17.5665 31.6331 15.737 29.5303 14.431C27.9414 13.4661 26.1414 12.9027 24.2859 12.7896C22.4304 12.6765 20.5752 13.017 18.8809 13.7818V11.6253C18.8818 11.1424 19.005 10.6677 19.2391 10.2454C19.4732 9.82313 19.8105 9.46704 20.2195 9.21041V9.43128C20.2195 9.78286 20.2887 10.131 20.4233 10.4558C20.5578 10.7806 20.755 11.0758 21.0036 11.3244C21.5057 11.8265 22.1867 12.1085 22.8967 12.1085ZM21.5581 8.78071C21.6204 8.77669 21.6799 8.76197 21.7435 8.76197H22.2274V9.43128C22.2274 9.60879 22.2979 9.77904 22.4235 9.90456C22.549 10.0301 22.7192 10.1006 22.8967 10.1006C23.0743 10.1006 23.2445 10.0301 23.37 9.90456C23.4955 9.77904 23.5661 9.60879 23.5661 9.43128V8.76197H24.2354V9.43128C24.2354 9.78631 24.0943 10.1268 23.8433 10.3778C23.5922 10.6289 23.2518 10.7699 22.8967 10.7699C22.5417 10.7699 22.2012 10.6289 21.9502 10.3778C21.6991 10.1268 21.5581 9.78631 21.5581 9.43128V8.78071Z" fill="#161335"/>
</g>
<defs>
<clipPath id="clip0_51_1625">
<rect width="40.1587" height="40.1587" fill="white" transform="translate(0.80957 0.730225)"/>
</clipPath>
</defs>
</svg>
