<svg width="512" height="512" viewBox="0 0 512 512" fill="none" xmlns="http://www.w3.org/2000/svg">
<g clip-path="url(#clip0_26_441)">
<path d="M221.867 180.147V138.906C221.88 126.966 226.629 115.52 235.07 107.076C243.512 98.633 254.958 93.8825 266.897 93.8667H298.667C321.314 93.8667 332.8 99.6096 332.8 110.933C332.8 122.249 337.295 133.102 345.297 141.103C353.298 149.105 364.151 153.6 375.467 153.6C386.783 153.6 397.635 149.105 405.637 141.103C413.638 133.102 418.133 122.249 418.133 110.933C418.133 59.9637 381.193 8.53333 298.667 8.53333H266.897C232.337 8.58524 199.207 22.3378 174.77 46.7763C150.333 71.2149 136.583 104.345 136.533 138.906V332.8C136.533 426.906 205.44 503.467 290.133 503.467C374.827 503.467 443.733 426.906 443.733 332.8C443.733 206.447 323.823 123.614 221.867 180.147ZM290.133 418.133C252.493 418.133 221.867 379.853 221.867 332.8C221.867 285.747 252.493 247.467 290.133 247.467C327.774 247.467 358.4 285.747 358.4 332.8C358.4 379.853 327.774 418.133 290.133 418.133Z" fill="#FFB500"/>
<path d="M277.035 162.833C355.891 169.95 418.133 243.388 418.133 332.8C418.133 422.212 356.045 495.479 277.333 502.75C369.399 511.249 443.733 429.824 443.733 332.8C443.733 234.231 367.701 154.086 277.035 162.833Z" fill="#FFB500"/>
<path d="M392.533 110.933C392.512 119.983 389.604 128.79 384.232 136.074C378.861 143.358 371.306 148.738 362.667 151.433C369.042 153.493 375.815 154.015 382.431 152.954C389.047 151.893 395.317 149.28 400.729 145.329C406.14 141.378 410.538 136.201 413.564 130.222C416.589 124.244 418.155 117.634 418.133 110.933C418.133 59.9637 381.193 8.53333 298.667 8.53333H273.067C355.593 8.53333 392.533 59.9637 392.533 110.933Z" fill="#FFB500"/>
<path d="M277.333 249.02C233.139 238.49 196.267 282.018 196.267 332.8C196.267 383.787 233.6 426.999 277.333 416.58C245.76 409.062 221.867 374.383 221.867 332.8C221.867 291.217 245.76 256.538 277.333 249.02Z" fill="#FFB500"/>
<path d="M307.2 94.208V110.933C307.2 117.723 304.503 124.234 299.702 129.035C294.901 133.836 288.39 136.533 281.6 136.533C274.81 136.533 268.299 133.836 263.498 129.035C258.697 124.234 256 117.723 256 110.933V95.232L307.2 94.208Z" fill="#E8EDFC"/>
<path d="M266.897 8.53333C232.337 8.58524 199.207 22.3378 174.77 46.7763C150.333 71.2149 136.583 104.345 136.533 138.906V332.8C136.533 428.476 209.698 511.044 302.933 502.741C224.23 495.488 162.133 422.11 162.133 332.8V138.906C162.183 104.345 175.933 71.2149 200.37 46.7763C224.807 22.3378 257.937 8.58524 292.497 8.53333H266.897Z" fill="white"/>
<path d="M156.774 396.527L140.843 402.645C132.319 380.347 127.966 356.672 128 332.8H145.067C145.034 354.58 149.002 376.181 156.774 396.527Z" fill="white"/>
<path d="M139.819 375.296C137.555 375.307 135.38 374.419 133.772 372.827C132.164 371.235 131.254 369.069 131.243 366.805C131.231 364.542 132.12 362.367 133.712 360.759C135.304 359.151 137.47 358.241 139.733 358.229H139.819C142.082 358.229 144.252 359.128 145.853 360.729C147.453 362.329 148.352 364.499 148.352 366.763C148.352 369.026 147.453 371.196 145.853 372.797C144.252 374.397 142.082 375.296 139.819 375.296Z" fill="#161335"/>
<path d="M366.933 332.8C366.933 281.045 332.484 238.933 290.133 238.933C247.782 238.933 213.333 281.045 213.333 332.8C213.333 384.555 247.782 426.667 290.133 426.667C332.484 426.667 366.933 384.555 366.933 332.8ZM230.4 332.8C230.4 290.458 257.203 256 290.133 256C323.063 256 349.867 290.458 349.867 332.8C349.867 375.142 323.063 409.6 290.133 409.6C257.203 409.6 230.4 375.142 230.4 332.8Z" fill="#161335"/>
<path d="M221.867 59.7333C221.867 57.4702 222.766 55.2997 224.366 53.6994C225.966 52.099 228.137 51.2 230.4 51.2C232.663 51.2 234.834 52.099 236.434 53.6994C238.034 55.2997 238.933 57.4702 238.933 59.7333C238.933 61.9965 239.832 64.167 241.433 65.7673C243.033 67.3676 245.203 68.2667 247.467 68.2667C249.73 68.2667 251.9 67.3676 253.501 65.7673C255.101 64.167 256 61.9965 256 59.7333C256 52.9438 253.303 46.4323 248.502 41.6314C243.701 36.8305 237.19 34.1333 230.4 34.1333C223.61 34.1333 217.099 36.8305 212.298 41.6314C207.497 46.4323 204.8 52.9438 204.8 59.7333C204.8 61.9965 205.699 64.167 207.299 65.7673C208.9 67.3676 211.07 68.2667 213.333 68.2667C215.597 68.2667 217.767 67.3676 219.367 65.7673C220.968 64.167 221.867 61.9965 221.867 59.7333Z" fill="#161335"/>
<path d="M315.733 68.2667C317.997 68.2667 320.167 67.3676 321.767 65.7673C323.368 64.167 324.267 61.9965 324.267 59.7333C324.267 57.4702 325.166 55.2997 326.766 53.6994C328.366 52.099 330.537 51.2 332.8 51.2C335.063 51.2 337.234 52.099 338.834 53.6994C340.434 55.2997 341.333 57.4702 341.333 59.7333C341.333 61.9965 342.232 64.167 343.833 65.7673C345.433 67.3676 347.604 68.2667 349.867 68.2667C352.13 68.2667 354.3 67.3676 355.901 65.7673C357.501 64.167 358.4 61.9965 358.4 59.7333C358.4 52.9438 355.703 46.4323 350.902 41.6314C346.101 36.8305 339.59 34.1333 332.8 34.1333C326.01 34.1333 319.499 36.8305 314.698 41.6314C309.897 46.4323 307.2 52.9438 307.2 59.7333C307.2 61.9965 308.099 64.167 309.699 65.7673C311.3 67.3676 313.47 68.2667 315.733 68.2667Z" fill="#161335"/>
<path d="M281.6 145.067C290.653 145.067 299.335 141.47 305.736 135.069C312.137 128.668 315.733 119.986 315.733 110.933V104.166C320.503 105.395 324.267 107.426 324.267 110.933C324.267 124.512 329.661 137.535 339.263 147.137C348.865 156.739 361.888 162.133 375.467 162.133C389.046 162.133 402.069 156.739 411.671 147.137C421.272 137.535 426.667 124.512 426.667 110.933C426.667 55.7141 387.089 0 298.667 0H266.897C230.074 0.0519259 194.774 14.7035 168.736 40.7424C142.699 66.7812 128.05 102.082 128 138.906V332.8C128 335.063 128.899 337.234 130.499 338.834C132.1 340.434 134.27 341.333 136.533 341.333C138.797 341.333 140.967 340.434 142.567 338.834C144.168 337.234 145.067 335.063 145.067 332.8V138.906C145.103 106.604 157.95 75.6366 180.789 52.7954C203.629 29.9542 234.596 17.1051 266.897 17.0667H298.667C375.296 17.0667 409.6 64.2133 409.6 110.933C409.6 119.986 406.004 128.668 399.603 135.069C393.201 141.47 384.519 145.067 375.467 145.067C366.414 145.067 357.732 141.47 351.331 135.069C344.93 128.668 341.333 119.986 341.333 110.933C341.333 100.275 335.095 87.7824 307.2 85.6747C304.538 85.4699 301.739 85.3333 298.667 85.3333H266.897C252.695 85.3514 239.08 91.0017 229.039 101.045C218.997 111.088 213.349 124.704 213.333 138.906V180.139C213.333 181.624 213.72 183.085 214.457 184.375C215.194 185.665 216.255 186.741 217.535 187.495C218.815 188.249 220.27 188.656 221.755 188.675C223.241 188.695 224.706 188.326 226.005 187.605C246.094 176.153 268.88 170.28 292.002 170.593C315.124 170.907 337.741 177.396 357.513 189.389C381.764 204.527 401.672 225.701 415.289 250.838C428.906 275.976 435.767 304.217 435.2 332.8C435.2 422.204 370.125 494.933 290.133 494.933C275.53 494.652 261.05 492.202 247.168 487.663C233.415 482.594 220.461 475.58 208.7 466.833C197.099 457.746 186.755 447.16 177.937 435.354C169.345 423.311 162.24 410.274 156.774 396.527C156.003 394.46 154.453 392.777 152.456 391.838C150.46 390.898 148.175 390.778 146.091 391.501C145.006 391.876 144.006 392.464 143.152 393.231C142.298 393.998 141.606 394.928 141.117 395.967C140.628 397.005 140.352 398.131 140.304 399.278C140.257 400.425 140.44 401.57 140.843 402.645C146.85 417.806 154.684 432.177 164.173 445.44C173.96 458.572 185.456 470.338 198.357 480.427C211.556 490.259 226.108 498.129 241.562 503.791C257.248 508.953 273.622 511.721 290.133 512C379.537 512 452.267 431.616 452.267 332.8C452.83 301.246 445.193 270.086 430.102 242.369C415.011 214.652 392.983 191.328 366.174 174.677C345.916 162.375 322.967 155.192 299.31 153.75C275.654 152.308 252.002 156.65 230.4 166.4V138.906C230.412 132.75 231.983 126.697 234.968 121.313C237.952 115.929 242.252 111.389 247.467 108.117V110.933C247.467 115.416 248.35 119.854 250.065 123.996C251.78 128.137 254.295 131.9 257.464 135.069C263.865 141.47 272.547 145.067 281.6 145.067ZM264.533 102.639C265.327 102.588 266.086 102.4 266.897 102.4H273.067V110.933C273.067 113.197 273.966 115.367 275.566 116.967C277.166 118.568 279.337 119.467 281.6 119.467C283.863 119.467 286.034 118.568 287.634 116.967C289.234 115.367 290.133 113.197 290.133 110.933V102.4H298.667V110.933C298.667 115.46 296.869 119.801 293.668 123.001C290.467 126.202 286.126 128 281.6 128C277.074 128 272.733 126.202 269.532 123.001C266.331 119.801 264.533 115.46 264.533 110.933V102.639Z" fill="#161335"/>
</g>
<defs>
<clipPath id="clip0_26_441">
<rect width="512" height="512" fill="white"/>
</clipPath>
</defs>
</svg>
