<svg width="41" height="41" viewBox="0 0 41 41" fill="none" xmlns="http://www.w3.org/2000/svg">
<g clip-path="url(#clip0_51_1626)">
<path d="M16.8729 39.4894C16.327 39.4814 15.7912 39.3414 15.3112 39.0814C14.8312 38.8214 14.4213 38.449 14.1164 37.9962C13.8115 37.5434 13.6208 37.0235 13.5605 36.4809C13.5001 35.9384 13.572 35.3892 13.7699 34.8805L23.1992 8.25526C23.235 8.15433 23.246 8.04629 23.2314 7.94021C23.2167 7.83413 23.1768 7.73311 23.1151 7.64564C23.0533 7.55816 22.9714 7.48679 22.8764 7.4375C22.7813 7.38822 22.6758 7.36246 22.5687 7.3624H10.3236C9.47436 7.37652 8.64982 7.07625 8.00849 6.5193C7.36716 5.96235 6.9543 5.18803 6.84925 4.34514C6.80327 3.88015 6.85518 3.41068 7.00163 2.96696C7.14808 2.52324 7.38582 2.11511 7.69956 1.76884C8.01329 1.42257 8.39607 1.14584 8.82323 0.956461C9.2504 0.767083 9.71248 0.669257 10.1797 0.669282H28.1314C28.6769 0.649637 29.219 0.763751 29.7103 1.00167C30.2017 1.23959 30.6273 1.5941 30.9502 2.03427C31.2731 2.47445 31.4834 2.98693 31.5628 3.52703C31.6422 4.06713 31.5882 4.61846 31.4056 5.13292L20.0273 37.2599C19.7964 37.912 19.3691 38.4765 18.8042 38.8757C18.2393 39.275 17.5646 39.4893 16.8729 39.4894Z" fill="white"/>
<path d="M30.246 1.3259C29.1617 0.510005 28.0453 0.669301 26.1237 0.669301C26.6692 0.649656 27.2113 0.763769 27.7026 1.00169C28.194 1.23961 28.6196 1.59412 28.9425 2.03429C29.2654 2.47447 29.4757 2.98695 29.5551 3.52705C29.6345 4.06715 29.5805 4.61847 29.398 5.13294L18.0197 37.2599C17.8475 37.7484 17.564 38.1902 17.1917 38.5503C16.8194 38.9104 16.3685 39.179 15.8745 39.3348C16.7007 39.595 17.5956 39.5241 18.3705 39.1369C19.1454 38.7498 19.7395 38.0768 20.0276 37.2599L31.4059 5.13294C31.6447 4.45771 31.6608 3.72375 31.4521 3.03864C31.2434 2.35353 30.8207 1.75329 30.246 1.3259Z" fill="white"/>
<path d="M12.8572 5.35449C13.5965 5.35449 14.1958 4.75517 14.1958 4.01587C14.1958 3.27657 13.5965 2.67725 12.8572 2.67725C12.1179 2.67725 11.5186 3.27657 11.5186 4.01587C11.5186 4.75517 12.1179 5.35449 12.8572 5.35449Z" fill="#E8EDFC"/>
<path d="M18.2117 5.35449C18.951 5.35449 19.5503 4.75517 19.5503 4.01587C19.5503 3.27657 18.951 2.67725 18.2117 2.67725C17.4724 2.67725 16.873 3.27657 16.873 4.01587C16.873 4.75517 17.4724 5.35449 18.2117 5.35449Z" fill="#E8EDFC"/>
<path d="M13.5264 7.36243L12.9909 10.0524C12.9537 10.2373 12.8536 10.4036 12.7077 10.523C12.5618 10.6425 12.379 10.7078 12.1904 10.7078C12.0018 10.7078 11.8191 10.6425 11.6731 10.523C11.5272 10.4036 11.4271 10.2373 11.3899 10.0524L10.8491 7.36243H13.5264Z" fill="#E8EDFC"/>
<path d="M16.873 7.36243L16.3376 10.0524C16.3004 10.2373 16.2003 10.4036 16.0544 10.523C15.9085 10.6425 15.7257 10.7078 15.5371 10.7078C15.3485 10.7078 15.1657 10.6425 15.0198 10.523C14.8739 10.4036 14.7738 10.2373 14.7366 10.0524L14.1958 7.36243H16.873Z" fill="#E8EDFC"/>
<path d="M20.2197 7.36243L19.6843 10.0524C19.6471 10.2373 19.547 10.4036 19.4011 10.523C19.2551 10.6425 19.0724 10.7078 18.8838 10.7078C18.6952 10.7078 18.5124 10.6425 18.3665 10.523C18.2206 10.4036 18.1205 10.2373 18.0833 10.0524L17.5425 7.36243H20.2197Z" fill="#E8EDFC"/>
<path d="M19.0342 20.0171L16.541 18.21C16.3877 18.0992 16.2776 17.9387 16.2295 17.7557C16.1814 17.5728 16.1983 17.3789 16.2773 17.207C16.3563 17.0352 16.4925 16.8961 16.6627 16.8135C16.8328 16.7309 17.0264 16.71 17.2103 16.7542L19.9605 17.4048L19.0342 20.0171Z" fill="#E8EDFC"/>
<path d="M20.2511 16.5815L17.8771 14.8654C17.7255 14.7536 17.617 14.5929 17.57 14.4105C17.5229 14.2281 17.5401 14.035 17.6186 13.8638C17.6972 13.6926 17.8323 13.5536 18.0012 13.4703C18.1702 13.387 18.3627 13.3644 18.5464 13.4063L21.1567 14.0301L20.2511 16.5815Z" fill="#E8EDFC"/>
<path d="M17.8173 23.452L15.1997 21.5572C15.0463 21.4464 14.9363 21.2859 14.8882 21.103C14.8401 20.92 14.857 20.7261 14.936 20.5543C15.015 20.3824 15.1512 20.2433 15.3214 20.1607C15.4915 20.0782 15.6851 20.0572 15.869 20.1015L18.7611 20.7855L17.8173 23.452Z" fill="#E8EDFC"/>
<path d="M12.3283 7.36243H10.3203C9.47105 7.37605 8.64666 7.07541 8.0055 6.51826C7.36435 5.96111 6.95163 5.18673 6.84662 4.34383C6.80166 3.87889 6.85438 3.40968 7.00139 2.9663C7.1484 2.52292 7.38646 2.11516 7.7003 1.76919C8.01414 1.42321 8.39683 1.14664 8.82382 0.957234C9.25081 0.767826 9.71267 0.669755 10.1798 0.669312H12.1877C11.7206 0.669755 11.2587 0.767826 10.8318 0.957234C10.4048 1.14664 10.0221 1.42321 9.70824 1.76919C9.3944 2.11516 9.15634 2.52292 9.00932 2.9663C8.86231 3.40968 8.80959 3.87889 8.85455 4.34383C8.95957 5.18673 9.37228 5.96111 10.0134 6.51826C10.6546 7.07541 11.479 7.37605 12.3283 7.36243Z" fill="white"/>
<path d="M13.1523 34.6588L14.9407 29.6095L16.2031 30.0566L14.4147 35.1059L13.1523 34.6588Z" fill="white"/>
<path d="M14.6771 33.0265C14.5892 33.027 14.502 33.0101 14.4207 32.9769C14.3393 32.9437 14.2653 32.8947 14.2028 32.8329C14.1403 32.771 14.0907 32.6975 14.0566 32.6165C14.0226 32.5354 14.0048 32.4485 14.0044 32.3606C14.004 32.2727 14.0208 32.1856 14.0541 32.1042C14.0873 32.0228 14.1362 31.9488 14.1981 31.8863C14.2599 31.8239 14.3335 31.7742 14.4145 31.7402C14.4955 31.7061 14.5825 31.6884 14.6704 31.6879H14.6771C14.8546 31.6879 15.0248 31.7584 15.1503 31.884C15.2759 32.0095 15.3464 32.1797 15.3464 32.3572C15.3464 32.5348 15.2759 32.705 15.1503 32.8305C15.0248 32.956 14.8546 33.0265 14.6771 33.0265Z" fill="#161335"/>
<path d="M13.139 34.6576C12.9109 35.2926 12.8383 35.973 12.9273 36.6417C13.0162 37.3105 13.2642 37.9483 13.6504 38.5015C14.0131 39.0181 14.496 39.4388 15.0574 39.7275C15.6187 40.0162 16.2419 40.1642 16.8731 40.1587C17.7031 40.1575 18.5124 39.8995 19.1901 39.4202C19.8677 38.9409 20.3805 38.2637 20.6581 37.4815L32.0364 5.35448C32.2501 4.74949 32.3157 4.10208 32.2278 3.46649C32.1399 2.8309 31.901 2.22563 31.531 1.70138C31.1446 1.16367 30.6332 0.727895 30.0411 0.431525C29.4489 0.135155 28.7936 -0.0129377 28.1316 -1.47488e-05H10.18C9.61942 -8.79121e-05 9.06507 0.11719 8.55258 0.344273C8.04009 0.571357 7.58081 0.903215 7.20431 1.31849C6.8278 1.73377 6.5424 2.22327 6.36648 2.7555C6.19055 3.28772 6.128 3.85089 6.18284 4.40874C6.30545 5.41251 6.79267 6.33621 7.55186 7.0042C8.31104 7.67219 9.28924 8.03788 10.3004 8.03173L10.7308 10.1856C10.7917 10.5238 10.9708 10.8294 11.236 11.0478C11.5013 11.2663 11.8356 11.3834 12.1792 11.3783C12.5246 11.382 12.8604 11.2646 13.1281 11.0465C13.3959 10.8283 13.5788 10.5232 13.645 10.1842L13.8612 9.10263L14.0774 10.1849C14.1381 10.5232 14.3171 10.829 14.5824 11.0476C14.8477 11.2662 15.1821 11.3834 15.5258 11.3783C15.8711 11.382 16.2069 11.2646 16.4747 11.0465C16.7425 10.8283 16.9254 10.5232 16.9916 10.1842L17.2077 9.10263L17.4239 10.1849C17.4847 10.5232 17.6637 10.829 17.929 11.0476C18.1943 11.2662 18.5286 11.3834 18.8723 11.3783C19.2177 11.382 19.5535 11.2646 19.8213 11.0465C20.0891 10.8283 20.2719 10.5232 20.3381 10.1842L20.7685 8.03173H22.5689L20.7243 13.239L18.6916 12.7531C18.3569 12.671 18.0039 12.7104 17.6955 12.864C17.387 13.0177 17.1431 13.2758 17.007 13.5924C16.8629 13.9034 16.8319 14.255 16.9192 14.5865C17.0066 14.918 17.2069 15.2086 17.4855 15.4082L18.9747 16.4851L17.3624 16.1036C17.0295 16.0172 16.6768 16.0521 16.3673 16.2021C16.0579 16.3521 15.812 16.6074 15.6737 16.9222C15.5263 17.2346 15.493 17.5887 15.5797 17.9231C15.6664 18.2574 15.8676 18.5508 16.1482 18.7521L17.6381 19.8317L16.0237 19.4502C15.6909 19.3635 15.338 19.3982 15.0285 19.5483C14.719 19.6983 14.4731 19.9537 14.3351 20.2688C14.1876 20.5811 14.1544 20.9353 14.2411 21.2696C14.3278 21.604 14.529 21.8973 14.8096 22.0987L17.0183 23.7003L14.9254 29.6104C14.8685 29.7771 14.8796 29.9595 14.9564 30.118C15.0331 30.2766 15.1692 30.3985 15.3353 30.4574C15.5013 30.5162 15.6839 30.5072 15.8433 30.4324C16.0028 30.3575 16.1263 30.2228 16.187 30.0575L23.8339 8.47883C23.9056 8.27664 23.9276 8.06019 23.8981 7.84772C23.8686 7.63525 23.7885 7.43297 23.6645 7.25793C23.5405 7.08289 23.3763 6.94022 23.1856 6.84192C22.9949 6.74362 22.7834 6.69258 22.5689 6.69311H10.3239C9.64099 6.70749 8.97677 6.46969 8.45817 6.02518C7.93957 5.58067 7.60299 4.96063 7.51276 4.28358C7.47532 3.91101 7.51644 3.53473 7.63348 3.17905C7.75052 2.82337 7.94086 2.49619 8.19222 2.21865C8.44358 1.94111 8.75037 1.71939 9.09276 1.5678C9.43515 1.41622 9.80553 1.33814 10.18 1.33861H28.1316C28.5802 1.32404 29.0256 1.42023 29.4282 1.61868C29.8308 1.81714 30.1783 2.11174 30.44 2.47644C30.6863 2.82616 30.8453 3.2298 30.9035 3.65357C30.9617 4.07733 30.9175 4.50888 30.7747 4.91207L19.3964 37.039C19.2105 37.5597 18.8683 38.0102 18.4167 38.329C17.965 38.6478 17.4259 38.8193 16.8731 38.8201C16.4558 38.8268 16.0432 38.7308 15.6718 38.5404C15.3004 38.35 14.9815 38.0712 14.7433 37.7284C14.4808 37.3502 14.3126 36.9145 14.253 36.4579C14.1934 36.0013 14.244 35.5371 14.4007 35.1041C14.4312 35.0209 14.445 34.9326 14.4411 34.8441C14.4373 34.7556 14.4159 34.6688 14.3783 34.5886C14.3407 34.5085 14.2875 34.4366 14.2219 34.3771C14.1563 34.3177 14.0795 34.2718 13.996 34.2422C13.9125 34.2127 13.824 34.1999 13.7356 34.2048C13.6472 34.2097 13.5606 34.2321 13.4809 34.2706C13.4012 34.3092 13.3299 34.3632 13.2712 34.4295C13.2125 34.4958 13.1676 34.5738 13.139 34.6576ZM18.2258 14.1412C18.2307 14.1245 18.239 14.109 18.25 14.0956C18.2611 14.0822 18.2748 14.0712 18.2902 14.0632C18.3056 14.0552 18.3225 14.0504 18.3399 14.0491C18.3572 14.0478 18.3746 14.05 18.3911 14.0555L20.2752 14.5067L19.9185 15.514L18.2693 14.3233C18.2399 14.3044 18.219 14.2748 18.2112 14.2408C18.2033 14.2068 18.209 14.1711 18.2271 14.1412H18.2258ZM16.8871 17.4804C16.8925 17.4643 16.9012 17.4495 16.9126 17.437C16.9239 17.4244 16.9378 17.4143 16.9533 17.4073C16.9687 17.4003 16.9854 17.3966 17.0024 17.3964C17.0194 17.3962 17.0362 17.3995 17.0518 17.4061L19.0765 17.8853L18.699 18.9502L16.934 17.6698C16.9034 17.6503 16.8816 17.6195 16.8733 17.5841C16.8651 17.5487 16.871 17.5115 16.8898 17.4804H16.8871ZM15.5954 21.0164C15.5651 20.9968 15.5436 20.9663 15.5354 20.9313C15.5271 20.8962 15.5328 20.8593 15.5512 20.8283C15.5567 20.8123 15.5654 20.7976 15.5768 20.785C15.5882 20.7725 15.602 20.7625 15.6174 20.7555C15.6329 20.7485 15.6496 20.7448 15.6665 20.7446C15.6834 20.7443 15.7002 20.7475 15.7159 20.754L17.8817 21.2667L17.4855 22.3865L15.5954 21.0164ZM12.1792 10.0397C12.1625 10.0411 12.1458 10.0392 12.1299 10.0339C12.114 10.0287 12.0993 10.0203 12.0868 10.0092C12.0743 9.99812 12.0641 9.9846 12.057 9.96947C12.0499 9.95434 12.0459 9.93791 12.0453 9.9212L11.6658 8.03173H12.71L12.3325 9.9212C12.3273 9.95698 12.3084 9.98935 12.2798 10.0115C12.2512 10.0336 12.2151 10.0437 12.1792 10.0397ZM15.5258 10.0397C15.5091 10.0411 15.4923 10.0392 15.4764 10.0339C15.4605 10.0287 15.4459 10.0203 15.4334 10.0092C15.4208 9.99812 15.4107 9.9846 15.4036 9.96947C15.3964 9.95434 15.3925 9.93791 15.3919 9.9212L15.0124 8.03173H16.0565L15.679 9.9212C15.6739 9.95698 15.655 9.98935 15.6264 10.0115C15.5978 10.0336 15.5617 10.0437 15.5258 10.0397ZM19.0256 9.9212C19.0204 9.95698 19.0016 9.98935 18.9729 10.0115C18.9443 10.0336 18.9083 10.0437 18.8723 10.0397C18.8557 10.0411 18.8389 10.0392 18.823 10.0339C18.8071 10.0287 18.7925 10.0203 18.7799 10.0092C18.7674 9.99812 18.7573 9.9846 18.7501 9.96947C18.743 9.95434 18.739 9.93791 18.7385 9.9212L18.359 8.03173H19.4031L19.0256 9.9212Z" fill="#161335"/>
<path d="M10.8491 4.01587C10.8491 4.413 10.9669 4.80122 11.1875 5.13142C11.4082 5.46162 11.7218 5.71899 12.0887 5.87096C12.4556 6.02294 12.8593 6.0627 13.2488 5.98523C13.6383 5.90775 13.9961 5.71651 14.2769 5.4357C14.5577 5.15488 14.7489 4.7971 14.8264 4.4076C14.9039 4.0181 14.8641 3.61437 14.7121 3.24747C14.5602 2.88056 14.3028 2.56697 13.9726 2.34633C13.6424 2.1257 13.2542 2.00793 12.8571 2.00793C12.3245 2.00793 11.8138 2.21948 11.4372 2.59605C11.0607 2.97261 10.8491 3.48333 10.8491 4.01587ZM13.5264 4.01587C13.5264 4.14825 13.4871 4.27765 13.4136 4.38772C13.34 4.49779 13.2355 4.58358 13.1132 4.63423C12.9909 4.68489 12.8563 4.69815 12.7265 4.67232C12.5966 4.6465 12.4774 4.58275 12.3838 4.48915C12.2902 4.39554 12.2264 4.27628 12.2006 4.14645C12.1748 4.01661 12.188 3.88204 12.2387 3.75974C12.2894 3.63744 12.3751 3.5329 12.4852 3.45936C12.5953 3.38581 12.7247 3.34656 12.8571 3.34656C13.0346 3.34656 13.2048 3.41708 13.3303 3.5426C13.4559 3.66812 13.5264 3.83836 13.5264 4.01587Z" fill="#161335"/>
<path d="M16.2036 4.01587C16.2036 4.413 16.3214 4.80122 16.542 5.13142C16.7626 5.46162 17.0762 5.71899 17.4431 5.87096C17.81 6.02294 18.2138 6.0627 18.6033 5.98523C18.9928 5.90775 19.3506 5.71651 19.6314 5.4357C19.9122 5.15488 20.1034 4.7971 20.1809 4.4076C20.2584 4.0181 20.2186 3.61437 20.0666 3.24747C19.9147 2.88056 19.6573 2.56697 19.3271 2.34633C18.9969 2.1257 18.6087 2.00793 18.2115 2.00793C17.679 2.00793 17.1683 2.21948 16.7917 2.59605C16.4152 2.97261 16.2036 3.48333 16.2036 4.01587ZM18.8809 4.01587C18.8809 4.14825 18.8416 4.27765 18.7681 4.38772C18.6945 4.49779 18.59 4.58358 18.4677 4.63423C18.3454 4.68489 18.2108 4.69815 18.081 4.67232C17.9511 4.6465 17.8319 4.58275 17.7383 4.48915C17.6447 4.39554 17.5809 4.27628 17.5551 4.14645C17.5293 4.01661 17.5425 3.88204 17.5932 3.75974C17.6438 3.63744 17.7296 3.5329 17.8397 3.45936C17.9498 3.38581 18.0792 3.34656 18.2115 3.34656C18.3891 3.34656 18.5593 3.41708 18.6848 3.5426C18.8103 3.66812 18.8809 3.83836 18.8809 4.01587Z" fill="#161335"/>
</g>
<defs>
<clipPath id="clip0_51_1626">
<rect width="40.1587" height="40.1587" fill="white" transform="translate(0.80957)"/>
</clipPath>
</defs>
</svg>
