<svg width="512" height="512" viewBox="0 0 512 512" fill="none" xmlns="http://www.w3.org/2000/svg">
<g clip-path="url(#clip0_26_439)">
<path d="M204.8 503.467C197.841 503.365 191.01 501.58 184.89 498.265C178.77 494.95 173.544 490.203 169.657 484.429C165.77 478.656 163.338 472.028 162.569 465.11C161.8 458.193 162.716 451.192 165.239 444.706L285.457 105.25C285.913 103.963 286.054 102.586 285.867 101.233C285.68 99.8809 285.172 98.593 284.384 97.4777C283.597 96.3625 282.553 95.4525 281.341 94.8241C280.129 94.1958 278.784 93.8674 277.419 93.8667H121.301C110.473 94.0466 99.961 90.2183 91.7844 83.1176C83.6078 76.0169 78.3441 66.1447 77.0048 55.3984C76.4186 49.47 77.0804 43.4845 78.9475 37.8274C80.8147 32.1702 83.8458 26.9668 87.8457 22.552C91.8457 18.1373 96.7258 14.6091 102.172 12.1947C107.618 9.78022 113.509 8.533 119.467 8.53331H348.339C355.295 8.28286 362.206 9.73773 368.47 12.7711C374.734 15.8044 380.161 20.3242 384.278 25.9361C388.394 31.5481 391.076 38.082 392.088 44.9679C393.1 51.8539 392.412 58.8829 390.084 65.4421L245.018 475.042C242.074 483.356 236.626 490.553 229.424 495.643C222.222 500.733 213.619 503.466 204.8 503.467Z" fill="#FFB500"/>
<path d="M375.296 16.9045C361.472 6.50239 347.238 8.53332 322.739 8.53332C329.695 8.28286 336.606 9.73774 342.87 12.7711C349.134 15.8044 354.561 20.3242 358.678 25.9361C362.795 31.5481 365.476 38.082 366.488 44.9679C367.5 51.8539 366.812 58.883 364.484 65.4421L219.418 475.042C217.222 481.27 213.609 486.902 208.862 491.493C204.115 496.085 198.366 499.509 192.068 501.495C202.602 504.813 214.012 503.909 223.891 498.973C233.77 494.037 241.345 485.457 245.018 475.042L390.084 65.4421C393.128 56.8333 393.335 47.4757 390.674 38.741C388.012 30.0063 382.623 22.3536 375.296 16.9045Z" fill="#FFB500"/>
<path d="M153.6 68.2667C163.026 68.2667 170.667 60.6256 170.667 51.2C170.667 41.7743 163.026 34.1333 153.6 34.1333C144.174 34.1333 136.533 41.7743 136.533 51.2C136.533 60.6256 144.174 68.2667 153.6 68.2667Z" fill="#E8EDFC"/>
<path d="M221.867 68.2667C231.292 68.2667 238.933 60.6256 238.933 51.2C238.933 41.7743 231.292 34.1333 221.867 34.1333C212.441 34.1333 204.8 41.7743 204.8 51.2C204.8 60.6256 212.441 68.2667 221.867 68.2667Z" fill="#E8EDFC"/>
<path d="M162.133 93.8667L155.307 128.162C154.832 130.519 153.556 132.639 151.696 134.163C149.835 135.686 147.505 136.518 145.101 136.518C142.696 136.518 140.366 135.686 138.506 134.163C136.645 132.639 135.37 130.519 134.895 128.162L128 93.8667H162.133Z" fill="#E8EDFC"/>
<path d="M204.8 93.8667L197.973 128.162C197.499 130.519 196.223 132.639 194.362 134.163C192.502 135.686 190.172 136.518 187.767 136.518C185.363 136.518 183.033 135.686 181.172 134.163C179.312 132.639 178.036 130.519 177.562 128.162L170.667 93.8667H204.8Z" fill="#E8EDFC"/>
<path d="M247.467 93.8667L240.64 128.162C240.165 130.519 238.89 132.639 237.029 134.163C235.169 135.686 232.839 136.518 230.434 136.518C228.03 136.518 225.7 135.686 223.839 134.163C221.979 132.639 220.703 130.519 220.228 128.162L213.333 93.8667H247.467Z" fill="#E8EDFC"/>
<path d="M232.354 255.206L200.568 232.166C198.613 230.754 197.209 228.707 196.596 226.375C195.983 224.043 196.199 221.57 197.206 219.379C198.213 217.188 199.95 215.415 202.119 214.362C204.289 213.309 206.756 213.042 209.101 213.606L244.164 221.901L232.354 255.206Z" fill="#E8EDFC"/>
<path d="M247.868 211.405L217.6 189.525C215.667 188.099 214.284 186.051 213.684 183.726C213.084 181.4 213.303 178.938 214.305 176.755C215.306 174.572 217.029 172.8 219.183 171.738C221.337 170.676 223.792 170.388 226.133 170.923L259.413 178.876L247.868 211.405Z" fill="#E8EDFC"/>
<path d="M216.841 298.999L183.467 274.842C181.512 273.429 180.108 271.382 179.495 269.05C178.882 266.718 179.098 264.245 180.105 262.054C181.112 259.863 182.849 258.09 185.018 257.037C187.188 255.984 189.656 255.717 192 256.282L228.873 265.003L216.841 298.999Z" fill="#E8EDFC"/>
<path d="M146.859 93.8666H121.259C110.431 94.0402 99.9202 90.2073 91.7458 83.1039C83.5715 76.0006 78.3096 66.1277 76.9707 55.3813C76.3975 49.4535 77.0697 43.4714 78.944 37.8185C80.8183 32.1657 83.8534 26.9671 87.8547 22.5561C91.856 18.145 96.735 14.619 102.179 12.2042C107.623 9.78931 113.511 8.53896 119.467 8.53331H145.067C139.111 8.53896 133.223 9.78931 127.779 12.2042C122.335 14.619 117.456 18.145 113.455 22.5561C109.453 26.9671 106.418 32.1657 104.544 37.8185C102.67 43.4714 101.998 49.4535 102.571 55.3813C103.91 66.1277 109.172 76.0006 117.346 83.1039C125.52 90.2073 136.031 94.0402 146.859 93.8666Z" fill="white"/>
<path d="M157.362 441.879L180.163 377.504L196.257 383.204L173.456 447.58L157.362 441.879Z" fill="white"/>
<path d="M176.802 421.069C175.682 421.074 174.571 420.859 173.533 420.436C172.496 420.012 171.552 419.388 170.756 418.6C169.959 417.811 169.326 416.874 168.892 415.84C168.458 414.807 168.232 413.699 168.226 412.578C168.221 411.458 168.436 410.347 168.859 409.309C169.283 408.272 169.907 407.328 170.695 406.532C171.484 405.735 172.421 405.102 173.455 404.668C174.488 404.234 175.596 404.008 176.717 404.002H176.802C179.065 404.002 181.236 404.901 182.836 406.502C184.436 408.102 185.336 410.272 185.336 412.536C185.336 414.799 184.436 416.969 182.836 418.569C181.236 420.17 179.065 421.069 176.802 421.069Z" fill="#161335"/>
<path d="M157.193 441.865C154.285 449.96 153.359 458.634 154.493 467.161C155.628 475.687 158.789 483.818 163.712 490.872C168.337 497.458 174.493 502.822 181.651 506.503C188.808 510.183 196.752 512.07 204.8 512C215.382 511.984 225.701 508.695 234.34 502.585C242.979 496.474 249.517 487.84 253.056 477.867L398.123 68.2667C400.848 60.5533 401.685 52.2993 400.564 44.1959C399.443 36.0925 396.397 28.3757 391.68 21.6917C386.753 14.8363 380.234 9.28041 372.684 5.50186C365.135 1.72331 356.78 -0.16478 348.339 -2.06586e-05H119.467C112.32 -0.000953448 105.252 1.49427 98.7184 4.38945C92.1845 7.28463 86.329 11.5156 81.5287 16.8102C76.7285 22.1047 73.0899 28.3456 70.8469 35.1312C68.604 41.9167 67.8064 49.0967 68.5056 56.2091C70.0688 69.0064 76.2806 80.7831 85.9598 89.2996C95.6389 97.816 108.11 102.478 121.003 102.4L126.49 129.86C127.266 134.172 129.549 138.068 132.931 140.854C136.313 143.639 140.575 145.132 144.956 145.067C149.359 145.114 153.64 143.617 157.054 140.836C160.468 138.055 162.8 134.165 163.644 129.843L166.4 116.053L169.156 129.852C169.931 134.165 172.213 138.063 175.595 140.85C178.978 143.637 183.24 145.132 187.622 145.067C192.026 145.114 196.307 143.617 199.721 140.836C203.135 138.055 205.467 134.165 206.31 129.843L209.067 116.053L211.823 129.852C212.597 134.165 214.88 138.063 218.262 140.85C221.644 143.637 225.907 145.132 230.289 145.067C234.692 145.114 238.973 143.617 242.388 140.836C245.802 138.055 248.133 134.165 248.977 129.843L254.464 102.4H277.419L253.901 168.789L227.985 162.594C223.718 161.548 219.218 162.05 215.285 164.009C211.353 165.968 208.242 169.259 206.507 173.295C204.67 177.261 204.274 181.743 205.388 185.969C206.502 190.195 209.055 193.901 212.608 196.446L231.595 210.176L211.038 205.312C206.794 204.21 202.297 204.655 198.352 206.567C194.407 208.479 191.272 211.734 189.508 215.748C187.629 219.731 187.205 224.246 188.31 228.509C189.416 232.771 191.98 236.511 195.558 239.078L214.554 252.843L193.971 247.979C189.728 246.873 185.229 247.316 181.283 249.229C177.337 251.142 174.202 254.399 172.442 258.415C170.562 262.397 170.138 266.913 171.243 271.175C172.349 275.438 174.914 279.178 178.492 281.745L206.652 302.165L179.968 377.515C179.243 379.64 179.385 381.966 180.363 383.988C181.341 386.009 183.077 387.563 185.194 388.314C187.311 389.064 189.638 388.949 191.671 387.995C193.704 387.04 195.278 385.323 196.053 383.215L293.547 108.1C294.46 105.522 294.741 102.763 294.365 100.054C293.989 97.3451 292.967 94.7662 291.387 92.5345C289.806 90.3029 287.712 88.4838 285.281 87.2306C282.85 85.9774 280.154 85.3267 277.419 85.3333H121.301C112.595 85.5167 104.127 82.485 97.5148 76.8177C90.903 71.1505 86.6117 63.2453 85.4614 54.6133C84.984 49.8633 85.5083 45.066 87.0004 40.5312C88.4926 35.9964 90.9194 31.8251 94.1241 28.2867C97.3288 24.7482 101.24 21.9214 105.605 19.9887C109.971 18.0561 114.693 17.0606 119.467 17.0666H348.339C354.059 16.8809 359.737 18.1073 364.87 20.6374C370.003 23.1676 374.434 26.9236 377.771 31.5733C380.911 36.032 382.937 41.1783 383.679 46.581C384.422 51.9837 383.859 57.4857 382.037 62.6261L236.971 472.226C234.601 478.864 230.238 484.608 224.48 488.672C218.722 492.737 211.848 494.924 204.8 494.933C199.48 495.02 194.22 493.795 189.484 491.368C184.749 488.94 180.684 485.385 177.647 481.016C174.299 476.193 172.156 470.638 171.396 464.817C170.636 458.996 171.281 453.077 173.278 447.556C173.667 446.497 173.843 445.37 173.794 444.242C173.745 443.114 173.473 442.007 172.993 440.985C172.513 439.963 171.835 439.046 170.999 438.288C170.162 437.53 169.183 436.946 168.119 436.569C167.055 436.191 165.926 436.029 164.799 436.091C163.672 436.154 162.568 436.439 161.552 436.931C160.535 437.422 159.627 438.111 158.878 438.956C158.13 439.802 157.557 440.796 157.193 441.865ZM222.046 180.292C222.109 180.08 222.214 179.882 222.355 179.711C222.496 179.54 222.671 179.4 222.867 179.298C223.064 179.196 223.279 179.134 223.501 179.118C223.722 179.101 223.944 179.129 224.154 179.2L248.175 184.951L243.627 197.794L222.601 182.613C222.226 182.373 221.96 181.996 221.86 181.562C221.759 181.129 221.832 180.673 222.063 180.292H222.046ZM204.979 222.865C205.048 222.66 205.158 222.472 205.303 222.311C205.448 222.151 205.625 222.022 205.822 221.933C206.019 221.844 206.232 221.797 206.449 221.794C206.665 221.792 206.879 221.834 207.078 221.918L232.892 228.028L228.079 241.604L205.577 225.28C205.186 225.031 204.909 224.638 204.803 224.187C204.698 223.736 204.773 223.261 205.013 222.865H204.979ZM188.51 267.947C188.124 267.698 187.85 267.309 187.745 266.861C187.64 266.414 187.712 265.944 187.947 265.549C188.017 265.345 188.127 265.157 188.273 264.997C188.418 264.838 188.594 264.709 188.791 264.621C188.988 264.532 189.201 264.484 189.417 264.481C189.632 264.478 189.847 264.519 190.046 264.602L217.66 271.138L212.608 285.414L188.51 267.947ZM144.956 128C144.743 128.019 144.529 127.994 144.327 127.927C144.124 127.86 143.937 127.753 143.778 127.612C143.618 127.47 143.489 127.298 143.398 127.105C143.307 126.912 143.256 126.703 143.249 126.49L138.411 102.4H151.723L146.91 126.49C146.844 126.946 146.603 127.359 146.239 127.64C145.874 127.922 145.414 128.051 144.956 128ZM187.622 128C187.41 128.019 187.196 127.994 186.993 127.927C186.791 127.86 186.604 127.753 186.444 127.612C186.285 127.47 186.155 127.298 186.065 127.105C185.974 126.912 185.923 126.703 185.916 126.49L181.077 102.4H194.389L189.577 126.49C189.511 126.946 189.27 127.359 188.905 127.64C188.541 127.922 188.081 128.051 187.622 128ZM232.243 126.49C232.177 126.946 231.937 127.359 231.572 127.64C231.207 127.922 230.747 128.051 230.289 128C230.077 128.019 229.863 127.994 229.66 127.927C229.458 127.86 229.271 127.753 229.111 127.612C228.951 127.47 228.822 127.298 228.731 127.105C228.64 126.912 228.59 126.703 228.582 126.49L223.744 102.4H237.056L232.243 126.49Z" fill="#161335"/>
<path d="M128 51.2C128 56.2632 129.501 61.2127 132.314 65.4226C135.127 69.6325 139.126 72.9137 143.803 74.8513C148.481 76.7889 153.628 77.2959 158.594 76.3081C163.56 75.3203 168.122 72.8821 171.702 69.3019C175.282 65.7217 177.72 61.1602 178.708 56.1943C179.696 51.2284 179.189 46.0811 177.251 41.4033C175.314 36.7255 172.032 32.7273 167.823 29.9144C163.613 27.1014 158.663 25.6 153.6 25.6C146.81 25.6 140.299 28.2971 135.498 33.098C130.697 37.899 128 44.4104 128 51.2ZM162.133 51.2C162.133 52.8877 161.633 54.5375 160.695 55.9408C159.758 57.3441 158.425 58.4379 156.866 59.0838C155.306 59.7296 153.591 59.8986 151.935 59.5693C150.28 59.2401 148.759 58.4274 147.566 57.234C146.373 56.0405 145.56 54.5201 145.231 52.8647C144.901 51.2094 145.07 49.4937 145.716 47.9344C146.362 46.3752 147.456 45.0424 148.859 44.1048C150.262 43.1671 151.912 42.6666 153.6 42.6666C155.863 42.6666 158.034 43.5657 159.634 45.166C161.234 46.7663 162.133 48.9368 162.133 51.2Z" fill="#161335"/>
<path d="M196.267 51.2C196.267 56.2632 197.768 61.2127 200.581 65.4226C203.394 69.6325 207.392 72.9137 212.07 74.8513C216.748 76.7889 221.895 77.2959 226.861 76.3081C231.827 75.3203 236.388 72.8821 239.969 69.3019C243.549 65.7217 245.987 61.1602 246.975 56.1943C247.963 51.2284 247.456 46.0811 245.518 41.4033C243.58 36.7255 240.299 32.7273 236.089 29.9144C231.879 27.1014 226.93 25.6 221.867 25.6C215.077 25.6 208.566 28.2971 203.765 33.098C198.964 37.899 196.267 44.4104 196.267 51.2ZM230.4 51.2C230.4 52.8877 229.9 54.5375 228.962 55.9408C228.024 57.3441 226.692 58.4379 225.132 59.0838C223.573 59.7296 221.857 59.8986 220.202 59.5693C218.547 59.2401 217.026 58.4274 215.833 57.234C214.639 56.0405 213.827 54.5201 213.497 52.8647C213.168 51.2094 213.337 49.4937 213.983 47.9344C214.629 46.3752 215.723 45.0424 217.126 44.1048C218.529 43.1671 220.179 42.6666 221.867 42.6666C224.13 42.6666 226.3 43.5657 227.901 45.166C229.501 46.7663 230.4 48.9368 230.4 51.2Z" fill="#161335"/>
</g>
<defs>
<clipPath id="clip0_26_439">
<rect width="512" height="512" fill="white"/>
</clipPath>
</defs>
</svg>
