<svg width="512" height="512" viewBox="0 0 512 512" fill="none" xmlns="http://www.w3.org/2000/svg">
<g clip-path="url(#clip0_26_437)">
<path d="M401.067 153.6C401.083 129.744 395.216 106.252 383.985 85.2057C372.754 64.1589 356.506 46.2066 336.68 32.9391C316.854 19.6715 294.061 11.4981 270.322 9.14289C246.583 6.78766 222.629 10.3233 200.582 19.4365C178.536 28.5498 159.077 42.9595 143.93 61.3892C128.782 79.8189 118.413 101.7 113.742 125.094C109.07 148.488 110.24 172.673 117.148 195.507C124.056 218.341 136.488 239.118 153.344 256C133.078 276.297 119.284 302.146 113.705 330.28C108.125 358.414 111.011 387.57 121.997 414.065C132.983 440.56 151.577 463.203 175.428 479.133C199.28 495.063 227.318 503.566 256 503.566C284.682 503.566 312.72 495.063 336.572 479.133C360.423 463.203 379.017 440.56 390.003 414.065C400.989 387.57 403.875 358.414 398.295 330.28C392.716 302.146 378.922 276.297 358.656 256C372.111 242.559 382.783 226.595 390.06 209.024C397.338 191.453 401.078 172.619 401.067 153.6ZM299.349 399.445C292.55 406.635 284.07 412.022 274.673 415.124C265.276 418.225 255.256 418.943 245.513 417.214C235.769 415.485 226.608 411.362 218.852 405.216C211.097 399.07 204.99 391.093 201.079 382.003C197.169 372.913 195.579 362.993 196.451 353.136C197.323 343.279 200.63 333.793 206.075 325.53C211.521 317.268 218.933 310.487 227.648 305.798C236.362 301.109 246.104 298.659 256 298.667C267.692 298.621 279.14 302.016 288.918 308.427C298.696 314.838 306.373 323.983 310.993 334.724C315.613 345.465 316.973 357.328 314.902 368.836C312.832 380.343 307.423 390.988 299.349 399.445ZM256 213.333C244.186 213.333 232.637 209.83 222.814 203.266C212.991 196.703 205.335 187.374 200.814 176.459C196.292 165.544 195.11 153.534 197.414 141.947C199.719 130.359 205.408 119.716 213.762 111.362C222.116 103.008 232.759 97.3192 244.347 95.0144C255.934 92.7096 267.944 93.8925 278.859 98.4136C289.774 102.935 299.103 110.591 305.666 120.414C312.23 130.237 315.733 141.786 315.733 153.6C315.715 169.437 309.416 184.62 298.218 195.818C287.02 207.016 271.837 213.315 256 213.333Z" fill="#FFB500"/>
<path d="M212.651 399.445C205.391 391.764 200.299 382.294 197.895 372.002C195.491 361.709 195.861 350.963 198.967 340.861C202.073 330.758 207.804 321.661 215.575 314.497C223.346 307.333 232.879 302.359 243.2 300.083C234.471 298.154 225.421 298.208 216.716 300.242C208.011 302.276 199.874 306.237 192.904 311.835C185.934 317.432 180.31 324.523 176.445 332.583C172.58 340.644 170.574 349.469 170.574 358.409C170.574 367.348 172.58 376.173 176.445 384.234C180.31 392.294 185.934 399.385 192.904 404.982C199.874 410.58 208.011 414.541 216.716 416.575C225.421 418.609 234.471 418.663 243.2 416.734C231.515 414.161 220.872 408.138 212.651 399.445Z" fill="#FFB500"/>
<path d="M401.067 153.6C401.055 133.478 396.857 113.578 388.74 95.1648C380.623 76.7522 368.764 60.2296 353.917 46.6473C339.07 33.0651 321.56 22.7202 302.499 16.2702C283.438 9.82027 263.244 7.40634 243.2 9.18185C270.636 11.6648 296.799 21.9059 318.63 38.708C340.461 55.5101 357.059 78.1791 366.483 104.065C375.907 129.952 377.768 157.985 371.849 184.89C365.929 211.795 352.474 236.459 333.056 256C352.478 275.539 365.936 300.204 371.857 327.11C377.778 354.015 375.918 382.051 366.493 407.939C357.069 433.826 340.47 456.496 318.636 473.298C296.803 490.099 270.638 500.338 243.2 502.818C272.846 505.471 302.591 498.932 328.391 484.091C354.192 469.249 374.798 446.824 387.41 419.863C400.022 392.903 404.028 362.713 398.883 333.396C393.739 304.079 379.694 277.056 358.656 256C372.111 242.559 382.783 226.595 390.06 209.024C397.338 191.453 401.078 172.619 401.067 153.6Z" fill="#FFB500"/>
<path d="M243.2 95.2832C234.469 93.3473 225.416 93.3963 216.707 95.4266C207.997 97.4569 199.855 101.417 192.881 107.014C185.907 112.611 180.278 119.703 176.411 127.766C172.543 135.829 170.535 144.657 170.535 153.6C170.535 162.543 172.543 171.371 176.411 179.434C180.278 187.497 185.907 194.589 192.881 200.186C199.855 205.783 207.997 209.743 216.707 211.773C225.416 213.804 234.469 213.853 243.2 211.917C229.927 208.974 218.055 201.591 209.545 190.987C201.036 180.384 196.398 167.196 196.398 153.6C196.398 140.005 201.036 126.816 209.545 116.213C218.055 105.609 229.927 98.2264 243.2 95.2832Z" fill="#FFB500"/>
<path d="M299.349 399.445C293.777 405.348 287.058 410.051 279.604 413.265C272.15 416.479 264.118 418.137 256 418.137C247.882 418.137 239.85 416.479 232.396 413.265C224.942 410.051 218.223 405.348 212.651 399.445C217.26 392.111 223.655 386.067 231.236 381.877C238.817 377.688 247.338 375.49 256 375.49C264.662 375.49 273.183 377.688 280.764 381.877C288.345 386.067 294.74 392.111 299.349 399.445Z" fill="#E8EDFC"/>
<path d="M221.867 273.067C231.292 273.067 238.933 265.426 238.933 256C238.933 246.574 231.292 238.933 221.867 238.933C212.441 238.933 204.8 246.574 204.8 256C204.8 265.426 212.441 273.067 221.867 273.067Z" fill="#E8EDFC"/>
<path d="M290.133 273.067C299.559 273.067 307.2 265.426 307.2 256C307.2 246.574 299.559 238.933 290.133 238.933C280.708 238.933 273.067 246.574 273.067 256C273.067 265.426 280.708 273.067 290.133 273.067Z" fill="#E8EDFC"/>
<path d="M267.563 502.758C240.253 500.04 214.273 489.636 192.636 472.753C170.999 455.87 154.591 433.199 145.314 407.37C136.038 381.54 134.274 353.61 140.226 326.819C146.178 300.027 159.603 275.472 178.944 256C159.6 236.531 146.172 211.977 140.217 185.185C134.262 158.394 136.024 130.464 145.299 104.633C154.574 78.8031 170.981 56.1312 192.618 39.2473C214.255 22.3633 240.236 11.9592 267.546 9.24158C237.995 6.83144 208.416 13.5484 182.805 28.4853C157.193 43.4221 136.783 65.8592 124.33 92.7662C111.877 119.673 107.982 149.754 113.171 178.945C118.359 208.137 132.382 235.032 153.344 256C132.38 276.969 118.357 303.866 113.169 333.059C107.98 362.253 111.877 392.335 124.332 419.243C136.787 446.151 157.2 468.588 182.815 483.523C208.429 498.458 238.01 505.172 267.563 502.758Z" fill="white"/>
<path d="M134.443 420.25L119.245 428.015C108.312 406.428 102.546 382.597 102.4 358.4H119.467C119.609 379.897 124.736 401.068 134.443 420.25Z" fill="white"/>
<path d="M115.2 400.811C114.079 400.816 112.969 400.601 111.931 400.177C110.894 399.754 109.95 399.13 109.154 398.341C107.545 396.749 106.635 394.583 106.624 392.32C106.613 390.057 107.501 387.882 109.093 386.274C110.686 384.665 112.851 383.755 115.115 383.744H115.2C117.463 383.744 119.634 384.643 121.234 386.243C122.834 387.844 123.733 390.014 123.733 392.277C123.733 394.541 122.834 396.711 121.234 398.311C119.634 399.912 117.463 400.811 115.2 400.811Z" fill="#161335"/>
<path d="M110.933 366.933C113.196 366.933 115.367 366.034 116.967 364.434C118.568 362.834 119.467 360.663 119.467 358.4C119.428 340.496 122.936 322.762 129.789 306.222C136.642 289.682 146.704 274.663 159.394 262.033C160.994 260.433 161.893 258.263 161.893 256C161.893 253.737 160.994 251.567 159.394 249.967C140.317 230.865 127.331 206.537 122.077 180.057C116.823 153.577 119.537 126.134 129.876 101.196C140.216 76.2579 157.715 54.9447 180.164 39.95C202.613 24.9553 229.004 16.9522 256 16.9522C282.996 16.9522 309.387 24.9553 331.836 39.95C354.285 54.9447 371.784 76.2579 382.123 101.196C392.463 126.134 395.177 153.577 389.923 180.057C384.669 206.537 371.683 230.865 352.606 249.967C351.006 251.567 350.107 253.737 350.107 256C350.107 258.263 351.006 260.433 352.606 262.033C371.681 281.126 384.666 305.447 389.918 331.92C395.171 358.393 392.455 385.829 382.114 410.759C371.774 435.689 354.273 456.992 331.824 471.975C309.376 486.958 282.989 494.947 256 494.933C230.843 494.83 206.199 487.81 184.764 474.641C179.428 471.369 174.299 467.773 169.404 463.872C164.629 459.828 160.11 455.494 155.87 450.893C147.311 441.744 140.093 431.427 134.434 420.25C133.386 418.3 131.636 416.82 129.539 416.111C127.442 415.401 125.153 415.514 123.136 416.427C122.096 416.903 121.164 417.587 120.399 418.437C119.633 419.288 119.05 420.286 118.686 421.37C118.321 422.454 118.183 423.602 118.279 424.742C118.375 425.882 118.704 426.99 119.245 427.998C125.613 440.582 133.732 452.201 143.36 462.507C148.124 467.652 153.202 472.497 158.566 477.013C164.046 481.424 169.797 485.485 175.787 489.173C199.034 503.524 225.693 511.4 253.006 511.989C280.319 512.577 307.293 505.856 331.136 492.52C354.98 479.184 374.826 459.719 388.621 436.138C402.416 412.558 409.659 385.719 409.6 358.4C409.69 320.585 395.717 284.087 370.398 256C390.192 233.908 403.166 206.557 407.753 177.251C412.339 147.945 408.342 117.938 396.244 90.8546C384.146 63.7712 364.465 40.7701 339.578 24.6299C314.691 8.48967 285.663 -0.0992126 256 -0.0992126C226.337 -0.0992126 197.309 8.48967 172.422 24.6299C147.535 40.7701 127.854 63.7712 115.756 90.8546C103.658 117.938 99.6607 147.945 104.247 177.251C108.834 206.557 121.808 233.908 141.602 256C116.283 284.087 102.31 320.585 102.4 358.4C102.4 360.663 103.299 362.834 104.899 364.434C106.5 366.034 108.67 366.933 110.933 366.933Z" fill="#161335"/>
<path d="M256 85.3333C242.498 85.3333 229.299 89.3371 218.073 96.8383C206.847 104.34 198.097 115.001 192.93 127.475C187.763 139.95 186.411 153.676 189.045 166.918C191.679 180.161 198.181 192.325 207.728 201.872C217.275 211.419 229.439 217.921 242.682 220.555C255.924 223.189 269.65 221.837 282.125 216.67C294.599 211.503 305.26 202.753 312.762 191.527C320.263 180.301 324.267 167.102 324.267 153.6C324.246 135.501 317.047 118.149 304.249 105.351C291.451 92.5526 274.099 85.3537 256 85.3333ZM256 204.8C245.874 204.8 235.975 201.797 227.555 196.171C219.135 190.545 212.573 182.549 208.697 173.193C204.822 163.838 203.808 153.543 205.784 143.611C207.759 133.68 212.636 124.557 219.796 117.396C226.957 110.236 236.08 105.359 246.011 103.384C255.943 101.408 266.238 102.422 275.593 106.297C284.949 110.173 292.945 116.735 298.571 125.155C304.197 133.575 307.2 143.474 307.2 153.6C307.186 167.175 301.788 180.19 292.189 189.789C282.59 199.388 269.575 204.786 256 204.8Z" fill="#161335"/>
<path d="M256 426.667C269.502 426.667 282.7 422.663 293.927 415.162C305.153 407.66 313.903 396.999 319.07 384.525C324.237 372.05 325.589 358.324 322.955 345.082C320.321 331.839 313.819 319.675 304.272 310.128C294.724 300.581 282.561 294.079 269.318 291.445C256.076 288.811 242.35 290.163 229.875 295.33C217.401 300.497 206.74 309.247 199.238 320.473C191.737 331.699 187.733 344.898 187.733 358.4C187.754 376.499 194.952 393.851 207.751 406.649C220.549 419.447 237.901 426.646 256 426.667ZM256 409.6C244.411 409.604 233.168 405.654 224.128 398.404C228.114 393.88 233.018 390.256 238.514 387.774C244.009 385.292 249.97 384.008 256 384.008C262.03 384.008 267.991 385.292 273.486 387.774C278.982 390.256 283.886 393.88 287.872 398.404C278.832 405.654 267.588 409.604 256 409.6ZM256 307.2C265.156 307.183 274.149 309.626 282.038 314.274C289.926 318.922 296.422 325.604 300.844 333.622C305.267 341.639 307.454 350.697 307.178 359.849C306.901 369.001 304.171 377.911 299.272 385.647C293.718 379.742 287.013 375.036 279.571 371.819C272.129 368.603 264.107 366.943 256 366.943C247.893 366.943 239.871 368.603 232.429 371.819C224.987 375.036 218.282 379.742 212.727 385.647C207.829 377.911 205.099 369.001 204.822 359.849C204.546 350.697 206.733 341.639 211.156 333.622C215.578 325.604 222.073 318.922 229.962 314.274C237.851 309.626 246.844 307.183 256 307.2Z" fill="#161335"/>
<path d="M196.267 256C196.267 261.063 197.768 266.013 200.581 270.223C203.394 274.433 207.392 277.714 212.07 279.651C216.748 281.589 221.895 282.096 226.861 281.108C231.827 280.12 236.388 277.682 239.969 274.102C243.549 270.522 245.987 265.96 246.975 260.994C247.962 256.028 247.456 250.881 245.518 246.203C243.58 241.526 240.299 237.527 236.089 234.714C231.879 231.901 226.93 230.4 221.867 230.4C215.077 230.4 208.566 233.097 203.765 237.898C198.964 242.699 196.267 249.21 196.267 256ZM230.4 256C230.4 257.688 229.899 259.338 228.962 260.741C228.024 262.144 226.691 263.238 225.132 263.884C223.573 264.53 221.857 264.699 220.202 264.369C218.547 264.04 217.026 263.227 215.833 262.034C214.639 260.841 213.826 259.32 213.497 257.665C213.168 256.009 213.337 254.294 213.983 252.734C214.629 251.175 215.722 249.842 217.126 248.905C218.529 247.967 220.179 247.467 221.867 247.467C224.13 247.467 226.3 248.366 227.901 249.966C229.501 251.566 230.4 253.737 230.4 256Z" fill="#161335"/>
<path d="M264.533 256C264.533 261.063 266.035 266.013 268.848 270.223C271.661 274.433 275.659 277.714 280.337 279.651C285.014 281.589 290.162 282.096 295.128 281.108C300.094 280.12 304.655 277.682 308.235 274.102C311.815 270.522 314.254 265.96 315.241 260.994C316.229 256.028 315.722 250.881 313.785 246.203C311.847 241.526 308.566 237.527 304.356 234.714C300.146 231.901 295.197 230.4 290.133 230.4C283.344 230.4 276.832 233.097 272.031 237.898C267.23 242.699 264.533 249.21 264.533 256ZM298.667 256C298.667 257.688 298.166 259.338 297.229 260.741C296.291 262.144 294.958 263.238 293.399 263.884C291.84 264.53 290.124 264.699 288.469 264.369C286.813 264.04 285.293 263.227 284.099 262.034C282.906 260.841 282.093 259.32 281.764 257.665C281.435 256.009 281.604 254.294 282.25 252.734C282.895 251.175 283.989 249.842 285.392 248.905C286.796 247.967 288.446 247.467 290.133 247.467C292.397 247.467 294.567 248.366 296.167 249.966C297.768 251.566 298.667 253.737 298.667 256Z" fill="#161335"/>
</g>
<defs>
<clipPath id="clip0_26_437">
<rect width="512" height="512" fill="white"/>
</clipPath>
</defs>
</svg>
