<svg width="512" height="512" viewBox="0 0 512 512" fill="none" xmlns="http://www.w3.org/2000/svg">
<path d="M248.849 8.71252C246.734 8.80241 244.727 9.66987 243.212 11.1486C241.697 12.6272 240.781 14.6131 240.64 16.7253C239.65 33.1008 230.136 41.3781 211.815 38.6474C210.431 38.4125 209.012 38.5243 207.682 38.9728C206.353 39.4213 205.156 40.1925 204.198 41.2174C203.24 42.2422 202.551 43.4887 202.193 44.8452C201.835 46.2016 201.819 47.6257 202.146 48.9899C203.798 55.1184 204.128 61.5281 203.115 67.7938C202.101 74.0596 199.767 80.0383 196.267 85.3333C192.375 90.9554 186.851 95.2474 180.441 97.6295C174.032 100.012 167.046 100.369 160.427 98.6539C159.011 98.3882 157.551 98.4855 156.182 98.9365C154.814 99.3875 153.582 100.178 152.602 101.233C151.621 102.289 150.924 103.575 150.575 104.973C150.225 106.371 150.236 107.834 150.605 109.227C153.421 120.491 154.624 135.518 145.067 145.067C141.056 149.168 136.03 152.135 130.501 153.664C124.971 155.192 119.136 155.229 113.587 153.771C112.401 153.51 111.172 153.506 109.983 153.758C108.795 154.011 107.674 154.514 106.695 155.235C105.717 155.955 104.904 156.876 104.31 157.937C103.717 158.997 103.356 160.172 103.253 161.382C89.9073 293.043 215.322 392.439 324.267 331.861V458.88C324.081 469.718 327.905 480.242 335.005 488.432C342.105 496.622 351.981 501.9 362.735 503.253C368.665 503.829 374.65 503.159 380.305 501.285C385.961 499.411 391.162 496.376 395.575 492.373C399.988 488.371 403.515 483.49 405.931 478.044C408.346 472.598 409.596 466.707 409.6 460.749V179.2C409.6 86.2293 341.479 5.41865 248.849 8.71252ZM256 264.533C218.368 264.533 187.733 226.219 187.733 179.2C187.733 132.181 218.368 93.8667 256 93.8667C293.632 93.8667 324.267 132.181 324.267 179.2C324.267 226.219 293.632 264.533 256 264.533Z" fill="#FFB500"/>
<path d="M256 8.53332C252.608 8.18188 249.181 8.47135 245.896 9.38665C323.302 18.0736 384 90.8971 384 179.2V460.749C383.995 469.815 381.102 478.644 375.741 485.955C370.38 493.266 362.83 498.679 354.184 501.41C360.569 503.409 367.334 503.879 373.933 502.781C380.532 501.684 386.781 499.05 392.174 495.092C397.568 491.135 401.955 485.964 404.982 479.999C408.009 474.033 409.591 467.439 409.6 460.749V179.2C409.6 85.0773 340.651 8.53332 256 8.53332Z" fill="#FFB500"/>
<path d="M113.587 153.771C112.4 153.51 111.172 153.506 109.983 153.758C108.794 154.011 107.673 154.514 106.695 155.235C105.717 155.955 104.904 156.876 104.31 157.937C103.716 158.997 103.356 160.172 103.253 161.382C92.1599 270.874 177.024 357.956 268.578 349.372C187.511 341.402 118.801 260.574 128.853 161.382C128.956 160.172 129.316 158.997 129.91 157.937C130.504 156.876 131.317 155.955 132.295 155.235C133.273 154.514 134.394 154.011 135.583 153.758C136.772 153.506 138 153.51 139.187 153.771C144.735 155.229 150.571 155.192 156.101 153.664C161.63 152.135 166.656 149.168 170.667 145.067C180.224 135.509 179.021 120.482 176.205 109.227C175.836 107.834 175.825 106.371 176.174 104.973C176.524 103.575 177.221 102.289 178.201 101.233C179.182 100.178 180.414 99.3875 181.782 98.9365C183.15 98.4855 184.611 98.3882 186.027 98.6538C192.646 100.368 199.631 100.01 206.041 97.6278C212.45 95.2457 217.974 90.9544 221.867 85.3333C225.367 80.0383 227.701 74.0596 228.715 67.7938C229.728 61.528 229.398 55.1183 227.746 48.9898C227.419 47.6257 227.435 46.2016 227.793 44.8451C228.151 43.4887 228.839 42.2422 229.798 41.2174C230.756 40.1925 231.953 39.4213 233.282 38.9728C234.611 38.5243 236.031 38.4125 237.414 38.6474C255.735 41.3781 265.25 33.1008 266.24 16.7253C266.335 15.2308 266.83 13.7894 267.674 12.5523C268.518 11.3151 269.679 10.3278 271.036 9.69385C262.715 8.37358 254.247 8.27009 245.896 9.38665C244.414 9.98015 243.13 10.9826 242.195 12.2773C241.26 13.5719 240.712 15.1056 240.614 16.6997C239.624 33.0752 230.11 41.3525 211.789 38.6218C210.406 38.3869 208.986 38.4987 207.657 38.9472C206.327 39.3957 205.13 40.1669 204.172 41.1918C203.214 42.2166 202.525 43.4631 202.167 44.8195C201.809 46.176 201.793 47.6001 202.12 48.9642C203.78 55.0948 204.116 61.5082 203.107 67.7787C202.098 74.0491 199.766 80.0331 196.267 85.3333C192.374 90.9544 186.85 95.2457 180.441 97.6278C174.031 100.01 167.046 100.368 160.427 98.6538C159.011 98.3882 157.55 98.4855 156.182 98.9365C154.814 99.3875 153.582 100.178 152.601 101.233C151.621 102.289 150.924 103.575 150.574 104.973C150.225 106.371 150.236 107.834 150.605 109.227C153.421 120.491 154.624 135.518 145.067 145.067C141.056 149.168 136.03 152.135 130.501 153.664C124.971 155.192 119.135 155.229 113.587 153.771Z" fill="white"/>
<path d="M315.733 331.861H332.8V400.128H315.733V331.861Z" fill="white"/>
<path d="M332.8 179.2C332.8 127.445 298.351 85.3333 256 85.3333C213.649 85.3333 179.2 127.445 179.2 179.2C179.2 230.955 213.649 273.067 256 273.067C298.351 273.067 332.8 230.955 332.8 179.2ZM256 256C223.07 256 196.267 221.542 196.267 179.2C196.267 136.858 223.07 102.4 256 102.4C288.93 102.4 315.733 136.858 315.733 179.2C315.733 221.542 288.93 256 256 256Z" fill="#161335"/>
<path d="M324.267 374.528C328.98 374.528 332.8 370.707 332.8 365.995C332.8 361.282 328.98 357.461 324.267 357.461C319.554 357.461 315.733 361.282 315.733 365.995C315.733 370.707 319.554 374.528 324.267 374.528Z" fill="#161335"/>
<path d="M115.388 145.425C113.037 144.917 110.606 144.911 108.253 145.408C105.9 145.905 103.679 146.894 101.734 148.309C99.7767 149.749 98.1457 151.587 96.9485 153.702C95.7514 155.816 95.0152 158.161 94.7883 160.58C90.9249 193.838 96.2363 227.52 110.147 257.975C124.058 288.43 146.037 314.498 173.705 333.355C196.409 348.596 222.904 357.226 250.229 358.281C277.555 359.336 304.636 352.774 328.448 339.328C330.426 338.228 331.886 336.387 332.507 334.211C333.128 332.035 332.859 329.701 331.759 327.723C330.659 325.745 328.818 324.285 326.642 323.664C324.466 323.043 322.132 323.312 320.154 324.412C299.108 336.506 275.079 342.42 250.825 341.477C226.571 340.534 203.074 332.77 183.031 319.078C132.983 286.379 105.677 226.261 111.787 162.133C118.731 163.905 126.019 163.821 132.92 161.889C139.821 159.957 146.093 156.245 151.108 151.125C161.015 141.218 163.703 126.012 158.95 107.085C167.203 109.129 175.884 108.597 183.826 105.562C191.768 102.526 198.59 97.1314 203.375 90.1035C207.519 83.8414 210.298 76.7774 211.533 69.3707C212.768 61.964 212.431 54.3803 210.543 47.1125C215.339 48.1879 220.309 48.221 225.119 47.2096C229.929 46.1983 234.465 44.1659 238.421 41.2501C241.838 38.2526 244.574 34.5592 246.446 30.4177C248.318 26.2762 249.283 21.7823 249.276 17.2373C267.754 16.406 286.206 19.3811 303.486 25.978C320.766 32.5748 336.507 42.6527 349.73 55.5861C366.185 71.6603 379.217 90.899 388.04 112.143C396.862 133.387 401.294 156.198 401.067 179.2V460.749C401.06 465.512 400.061 470.222 398.132 474.577C396.202 478.932 393.386 482.836 389.862 486.042C386.337 489.273 382.166 491.72 377.625 493.219C373.084 494.718 368.276 495.235 363.52 494.737C354.892 493.578 346.992 489.284 341.327 482.674C335.661 476.064 332.626 467.601 332.8 458.897V400.128C332.8 397.865 331.901 395.694 330.301 394.094C328.7 392.494 326.53 391.595 324.267 391.595C322.004 391.595 319.833 392.494 318.233 394.094C316.632 395.694 315.733 397.865 315.733 400.128V458.88C315.587 471.826 320.216 484.372 328.735 494.12C337.255 503.869 349.067 510.137 361.916 511.727C363.554 511.881 365.201 511.957 366.831 511.957C373.563 511.971 380.232 510.656 386.456 508.089C392.679 505.522 398.336 501.753 403.101 496.997C407.866 492.242 411.647 486.593 414.226 480.374C416.806 474.156 418.133 467.49 418.133 460.757V179.2C418.355 153.883 413.45 128.783 403.715 105.411C393.981 82.039 379.617 60.8788 361.489 43.2043C346.598 28.6612 328.875 17.3373 309.42 9.93698C289.966 2.53665 269.197 -0.78191 248.405 0.187715C244.175 0.371713 240.164 2.12161 237.152 5.09743C234.14 8.07324 232.342 12.0625 232.107 16.2901C232.213 18.4497 231.868 20.6077 231.094 22.6265C230.32 24.6452 229.133 26.4804 227.61 28.0149C223.246 30.6113 218.041 31.4013 213.103 30.2165C210.338 29.7742 207.507 30.0211 204.86 30.9352C202.213 31.8494 199.833 33.4026 197.931 35.4571C196.028 37.5116 194.662 40.0038 193.953 42.7128C193.245 45.4218 193.216 48.2638 193.869 50.9866C195.25 55.9703 195.547 61.1922 194.738 66.3002C193.93 71.4081 192.036 76.2834 189.184 80.5973C187.051 83.7888 180.565 93.4997 161.877 90.2485C159.06 89.7431 156.16 89.9545 153.446 90.8633C150.731 91.772 148.289 93.349 146.344 95.449C144.398 97.549 143.013 100.105 142.314 102.881C141.615 105.656 141.625 108.564 142.345 111.334C144.606 120.201 145.877 132.198 139.042 139.034C136.04 142.131 132.258 144.359 128.094 145.484C123.931 146.609 119.541 146.589 115.388 145.425Z" fill="#161335"/>
<path d="M230.4 315.733C230.4 317.997 231.299 320.167 232.899 321.767C234.5 323.368 236.67 324.267 238.933 324.267C241.196 324.267 243.367 323.368 244.967 321.767C246.568 320.167 247.467 317.997 247.467 315.733C247.467 313.47 248.366 311.3 249.966 309.699C251.566 308.099 253.737 307.2 256 307.2C258.263 307.2 260.434 308.099 262.034 309.699C263.634 311.3 264.533 313.47 264.533 315.733C264.533 317.997 265.432 320.167 267.033 321.767C268.633 323.368 270.803 324.267 273.067 324.267C275.33 324.267 277.5 323.368 279.101 321.767C280.701 320.167 281.6 317.997 281.6 315.733C281.6 308.944 278.903 302.432 274.102 297.631C269.301 292.83 262.789 290.133 256 290.133C249.21 290.133 242.699 292.83 237.898 297.631C233.097 302.432 230.4 308.944 230.4 315.733Z" fill="#161335"/>
<path d="M343.834 236.433C345.434 238.033 347.604 238.932 349.867 238.932C352.129 238.932 354.3 238.033 355.9 236.433L362.667 229.666L369.434 236.433C371.043 237.987 373.199 238.848 375.436 238.828C377.673 238.809 379.814 237.911 381.396 236.329C382.978 234.747 383.875 232.607 383.895 230.369C383.914 228.132 383.054 225.976 381.5 224.367L374.733 217.6L381.5 210.833C383.054 209.224 383.914 207.068 383.895 204.831C383.875 202.593 382.978 200.453 381.396 198.871C379.814 197.289 377.673 196.391 375.436 196.372C373.199 196.352 371.043 197.213 369.434 198.767L362.667 205.534L355.9 198.767C354.29 197.213 352.135 196.352 349.897 196.372C347.66 196.391 345.52 197.289 343.938 198.871C342.355 200.453 341.458 202.593 341.439 204.831C341.419 207.068 342.279 209.224 343.834 210.833L350.601 217.6L343.834 224.367C342.234 225.967 341.335 228.137 341.335 230.4C341.335 232.663 342.234 234.833 343.834 236.433Z" fill="#161335"/>
<path d="M168.167 198.767C166.566 197.167 164.396 196.268 162.133 196.268C159.871 196.268 157.701 197.167 156.1 198.767L149.333 205.534L142.567 198.767C140.957 197.213 138.802 196.352 136.564 196.372C134.327 196.391 132.186 197.289 130.604 198.871C129.022 200.453 128.125 202.593 128.105 204.831C128.086 207.068 128.946 209.224 130.5 210.833L137.267 217.6L130.5 224.367C129.685 225.154 129.035 226.096 128.588 227.137C128.141 228.178 127.905 229.298 127.896 230.431C127.886 231.564 128.102 232.687 128.531 233.736C128.96 234.785 129.593 235.738 130.395 236.539C131.196 237.34 132.149 237.974 133.197 238.403C134.246 238.832 135.37 239.048 136.503 239.038C137.636 239.028 138.756 238.793 139.797 238.345C140.838 237.898 141.779 237.248 142.567 236.433L149.333 229.666L156.1 236.433C157.71 237.987 159.865 238.848 162.103 238.828C164.34 238.809 166.48 237.911 168.063 236.329C169.645 234.747 170.542 232.607 170.562 230.369C170.581 228.132 169.721 225.976 168.167 224.367L161.4 217.6L168.167 210.833C169.766 209.233 170.665 207.063 170.665 204.8C170.665 202.537 169.766 200.367 168.167 198.767Z" fill="#161335"/>
</svg>
