<svg width="100" height="100" viewBox="0 0 100 100" fill="none" xmlns="http://www.w3.org/2000/svg">
<circle cx="50" cy="50" r="50" fill="white"/>
<mask id="mask0_21_245" style="mask-type:alpha" maskUnits="userSpaceOnUse" x="0" y="0" width="100" height="100">
<circle cx="50" cy="50" r="50" fill="white"/>
</mask>
<g mask="url(#mask0_21_245)">
<g clip-path="url(#clip0_21_245)">
<path d="M72.0232 47.1564C72.0194 48.7064 71.4029 50.1921 70.3083 51.2895C69.2137 52.3869 67.7296 53.007 66.1796 53.0148H66.1502V57.6838C66.1508 58.5237 65.9715 59.3539 65.6246 60.1187C65.2776 60.8835 64.771 61.5652 64.1387 62.118L59.9689 65.7592L56.0633 69.1803C54.9958 70.1183 53.6229 70.6351 52.2018 70.6338H47.797C46.3759 70.6351 45.0031 70.1183 43.9355 69.1803L40.03 65.7592L35.8601 62.118C35.2279 61.5652 34.7212 60.8835 34.3743 60.1187C34.0273 59.3539 33.8481 58.5237 33.8486 57.6838V53.0148H33.8193C32.2655 53.0109 30.777 52.3899 29.6811 51.2885C28.5852 50.1871 27.9717 48.6955 27.9756 47.1418C27.9795 45.588 28.6004 44.0995 29.7019 43.0036C30.8033 41.9077 32.2949 41.2942 33.8486 41.2981C33.8486 32.4592 38.2534 29.5227 41.1899 29.5227C45.5947 29.5227 47.0629 32.4592 49.9994 32.4592C52.9359 32.4592 54.4042 29.5227 58.809 29.5227C61.7455 29.5227 66.1502 32.4592 66.1502 41.2981C67.5962 41.3009 68.9909 41.8337 70.0705 42.7957C70.6863 43.3428 71.1788 44.0145 71.5155 44.7662C71.8521 45.518 72.0252 46.3327 72.0232 47.1564Z" fill="#E8EDFC"/>
<path d="M70.0705 42.7957C68.991 41.8337 67.5963 41.3009 66.1503 41.2981C66.1503 32.4592 61.7455 29.5227 58.809 29.5227C57.9553 29.5224 57.1065 29.6506 56.291 29.903C58.9236 30.9366 61.7455 34.2211 61.7455 41.2981V57.6838C61.7461 58.5237 61.5668 59.3539 61.2199 60.1187C60.8729 60.8835 60.3663 61.5652 59.734 62.118L55.5642 65.7592L51.6586 69.1803C50.5911 70.1183 49.2182 70.6351 47.7971 70.6338H52.2019C53.623 70.6351 54.9959 70.1183 56.0634 69.1803L59.969 65.7592L64.1388 62.118C64.7711 61.5652 65.2777 60.8835 65.6247 60.1187C65.9716 59.3539 66.1508 58.5237 66.1503 57.6838V53.0148H66.1797C67.3646 53.0128 68.5211 52.6513 69.4962 51.978C70.4713 51.3047 71.2192 50.3513 71.6408 49.2438C72.0625 48.1364 72.1381 46.9271 71.8577 45.7758C71.5773 44.6244 70.9541 43.5853 70.0705 42.7957Z" fill="#CAD9FC"/>
<path d="M88.1154 96.9303C88.1322 97.1336 88.1068 97.3382 88.0407 97.5312C87.9746 97.7242 87.8693 97.9014 87.7314 98.0517C87.5935 98.202 87.426 98.3222 87.2394 98.4046C87.0528 98.4871 86.8511 98.53 86.6471 98.5307H49.9995C49.9995 98.5307 58.3832 86.1533 64.6821 82.3799C66.3397 81.4521 67.8208 80.2393 69.0575 78.7974C73.9321 80.4859 79.8785 82.8938 82.3011 85.3164C85.6928 88.7081 87.763 91.9823 88.1154 96.9303Z" fill="#E8EDFC"/>
<path d="M82.301 85.3164C79.8784 82.8938 73.9319 80.4859 69.0573 78.7974C68.7047 79.2199 68.3246 79.6187 67.9194 79.9911C71.9351 81.5327 75.9948 83.418 77.9036 85.3164C81.2952 88.7081 83.3655 91.9823 83.7179 96.9303C83.7347 97.1336 83.7092 97.3382 83.6431 97.5312C83.5771 97.7242 83.4717 97.9014 83.3338 98.0517C83.1959 98.202 83.0284 98.3222 82.8418 98.4046C82.6552 98.4871 82.4536 98.53 82.2496 98.5307H86.6544C86.8584 98.53 87.06 98.4871 87.2466 98.4046C87.4332 98.3222 87.6007 98.202 87.7386 98.0517C87.8765 97.9014 87.9818 97.7242 88.0479 97.5312C88.114 97.3382 88.1394 97.1336 88.1226 96.9303C87.7629 91.9823 85.6927 88.7081 82.301 85.3164Z" fill="#CAD9FC"/>
<path d="M49.9995 98.5307H13.3518C13.1478 98.53 12.9462 98.4871 12.7596 98.4046C12.573 98.3222 12.4055 98.202 12.2676 98.0517C12.1297 97.9014 12.0244 97.7242 11.9583 97.5312C11.8922 97.3382 11.8668 97.1336 11.8836 96.9303C12.236 91.9823 14.3062 88.7081 17.6979 85.3164C20.1205 82.8938 26.0669 80.4859 30.9415 78.7974C32.1782 80.2393 33.6593 81.4521 35.3169 82.3799C41.6157 86.1533 49.9995 98.5307 49.9995 98.5307Z" fill="#E8EDFC"/>
<path d="M49.9994 98.5306C49.9994 98.5306 41.6157 86.1532 35.3169 82.3798C33.6592 81.4519 32.1781 80.2392 30.9415 78.7972C27.9756 75.1707 27.9756 70.5016 27.9756 61.8242C27.9756 61.8242 27.9756 70.3841 39.1343 74.0988C39.7657 74.3191 40.4264 74.5099 41.1165 74.6861C41.5966 74.812 42.0364 75.059 42.3937 75.4035C42.751 75.748 43.014 76.1784 43.1573 76.6536L49.9994 98.5306Z" fill="#E8EDFC"/>
<path d="M39.1343 74.0988C27.9756 70.3841 27.9756 61.8242 27.9756 61.8242C27.9756 58.0508 29.9284 55.0408 33.8192 53.0146H33.8486V57.6837C33.8481 58.5235 34.0273 59.3537 34.3743 60.1186C34.7212 60.8834 35.2278 61.5651 35.8601 62.1178L40.03 65.7591C40.2263 68.5701 39.9231 71.3936 39.1343 74.0988Z" fill="#A4C2F7"/>
<path d="M60.8646 74.0987C60.2332 74.319 59.5725 74.5098 58.8824 74.686C58.4023 74.8119 57.9625 75.0589 57.6052 75.4034C57.2478 75.7479 56.9849 76.1783 56.8416 76.6535L49.9995 98.5305L43.1574 76.6535C43.0141 76.1783 42.7511 75.7479 42.3938 75.4034C42.0364 75.0589 41.5967 74.8119 41.1165 74.686C40.4265 74.5098 39.7657 74.319 39.1344 74.0987C39.9232 71.3935 40.2264 68.57 40.03 65.759L43.9356 69.1801C45.0031 70.1181 46.376 70.6349 47.7971 70.6336H52.2019C53.623 70.6349 54.9958 70.1181 56.0634 69.1801L59.9689 65.759C59.7726 68.57 60.0758 71.3935 60.8646 74.0987Z" fill="white"/>
<path d="M72.0233 61.8242C72.0233 70.5016 72.0233 75.1707 69.0575 78.7972C67.8208 80.2392 66.3397 81.4519 64.6821 82.3798C58.3832 86.1532 49.9995 98.5306 49.9995 98.5306L56.8416 76.6536C56.9849 76.1784 57.2479 75.748 57.6052 75.4035C57.9625 75.059 58.4023 74.812 58.8824 74.6861C59.5725 74.5099 60.2332 74.3191 60.8646 74.0988C72.0233 70.3841 72.0233 61.8242 72.0233 61.8242Z" fill="#E8EDFC"/>
<path d="M67.4233 70.5134C67.4072 73.4995 66.4363 76.4022 64.6527 78.7972C63.416 80.2392 61.9349 81.4519 60.2773 82.3798C57.5408 84.241 55.0811 86.4797 52.9713 89.0295L49.9995 98.5306C49.9995 98.5306 58.3832 86.1532 64.6821 82.3798C66.3397 81.4519 67.8208 80.2392 69.0575 78.7972C72.0233 75.1707 72.0233 70.5016 72.0233 61.8242C71.8848 63.5086 71.4057 65.1472 70.615 66.6408C69.8243 68.1345 68.7384 69.4519 67.4233 70.5134Z" fill="#CAD9FC"/>
<path d="M72.0232 61.8242C72.0232 61.8242 72.0232 70.3841 60.8645 74.0988C60.0758 71.3936 59.7725 68.5701 59.9689 65.7591L64.1387 62.1178C64.771 61.5651 65.2776 60.8834 65.6246 60.1186C65.9715 59.3537 66.1508 58.5235 66.1502 57.6837V53.0146H66.1796C70.0705 55.0408 72.0232 58.0508 72.0232 61.8242Z" fill="#A4C2F7"/>
<path d="M72.0233 33.9274C72.1379 37.0015 71.4657 40.054 70.0705 42.7956C68.991 41.8336 67.5962 41.3008 66.1503 41.298C66.1503 32.4591 61.7455 29.5226 58.809 29.5226C54.4042 29.5226 52.936 32.4591 49.9995 32.4591C47.063 32.4591 45.5947 29.5226 41.19 29.5226C38.2535 29.5226 33.8487 32.4591 33.8487 41.298C32.4027 41.3008 31.008 41.8336 29.9284 42.7956C28.5333 40.054 27.8611 37.0015 27.9757 33.9274C27.9757 27.8782 28.4749 21.9317 36.7852 17.7766C37.4198 17.4567 38.0718 17.1724 38.738 16.925C38.8313 15.6878 39.1655 14.4808 39.7217 13.3718C43.0582 14.3573 46.5205 14.8519 49.9995 14.8401C50.4106 14.8401 50.8217 14.8548 51.2035 14.8841H51.2328C55.3739 15.0787 59.4401 16.0603 63.2138 17.7766C71.5241 21.9317 72.0233 27.8782 72.0233 33.9274Z" fill="#C6D8FB"/>
<path d="M63.2137 17.7766C59.44 16.0603 55.3739 15.0787 51.2328 14.8841H51.2034C50.8216 14.8548 50.4105 14.8401 49.9994 14.8401C46.5204 14.8519 43.0582 14.3573 39.7216 13.3718C39.5705 13.6742 39.4357 13.9844 39.3179 14.3012C41.3914 14.6557 43.491 14.8359 45.5947 14.8401C46.0058 14.8401 46.4169 14.8548 46.7986 14.8841H46.828C50.9691 15.0787 55.0352 16.0603 58.8089 17.7766C67.1193 21.9317 67.6185 27.8782 67.6185 33.9274C67.6709 36.4482 67.2434 38.956 66.3587 41.3171C67.7301 41.3642 69.0423 41.8869 70.0705 42.7956C71.4656 40.054 72.1378 37.0015 72.0232 33.9274C72.0232 27.8782 71.524 21.9317 63.2137 17.7766Z" fill="#A4C3FD"/>
<path d="M43.7152 14.2968C43.5746 14.684 43.4569 15.0792 43.3629 15.4802C43.2663 15.9187 43.0706 16.3293 42.7906 16.6803C42.5106 17.0313 42.1539 17.3134 41.7478 17.505C41.5598 17.5931 41.3734 17.6826 41.1898 17.7766C32.8795 21.9318 32.3803 27.8782 32.3803 33.9274C32.2657 37.0015 32.9379 40.054 34.3331 42.7956C33.269 43.7346 32.5861 45.0312 32.4137 46.4399C32.2414 47.8485 32.5915 49.2715 33.3978 50.4394C33.7091 50.9399 33.8659 51.5211 33.8486 52.1103V56.7587C32.8633 58.2623 32.3519 60.0269 32.3803 61.8242C32.3803 68.5033 32.3803 72.8082 33.7326 76.0898C33.8868 76.4507 33.967 76.8389 33.9686 77.2314C33.9702 77.6239 33.8931 78.0127 33.7418 78.3749C33.5906 78.7371 33.3683 79.0653 33.088 79.3401C32.8077 79.6149 32.4752 79.8307 32.1102 79.9748C28.0857 81.5179 24.0113 83.4076 22.1025 85.3163C18.7109 88.708 16.6406 91.9822 16.2882 96.9302C16.2714 97.1335 16.2969 97.3381 16.363 97.5311C16.429 97.7241 16.5344 97.9013 16.6723 98.0516C16.8102 98.2019 16.9777 98.3221 17.1643 98.4045C17.3509 98.4869 17.5525 98.5299 17.7565 98.5306H13.3517C13.148 98.5313 12.9463 98.4896 12.7595 98.4082C12.5727 98.3267 12.4049 98.2073 12.2668 98.0574C12.1287 97.9076 12.0233 97.7306 11.9573 97.5378C11.8913 97.345 11.8662 97.1406 11.8835 96.9375C12.2344 91.9851 14.3046 88.7094 17.6978 85.3163C20.1204 82.8937 26.0668 80.4857 30.9414 78.7972C27.9756 75.1707 27.9756 70.5016 27.9756 61.8242C27.9756 58.0508 29.9283 55.0409 33.8192 53.0147C32.6364 53.0081 31.4832 52.6439 30.5111 51.9699C29.5391 51.2959 28.7936 50.3436 28.3728 49.2382C27.9519 48.1327 27.8752 46.9258 28.1528 45.776C28.4304 44.6262 29.0494 43.5872 29.9283 42.7956C28.5331 40.054 27.861 37.0015 27.9756 33.9274C27.9756 27.8782 28.4748 21.9318 36.7851 17.7766C37.4197 17.4567 38.0716 17.1724 38.7379 16.925C38.8312 15.6878 39.1653 14.4808 39.7216 13.3718C41.0294 13.7735 42.364 14.0826 43.7152 14.2968Z" fill="white"/>
<path d="M15.5322 85.4631L17.6978 87.4379C16.4504 88.7532 15.4107 90.2509 14.6145 91.8794C13.8817 93.5068 13.4489 95.2532 13.3371 97.0344L10.4094 96.826C10.5448 94.6892 11.0672 92.5947 11.9511 90.6446C12.8733 88.7448 14.081 86.9974 15.5322 85.4631Z" fill="white"/>
<path d="M52.936 58.8877H47.063C46.6736 58.8877 46.3001 59.0424 46.0248 59.3177C45.7494 59.5931 45.5947 59.9665 45.5947 60.3559C45.5947 60.7454 45.7494 61.1188 46.0248 61.3942C46.3001 61.6695 46.6736 61.8242 47.063 61.8242H52.936C53.3254 61.8242 53.6989 61.6695 53.9742 61.3942C54.2496 61.1188 54.4043 60.7454 54.4043 60.3559C54.4043 59.9665 54.2496 59.5931 53.9742 59.3177C53.6989 59.0424 53.3254 58.8877 52.936 58.8877Z" fill="#161335"/>
<path d="M42.6582 45.6733C42.2688 45.6733 41.8953 45.828 41.62 46.1034C41.3446 46.3787 41.1899 46.7522 41.1899 47.1416V48.6099C41.1899 48.9993 41.3446 49.3727 41.62 49.6481C41.8953 49.9234 42.2688 50.0781 42.6582 50.0781C43.0476 50.0781 43.4211 49.9234 43.6964 49.6481C43.9718 49.3727 44.1264 48.9993 44.1264 48.6099V47.1416C44.1264 46.7522 43.9718 46.3787 43.6964 46.1034C43.4211 45.828 43.0476 45.6733 42.6582 45.6733Z" fill="#161335"/>
<path d="M57.3407 45.6733C56.9513 45.6733 56.5778 45.828 56.3025 46.1034C56.0271 46.3787 55.8724 46.7522 55.8724 47.1416V48.6099C55.8724 48.9993 56.0271 49.3727 56.3025 49.6481C56.5778 49.9234 56.9513 50.0781 57.3407 50.0781C57.7301 50.0781 58.1036 49.9234 58.3789 49.6481C58.6543 49.3727 58.8089 48.9993 58.8089 48.6099V47.1416C58.8089 46.7522 58.6543 46.3787 58.3789 46.1034C58.1036 45.828 57.7301 45.6733 57.3407 45.6733Z" fill="#161335"/>
<path d="M48.5311 55.9512H51.4676C51.857 55.9512 52.2305 55.7965 52.5058 55.5211C52.7812 55.2458 52.9359 54.8723 52.9359 54.4829C52.9359 54.0935 52.7812 53.72 52.5058 53.4447C52.2305 53.1693 51.857 53.0146 51.4676 53.0146H48.5311C48.1417 53.0146 47.7683 53.1693 47.4929 53.4447C47.2176 53.72 47.0629 54.0935 47.0629 54.4829C47.0629 54.8723 47.2176 55.2458 47.4929 55.5211C47.7683 55.7965 48.1417 55.9512 48.5311 55.9512Z" fill="#161335"/>
<path d="M13.3136 92.7075C12.9242 92.7095 12.55 92.5566 12.2733 92.2827C11.9965 92.0087 11.84 91.636 11.838 91.2466C11.8361 90.8572 11.9889 90.483 12.2629 90.2062C12.5369 89.9295 12.9095 89.7729 13.2989 89.771H13.3136C13.703 89.771 14.0765 89.9257 14.3518 90.201C14.6272 90.4764 14.7819 90.8498 14.7819 91.2393C14.7819 91.6287 14.6272 92.0021 14.3518 92.2775C14.0765 92.5528 13.703 92.7075 13.3136 92.7075Z" fill="#161335"/>
<path d="M71.3544 78.0631C73.4804 74.3308 73.4922 69.5281 73.4922 61.8242C73.513 60.2484 73.1781 58.6881 72.5123 57.2597C71.8465 55.8313 70.867 54.5715 69.6468 53.5741C70.8063 52.9494 71.7756 52.0233 72.4524 50.8934C73.1292 49.7636 73.4885 48.4719 73.4922 47.1549C73.4849 45.4782 72.8959 43.8559 71.8257 42.5651C72.9994 39.8403 73.5679 36.8933 73.4922 33.9274C73.4922 27.2586 72.758 20.9054 63.8707 16.4625C59.9246 14.6648 55.6731 13.6325 51.3421 13.4203C50.9104 13.388 50.4631 13.3718 50.0001 13.3718C46.6786 13.3785 43.3732 12.9093 40.1848 11.9785C39.8499 11.8668 39.4859 11.8795 39.1597 12.0144C38.8334 12.1492 38.5666 12.3971 38.4082 12.7126C37.9118 13.711 37.5711 14.7796 37.398 15.8811C36.9444 16.0719 36.5171 16.2628 36.1295 16.4596C27.2421 20.9054 26.508 27.2586 26.508 33.9274C26.4322 36.8933 27.0008 39.8403 28.1745 42.5651C27.1043 43.8559 26.5152 45.4782 26.508 47.1549C26.5117 48.4719 26.8709 49.7636 27.5477 50.8934C28.2246 52.0233 29.1939 52.9494 30.3534 53.5741C29.1331 54.5715 28.1536 55.8313 27.4878 57.2597C26.822 58.6881 26.4871 60.2484 26.508 61.8242C26.508 69.537 26.5197 74.3411 28.6531 78.0749C26.649 78.809 24.6565 79.5783 22.6935 80.4931C21.3898 81.0878 20.1263 81.767 18.9113 82.5266C18.2663 82.93 17.6546 83.3842 17.0818 83.8847C16.4505 84.4471 16.0452 84.9125 15.5328 85.4528C15.3964 85.5957 15.291 85.7651 15.223 85.9505C15.155 86.136 15.126 86.3334 15.1377 86.5305C15.1494 86.7277 15.2016 86.9203 15.2911 87.0964C15.3805 87.2724 15.5053 87.4282 15.6576 87.5539C15.9499 87.7951 16.3224 87.9171 16.7007 87.8956C17.0791 87.8741 17.4354 87.7106 17.6985 87.4379C18.4985 86.4887 19.4394 85.6677 20.4882 85.0035C21.594 84.3133 22.7431 83.6949 23.9283 83.1521C26.0455 82.1654 28.2626 81.3182 30.5002 80.521C31.7088 81.7328 33.0712 82.7808 34.5526 83.6381C38.9015 86.2486 44.4457 93.3741 47.1458 97.0638H30.9128V94.1258C30.9128 93.7364 30.7581 93.3629 30.4827 93.0876C30.2074 92.8122 29.8339 92.6576 29.4445 92.6576C29.0551 92.6576 28.6817 92.8122 28.4063 93.0876C28.1309 93.3629 27.9763 93.7364 27.9763 94.1258V97.0623H13.3568C13.3568 97.0623 13.348 97.0535 13.3568 97.0271C13.383 96.6387 13.2539 96.2558 12.9979 95.9625C12.7418 95.6693 12.3798 95.4898 11.9914 95.4634C11.7983 95.4466 11.6038 95.4688 11.4196 95.5289C11.2353 95.5889 11.065 95.6855 10.9189 95.8128C10.7728 95.9401 10.6539 96.0956 10.5692 96.2699C10.4846 96.4442 10.4359 96.6339 10.4262 96.8274C10.3985 97.2352 10.4545 97.6444 10.5909 98.0297C10.7272 98.415 10.941 98.7683 11.2191 99.068C11.4911 99.3621 11.8211 99.5966 12.1883 99.7568C12.5554 99.9171 12.9518 99.9994 13.3524 99.9988H86.6477C87.0494 100.001 87.447 99.9194 87.8155 99.7597C88.184 99.5999 88.5153 99.3654 88.7884 99.0709C89.0668 98.7706 89.2808 98.4165 89.4171 98.0304C89.5535 97.6443 89.6094 97.2344 89.5813 96.8259C89.2377 92.0027 87.4288 88.3673 83.3397 84.2782C81.4105 82.3489 77.3683 80.2596 71.3544 78.0631ZM34.8888 63.2161L38.5947 66.4595C38.6723 68.368 38.512 70.2787 38.1175 72.1475C29.6985 68.6501 29.4445 62.1766 29.4445 61.8242C29.4296 60.6475 29.6869 59.4833 30.1963 58.4225C30.7057 57.3617 31.4534 56.433 32.381 55.7089V57.694C32.3815 58.74 32.6055 59.7738 33.038 60.7261C33.4705 61.6785 34.1015 62.5275 34.8888 63.2161ZM41.4959 68.9996L42.9642 70.2858C44.3023 71.4565 46.0198 72.1019 47.7977 72.102H52.2025C53.9809 72.1022 55.699 71.4568 57.0374 70.2858L58.5057 68.9996C58.5877 70.3804 58.7841 71.7521 59.093 73.1004C58.9021 73.1533 58.7333 73.2164 58.535 73.2663C57.8148 73.4553 57.1542 73.8237 56.615 74.3373C56.0758 74.8508 55.6755 75.4926 55.4517 76.2028L50.0001 93.6075L44.5675 76.2131C44.3437 75.5029 43.9435 74.8611 43.4043 74.3475C42.8651 73.834 42.2045 73.4655 41.4842 73.2766C41.286 73.2267 41.1171 73.1635 40.9263 73.1107C41.2307 71.7586 41.4223 70.3834 41.4989 68.9996H41.4959ZM58.2341 77.0853C58.3054 76.8514 58.435 76.6396 58.6107 76.4696C58.7864 76.2996 59.0023 76.177 59.2383 76.1133C63.5916 75.2291 67.528 72.9242 70.4294 69.5605C70.2165 73.2957 69.6248 75.7491 67.9965 77.7827C67.9739 77.8063 67.9528 77.8313 67.9333 77.8576C66.7948 79.1685 65.437 80.2714 63.9206 81.1171C60.6361 83.0875 56.8935 87.1722 53.9482 90.7958L58.2341 77.0853ZM61.8753 72.1431C61.482 70.2756 61.3222 68.3664 61.3996 66.4595L65.1055 63.2161C65.8942 62.5277 66.5265 61.6785 66.9601 60.7256C67.3936 59.7726 67.6183 58.738 67.6191 57.6911V55.706C68.5477 56.4299 69.296 57.359 69.8055 58.4205C70.3149 59.4819 70.5717 60.6469 70.5556 61.8242C70.5556 61.8991 70.4191 68.5782 61.8812 72.1431H61.8753ZM37.3364 19.1479C37.673 21.6119 38.5916 23.9603 40.0159 25.9988C40.2496 26.3103 40.5974 26.5163 40.9829 26.5714C41.3684 26.6264 41.76 26.5261 42.0715 26.2925C42.383 26.0588 42.589 25.711 42.6441 25.3255C42.6991 24.94 42.5988 24.5484 42.3652 24.2369C42.3284 24.1899 39.0909 19.7396 40.5768 15.1337C43.6582 15.9084 46.8228 16.3029 50.0001 16.3083C55.8452 16.3083 58.8096 19.2727 58.8096 25.1179C58.8096 25.5073 58.9643 25.8807 59.2397 26.1561C59.515 26.4314 59.8885 26.5861 60.2779 26.5861C60.6673 26.5861 61.0407 26.4314 61.3161 26.1561C61.5914 25.8807 61.7461 25.5073 61.7461 25.1179C61.8326 22.623 61.199 20.156 59.9211 18.0115C60.8251 18.312 61.708 18.6725 62.5639 19.0907C69.9683 22.7936 70.5556 27.7857 70.5556 33.9274C70.6061 36.216 70.2318 38.4941 69.4515 40.6461C68.8596 40.3358 68.2276 40.1085 67.5736 39.9707C67.1023 30.6003 61.7226 28.0544 58.8096 28.0544C56.6446 28.0841 54.5345 28.7399 52.734 29.9425C51.9316 30.528 50.9882 30.8898 50.0001 30.9909C49.012 30.8898 48.0685 30.528 47.2662 29.9425C45.4657 28.7399 43.3556 28.0841 41.1905 28.0544C38.2775 28.0544 32.8978 30.6003 32.4265 39.9707C31.7725 40.1085 31.1406 40.3358 30.5486 40.6461C29.7684 38.4941 29.394 36.216 29.4445 33.9274C29.4445 27.8209 30.0318 22.8523 37.3364 19.1479ZM32.381 43.0306V44.2052C32.381 44.5946 32.5357 44.968 32.8111 45.2434C33.0864 45.5187 33.4599 45.6734 33.8493 45.6734C34.2387 45.6734 34.6121 45.5187 34.8875 45.2434C35.1628 44.968 35.3175 44.5946 35.3175 44.2052V41.2966C35.3175 33.1448 39.16 30.9909 41.1905 30.9909C42.8382 31.0247 44.4393 31.5436 45.7935 32.4826C47.0328 33.3485 48.4903 33.8491 50.0001 33.9274C51.5099 33.8491 52.9673 33.3485 54.2066 32.4826C55.5609 31.5436 57.162 31.0247 58.8096 30.9909C60.8402 30.9909 64.6826 33.1448 64.6826 41.2966V44.2052C64.6826 44.5946 64.8373 44.968 65.1127 45.2434C65.388 45.5187 65.7615 45.6734 66.1509 45.6734C66.5403 45.6734 66.9137 45.5187 67.1891 45.2434C67.4645 44.968 67.6191 44.5946 67.6191 44.2052V43.0306C68.6006 43.3701 69.4294 44.0475 69.9575 44.9417C70.4857 45.8359 70.6787 46.8887 70.5023 47.9122C70.3258 48.9356 69.7913 49.863 68.9942 50.5287C68.1972 51.1944 67.1894 51.5551 66.1509 51.5464C65.7615 51.5464 65.388 51.7011 65.1127 51.9765C64.8373 52.2518 64.6826 52.6253 64.6826 53.0147V57.6911C64.6826 58.319 64.5483 58.9397 64.2887 59.5115C64.0292 60.0833 63.6503 60.593 63.1777 61.0064L55.1023 68.076C54.2994 68.7783 53.2691 69.1654 52.2025 69.1655H47.7977C46.7311 69.1654 45.7007 68.7783 44.8979 68.076L36.8225 61.0064C36.3498 60.593 35.971 60.0833 35.7114 59.5115C35.4519 58.9397 35.3176 58.319 35.3175 57.6911V53.0147C35.3175 52.6253 35.1628 52.2518 34.8875 51.9765C34.6121 51.7011 34.2387 51.5464 33.8493 51.5464C32.8108 51.5551 31.803 51.1944 31.0059 50.5287C30.2088 49.863 29.6743 48.9356 29.4979 47.9122C29.3214 46.8887 29.5145 45.8359 30.0426 44.9417C30.5708 44.0475 31.3996 43.3701 32.381 43.0306ZM36.0737 81.1185C31.1873 78.182 29.907 75.4863 29.5649 69.5575C32.4644 72.9212 36.3985 75.2271 40.7501 76.1133C40.9864 76.1768 41.2026 76.2993 41.3786 76.4693C41.5545 76.6393 41.6843 76.8513 41.7558 77.0853L46.0417 90.8002C43.0993 87.1766 39.3582 83.0919 36.0737 81.1215V81.1185ZM72.0239 97.0623V94.1258C72.0239 93.7364 71.8692 93.3629 71.5939 93.0876C71.3185 92.8122 70.9451 92.6576 70.5556 92.6576C70.1662 92.6576 69.7928 92.8122 69.5174 93.0876C69.2421 93.3629 69.0874 93.7364 69.0874 94.1258V97.0623H52.8456C55.5457 93.3711 61.0898 86.2472 65.4388 83.6366C66.9224 82.7778 68.2869 81.7278 69.497 80.5136C75.4244 82.625 79.5986 84.6879 81.2636 86.3529C84.2545 89.3437 86.3144 92.3052 86.6477 97.0609L72.0239 97.0623Z" fill="#161335"/>
<path d="M39.7217 44.2051H45.5947C45.9841 44.2051 46.3576 44.0504 46.6329 43.775C46.9083 43.4997 47.0629 43.1262 47.0629 42.7368C47.0629 42.3474 46.9083 41.9739 46.6329 41.6986C46.3576 41.4232 45.9841 41.2686 45.5947 41.2686H39.7217C39.3323 41.2686 38.9588 41.4232 38.6835 41.6986C38.4081 41.9739 38.2534 42.3474 38.2534 42.7368C38.2534 43.1262 38.4081 43.4997 38.6835 43.775C38.9588 44.0504 39.3323 44.2051 39.7217 44.2051Z" fill="#161335"/>
<path d="M54.4042 44.2051H60.2772C60.6666 44.2051 61.0401 44.0504 61.3154 43.775C61.5908 43.4997 61.7454 43.1262 61.7454 42.7368C61.7454 42.3474 61.5908 41.9739 61.3154 41.6986C61.0401 41.4232 60.6666 41.2686 60.2772 41.2686H54.4042C54.0148 41.2686 53.6413 41.4232 53.366 41.6986C53.0906 41.9739 52.9359 42.3474 52.9359 42.7368C52.9359 43.1262 53.0906 43.4997 53.366 43.775C53.6413 44.0504 54.0148 44.2051 54.4042 44.2051Z" fill="#161335"/>
<rect x="27.3804" y="90.4751" width="5.95238" height="7.14286" fill="#E8EDFC"/>
<rect x="67.8566" y="91.6655" width="5.95238" height="7.14286" fill="#E8EDFC"/>
<rect x="32.1422" y="96.4275" width="36.9048" height="4.76191" fill="#E8EDFC"/>
</g>
</g>
<defs>
<clipPath id="clip0_21_245">
<rect width="88.0953" height="88.0953" fill="white" transform="translate(5.95178 11.9036)"/>
</clipPath>
</defs>
</svg>
