<svg width="100" height="100" viewBox="0 0 100 100" fill="none" xmlns="http://www.w3.org/2000/svg">
<circle cx="50" cy="50" r="50" fill="white"/>
<mask id="mask0_21_244" style="mask-type:alpha" maskUnits="userSpaceOnUse" x="0" y="0" width="100" height="100">
<circle cx="50" cy="50" r="50" fill="white"/>
</mask>
<g mask="url(#mask0_21_244)">
<g clip-path="url(#clip0_21_244)">
<path d="M72.0233 50.7286C72.0194 52.2836 71.3989 53.7737 70.2979 54.8719C69.1969 55.9702 67.7053 56.5869 66.1502 56.5869L63.9919 63.0766C63.4229 64.8046 62.5311 66.4089 61.3637 67.8044C60.3133 69.0026 59.12 70.0677 57.8106 70.9758C55.5661 72.7719 52.8569 73.8922 49.9994 74.2059C47.7443 74.0201 45.575 73.2565 43.7006 71.9889C43.1867 71.6659 42.6729 71.3282 42.1883 70.9758C40.8789 70.0677 39.6856 69.0026 38.6352 67.8044C37.4678 66.4089 36.576 64.8046 36.007 63.0766L33.8486 56.5869C32.2936 56.5869 30.802 55.9702 29.701 54.8719C28.6 53.7737 27.9795 52.2836 27.9756 50.7286C27.9722 49.8291 28.1788 48.9413 28.579 48.1359C28.9792 47.3304 29.5619 46.6294 30.2808 46.0889C31.3031 45.3002 32.5575 44.8718 33.8486 44.8702V43.3726C33.8486 38.9678 38.2534 37.4996 44.1264 36.0313C49.9994 34.5631 49.9994 30.1583 49.9994 28.6901C49.9994 30.1583 49.9994 34.5631 55.8725 36.0313C61.7455 37.4996 66.1502 38.9678 66.1502 43.3726V44.8702C67.4414 44.8718 68.6958 45.3002 69.7181 46.0889C70.437 46.6294 71.0197 47.3304 71.4199 48.1359C71.8201 48.9413 72.0267 49.8291 72.0233 50.7286Z" fill="#E8EDFC"/>
<path d="M48.1054 71.9889C47.5915 71.6659 47.0776 71.3282 46.5931 70.9758C45.2836 70.0677 44.0904 69.0026 43.0399 67.8044C41.8726 66.4089 40.9807 64.8046 40.4117 63.0766L38.8407 58.3576C38.4509 57.1852 38.2526 55.9577 38.2534 54.7222V43.3726C38.2534 38.9678 42.6582 37.4996 48.5312 36.0313C49.8811 35.7335 51.1399 35.1162 52.2018 34.2313C51.447 33.5286 50.8577 32.6669 50.4768 31.7086C50.0959 30.7502 49.9329 29.7192 49.9994 28.6901C49.9994 30.1583 49.9994 34.5631 44.1264 36.0313C38.2534 37.4996 33.8486 38.9678 33.8486 43.3726V44.8702C32.5575 44.8718 31.3031 45.3002 30.2808 46.0889C29.5619 46.6294 28.9792 47.3304 28.579 48.1359C28.1788 48.9413 27.9722 49.8291 27.9756 50.7286C27.9795 52.2836 28.6 53.7737 29.701 54.8719C30.802 55.9702 32.2936 56.5869 33.8486 56.5869L36.007 63.0766C36.576 64.8046 37.4678 66.4089 38.6352 67.8044C39.6856 69.0026 40.8789 70.0677 42.1883 70.9758C42.6729 71.3282 43.1867 71.6659 43.7006 71.9889C45.575 73.2565 47.7443 74.0201 49.9994 74.2059C50.7407 74.1899 51.4763 74.0723 52.1857 73.8565C50.75 73.4144 49.3783 72.7866 48.1054 71.9889Z" fill="white"/>
<path d="M69.7181 46.0889C68.6958 45.3002 67.4414 44.8718 66.1502 44.8702V43.3726C66.1502 38.9678 61.7454 37.4996 55.8724 36.0313C49.9994 34.5631 49.9994 30.1583 49.9994 28.6901C50.066 29.7192 49.9029 30.7502 49.522 31.7086C49.1411 32.6669 48.5519 33.5286 47.797 34.2313C48.859 35.1162 50.1178 35.7335 51.4677 36.0313C57.3407 37.4996 61.7454 38.9678 61.7454 43.3726V56.5869L59.5871 63.0766C59.0181 64.8046 58.1263 66.4089 56.9589 67.8044C55.9085 69.0026 54.7152 70.0677 53.4058 70.9758C51.7022 72.2392 49.8017 73.2125 47.7809 73.8565C48.5007 74.0751 49.2473 74.1927 49.9994 74.2059C52.8569 73.8922 55.5661 72.7719 57.8105 70.9758C59.12 70.0677 60.3133 69.0026 61.3637 67.8044C62.531 66.4089 63.4229 64.8046 63.9919 63.0766L66.1502 56.5869C67.7053 56.5869 69.1969 55.9702 70.2979 54.8719C71.3989 53.7737 72.0193 52.2836 72.0232 50.7286C72.0266 49.8291 71.82 48.9413 71.4198 48.1359C71.0197 47.3304 70.4369 46.6294 69.7181 46.0889Z" fill="#FFD97C"/>
<path d="M84.1069 102.103H15.8918C15.6327 102.103 15.3781 102.034 15.1541 101.904C14.9301 101.774 14.7445 101.586 14.6162 101.361C14.488 101.136 14.4216 100.881 14.4239 100.622C14.4261 100.363 14.497 100.109 14.6291 99.8858L20.2232 90.5477C21.4363 88.5249 23.3076 86.9802 25.5236 86.1723L33.9514 83.1036C34.4946 87.7874 37.2549 96.2298 49.9994 96.2298C62.7438 96.2298 65.5041 87.7874 66.0474 83.1036L74.4752 86.1723C76.6912 86.9802 78.5624 88.5249 79.7756 90.5477L85.3696 99.8858C85.5018 100.109 85.5726 100.363 85.5749 100.622C85.5771 100.881 85.5108 101.136 85.3825 101.361C85.2543 101.586 85.0687 101.774 84.8446 101.904C84.6206 102.034 84.3661 102.103 84.1069 102.103Z" fill="#FFD97C"/>
<path d="M19.0339 99.8858L24.6279 90.5477C25.8411 88.5249 27.7123 86.9802 29.9283 86.1723L34.1965 84.6174C34.0908 84.0859 34.0057 83.572 33.9513 83.1036L25.5236 86.1723C23.3076 86.9802 21.4363 88.5249 20.2232 90.5477L14.6291 99.8858C14.497 100.109 14.4261 100.363 14.4239 100.622C14.4216 100.881 14.488 101.136 14.6162 101.361C14.7445 101.586 14.9301 101.774 15.1541 101.904C15.3781 102.034 15.6327 102.103 15.8918 102.103H20.2966C20.0374 102.103 19.7829 102.034 19.5589 101.904C19.3348 101.774 19.1493 101.586 19.021 101.361C18.8927 101.136 18.8264 100.881 18.8286 100.622C18.8309 100.363 18.9017 100.109 19.0339 99.8858Z" fill="white"/>
<path d="M85.3697 99.8858L79.7756 90.5477C78.5624 88.5249 76.6912 86.9802 74.4752 86.1723L66.0474 83.1036C65.9931 83.572 65.908 84.0859 65.8022 84.6174L70.0705 86.1723C72.2865 86.9802 74.1577 88.5249 75.3709 90.5477L80.9649 99.8858C81.0971 100.109 81.1679 100.363 81.1701 100.622C81.1724 100.881 81.106 101.136 80.9778 101.361C80.8495 101.586 80.664 101.774 80.4399 101.904C80.2159 102.034 79.9614 102.103 79.7022 102.103H84.107C84.3661 102.103 84.6206 102.034 84.8447 101.904C85.0687 101.774 85.2543 101.586 85.3826 101.361C85.5108 101.136 85.5772 100.881 85.5749 100.622C85.5726 100.363 85.5018 100.109 85.3697 99.8858Z" fill="#FFD97C"/>
<path d="M66.0474 83.1036C65.5042 87.7874 62.7439 96.2298 49.9994 96.2298C37.255 96.2298 34.4947 87.7874 33.9514 83.1036L37.0641 81.9731C37.9646 81.6544 38.7931 81.1604 39.5014 80.5195C40.8668 79.3908 41.8556 77.8726 42.3357 76.1674C42.8158 74.4622 42.7644 72.6511 42.1883 70.9758C42.6728 71.3282 43.1867 71.6659 43.7006 71.9889C45.575 73.2566 47.7443 74.0201 49.9994 74.206C52.8569 73.8922 55.5661 72.7719 57.8105 70.9758C57.2345 72.6511 57.1831 74.4622 57.6632 76.1674C58.1433 77.8726 59.132 79.3908 60.4974 80.5195C61.2058 81.1604 62.0342 81.6544 62.9347 81.9731L66.0474 83.1036Z" fill="#F5F5F5"/>
<path d="M70.5549 37.4996C70.6101 40.3855 70.3293 43.268 69.718 46.0889C68.6957 45.3002 67.4413 44.8718 66.1502 44.8702V43.3726C66.1502 38.9679 61.7454 37.4996 55.8724 36.0313C49.9994 34.5631 49.9994 30.1583 49.9994 28.6901C49.9994 30.1583 49.9994 34.5631 44.1264 36.0313C38.2533 37.4996 33.8486 38.9679 33.8486 43.3726V44.8702C32.5574 44.8718 31.303 45.3002 30.2807 46.0889C29.6695 43.268 29.3886 40.3855 29.4438 37.4996C29.4389 36.382 29.5372 35.2662 29.7375 34.1667C29.8109 33.7702 29.899 33.3738 29.9871 32.9774L30.0018 32.948C30.9211 29.047 33.288 25.6409 36.6236 23.419C37.7234 22.6694 38.9058 22.0486 40.1474 21.569C43.2954 20.3895 46.6383 19.8166 49.9994 19.8805C53.3605 19.8166 56.7033 20.3895 59.8514 21.569C61.093 22.0486 62.2753 22.6694 63.3752 23.419C66.7117 25.6466 69.0783 29.0575 69.997 32.9627L70.0117 32.9774C70.0998 33.3738 70.1879 33.7702 70.2613 34.1667C70.4616 35.2662 70.5599 36.382 70.5549 37.4996Z" fill="#FFD97C"/>
<path d="M33.8487 37.4996C33.8487 28.2041 40.0447 20.7615 52.2019 19.9701C39.2445 19.1259 31.9399 25.065 30.0018 32.948L29.9872 32.9774C29.8991 33.3738 29.811 33.7703 29.7376 34.1667C29.2382 38.1427 29.4219 42.1748 30.2808 46.0889C31.3031 45.3003 32.5575 44.8718 33.8487 44.8703C33.7749 43.8876 33.8371 42.8994 34.0337 41.9338C33.9103 40.5125 33.8487 38.9958 33.8487 37.4996Z" fill="white"/>
<path d="M70.2613 34.1667C69.7984 31.3326 68.5905 28.6726 66.7613 26.459C64.9321 24.2453 62.5474 22.5577 59.8514 21.569C56.7033 20.3895 53.3605 19.8166 49.9994 19.8805C49.2359 19.8805 48.5135 19.9231 47.797 19.9701C50.4145 20.1017 52.9955 20.6411 55.4466 21.569C58.1426 22.5577 60.5274 24.2453 62.3565 26.459C64.1857 28.6726 65.3936 31.3326 65.8565 34.1667C66.0568 35.2662 66.1551 36.382 66.1502 37.4996C66.1502 38.9958 66.0885 40.5125 65.9652 41.9293C66.09 42.4002 66.1522 42.8855 66.1502 43.3726V44.8702C67.4413 44.8718 68.6957 45.3002 69.718 46.0889C70.3293 43.268 70.6101 40.3855 70.5549 37.4996C70.5599 36.382 70.4616 35.2662 70.2613 34.1667Z" fill="#FFD97C"/>
<path d="M36.6237 23.4191C33.2881 25.641 30.9212 29.0471 30.0019 32.9481L29.9872 32.9774C29.5667 33.0615 29.1385 33.1009 28.7098 33.0949C27.1811 33.0951 25.6838 32.6615 24.3918 31.8443C23.0999 31.0272 22.0664 29.8601 21.4115 28.4788C20.7567 27.0975 20.5074 25.5587 20.6925 24.0413C20.8777 22.5239 21.4898 21.0902 22.4576 19.9069C23.4254 18.7236 24.7092 17.8393 26.1598 17.3568C27.6103 16.8744 29.168 16.8135 30.6518 17.1814C32.1355 17.5493 33.4844 18.3307 34.5415 19.4349C35.5987 20.5391 36.3207 21.9207 36.6237 23.4191Z" fill="#FFD97C"/>
<path d="M25.0391 25.0194C25.0398 23.2698 25.6087 21.5678 26.6602 20.1694C27.7117 18.771 29.1889 17.752 30.8695 17.2656C29.76 16.9553 28.5969 16.8863 27.4586 17.0633C26.3202 17.2403 25.233 17.6591 24.2701 18.2917C23.3072 18.9242 22.4911 19.7557 21.8766 20.7302C21.2621 21.7047 20.8636 22.7996 20.7078 23.9411C20.5521 25.0825 20.6427 26.2441 20.9737 27.3476C21.3046 28.4511 21.8682 29.4709 22.6264 30.3383C23.3846 31.2056 24.3199 31.9005 25.3693 32.376C26.4186 32.8515 27.5577 33.0966 28.7097 33.0948C29.1384 33.1008 29.5666 33.0614 29.9871 32.9774L30.0018 32.948C30.037 32.8012 30.0869 32.6544 30.1266 32.5178C28.6259 31.9201 27.3389 30.8861 26.432 29.5494C25.5251 28.2127 25.0399 26.6348 25.0391 25.0194Z" fill="white"/>
<path d="M79.3645 25.0194C79.3645 27.1611 78.5137 29.2151 76.9993 30.7296C75.4849 32.244 73.4309 33.0948 71.2891 33.0948C70.8604 33.1008 70.4322 33.0614 70.0118 32.9774L69.9971 32.9627C69.0784 29.0575 66.7118 25.6466 63.3752 23.419C63.7735 21.4577 64.8859 19.7141 66.4967 18.5264C68.1075 17.3387 70.102 16.7914 72.0934 16.9907C74.0848 17.1901 75.9312 18.1218 77.2747 19.6052C78.6182 21.0886 79.3629 23.0181 79.3645 25.0194Z" fill="#FFD97C"/>
<path d="M39.4545 66.4844L37.142 68.2933C35.8538 66.5971 34.8933 64.6756 34.3097 62.6273L32.4553 57.0479L35.245 56.12L37.0965 61.6906C37.5718 63.4234 38.372 65.0502 39.4545 66.4844Z" fill="white"/>
<path d="M35.7309 63.6345C35.538 63.6355 35.3469 63.5984 35.1684 63.5256C34.9899 63.4527 34.8275 63.3453 34.6905 63.2097C34.4138 62.9357 34.2572 62.563 34.2553 62.1736C34.2533 61.7842 34.4061 61.41 34.6801 61.1332C34.9541 60.8565 35.3268 60.6999 35.7162 60.698H35.7309C36.1203 60.698 36.4937 60.8527 36.7691 61.128C37.0444 61.4034 37.1991 61.7768 37.1991 62.1663C37.1991 62.5557 37.0444 62.9291 36.7691 63.2045C36.4937 63.4798 36.1203 63.6345 35.7309 63.6345Z" fill="#161335"/>
<path d="M47.063 62.46C46.6736 62.46 46.3001 62.6147 46.0248 62.89C45.7494 63.1654 45.5947 63.5388 45.5947 63.9282C45.5947 64.3176 45.7494 64.6911 46.0248 64.9664C46.3001 65.2418 46.6736 65.3965 47.063 65.3965H52.936C53.3254 65.3965 53.6989 65.2418 53.9742 64.9664C54.2496 64.6911 54.4043 64.3176 54.4043 63.9282C54.4043 63.5388 54.2496 63.1654 53.9742 62.89C53.6989 62.6147 53.3254 62.46 52.936 62.46H47.063Z" fill="#161335"/>
<path d="M41.1899 50.7139V52.1821C41.1899 52.5715 41.3446 52.945 41.62 53.2203C41.8953 53.4957 42.2688 53.6504 42.6582 53.6504C43.0476 53.6504 43.4211 53.4957 43.6964 53.2203C43.9718 52.945 44.1265 52.5715 44.1265 52.1821V50.7139C44.1265 50.3245 43.9718 49.951 43.6964 49.6756C43.4211 49.4003 43.0476 49.2456 42.6582 49.2456C42.2688 49.2456 41.8953 49.4003 41.62 49.6756C41.3446 49.951 41.1899 50.3245 41.1899 50.7139Z" fill="#161335"/>
<path d="M55.8724 50.7139V52.1821C55.8724 52.5715 56.0271 52.945 56.3025 53.2203C56.5778 53.4957 56.9513 53.6504 57.3407 53.6504C57.7301 53.6504 58.1036 53.4957 58.3789 53.2203C58.6543 52.945 58.8089 52.5715 58.8089 52.1821V50.7139C58.8089 50.3245 58.6543 49.951 58.3789 49.6756C58.1036 49.4003 57.7301 49.2456 57.3407 49.2456C56.9513 49.2456 56.5778 49.4003 56.3025 49.6756C56.0271 49.951 55.8724 50.3245 55.8724 50.7139Z" fill="#161335"/>
<path d="M51.4676 56.5869H48.5311C48.1417 56.5869 47.7683 56.7416 47.4929 57.017C47.2176 57.2923 47.0629 57.6658 47.0629 58.0552C47.0629 58.4446 47.2176 58.818 47.4929 59.0934C47.7683 59.3687 48.1417 59.5234 48.5311 59.5234H51.4676C51.857 59.5234 52.2305 59.3687 52.5058 59.0934C52.7812 58.818 52.9359 58.4446 52.9359 58.0552C52.9359 57.6658 52.7812 57.2923 52.5058 57.017C52.2305 56.7416 51.857 56.5869 51.4676 56.5869Z" fill="#161335"/>
<path d="M45.5947 44.8409H39.7217C39.3323 44.8409 38.9588 44.9956 38.6835 45.271C38.4081 45.5463 38.2534 45.9198 38.2534 46.3092C38.2534 46.6986 38.4081 47.0721 38.6835 47.3474C38.9588 47.6228 39.3323 47.7775 39.7217 47.7775H45.5947C45.9841 47.7775 46.3576 47.6228 46.6329 47.3474C46.9083 47.0721 47.063 46.6986 47.063 46.3092C47.063 45.9198 46.9083 45.5463 46.6329 45.271C46.3576 44.9956 45.9841 44.8409 45.5947 44.8409Z" fill="#161335"/>
<path d="M61.7454 46.3092C61.7454 45.9198 61.5908 45.5463 61.3154 45.271C61.0401 44.9956 60.6666 44.8409 60.2772 44.8409H54.4042C54.0148 44.8409 53.6413 44.9956 53.366 45.271C53.0906 45.5463 52.9359 45.9198 52.9359 46.3092C52.9359 46.6986 53.0906 47.0721 53.366 47.3474C53.6413 47.6228 54.0148 47.7775 54.4042 47.7775H60.2772C60.6666 47.7775 61.0401 47.6228 61.3154 47.3474C61.5908 47.0721 61.7454 46.6986 61.7454 46.3092Z" fill="#161335"/>
<path d="M18.9649 89.793L13.3679 99.1237C13.1006 99.5693 12.9563 100.078 12.9497 100.598C12.9431 101.117 13.0746 101.629 13.3306 102.081C13.5867 102.534 13.9581 102.91 14.4071 103.171C14.856 103.433 15.3663 103.571 15.886 103.571H84.1128C84.6323 103.571 85.1424 103.433 85.5911 103.171C86.0398 102.91 86.4111 102.534 86.6671 102.082C86.9231 101.63 87.0546 101.118 87.0483 100.599C87.0419 100.079 86.8979 99.5708 86.6309 99.1252L81.0339 89.7915C79.6446 87.4822 77.5068 85.718 74.9759 84.7921L63.4295 80.5973C62.7166 80.3442 62.0605 79.953 61.4988 79.4462C60.4014 78.5537 59.5896 77.3593 59.1638 76.0104C58.7379 74.6616 58.7166 73.2176 59.1026 71.8568C60.338 70.9516 61.4704 69.9137 62.4796 68.7617C63.7696 67.2229 64.7548 65.4524 65.3823 63.545L67.2323 57.9818C68.9713 57.7226 70.5595 56.848 71.7081 55.5169C72.8568 54.1859 73.4896 52.4868 73.4915 50.7286C73.4888 49.7727 73.2976 48.8268 72.9287 47.945C72.5598 47.0632 72.0206 46.2628 71.342 45.5897C71.829 42.9212 72.0572 40.212 72.0232 37.4996C72.0187 36.5082 71.9417 35.5184 71.7927 34.5382C73.4922 34.4535 75.1382 33.916 76.5602 32.9814C77.9821 32.0467 79.1283 30.7488 79.88 29.2222C80.6317 27.6956 80.9616 25.9958 80.8354 24.2989C80.7093 22.6019 80.1318 20.9695 79.1626 19.5709C78.1935 18.1722 76.868 17.058 75.3235 16.3439C73.779 15.6297 72.0716 15.3415 70.3783 15.509C68.6849 15.6766 67.0671 16.2939 65.6925 17.2969C64.318 18.2999 63.2365 19.6522 62.5603 21.2137C58.6723 19.2475 54.3544 18.2845 49.9994 18.4123C45.6444 18.2845 41.3265 19.2475 37.4385 21.2137C36.7607 19.657 35.6793 18.3095 34.3062 17.3107C32.9331 16.3119 31.3182 15.698 29.6283 15.5325C27.9385 15.367 26.2351 15.6558 24.6943 16.3692C23.1535 17.0826 21.8312 18.1946 20.8642 19.5902C19.8971 20.9859 19.3205 22.6145 19.1938 24.3077C19.0671 26.0009 19.3949 27.6972 20.1435 29.2212C20.892 30.7453 22.0341 32.0417 23.4516 32.9764C24.869 33.9112 26.5105 34.4503 28.2061 34.5382C28.0571 35.5184 27.9801 36.5082 27.9756 37.4996C27.9417 40.212 28.1698 42.9212 28.6569 45.5897C27.9782 46.2628 27.439 47.0632 27.0701 47.945C26.7013 48.8268 26.51 49.7727 26.5073 50.7286C26.5112 52.6731 27.2864 54.5366 28.6627 55.9102C30.0391 57.2838 31.9041 58.0552 33.8486 58.0552C34.238 58.0552 34.6115 57.9005 34.8868 57.6251C35.1622 57.3498 35.3169 56.9763 35.3169 56.5869C35.3169 56.1975 35.1622 55.8241 34.8868 55.5487C34.6115 55.2734 34.238 55.1187 33.8486 55.1187C32.8089 55.1295 31.7994 54.7699 31.0007 54.1043C30.202 53.4386 29.6663 52.5103 29.4897 51.4857C29.313 50.4611 29.5069 49.4071 30.0365 48.5124C30.5662 47.6177 31.3971 46.9407 32.3804 46.6028V47.7774C32.3804 48.1668 32.5351 48.5403 32.8104 48.8156C33.0858 49.091 33.4592 49.2457 33.8486 49.2457C34.238 49.2457 34.6115 49.091 34.8868 48.8156C35.1622 48.5403 35.3169 48.1668 35.3169 47.7774V43.3726C35.3169 40.2893 38.2725 39.0075 44.4832 37.4556C46.6857 37.0254 48.6509 35.7946 49.9994 34.0008C51.3479 35.7946 53.3131 37.0254 55.5156 37.4556C61.7264 39.0075 64.682 40.2893 64.682 43.3726V47.7774C64.682 48.1668 64.8366 48.5403 65.112 48.8156C65.3873 49.091 65.7608 49.2457 66.1502 49.2457C66.5396 49.2457 66.9131 49.091 67.1884 48.8156C67.4638 48.5403 67.6185 48.1668 67.6185 47.7774V46.6028C68.6017 46.9407 69.4326 47.6177 69.9623 48.5124C70.492 49.4071 70.6858 50.4611 70.5092 51.4857C70.3325 52.5103 69.7969 53.4386 68.9982 54.1043C68.1995 54.7699 67.1899 55.1295 66.1502 55.1187C65.8417 55.1187 65.5411 55.2159 65.291 55.3964C65.0409 55.577 64.854 55.8317 64.7568 56.1244L62.6014 62.6068C62.0921 64.1629 61.2914 65.6079 60.242 66.8647C58.2216 69.255 53.2296 72.7377 49.9994 72.7377C48.015 72.5524 46.1108 71.8636 44.467 70.7365C42.5708 69.6061 40.8767 68.167 39.4544 66.4786C39.2118 66.1992 38.8772 66.0159 38.5111 65.962C38.1451 65.9082 37.7718 65.9872 37.4591 66.1849C37.2883 66.2932 37.1428 66.4369 37.0324 66.6063C36.922 66.7757 36.8493 66.9668 36.8192 67.1667C36.7892 67.3667 36.8024 67.5707 36.8581 67.7651C36.9138 67.9595 37.0106 68.1396 37.1419 68.2933C38.2355 69.6302 39.4974 70.8201 40.8962 71.8333C41.2881 73.1972 41.27 74.6463 40.8442 76C40.4184 77.3537 39.6037 78.5522 38.5015 79.4462C37.9409 79.9529 37.2858 80.3441 36.5737 80.5973L25.0215 84.7921C22.4908 85.7185 20.3534 87.4833 18.9649 89.793ZM71.2891 18.4123C73.0414 18.4123 74.722 19.1084 75.9611 20.3475C77.2001 21.5866 77.8962 23.2671 77.8962 25.0195C77.8962 26.7718 77.2001 28.4523 75.9611 29.6914C74.722 30.9305 73.0414 31.6266 71.2891 31.6266C71.2274 31.6266 71.179 31.6266 71.1217 31.6193C70.0649 28.1368 67.9483 25.0706 65.0666 22.8479C65.5154 21.5543 66.3555 20.4324 67.4704 19.6377C68.5854 18.8429 69.9199 18.4147 71.2891 18.4123ZM28.7097 31.6266C27.4963 31.6298 26.3054 31.2989 25.2677 30.6699C24.2299 30.041 23.3854 29.1385 22.8268 28.0613C22.2682 26.9841 22.017 25.7738 22.1007 24.5633C22.1845 23.3528 22.6 22.1887 23.3017 21.1987C24.0034 20.2087 24.9642 19.4311 26.0787 18.9512C27.1932 18.4712 28.4183 18.3074 29.6197 18.4778C30.8211 18.6481 31.9524 19.1461 32.8895 19.9169C33.8267 20.6878 34.5334 21.7019 34.9322 22.8479C32.0493 25.0726 29.9325 28.1415 28.8771 31.6266C28.8198 31.6266 28.7714 31.6266 28.7097 31.6266ZM67.6185 43.3726C67.6185 37.4541 61.305 35.8757 56.2292 34.6072C51.4677 33.4164 51.4677 30.104 51.4677 28.6901C51.4677 28.3007 51.313 27.9272 51.0376 27.6519C50.7623 27.3765 50.3888 27.2218 49.9994 27.2218C49.61 27.2218 49.2365 27.3765 48.9612 27.6519C48.6858 27.9272 48.5312 28.3007 48.5312 28.6901C48.5312 30.104 48.5312 33.4164 43.7696 34.6072C38.6939 35.8757 32.3804 37.4541 32.3804 43.3726V43.5488C32.0236 43.6255 31.6732 43.7291 31.332 43.8586C31.0373 41.752 30.897 39.6267 30.9121 37.4996C30.9121 29.6914 35.9262 21.3488 49.9994 21.3488C64.0726 21.3488 69.0867 29.6914 69.0867 37.4996C69.1018 39.6267 68.9615 41.752 68.6668 43.8586C68.3257 43.7291 67.9752 43.6255 67.6185 43.5488V43.3726ZM37.5736 83.3561C38.6534 82.9733 39.6455 82.3776 40.491 81.6045C41.6006 80.6469 42.4958 79.4661 43.1181 78.1392C43.7405 76.8122 44.0761 75.3689 44.1029 73.9035C45.902 74.9489 47.9221 75.5555 49.9994 75.6742C52.0776 75.5546 54.098 74.9453 55.8959 73.8962C55.9218 75.3625 56.2567 76.8068 56.8788 78.1348C57.501 79.4629 58.3963 80.6447 59.5064 81.6031C60.3525 82.3772 61.3456 82.9734 62.4267 83.3561L64.4177 84.08C63.5367 88.9414 60.4739 94.1889 51.4677 94.7058V91.8251C51.4677 91.4356 51.313 91.0622 51.0376 90.7868C50.7623 90.5115 50.3888 90.3568 49.9994 90.3568C49.61 90.3568 49.2365 90.5115 48.9612 90.7868C48.6858 91.0622 48.5312 91.4356 48.5312 91.8251V94.7058C39.5264 94.1889 36.4562 88.9414 35.5812 84.08L37.5736 83.3561ZM32.7944 85.0931C33.8325 89.9266 37.4547 97.6981 49.9994 97.6981C62.5442 97.6981 66.1664 89.9251 67.2044 85.0931L73.9731 87.551C75.8706 88.2472 77.4733 89.5707 78.5158 91.3024L84.1128 100.635H72.0232V97.6981C72.0232 97.3087 71.8685 96.9352 71.5932 96.6599C71.3178 96.3845 70.9444 96.2298 70.555 96.2298C70.1656 96.2298 69.7921 96.3845 69.5168 96.6599C69.2414 96.9352 69.0867 97.3087 69.0867 97.6981V100.635H30.9121V97.6981C30.9121 97.3087 30.7574 96.9352 30.4821 96.6599C30.2067 96.3845 29.8333 96.2298 29.4439 96.2298C29.0545 96.2298 28.681 96.3845 28.4056 96.6599C28.1303 96.9352 27.9756 97.3087 27.9756 97.6981V100.635H15.886L21.4815 91.3038C22.5238 89.5721 24.1267 88.2485 26.0243 87.5524L32.7944 85.0931Z" fill="#161335"/>
</g>
</g>
<defs>
<clipPath id="clip0_21_244">
<rect width="88.0953" height="88.0953" fill="white" transform="translate(5.95178 15.4758)"/>
</clipPath>
</defs>
</svg>
