<svg width="54" height="66" viewBox="0 0 54 66" fill="none" xmlns="http://www.w3.org/2000/svg">
<g style="mix-blend-mode:luminosity" opacity="0.27">
<path d="M31.0218 27.5719C29.7088 24.4438 28.0482 22.5901 26.1945 21.0453C23.4912 18.8055 19.2432 15.1367 17.0805 12.8582C15.4586 11.159 12.4463 9.61421 8.97063 10.1935C8.42997 8.10808 7.54174 6.0999 6.30595 4.32344C8.42997 6.37023 11.2491 7.72189 14.4159 7.9536C18.0846 8.22393 21.4831 6.94951 24.0319 4.67101C21.8692 2.04494 18.6639 0.307093 14.9951 0.036762C11.4036 -0.233569 8.00517 1.00223 5.49496 3.24212C4.56811 2.08356 3.48679 1.04085 2.251 0.152619L1.20829 1.62013C4.25916 3.86002 6.38319 7.06537 7.27141 10.7341L6.26733 11.159C2.86889 12.974 1.51725 16.4111 1.47863 18.8827C1.40139 22.0108 0.706254 27.5719 0.204212 31.0476C-0.143355 33.4806 -0.143355 35.9136 0.976584 39.1189C3.9116 47.5378 13.5662 51.8631 21.8306 48.6964C21.8692 48.6964 21.8692 48.6577 21.9079 48.6577C21.9465 48.6577 21.9851 48.6191 21.9851 48.6191C30.2109 45.4524 34.4975 35.7591 31.0218 27.5719Z" fill="url(#paint0_linear_36_535)"/>
<path d="M51.5283 40.9338C52.9572 38.5008 52.1462 35.3727 49.7132 33.9439C48.516 33.2487 47.1644 33.0942 45.9286 33.4032L17.7371 49.7389C15.3427 53.8324 16.6944 59.0846 20.7879 61.4789C23.2595 62.9078 26.1559 62.9851 28.5889 61.9037C28.8978 63.1009 29.6702 64.1436 30.8287 64.8001C33.1459 66.1518 36.1195 65.3794 37.4711 63.0623C37.9346 62.2513 38.1663 61.3631 38.1277 60.5135C42.5302 61.0155 47.0099 58.9687 49.4043 54.9138C51.6441 51.0905 51.4124 46.4949 49.2112 43.0192C50.0994 42.633 50.949 41.8993 51.5283 40.9338Z" fill="url(#paint1_linear_36_535)"/>
<path fill-rule="evenodd" clip-rule="evenodd" d="M39.2475 5.40479C47.396 5.40479 53.9998 12.0086 53.9998 20.1572C53.9998 28.3057 47.396 34.9095 39.2475 34.9095C31.099 34.9095 24.4953 28.3057 24.4953 20.1572C24.4953 12.0086 31.099 5.40479 39.2475 5.40479Z" fill="url(#paint2_linear_36_535)"/>
<path d="M39.2863 16.4496C29.9406 12.2015 18.2777 23.092 14.3773 31.1246C10.4768 39.1573 13.8366 48.812 21.8693 52.7124C21.9079 52.7124 21.9465 52.7511 21.9851 52.7511C22.0237 52.7511 22.0624 52.7897 22.101 52.8283C30.1723 56.6129 39.7883 53.1372 43.5729 45.0273C47.3576 36.9174 48.1685 20.4659 39.2863 16.4496Z" fill="white"/>
<path d="M32.9528 28.7691C27.7779 26.4906 21.7534 28.8077 19.4749 33.944C17.1964 39.0802 19.5135 45.1434 24.6884 47.4219C29.8633 49.7004 35.8878 47.3832 38.1663 42.247C40.4062 37.0721 38.0891 31.0476 32.9528 28.7691ZM30.8288 30.391C30.7901 30.7 30.4812 30.9317 30.1723 30.8545C28.2413 30.5069 26.2718 30.9317 24.6498 32.0516C23.0278 33.1716 21.9465 34.8322 21.5989 36.8017C21.5603 37.0721 21.29 37.2652 21.0197 37.2652C20.981 37.2652 20.9424 37.2652 20.9038 37.2652C20.5949 37.2265 20.3631 36.9176 20.4404 36.6086C20.8652 34.3688 22.101 32.4378 23.9933 31.1248C25.8856 29.8504 28.1255 29.3483 30.3653 29.7731C30.6743 29.7731 30.8674 30.0435 30.8288 30.391Z" fill="#F5B432"/>
</g>
<defs>
<linearGradient id="paint0_linear_36_535" x1="43.5208" y1="40.7599" x2="14.4567" y2="24.7404" gradientUnits="userSpaceOnUse">
<stop stop-color="#4B964B"/>
<stop offset="1" stop-color="#96BE5A"/>
</linearGradient>
<linearGradient id="paint1_linear_36_535" x1="32.2978" y1="41.9266" x2="36.8176" y2="52.0533" gradientUnits="userSpaceOnUse">
<stop stop-color="#2D6E2D"/>
<stop offset="1" stop-color="#4B964B"/>
</linearGradient>
<linearGradient id="paint2_linear_36_535" x1="30.2758" y1="35.0458" x2="44.6936" y2="11.0737" gradientUnits="userSpaceOnUse">
<stop offset="0.1287" stop-color="#BE3237"/>
<stop offset="0.9959" stop-color="#E65555"/>
</linearGradient>
</defs>
</svg>
