<svg width="290" height="82" viewBox="0 0 290 82" fill="none" xmlns="http://www.w3.org/2000/svg">
<path d="M115.625 76.179H114.525L110.266 72.2072V76.179H109.452V68.0919H110.266V71.7766L114.333 68.0919H115.482L111.127 71.968L115.625 76.179Z" fill="#57504C"/>
<path d="M128.115 67.9484C129.311 67.9484 130.268 68.379 130.986 69.1925C131.704 70.0539 132.087 71.0109 132.087 72.1594C132.087 72.2073 132.087 72.2551 132.087 72.3508C132.087 72.4465 132.087 72.4944 132.087 72.5422H124.765C124.861 73.4514 125.244 74.1692 125.866 74.7434C126.488 75.3177 127.254 75.5569 128.211 75.5569C128.833 75.5569 129.407 75.4134 129.885 75.1741C130.364 74.887 130.747 74.552 130.986 74.1214L131.704 74.552C131.369 75.1263 130.89 75.5569 130.268 75.8919C129.646 76.2269 128.976 76.3704 128.163 76.3704C126.919 76.3704 125.914 75.9876 125.1 75.1741C124.287 74.3606 123.904 73.3557 123.904 72.1594C123.904 70.9631 124.287 69.9582 125.052 69.1447C125.866 68.3312 126.871 67.9484 128.115 67.9484ZM128.115 68.714C127.206 68.714 126.44 69.0011 125.818 69.5754C125.196 70.1496 124.861 70.8674 124.765 71.7766H131.273C131.177 70.8195 130.842 70.0539 130.268 69.5275C129.646 69.0011 128.928 68.714 128.115 68.714Z" fill="#57504C"/>
<path d="M147.4 68.1398V68.9533H144.481V76.2269H143.667V68.9533H140.748V68.1398H147.4Z" fill="#57504C"/>
<path d="M160.272 76.3704C159.076 76.3704 158.071 75.9876 157.257 75.1741C156.444 74.3606 156.013 73.3557 156.013 72.1594C156.013 70.9631 156.444 69.9582 157.257 69.1447C158.071 68.3312 159.076 67.9484 160.272 67.9484C161.42 67.9484 162.425 68.3312 163.287 69.1447C164.1 69.9582 164.531 70.9631 164.531 72.1594C164.531 73.3557 164.1 74.3606 163.287 75.1741C162.425 75.9876 161.468 76.3704 160.272 76.3704ZM157.831 74.5999C158.501 75.2698 159.315 75.6048 160.272 75.6048C161.229 75.6048 162.042 75.2698 162.712 74.5999C163.382 73.9299 163.717 73.1165 163.717 72.1594C163.717 71.2024 163.382 70.3889 162.712 69.7189C162.042 69.049 161.229 68.714 160.272 68.714C159.315 68.714 158.501 69.049 157.831 69.7189C157.161 70.3889 156.826 71.2024 156.826 72.1594C156.874 73.1165 157.209 73.9299 157.831 74.5999Z" fill="#57504C"/>
<path d="M174.675 72.5422V71.7766H180.466V72.5422H174.675Z" fill="#57504C"/>
<path d="M197.31 75.4134H198.458V78.3802H197.645V76.2269H190.658V78.3802H189.845V75.4134H190.802C191.376 74.5999 191.711 73.5471 191.711 72.1594V68.1398H197.357V75.4134H197.31ZM191.759 75.4134H196.496V68.9054H192.476V72.1594C192.476 73.4993 192.237 74.552 191.759 75.4134Z" fill="#57504C"/>
<path d="M214.249 68.1398H214.967V76.2269H214.154V69.5754L209.034 76.2269H208.316V68.1398H209.129V74.7913L214.249 68.1398Z" fill="#57504C"/>
<path d="M229.132 67.9484C230.328 67.9484 231.285 68.379 232.003 69.1925C232.721 70.006 233.103 71.0109 233.103 72.1594C233.103 72.2073 233.103 72.2551 233.103 72.3508C233.103 72.4465 233.103 72.4944 233.103 72.5422H225.782C225.878 73.4514 226.261 74.1692 226.883 74.7434C227.505 75.3177 228.27 75.5569 229.227 75.5569C229.849 75.5569 230.424 75.4134 230.902 75.1741C231.381 74.887 231.764 74.552 232.003 74.1214L232.721 74.552C232.386 75.1263 231.907 75.5569 231.285 75.8919C230.663 76.2269 229.993 76.3704 229.18 76.3704C227.935 76.3704 226.93 75.9876 226.117 75.1741C225.303 74.3606 224.921 73.3557 224.921 72.1594C224.921 70.9631 225.303 69.9582 226.069 69.1447C226.93 68.3312 227.935 67.9484 229.132 67.9484ZM229.132 68.714C228.222 68.714 227.457 69.0011 226.835 69.5754C226.213 70.1496 225.878 70.8674 225.782 71.7766H232.29C232.194 70.8195 231.859 70.0539 231.285 69.5275C230.663 69.0011 229.945 68.714 229.132 68.714Z" fill="#57504C"/>
<path d="M248.416 68.1398V68.9533H245.497V76.2269H244.684V68.9533H241.765V68.1398H248.416Z" fill="#57504C"/>
<path d="M264.686 68.1398H265.5V76.2269H264.686V74.4085C264.351 75.0306 263.873 75.5091 263.25 75.8919C262.628 76.2269 261.958 76.4183 261.193 76.4183C260.044 76.4183 259.039 76.0355 258.226 75.222C257.412 74.4085 256.982 73.4036 256.982 72.2072C256.982 71.0109 257.412 70.006 258.226 69.1925C259.039 68.379 260.044 67.9962 261.193 67.9962C261.958 67.9962 262.628 68.1876 263.25 68.5226C263.873 68.8576 264.303 69.3839 264.686 70.006V68.1398ZM258.896 74.5999C259.566 75.2698 260.379 75.6048 261.336 75.6048C262.293 75.6048 263.107 75.2698 263.777 74.5999C264.447 73.9299 264.782 73.1165 264.782 72.1594C264.782 71.2024 264.447 70.3889 263.777 69.7189C263.107 69.049 262.293 68.714 261.336 68.714C260.379 68.714 259.566 69.049 258.896 69.7189C258.226 70.3889 257.891 71.2024 257.891 72.1594C257.891 73.1165 258.226 73.9299 258.896 74.5999Z" fill="#57504C"/>
<path d="M151.85 28.7092C148.5 28.7092 146.06 30.3362 144.528 32.4896C143.428 30.6712 140.796 28.7092 137.781 28.7092C135.58 28.7092 133.092 29.6184 131.465 31.6282V29.1399H127.158V52.157H131.656V38.0883C131.656 35.1693 133.857 33.016 136.728 33.016C139.552 33.016 141.801 35.3607 141.801 37.9448V52.157H146.299V37.8491C146.299 35.4564 148.548 33.016 151.371 33.016C154.195 33.016 156.444 35.3129 156.444 37.9448V52.157H160.942V37.7055C160.846 32.4896 156.492 28.7092 151.85 28.7092ZM118.257 52.2048H122.756V29.1878H118.257V52.2048ZM109.405 52.2048H113.903V19.5694H109.405V52.2048ZM120.506 19.9044C118.927 19.9044 117.683 21.1964 117.683 22.7277C117.683 24.3068 118.975 25.5988 120.506 25.5988C122.086 25.5988 123.378 24.3068 123.378 22.7277C123.378 21.1964 122.086 19.9044 120.506 19.9044ZM94.2833 34.6908C89.4024 34.1644 86.9619 32.7289 86.9619 30.3362C86.9619 27.8 89.5938 25.9816 93.3741 25.9816C97.6809 25.9816 100.648 28.0393 100.791 31.1019H105.385C105.05 25.4553 100.217 21.6749 93.2784 21.6749C86.914 21.6749 82.2245 25.4074 82.2245 30.3362C82.2245 32.8724 83.2294 34.9301 85.2392 36.4135C87.1055 37.8012 89.7852 38.6626 93.3741 39.0454C99.0207 39.6196 101.509 41.103 101.509 43.8785C101.509 46.0318 99.2121 48.2331 94.0441 48.2331C89.211 48.2331 86.1006 46.0797 85.9091 42.6822H81.3153C81.6503 48.7594 86.6269 52.5398 94.2355 52.5398C101.174 52.5398 106.055 48.8551 106.055 43.5914C106.151 38.4233 102.37 35.6 94.2833 34.6908ZM177.02 35.7914C171.661 35.2172 168.981 33.4945 168.981 30.6712C168.981 27.6565 171.948 25.5988 176.207 25.5988C180.657 25.5988 183.863 27.6565 184.39 30.8147H187.691C187.021 25.8381 182.475 22.5363 176.111 22.5363C170.034 22.5363 165.44 26.0295 165.44 30.6712C165.44 33.0638 166.397 34.9301 168.263 36.3178C170.082 37.6577 172.809 38.519 176.302 38.9018C180.466 39.3325 185.203 40.3374 185.203 44.5006C185.203 47.0367 182.667 49.6208 176.925 49.6208C171.9 49.6208 168.55 47.4674 168.024 43.9742H164.722C165.392 49.3815 170.082 52.6833 177.164 52.6833C183.863 52.6833 188.505 49.1901 188.505 44.2613C188.505 39.3325 184.868 36.6528 177.02 35.7914ZM236.644 33.3988C234.539 31.1497 231.572 29.7141 228.222 29.7141C221.906 29.7141 216.738 34.8344 216.738 41.1987C216.738 47.5153 221.858 52.6833 228.222 52.6833C231.572 52.6833 234.539 51.2478 236.644 48.9987V52.2527H239.707V30.1448H236.644V33.3988ZM228.222 49.6208C223.581 49.6208 219.8 45.8404 219.8 41.1987C219.8 36.557 223.581 32.7767 228.222 32.7767C232.864 32.7767 236.644 36.557 236.644 41.1987C236.644 45.8404 232.912 49.6208 228.222 49.6208ZM202.621 29.7141C199.272 29.7141 196.305 31.1497 194.199 33.3988V30.1448H191.185V58.9999H194.247V48.9508C196.353 51.1999 199.32 52.6355 202.669 52.6355C208.986 52.6355 214.154 47.5153 214.154 41.1509C214.106 34.8822 208.938 29.7141 202.621 29.7141ZM202.621 49.6208C197.98 49.6208 194.199 45.8404 194.199 41.1987C194.199 36.557 197.98 32.7767 202.621 32.7767C207.263 32.7767 211.043 36.557 211.043 41.1987C211.043 45.8404 207.263 49.6208 202.621 49.6208ZM290 41.1987C290 34.8822 284.88 29.7141 278.515 29.7141C272.151 29.7141 267.031 34.8344 267.031 41.1987C267.031 47.5153 272.151 52.6833 278.515 52.6833C283.301 52.6833 287.416 49.7165 289.139 45.5533H285.741C284.258 47.9938 281.578 49.6686 278.515 49.6686C274.352 49.6686 270.907 46.6539 270.237 42.6822H289.904C289.952 42.1558 290 41.6773 290 41.1987ZM270.237 39.7632C270.907 35.7914 274.352 32.7767 278.515 32.7767C282.679 32.7767 286.124 35.7914 286.794 39.7632H270.237ZM253.871 32.7767C257.269 32.7767 260.188 34.7865 261.528 37.7055H264.782C263.298 33.0638 258.992 29.7141 253.871 29.7141C247.555 29.7141 242.387 34.8344 242.387 41.1987C242.387 47.5153 247.507 52.6833 253.871 52.6833C258.992 52.6833 263.298 49.3337 264.782 44.692H261.528C260.188 47.611 257.269 49.6208 253.871 49.6208C249.23 49.6208 245.449 45.8404 245.449 41.1987C245.449 36.557 249.182 32.7767 253.871 32.7767Z" fill="#55504B"/>
<path d="M38.4393 34.1645C36.8123 30.2884 34.7547 27.9915 32.4578 26.0774C29.1081 23.3019 23.8443 18.7559 21.1646 15.9326C19.1548 13.8271 15.4223 11.913 11.1156 12.6308C10.4456 10.0468 9.34502 7.55842 7.81374 5.3572C10.4456 7.89339 13.9389 9.56823 17.8628 9.85535C22.4087 10.1903 26.6198 8.61118 29.778 5.78787C27.0983 2.53389 23.1265 0.380521 18.5805 0.0455519C14.1303 -0.289417 9.91924 1.24187 6.80883 4.01733C5.66037 2.58175 4.3205 1.28972 2.78922 0.189111L1.4972 2.00751C5.27755 4.78297 7.90944 8.75474 9.01005 13.3007L7.76588 13.8271C3.55486 16.0762 1.88003 20.3351 1.83217 23.3977C1.73647 27.2737 0.875123 34.1645 0.25304 38.4713C-0.177632 41.486 -0.177632 44.5007 1.21009 48.4725C4.84688 58.9043 16.81 64.2638 27.0504 60.3399C27.0983 60.3399 27.0983 60.2921 27.1461 60.2921C27.194 60.2921 27.2418 60.2442 27.2418 60.2442C37.4344 56.3203 42.7461 44.3093 38.4393 34.1645Z" fill="url(#paint0_linear_20_75)"/>
<path d="M63.849 50.7215C65.6195 47.7068 64.6147 43.8307 61.5999 42.0602C60.1165 41.1988 58.4417 41.0074 56.9104 41.3902L21.9781 61.6319C19.0113 66.7042 20.6861 73.2122 25.7585 76.179C28.821 77.9496 32.4099 78.0453 35.4247 76.7054C35.8075 78.1888 36.7645 79.4809 38.2001 80.2943C41.0712 81.9692 44.7559 81.0121 46.4307 78.141C47.0049 77.1361 47.2921 76.0355 47.2442 74.9827C52.6994 75.6048 58.2503 73.0686 61.2171 68.0441C63.9926 63.3067 63.7055 57.6122 60.9779 53.3055C62.0785 52.827 63.1312 51.9178 63.849 50.7215Z" fill="url(#paint1_linear_20_75)"/>
<path fill-rule="evenodd" clip-rule="evenodd" d="M48.6318 6.69705C58.7287 6.69705 66.9115 14.8799 66.9115 24.9768C66.9115 35.0737 58.7287 43.2565 48.6318 43.2565C38.535 43.2565 30.3522 35.0737 30.3522 24.9768C30.3522 14.8799 38.535 6.69705 48.6318 6.69705Z" fill="url(#paint2_linear_20_75)"/>
<path d="M48.6798 20.3829C37.0995 15.1191 22.648 28.6135 17.8149 38.5668C12.9818 48.5202 17.145 60.4833 27.0983 65.3164C27.1462 65.3164 27.194 65.3643 27.2419 65.3643C27.2897 65.3643 27.3376 65.4121 27.3854 65.46C37.3866 70.1495 49.3019 65.8428 53.9914 55.7938C58.681 45.7447 59.6859 25.3595 48.6798 20.3829Z" fill="white"/>
<path d="M40.832 35.6478C34.4197 32.8245 26.9548 35.6957 24.1315 42.0601C21.3082 48.4244 24.1793 55.9373 30.5915 58.7606C37.0038 61.5839 44.4688 58.7127 47.2921 52.3484C50.0675 45.9361 47.1963 38.4711 40.832 35.6478ZM38.2001 37.6576C38.1522 38.0404 37.7694 38.3276 37.3866 38.2318C34.994 37.8012 32.5535 38.3275 30.5437 39.7153C28.5339 41.103 27.194 43.1607 26.7633 45.6011C26.7155 45.9361 26.3805 46.1754 26.0456 46.1754C25.9977 46.1754 25.9499 46.1754 25.902 46.1754C25.5192 46.1275 25.2321 45.7447 25.3278 45.3619C25.8541 42.5864 27.3854 40.1938 29.7302 38.5668C32.075 36.9877 34.8504 36.3656 37.6259 36.892C38.0087 36.892 38.2479 37.2269 38.2001 37.6576Z" fill="#F5B432"/>
<defs>
<linearGradient id="paint0_linear_20_75" x1="53.9269" y1="50.5058" x2="17.9134" y2="30.6559" gradientUnits="userSpaceOnUse">
<stop stop-color="#4B964B"/>
<stop offset="1" stop-color="#96BE5A"/>
</linearGradient>
<linearGradient id="paint1_linear_20_75" x1="40.0204" y1="51.9516" x2="45.621" y2="64.4997" gradientUnits="userSpaceOnUse">
<stop stop-color="#2D6E2D"/>
<stop offset="1" stop-color="#4B964B"/>
</linearGradient>
<linearGradient id="paint2_linear_20_75" x1="37.515" y1="43.4254" x2="55.3801" y2="13.7214" gradientUnits="userSpaceOnUse">
<stop offset="0.1287" stop-color="#BE3237"/>
<stop offset="0.9959" stop-color="#E65555"/>
</linearGradient>
</defs>
</svg>
