<svg width="66" height="22" viewBox="0 0 66 22" fill="none" xmlns="http://www.w3.org/2000/svg">
<g clip-path="url(#clip0_36_484)">
<path d="M28.3349 21.2084H23.038L26.351 0.7229H31.6477L28.3349 21.2084Z" fill="#00579F"/>
<path d="M47.5366 1.22371C46.4918 0.809217 44.8347 0.351562 42.7857 0.351562C37.5548 0.351562 33.8713 3.14094 33.8487 7.1289C33.8053 10.0712 36.486 11.7054 38.491 12.6865C40.5403 13.689 41.2369 14.3433 41.2369 15.2369C41.2161 16.6093 39.581 17.2419 38.0559 17.2419C35.9412 17.2419 34.808 16.9158 33.0861 16.1522L32.3886 15.8249L31.6473 20.4235C32.8897 20.9895 35.1785 21.4917 37.5548 21.5137C43.1127 21.5137 46.7311 18.7675 46.774 14.5177C46.7951 12.1857 45.3796 10.3988 42.3278 8.93866C40.4751 8.00134 39.3406 7.36932 39.3406 6.41027C39.3623 5.53841 40.3002 4.6454 42.3915 4.6454C44.1135 4.60167 45.3787 5.01558 46.3372 5.42979L46.8163 5.64732L47.5366 1.22371Z" fill="#00579F"/>
<path d="M54.5767 13.9511C55.0129 12.7743 56.6914 8.21945 56.6914 8.21945C56.6694 8.26319 57.1268 7.02086 57.3883 6.2582L57.7585 8.02335C57.7585 8.02335 58.7616 12.9269 58.9794 13.9511C58.1516 13.9511 55.6229 13.9511 54.5767 13.9511ZM61.115 0.7229H57.0179C55.7544 0.7229 54.7945 1.09308 54.2494 2.42259L46.3815 21.2081H51.9394C51.9394 21.2081 52.8544 18.6797 53.0511 18.1352C53.6608 18.1352 59.0675 18.1352 59.8519 18.1352C60.0039 18.8544 60.4839 21.2081 60.4839 21.2081H65.3883L61.115 0.7229Z" fill="#00579F"/>
<path d="M18.6137 0.7229L13.4263 14.6921L12.8595 11.859C11.9004 8.58992 8.89265 5.03817 5.53613 3.27215L10.2876 21.1867H15.889L24.2148 0.7229H18.6137Z" fill="#00579F"/>
<path d="M8.6094 0.7229H0.0871856L0 1.13682C6.64786 2.8368 11.0506 6.93454 12.8595 11.8598L11.0069 2.4449C10.7019 1.13653 9.76454 0.766059 8.6094 0.7229Z" fill="#FAA61A"/>
</g>
<defs>
<clipPath id="clip0_36_484">
<rect width="65.3883" height="21.1622" fill="white" transform="translate(0 0.351562)"/>
</clipPath>
</defs>
</svg>
