<svg width="72" height="22" viewBox="0 0 72 22" fill="none" xmlns="http://www.w3.org/2000/svg">
<path d="M6.3595 2.42732H12.1791C12.7081 2.42732 14.2953 2.25096 15.0007 4.71988C15.5298 6.30704 16.2352 8.77596 17.2933 12.4793H17.646C18.7041 8.59961 19.5858 5.95434 19.9385 4.71988C20.644 2.25096 22.4075 2.42732 23.1129 2.42732H28.5798V19.357H22.9365V9.30502H22.5838L19.5858 19.357H15.3534L12.3554 9.30502H11.8264V19.357H6.3595M30.8723 2.42732H36.5156V12.4793H37.0446L40.748 4.19083C41.4534 2.60367 43.0406 2.42732 43.0406 2.42732H48.3311V19.357H42.6879V9.30502H42.3352L38.6318 17.5935C37.9264 19.1807 36.1629 19.357 36.1629 19.357H30.8723M55.9142 14.2429V19.357H50.6237V10.5395H67.9061C67.2007 12.6557 64.7318 14.2429 61.9102 14.2429" fill="#0F754E"/>
<path d="M68.2587 9.4813C68.9641 6.30698 66.8479 2.42725 62.2628 2.42725H50.2709C50.6236 6.13063 53.7979 9.4813 57.1486 9.4813" fill="url(#paint0_linear_36_480)"/>
<defs>
<linearGradient id="paint0_linear_36_480" x1="66.1425" y1="0.134678" x2="52.0344" y2="0.134678" gradientUnits="userSpaceOnUse">
<stop stop-color="#1F5CD7"/>
<stop offset="1" stop-color="#02AEFF"/>
</linearGradient>
</defs>
</svg>
