<svg width="38" height="29" viewBox="0 0 38 29" fill="none" xmlns="http://www.w3.org/2000/svg">
<g clip-path="url(#clip0_36_473)">
<path d="M7.17368 28.9364V27.0117C7.17368 26.2755 6.72522 25.7934 5.95538 25.7934C5.57045 25.7934 5.1519 25.9205 4.86414 26.3391C4.63991 25.9878 4.31852 25.7934 3.83643 25.7934C3.51504 25.7934 3.19365 25.8906 2.93953 26.2419V25.857H2.26685V28.9364H2.93953V27.236C2.93953 26.6903 3.22728 26.4325 3.67574 26.4325C4.12419 26.4325 4.34842 26.7202 4.34842 27.236V28.9364H5.0211V27.236C5.0211 26.6903 5.34249 26.4325 5.75731 26.4325C6.20576 26.4325 6.42999 26.7202 6.42999 27.236V28.9364H7.17368ZM17.1518 25.857H16.0605V24.9264H15.3878V25.857H14.7787V26.4661H15.3878V27.8787C15.3878 28.5851 15.6756 28.9999 16.4455 28.9999C16.7332 28.9999 17.0546 28.9027 17.2788 28.7757L17.0845 28.1964C16.8902 28.3235 16.6659 28.3571 16.5052 28.3571C16.1839 28.3571 16.0568 28.1628 16.0568 27.8451V26.4661H17.148V25.857H17.1518ZM22.8621 25.7897C22.4772 25.7897 22.2193 25.984 22.0586 26.2382V25.8532H21.3859V28.9326H22.0586V27.1986C22.0586 26.6866 22.2828 26.3951 22.7014 26.3951C22.8284 26.3951 22.9891 26.4287 23.1199 26.4586L23.3143 25.8159C23.1797 25.7897 22.9891 25.7897 22.8621 25.7897ZM14.2331 26.1111C13.9117 25.8869 13.4632 25.7897 12.9811 25.7897C12.2113 25.7897 11.6993 26.1746 11.6993 26.7838C11.6993 27.2958 12.0842 27.5873 12.7569 27.6807L13.0783 27.7143C13.4296 27.7778 13.6239 27.875 13.6239 28.0357C13.6239 28.2599 13.3661 28.4206 12.9176 28.4206C12.4692 28.4206 12.1141 28.2599 11.8899 28.0992L11.5685 28.6112C11.9198 28.8691 12.4019 28.9961 12.884 28.9961C13.7809 28.9961 14.2966 28.5776 14.2966 28.0021C14.2966 27.4565 13.8781 27.1687 13.239 27.0715L12.9176 27.0379C12.6299 27.0043 12.4056 26.9407 12.4056 26.7501C12.4056 26.5259 12.6299 26.3989 12.9849 26.3989C13.3698 26.3989 13.7547 26.5595 13.9491 26.6567L14.2331 26.1111ZM32.1301 25.7897C31.7452 25.7897 31.4873 25.984 31.3266 26.2382V25.8532H30.654V28.9326H31.3266V27.1986C31.3266 26.6866 31.5509 26.3951 31.9694 26.3951C32.0965 26.3951 32.2572 26.4287 32.388 26.4586L32.5823 25.8233C32.4515 25.7897 32.2609 25.7897 32.1301 25.7897ZM23.5348 27.3967C23.5348 28.3272 24.1775 28.9999 25.1716 28.9999C25.6201 28.9999 25.9415 28.9027 26.2628 28.6486L25.9415 28.103C25.6836 28.2973 25.4295 28.3907 25.138 28.3907C24.5924 28.3907 24.2074 28.0058 24.2074 27.3967C24.2074 26.8174 24.5924 26.4325 25.138 26.4026C25.4257 26.4026 25.6836 26.4998 25.9415 26.6903L26.2628 26.1447C25.9415 25.8869 25.6201 25.7934 25.1716 25.7934C24.1775 25.7897 23.5348 26.4661 23.5348 27.3967ZM29.757 27.3967V25.857H29.0844V26.2419C28.8601 25.9541 28.5387 25.7934 28.1202 25.7934C27.2532 25.7934 26.5805 26.4661 26.5805 27.3967C26.5805 28.3272 27.2532 28.9999 28.1202 28.9999C28.5686 28.9999 28.89 28.8392 29.0844 28.5514V28.9364H29.757V27.3967ZM27.2868 27.3967C27.2868 26.851 27.6381 26.4026 28.2174 26.4026C28.763 26.4026 29.1479 26.8211 29.1479 27.3967C29.1479 27.9423 28.763 28.3907 28.2174 28.3907C27.6418 28.3571 27.2868 27.9385 27.2868 27.3967ZM19.2371 25.7897C18.3402 25.7897 17.6974 26.4325 17.6974 27.3929C17.6974 28.3571 18.3402 28.9961 19.2707 28.9961C19.7192 28.9961 20.1676 28.8691 20.5226 28.5776L20.2013 28.0955C19.9434 28.2898 19.622 28.4169 19.3043 28.4169C18.8858 28.4169 18.471 28.2226 18.3738 27.6807H20.6497C20.6497 27.5835 20.6497 27.52 20.6497 27.4228C20.6796 26.4325 20.1003 25.7897 19.2371 25.7897ZM19.2371 26.369C19.6556 26.369 19.9434 26.6268 20.0069 27.1052H18.4037C18.4672 26.6903 18.755 26.369 19.2371 26.369ZM35.9494 27.3967V24.6387H35.2768V26.2419C35.0525 25.9541 34.7311 25.7934 34.3126 25.7934C33.4456 25.7934 32.7729 26.4661 32.7729 27.3967C32.7729 28.3272 33.4456 28.9999 34.3126 28.9999C34.761 28.9999 35.0824 28.8392 35.2768 28.5514V28.9364H35.9494V27.3967ZM33.4792 27.3967C33.4792 26.851 33.8305 26.4026 34.4098 26.4026C34.9554 26.4026 35.3403 26.8211 35.3403 27.3967C35.3403 27.9423 34.9554 28.3907 34.4098 28.3907C33.8305 28.3571 33.4792 27.9385 33.4792 27.3967ZM10.9594 27.3967V25.857H10.2867V26.2419C10.0625 25.9541 9.74107 25.7934 9.32252 25.7934C8.4555 25.7934 7.78282 26.4661 7.78282 27.3967C7.78282 28.3272 8.4555 28.9999 9.32252 28.9999C9.77097 28.9999 10.0924 28.8392 10.2867 28.5514V28.9364H10.9594V27.3967ZM8.45924 27.3967C8.45924 26.851 8.81053 26.4026 9.38978 26.4026C9.9354 26.4026 10.3203 26.8211 10.3203 27.3967C10.3203 27.9423 9.9354 28.3907 9.38978 28.3907C8.81053 28.3571 8.45924 27.9385 8.45924 27.3967Z" fill="black"/>
<path d="M24.1141 2.47021H14.0089V20.6251H24.1141V2.47021Z" fill="#FF5A00"/>
<path d="M14.6815 11.5477C14.6815 7.85915 16.4156 4.58544 19.0764 2.47023C17.1181 0.930541 14.6479 0 11.9534 0C5.57045 0 0.405762 5.16469 0.405762 11.5477C0.405762 17.9307 5.57045 23.0954 11.9534 23.0954C14.6479 23.0954 17.1181 22.1648 19.0764 20.6251C16.4118 18.5398 14.6815 15.2362 14.6815 11.5477Z" fill="#EB001B"/>
<path d="M37.747 11.5477C37.747 17.9307 32.5823 23.0954 26.1994 23.0954C23.5049 23.0954 21.0347 22.1648 19.0764 20.6251C21.7709 18.5062 23.4713 15.2362 23.4713 11.5477C23.4713 7.85915 21.7372 4.58544 19.0764 2.47023C21.0309 0.930541 23.5012 0 26.1956 0C32.5823 0 37.747 5.19833 37.747 11.5477Z" fill="#F79E1B"/>
</g>
<defs>
<clipPath id="clip0_36_473">
<rect width="37.3412" height="29" fill="white" transform="translate(0.405762)"/>
</clipPath>
</defs>
</svg>
