<svg width="329" height="329" viewBox="0 0 329 329" fill="none" xmlns="http://www.w3.org/2000/svg">
<path d="M192.627 273.727C132.215 289.385 70.5477 253.105 54.8895 192.693C39.2314 132.281 75.5115 70.614 135.923 54.9558C196.335 39.2977 258.002 75.5778 273.661 135.99C289.319 196.402 253.039 258.069 192.627 273.727Z" fill="#D8E790"/>
<path d="M188.684 265.052L168.874 267.803L171.625 287.612L191.435 284.862L188.684 265.052Z" fill="#566D24"/>
<path d="M136.232 279.741L150.642 269.493L150.05 272.027L135.64 282.275L136.232 279.741ZM146.179 283.602L148.555 271.33L150.642 269.493L147.848 283.925L146.179 283.602ZM135.64 282.275L138.434 267.842L140.103 268.166L137.727 280.438L135.64 282.275Z" fill="#566D24"/>
<path d="M124.89 270.657L124.282 272.137L115.402 268.488L116.01 267.008L124.89 270.657ZM114.328 274.101L112.756 273.455L118.077 260.505L119.65 261.152L114.328 274.101ZM123.023 277.674L121.45 277.028L126.772 264.078L128.344 264.724L123.023 277.674Z" fill="#566D24"/>
<path d="M99.3417 262.079L108.279 255.74L109.775 256.741L97.1943 265.287L100.302 250.399L101.797 251.401L99.3417 262.079ZM100.719 249.956L110.025 256.187L111.249 254.359L112.496 255.193L110.382 258.351L98.582 250.451L100.696 247.294L101.942 248.128L100.719 249.956Z" fill="#566D24"/>
<path d="M75.751 243.519L93.4307 243.193L91.5117 244.95L73.832 245.276L75.751 243.519ZM81.7832 252.321L90.6711 243.531L93.4307 243.193L82.9785 253.53L81.7832 252.321ZM73.832 245.276L84.2842 234.94L85.4795 236.148L76.5916 244.938L73.832 245.276Z" fill="#566D24"/>
<path d="M71.3866 230.35L70.6095 230.879L69.338 229.011C69.0754 228.625 68.773 228.323 68.4307 228.104C68.0884 227.885 67.7304 227.774 67.3569 227.77C66.9833 227.767 66.6147 227.888 66.2509 228.136C65.6998 228.511 65.4067 228.993 65.3716 229.581C65.3255 230.177 65.5013 230.767 65.8988 231.351L66.9678 232.922L76.0617 226.733L74.8802 224.997C74.5426 224.501 74.1581 224.126 73.7267 223.871C73.2878 223.605 72.8317 223.48 72.3585 223.496C71.8778 223.5 71.4004 223.664 70.9264 223.986C70.5737 224.226 70.3008 224.501 70.1078 224.81C69.9147 225.118 69.8033 225.452 69.7734 225.811C69.736 226.159 69.7783 226.518 69.9002 226.886C70.011 227.262 70.1939 227.638 70.449 228.013L71.833 230.046L71.0559 230.575L69.6719 228.541C69.2893 227.979 68.9974 227.42 68.796 226.863C68.5947 226.307 68.5008 225.766 68.5143 225.241C68.5092 224.712 68.6321 224.217 68.8829 223.756C69.1336 223.295 69.5236 222.885 70.0527 222.525C70.8132 222.007 71.5671 221.752 72.3142 221.76C73.0428 221.764 73.7364 221.977 74.395 222.4C75.0351 222.819 75.6102 223.403 76.1203 224.153L78.2582 227.295L66.6842 235.171L64.6588 232.195C64.1862 231.501 63.8821 230.829 63.7464 230.179C63.6033 229.518 63.6491 228.899 63.884 228.319C64.1078 227.748 64.5504 227.237 65.2118 226.787C65.7519 226.419 66.3124 226.247 66.8932 226.271C67.4741 226.295 68.04 226.499 68.591 226.882C69.1345 227.254 69.6425 227.787 70.1151 228.482L71.3866 230.35Z" fill="#566D24"/>
<path d="M53.406 206.902L70.0402 212.901L67.6209 213.859L50.9867 207.86L53.406 206.902ZM55.9039 217.276L67.3413 212.233L70.0402 212.901L56.5897 218.832L55.9039 217.276ZM50.9867 207.86L64.4372 201.929L65.123 203.484L53.6856 208.528L50.9867 207.86Z" fill="#566D24"/>
<path d="M49.5196 188.846L60.3431 190.555L60.7136 192.317L45.7423 189.641L58.3672 181.161L58.7377 182.922L49.5196 188.846ZM58.975 181.135L61.2801 192.095L63.433 191.642L63.7418 193.11L60.0231 193.892L57.1005 179.996L60.8191 179.214L61.1279 180.682L58.975 181.135Z" fill="#566D24"/>
<path d="M43.6546 161.618L57.8033 167.872L57.8474 169.772L53.6668 168.068L43.9165 172.915L43.8678 170.816L53.1698 166.479L53.1144 167.541L43.6986 163.518L43.6546 161.618Z" fill="#566D24"/>
<path d="M54.268 151.153L52.779 150.315L53.73 144.188L55.4032 143.84L54.268 151.153ZM48.268 146.518L53.4002 149.703L53.7314 149.916L58.2741 152.726L57.9827 154.604L44.4537 145.926L59.9768 141.757L59.6854 143.635L54.6292 144.914L54.2094 145.011L48.268 146.518Z" fill="#566D24"/>
<path d="M52.2525 119.638L65.457 124.29L64.8922 125.893L53.1967 121.773L51.1366 127.621L58.3048 130.146C59.1096 130.43 59.8136 130.819 60.4166 131.314C61.0241 131.797 61.449 132.357 61.6912 132.993C61.9379 133.617 61.9349 134.288 61.6824 135.005L60.3053 134.519C60.4072 134.23 60.4078 133.948 60.3071 133.672C60.2063 133.396 60.0253 133.127 59.7641 132.866C59.4903 132.6 59.1529 132.353 58.7519 132.127C58.3509 131.901 57.8989 131.7 57.3959 131.522L49.0959 128.598L52.2525 119.638Z" fill="#566D24"/>
<path d="M57.2659 108.838L58.0904 107.351L70.3336 114.141L69.5091 115.628L57.2659 108.838ZM64.0183 111.508L62.6191 110.732L64.0061 108.231C64.4459 107.438 64.9887 106.816 65.6346 106.367C66.2753 105.899 66.9699 105.636 67.7184 105.578C68.4733 105.509 69.2298 105.685 69.9877 106.105C70.7339 106.519 71.2834 107.068 71.6362 107.751C71.9838 108.416 72.1345 109.148 72.0885 109.946C72.0373 110.725 71.7918 111.512 71.3521 112.305L69.965 114.806L68.5658 114.03L69.9529 111.529C70.2439 111.004 70.4177 110.498 70.4743 110.011C70.5257 109.506 70.4438 109.049 70.2285 108.64C70.0197 108.219 69.6646 107.87 69.1632 107.592C68.6618 107.314 68.1774 107.197 67.7099 107.243C67.2489 107.277 66.8236 107.453 66.434 107.77C66.0392 108.07 65.6964 108.482 65.4054 109.007L64.0183 111.508Z" fill="#566D24"/>
<path d="M73.7892 96.0333L72.5461 95.026L78.5899 87.5673L79.833 88.5746L73.7892 96.0333ZM73.5213 84.9274L74.5916 83.6066L85.4689 92.4205L84.3986 93.7413L73.5213 84.9274ZM67.6034 92.2308L68.6737 90.91L79.551 99.7238L78.4807 101.045L67.6034 92.2308Z" fill="#566D24"/>
<path d="M90.5716 68.891L91.8816 67.8075L100.804 78.5959L99.4941 79.6794L90.5716 68.891ZM82.5573 75.5191L83.8674 74.4357L92.7899 85.2241L91.4799 86.3075L82.5573 75.5191ZM87.8704 80.4684L86.8507 79.2354L89.0546 77.4127C89.7533 76.8348 90.4854 76.4543 91.2509 76.2711C92.0181 76.069 92.7607 76.0778 93.4786 76.2973C94.2068 76.5082 94.8471 76.9477 95.3994 77.6155C95.9433 78.2731 96.2547 78.9844 96.3338 79.7495C96.4147 80.4959 96.2882 81.232 95.9543 81.9581C95.6222 82.6653 95.1068 83.3078 94.4081 83.8857L92.2042 85.7084L91.1845 84.4755L93.3884 82.6527C93.8508 82.2703 94.1971 81.8628 94.4275 81.43C94.6596 80.9785 94.7501 80.523 94.6989 80.0636C94.658 79.5956 94.4548 79.1408 94.0894 78.699C93.724 78.2572 93.3153 77.9722 92.8634 77.8442C92.4218 77.7077 91.9617 77.7163 91.4831 77.8698C91.0063 78.0046 90.5367 78.2632 90.0743 78.6456L87.8704 80.4684Z" fill="#566D24"/>
<path d="M113.901 56.8042L109.059 73.8112L107.938 71.4633L112.78 54.4564L113.901 56.8042ZM103.723 60.0088L109.54 71.0728L109.059 73.8112L102.218 60.7999L103.723 60.0088ZM112.78 54.4564L119.621 67.4676L118.116 68.2587L112.299 57.1947L112.78 54.4564ZM103.444 55.5235L104.701 54.8627C104.781 55.0161 104.919 55.1773 105.113 55.3463C105.301 55.5035 105.551 55.6058 105.862 55.6531C106.167 55.6886 106.526 55.5978 106.939 55.3807C107.352 55.1635 107.63 54.9192 107.774 54.6479C107.911 54.3648 107.968 54.1012 107.946 53.8572C107.916 53.6013 107.862 53.3967 107.781 53.2432L109.038 52.5824C109.249 52.9837 109.35 53.4349 109.343 53.936C109.341 54.4192 109.198 54.8932 108.915 55.3582C108.627 55.8114 108.169 56.2025 107.544 56.5313C106.93 56.854 106.349 57.009 105.8 56.9963C105.257 56.9656 104.779 56.8173 104.368 56.5514C103.963 56.2674 103.655 55.9248 103.444 55.5235Z" fill="#566D24"/>
<path d="M137.864 64.1324L157.618 61.0012L154.486 41.2478L134.733 44.3791L137.864 64.1324Z" fill="#566D24"/>
<path d="M183.733 48.5955L178.132 58.0133L176.359 57.7041L184.396 44.7928L187.589 59.6624L185.816 59.3532L183.733 48.5955ZM187.388 60.2363L176.354 58.3123L175.976 60.4796L174.499 60.222L175.151 56.4785L189.14 58.9178L188.488 62.6613L187.01 62.4036L187.388 60.2363Z" fill="#566D24"/>
<path d="M201.358 57.1838L201.939 55.693L210.883 59.1791L210.302 60.6699L201.358 57.1838ZM211.855 53.5474L213.439 54.1648L208.355 67.2091L206.771 66.5918L211.855 53.5474ZM203.097 50.134L204.68 50.7513L199.597 63.7956L198.013 63.1783L203.097 50.134Z" fill="#566D24"/>
<path d="M217.844 72.2618L218.681 70.8977L224.7 74.5876L223.863 75.9517L217.844 72.2618ZM224.325 61.6902L225.161 60.3261L231.18 64.016L230.344 65.3801L224.325 61.6902ZM221.398 66.4645L222.235 65.1004L227.913 68.5813L227.076 69.9453L221.398 66.4645ZM224.36 59.8348L225.809 60.7234L218.492 72.659L217.043 71.7705L224.36 59.8348Z" fill="#566D24"/>
<path d="M236.155 75.9322L236.766 75.2173L238.484 76.6845C238.839 76.9875 239.211 77.1993 239.599 77.32C239.986 77.4407 240.361 77.4536 240.722 77.3589C241.084 77.2641 241.407 77.0494 241.693 76.7148C242.126 76.2077 242.282 75.6658 242.16 75.089C242.048 74.5021 241.723 73.9792 241.185 73.5204L239.74 72.2869L232.599 80.6534L234.196 82.0168C234.652 82.4064 235.122 82.6672 235.605 82.7992C236.099 82.9399 236.572 82.9404 237.024 82.8006C237.487 82.6695 237.904 82.3859 238.276 81.9498C238.553 81.6253 238.744 81.2887 238.849 80.9399C238.954 80.5912 238.973 80.2397 238.908 79.8855C238.852 79.54 238.717 79.2055 238.502 78.882C238.296 78.5483 238.021 78.2343 237.676 77.94L235.805 76.3429L236.415 75.628L238.286 77.2251C238.803 77.6665 239.232 78.1292 239.573 78.613C239.914 79.0967 240.147 79.5937 240.273 80.104C240.417 80.6128 240.429 81.1225 240.308 81.6333C240.188 82.144 239.92 82.6428 239.504 83.1296C238.907 83.8293 238.247 84.274 237.524 84.4635C236.82 84.6515 236.095 84.6284 235.348 84.3942C234.62 84.1585 233.912 83.7463 233.222 83.1577L230.332 80.6906L239.421 70.0423L242.159 72.3795C242.798 72.9249 243.268 73.493 243.57 74.0839C243.883 74.6834 244.002 75.2935 243.928 75.914C243.863 76.5245 243.57 77.1339 243.051 77.7424C242.627 78.2393 242.131 78.5527 241.565 78.6826C240.998 78.8125 240.398 78.7653 239.766 78.541C239.144 78.3253 238.513 77.9448 237.874 77.3995L236.155 75.9322Z" fill="#566D24"/>
<path d="M249.162 89.1381L250.399 88.123L256.49 95.5434L255.253 96.5585L249.162 89.1381ZM260.095 91.1093L261.174 92.4233L250.352 101.306L249.274 99.9916L260.095 91.1093ZM254.131 83.8434L255.21 85.1575L244.388 94.0398L243.31 92.7258L254.131 83.8434Z" fill="#566D24"/>
<path d="M271.444 113.224L254.418 108.447L256.762 107.317L273.787 112.094L271.444 113.224ZM268.2 103.059L257.159 108.918L254.418 108.447L267.403 101.557L268.2 103.059ZM273.787 112.094L260.802 118.984L260.005 117.483L271.047 111.624L273.787 112.094Z" fill="#566D24"/>
<path d="M277.986 124.173L278.488 125.797L265.113 129.933L264.611 128.309L277.986 124.173ZM280.113 131.051L280.734 133.057L272.676 129.206L267.447 137.48L266.827 135.474L272.029 127.25L280.113 131.051Z" fill="#566D24"/>
<path d="M283.242 167.05L283.152 159.35L270.753 159.496L270.733 157.796L284.732 157.632L284.862 168.731L270.863 168.895L270.843 167.196L283.242 167.05Z" fill="#566D24"/>
<path d="M279.711 192.199L269.463 177.789L271.997 178.381L282.244 192.792L279.711 192.199ZM283.572 182.252L271.3 179.876L269.463 177.789L283.895 180.583L283.572 182.252ZM282.244 192.792L267.812 189.998L268.136 188.329L280.408 190.704L282.244 192.792Z" fill="#566D24"/>
<path d="M277.069 202.329L278.562 202.905L275.361 211.209L273.868 210.634L275.163 207.275L263.593 202.814L264.204 201.228L275.774 205.688L277.069 202.329Z" fill="#566D24"/>
<path d="M261.636 217.191L262.706 218.524L259.543 223.856L257.861 223.556L261.636 217.191ZM265.48 223.727L261.902 218.86L261.674 218.539L258.504 214.24L259.473 212.606L268.799 225.696L252.84 223.787L253.81 222.153L258.979 222.847L259.404 222.914L265.48 223.727Z" fill="#566D24"/>
<path d="M251.784 236.44L252.981 237.501L246.616 244.687L245.418 243.626L251.784 236.44ZM251.564 247.547L250.437 248.819L239.957 239.537L241.084 238.264L251.564 247.547ZM257.797 240.51L256.669 241.783L246.189 232.5L247.316 231.227L257.797 240.51Z" fill="#566D24"/>
<path d="M231.275 262.397L233.307 244.831L234.793 246.967L232.761 264.533L231.275 262.397ZM240.802 257.59L233.274 247.611L233.307 244.831L242.159 256.566L240.802 257.59ZM232.761 264.533L223.909 252.797L225.266 251.773L232.794 261.753L232.761 264.533Z" fill="#566D24"/>
<path d="M213.935 266.324L215.132 258.005L217.009 257.063L215.634 265.472L213.935 266.324ZM214.884 273.792L208.607 261.278L210.126 260.516L216.404 273.029L214.884 273.792ZM215.052 272.029L217.608 270.747C218.145 270.478 218.574 270.143 218.895 269.743C219.205 269.349 219.389 268.914 219.448 268.437C219.495 267.966 219.39 267.474 219.133 266.961C218.876 266.449 218.544 266.071 218.138 265.827C217.721 265.589 217.261 265.476 216.761 265.489C216.248 265.507 215.723 265.651 215.187 265.92L212.631 267.203L211.958 265.862L214.514 264.58C215.313 264.179 216.109 263.966 216.902 263.941C217.701 263.928 218.431 264.106 219.094 264.475C219.75 264.862 220.27 265.436 220.652 266.199C221.041 266.974 221.191 267.734 221.103 268.479C221.002 269.231 220.705 269.917 220.211 270.538C219.723 271.17 219.079 271.687 218.281 272.088L215.725 273.37L215.052 272.029Z" fill="#566D24"/>
</svg>
